G04 DipTrace 3.2.0.1*
G04 Rev1.3.gts*
%MOIN*%
G04 #@! TF.FileFunction,Soldermask,Top*
G04 #@! TF.Part,Single*
%AMOUTLINE1*
4,1,4,
-0.005568,-0.02923,
-0.02923,-0.005568,
0.005568,0.02923,
0.02923,0.005568,
-0.005568,-0.02923,
0*%
%AMOUTLINE4*
4,1,4,
-0.02923,0.005568,
-0.005568,0.02923,
0.02923,-0.005568,
0.005568,-0.02923,
-0.02923,0.005568,
0*%
%AMOUTLINE7*
4,1,4,
-0.044542,-0.002783,
0.002783,0.044542,
0.044542,0.002783,
-0.002783,-0.044542,
-0.044542,-0.002783,
0*%
%AMOUTLINE10*
4,1,4,
0.002783,-0.044542,
-0.044542,0.002783,
-0.002783,0.044542,
0.044542,-0.002783,
0.002783,-0.044542,
0*%
%ADD38C,0.275591*%
%ADD43R,0.017717X0.026575*%
%ADD45R,0.026575X0.017717*%
%ADD49R,0.033465X0.049213*%
%ADD51R,0.03937X0.055118*%
%ADD53R,0.059055X0.066929*%
%ADD55R,0.031496X0.051181*%
%ADD57R,0.066929X0.059055*%
%ADD59C,0.066929*%
%ADD61R,0.066929X0.066929*%
%ADD63R,0.212598X0.212598*%
%ADD65O,0.041339X0.019685*%
%ADD67O,0.019685X0.041339*%
%ADD74OUTLINE1*%
%ADD77OUTLINE4*%
%ADD80OUTLINE7*%
%ADD83OUTLINE10*%
%FSLAX26Y26*%
G04*
G70*
G90*
G75*
G01*
G04 TopMask*
%LPD*%
D67*
X2382677Y2051428D3*
X2402362D3*
X2422047D3*
X2441732D3*
X2461417D3*
X2481102D3*
X2500787D3*
X2520472D3*
X2540157D3*
X2559843D3*
X2579528D3*
X2599213D3*
D65*
X2626772Y2078987D3*
Y2098672D3*
Y2118357D3*
Y2138042D3*
Y2157727D3*
Y2177412D3*
Y2197097D3*
Y2216782D3*
Y2236467D3*
Y2256152D3*
Y2275837D3*
Y2295522D3*
D67*
X2599213Y2323081D3*
X2579528D3*
X2559843D3*
X2540157D3*
X2520472D3*
X2500787D3*
X2481102D3*
X2461417D3*
X2441732D3*
X2422047D3*
X2402362D3*
X2382677Y2323087D3*
D65*
X2355118Y2295522D3*
Y2275837D3*
Y2256152D3*
Y2236467D3*
Y2216782D3*
Y2197097D3*
Y2177412D3*
Y2157727D3*
Y2138042D3*
Y2118357D3*
Y2098672D3*
Y2078987D3*
D63*
X2490945Y2187257D3*
D61*
X2813877Y2038958D3*
D59*
X2713877D3*
D57*
X2182693Y2357675D3*
Y2282871D3*
D55*
X1778824Y2359264D3*
X1816226D3*
X1853627D3*
Y2465563D3*
X1778824D3*
D53*
X1782580Y2262794D3*
X1857383D3*
D61*
X1757579Y2137795D3*
D59*
X1857579D3*
D51*
X1782579Y2562794D3*
X1853445D3*
D57*
X1957717Y2220189D3*
Y2145386D3*
X2095202Y2663892D3*
Y2738696D3*
X2013961Y2663892D3*
Y2738696D3*
D61*
X2372047Y3001969D3*
D59*
X2272047D3*
D74*
X1801181Y1742126D3*
X1748286Y1795020D3*
X1710705Y1704545D3*
D77*
X2923228Y1801181D3*
X2870335Y1748286D3*
X2960810Y1710705D3*
D74*
X2864173Y2903543D3*
X2917068Y2850650D3*
X2954650Y2941125D3*
D77*
X1742126Y2864173D3*
X1795020Y2917068D3*
X1704545Y2954650D3*
D61*
X2982283Y2175197D3*
D59*
Y2275197D3*
Y2375197D3*
Y2475197D3*
D53*
X2388921Y1938969D3*
X2463724D3*
X2282677Y2457677D3*
X2357480D3*
X2282677Y2538927D3*
X2357480D3*
D49*
X2051457Y2076454D3*
X2126260D3*
X2088858Y2167005D3*
D80*
X568701Y518701D3*
X515807Y571594D3*
D83*
X4143701Y568701D3*
X4090807Y515807D3*
D80*
X4093701Y4143701D3*
X4146594Y4090807D3*
D83*
X518701Y4106201D3*
X571594Y4159094D3*
D53*
X1957677Y1657677D3*
X1882874D3*
D57*
X3007677Y1920177D3*
Y1845374D3*
D53*
X2713928Y3001427D3*
X2788731D3*
D57*
X1663927Y2738928D3*
Y2813731D3*
X2707677Y2457874D3*
Y2532677D3*
X2607677Y2457677D3*
Y2532480D3*
X2257685Y2357675D3*
Y2282871D3*
D45*
X1970215Y2495160D3*
Y2514845D3*
Y2534530D3*
Y2554215D3*
X2061711Y2495160D3*
Y2514845D3*
Y2534530D3*
Y2554215D3*
D43*
X2035648Y2487995D3*
X2015963D3*
X1996278D3*
X2035648Y2559806D3*
X2015963D3*
X1996278D3*
D61*
X2082703Y2326428D3*
D59*
X1982703D3*
D38*
X3956693Y708661D3*
X708661D3*
Y3976378D3*
X3956693Y3956693D3*
M02*
