G04 DipTrace 3.2.0.1*
G04 Rev1.3.gko*
%MOIN*%
G04 #@! TF.FileFunction,Profile*
G04 #@! TF.Part,Single*
%ADD11C,0.005512*%
%FSLAX26Y26*%
G04*
G70*
G90*
G75*
G01*
G04 BoardOutline*
%LPD*%
X3966798Y393701D2*
D11*
X3968504Y393806D1*
X3970302Y393898D1*
X3971995Y394003D1*
X3973701Y394094D1*
X3975499Y394199D1*
X3977205Y394396D1*
X3978898Y394501D1*
X3980604Y394698D1*
X3982402Y394803D1*
X3984094Y395000D1*
X3985801Y395197D1*
X3987598Y395407D1*
X3989304Y395604D1*
X3990997Y395696D1*
X3992703Y395906D1*
X3994501Y396194D1*
X3996207Y396404D1*
X3997900Y396601D1*
X3999606Y396798D1*
X4001299Y397100D1*
X4003005Y397297D1*
X4004803Y397507D1*
X4006404Y397795D1*
X4008097Y398097D1*
X4009895Y398399D1*
X4011601Y398701D1*
X4013307Y398898D1*
X4015000Y399199D1*
X4016601Y399501D1*
X4018307Y399895D1*
X4020000Y400197D1*
X4021706Y400499D1*
X4023399Y400906D1*
X4025105Y401207D1*
X4026798Y401601D1*
X4028504Y401995D1*
X4030197Y402402D1*
X4031798Y402703D1*
X4033504Y403097D1*
X4035197Y403504D1*
X4036903Y404003D1*
X4038504Y404396D1*
X4040197Y404895D1*
X4041798Y405302D1*
X4043504Y405801D1*
X4045105Y406207D1*
X4046798Y406706D1*
X4048399Y407205D1*
X4050105Y407703D1*
X4051706Y408202D1*
X4053399Y408701D1*
X4055000Y409199D1*
X4056601Y409698D1*
X4058202Y410302D1*
X4059803Y410906D1*
X4061404Y411404D1*
X4063097Y411995D1*
X4064698Y412598D1*
X4066299Y413202D1*
X4067900Y413806D1*
X4069501Y414396D1*
X4071102Y415105D1*
X4072598Y415696D1*
X4074199Y416404D1*
X4077297Y417703D1*
X4080302Y419003D1*
X4083307Y420302D1*
X4086299Y421706D1*
X4089199Y423097D1*
X4092100Y424501D1*
X4095000Y425997D1*
X4098005Y427402D1*
X4100801Y428898D1*
X4103701Y430407D1*
X4106496Y431995D1*
X4109304Y433504D1*
X4112100Y435105D1*
X4114895Y436706D1*
X4117598Y438399D1*
X4120407Y440000D1*
X4123097Y441706D1*
X4125801Y443399D1*
X4128504Y445197D1*
X4131102Y446903D1*
X4133701Y448701D1*
X4136299Y450499D1*
X4138898Y452402D1*
X4141496Y454304D1*
X4144003Y456102D1*
X4146601Y458005D1*
X4149003Y460000D1*
X4151496Y461995D1*
X4154003Y463898D1*
X4156404Y465997D1*
X4158898Y468005D1*
X4161299Y470000D1*
X4163596Y472205D1*
X4165997Y474304D1*
X4168307Y476404D1*
X4170604Y478596D1*
X4172900Y480801D1*
X4175197Y483005D1*
X4177507Y485197D1*
X4179698Y487507D1*
X4181903Y489803D1*
X4184094Y492100D1*
X4186299Y494501D1*
X4188399Y496798D1*
X4190499Y499199D1*
X4192703Y501706D1*
X4194698Y504094D1*
X4196798Y506601D1*
X4198898Y509094D1*
X4200906Y511601D1*
X4202900Y514199D1*
X4204895Y516798D1*
X4206798Y519396D1*
X4208806Y521995D1*
X4210696Y524698D1*
X4212598Y527402D1*
X4214501Y530105D1*
X4216299Y532900D1*
X4218202Y535696D1*
X4220000Y538399D1*
X4221798Y541299D1*
X4223504Y544094D1*
X4225302Y546995D1*
X4226995Y549895D1*
X4228504Y552402D1*
X4229895Y554895D1*
X4231299Y557402D1*
X4232703Y559895D1*
X4234003Y562507D1*
X4235302Y564895D1*
X4236706Y567507D1*
X4237900Y570000D1*
X4239094Y572598D1*
X4240302Y575105D1*
X4241496Y577703D1*
X4242703Y580197D1*
X4243806Y582795D1*
X4244895Y585302D1*
X4245997Y587900D1*
X4246995Y590499D1*
X4248005Y593097D1*
X4249003Y595696D1*
X4250000Y598307D1*
X4250906Y600906D1*
X4251798Y603504D1*
X4252703Y606102D1*
X4253596Y608701D1*
X4254396Y611299D1*
X4255197Y614003D1*
X4255997Y616601D1*
X4256798Y619199D1*
X4257507Y621903D1*
X4258202Y624501D1*
X4258898Y627100D1*
X4259501Y629803D1*
X4260197Y632402D1*
X4260801Y635105D1*
X4261404Y637703D1*
X4261995Y640407D1*
X4262507Y643097D1*
X4263097Y645801D1*
X4263504Y648504D1*
X4264003Y651102D1*
X4264501Y653806D1*
X4264895Y656496D1*
X4265302Y659199D1*
X4265696Y661903D1*
X4266102Y664606D1*
X4266404Y667297D1*
X4266706Y670000D1*
X4266995Y672703D1*
X4267297Y675407D1*
X4267507Y678202D1*
X4267795Y680906D1*
X4268005Y683596D1*
X4268202Y686299D1*
X4268399Y689003D1*
X4268504Y691798D1*
X4268701Y694501D1*
X4268806Y697205D1*
Y700000D1*
X4268898Y702703D1*
Y705499D1*
X4269003Y708202D1*
Y710997D1*
Y713701D1*
X4268898Y716496D1*
Y719199D1*
X4268806Y721404D1*
Y723504D1*
X4268701Y725604D1*
X4268596Y727703D1*
X4268399Y729895D1*
X4268307Y731995D1*
X4268097Y734199D1*
X4267900Y736299D1*
X4267703Y738399D1*
X4267507Y740604D1*
X4267205Y742703D1*
X4266995Y744803D1*
X4266706Y746903D1*
X4266496Y749003D1*
X4266102Y751207D1*
X4265801Y753307D1*
X4265499Y755407D1*
X4265105Y757507D1*
X4264698Y759698D1*
X4264304Y761798D1*
X4263898Y763806D1*
X4263399Y765997D1*
X4263005Y768097D1*
X4262507Y770197D1*
X4262100Y772297D1*
X4261601Y774396D1*
X4260997Y776496D1*
X4260499Y778596D1*
X4260000Y780696D1*
X4259396Y782703D1*
X4258806Y784803D1*
X4258307Y786903D1*
X4257703Y789003D1*
X4256995Y791102D1*
X4256404Y793097D1*
X4255696Y795197D1*
X4255000Y797297D1*
X4254396Y799304D1*
X4253701Y801404D1*
X4253005Y803504D1*
X4252205Y805499D1*
X4251496Y807598D1*
X4250696Y809606D1*
X4249895Y811601D1*
X4249199Y813701D1*
X4248307Y815696D1*
X4247507Y817795D1*
X4246706Y819803D1*
X4245801Y821798D1*
X4245000Y823806D1*
X4244094Y825801D1*
X4243202Y827795D1*
X4242297Y829803D1*
X4241404Y831903D1*
X4240499Y833806D1*
X4239501Y835801D1*
X4238504Y837795D1*
X4237507Y839803D1*
X4236601Y841798D1*
X4235604Y843701D1*
X4234606Y845696D1*
X4233596Y847703D1*
X4232507Y849606D1*
X4231496Y851601D1*
X4229895Y854396D1*
X4228399Y857100D1*
X4226798Y859895D1*
X4225197Y862507D1*
X4223504Y865197D1*
X4221798Y867900D1*
X4220197Y870499D1*
X4218504Y873097D1*
X4216706Y875696D1*
X4214895Y878202D1*
X4213202Y880696D1*
X4211299Y883307D1*
X4209501Y885696D1*
X4207703Y888202D1*
X4205696Y890696D1*
X4203806Y893005D1*
X4201903Y895407D1*
X4199895Y897795D1*
X4198005Y900105D1*
X4195997Y902507D1*
X4194003Y904803D1*
X4191995Y907100D1*
X4189895Y909396D1*
X4187900Y911706D1*
X4185801Y913898D1*
X4183701Y916102D1*
X4181601Y918307D1*
X4179501Y920499D1*
X4177297Y922703D1*
X4175105Y924895D1*
X4173005Y926995D1*
X4170801Y929199D1*
X4168596Y931299D1*
X4166404Y933399D1*
X4164094Y935499D1*
X4161903Y937598D1*
X4159698Y939698D1*
X4157402Y941706D1*
X4155197Y943806D1*
X4152900Y945906D1*
X4150499Y947900D1*
X4148202Y949895D1*
X4145906Y951903D1*
X4143596Y954003D1*
X4141299Y955997D1*
X4139003Y958005D1*
X4136601Y960000D1*
X4134304Y961995D1*
X4131995Y963898D1*
X4129606Y965906D1*
X4127205Y967900D1*
X4124895Y969803D1*
X4122507Y971798D1*
X4120197Y973701D1*
X4117795Y975696D1*
X4115407Y977598D1*
X4113005Y979606D1*
X4110696Y981496D1*
X4108307Y983504D1*
X4105906Y985499D1*
X4103504Y987402D1*
X4101207Y989396D1*
X4098806Y991299D1*
X4096404Y993307D1*
X4082598Y1004606D1*
X4068806Y1015997D1*
X4055000Y1027402D1*
X4041207Y1038701D1*
X4027402Y1050105D1*
X4013596Y1061496D1*
X3999803Y1072900D1*
X3985997Y1084199D1*
X3972205Y1095604D1*
X3958399Y1106903D1*
X3944606Y1118307D1*
X3930801Y1129698D1*
X3916995Y1140997D1*
X3903202Y1152402D1*
X3889396Y1163806D1*
X3875604Y1175105D1*
X3861706Y1186496D1*
X3848005Y1197795D1*
X3834094Y1209199D1*
X3820302Y1220499D1*
X3806496Y1231903D1*
X3792703Y1243202D1*
X3778898Y1254606D1*
X3765105Y1265997D1*
X3751299Y1277297D1*
X3737507Y1288701D1*
X3723596Y1300000D1*
X3709803Y1311404D1*
X3696102Y1322795D1*
X3682205Y1334094D1*
X3668399Y1345499D1*
X3654606Y1356798D1*
X3640801Y1368202D1*
X3626995Y1379501D1*
X3613202Y1390906D1*
X3599396Y1402205D1*
X3585604Y1413596D1*
X3571706Y1425000D1*
X3558005Y1436404D1*
X3544199Y1447703D1*
X3530302Y1459094D1*
X3516496Y1470407D1*
X3502703Y1481798D1*
X3488898Y1493097D1*
X3475105Y1504501D1*
X3461299Y1515906D1*
X3447507Y1527297D1*
X3433701Y1538596D1*
X3419895Y1550000D1*
X3406102Y1561404D1*
X3392297Y1572795D1*
X3378504Y1584094D1*
X3364803Y1595499D1*
X3350906Y1606903D1*
X3337205Y1618307D1*
X3323307Y1629606D1*
X3309606Y1640997D1*
X3295801Y1652402D1*
X3281995Y1663806D1*
X3268202Y1675197D1*
X3254396Y1686496D1*
X3240696Y1698005D1*
X3226903Y1709304D1*
X3213097Y1720801D1*
X3209304Y1723898D1*
X3205696Y1727100D1*
X3201995Y1730302D1*
X3198504Y1733504D1*
X3194895Y1736798D1*
X3191496Y1740105D1*
X3188097Y1743399D1*
X3184803Y1746798D1*
X3181496Y1750197D1*
X3178399Y1753701D1*
X3175197Y1757100D1*
X3172100Y1760604D1*
X3169003Y1764094D1*
X3166102Y1767703D1*
X3163202Y1771299D1*
X3160302Y1774895D1*
X3157507Y1778596D1*
X3154698Y1782205D1*
X3151995Y1785997D1*
X3149396Y1789698D1*
X3146798Y1793504D1*
X3144304Y1797297D1*
X3141798Y1801102D1*
X3139396Y1804895D1*
X3136995Y1808806D1*
X3134698Y1812703D1*
X3132402Y1816706D1*
X3130197Y1820604D1*
X3128097Y1824606D1*
X3125906Y1828701D1*
X3123898Y1832703D1*
X3121903Y1836798D1*
X3119895Y1840906D1*
X3118097Y1845000D1*
X3116207Y1849199D1*
X3114396Y1853399D1*
X3112598Y1857598D1*
X3110997Y1861798D1*
X3109304Y1866102D1*
X3107703Y1870407D1*
X3106194Y1874606D1*
X3104698Y1879003D1*
X3103202Y1883307D1*
X3101798Y1887703D1*
X3100407Y1892100D1*
X3099094Y1896496D1*
X3097795Y1900997D1*
X3096601Y1905499D1*
X3095407Y1909895D1*
X3094304Y1914501D1*
X3093202Y1919003D1*
X3092205Y1923596D1*
X3091207Y1928202D1*
X3090302Y1932703D1*
X3089396Y1937402D1*
X3088504Y1941995D1*
X3087703Y1946706D1*
X3086903Y1951404D1*
X3086194Y1956102D1*
X3085499Y1960801D1*
X3084895Y1965604D1*
X3084304Y1970302D1*
X3083701Y1975105D1*
X3083202Y1979895D1*
X3083097Y1980604D1*
X3083005Y1981903D1*
X3082795Y1983202D1*
X3082703Y1985105D1*
X3082598Y1986404D1*
X3082402Y1987703D1*
X3082205Y1989698D1*
X3082100Y1991601D1*
X3081995Y1993596D1*
X3081798Y1994895D1*
X3081706Y1996798D1*
X3081601Y1998097D1*
X3081496Y2000000D1*
X3081404Y2001404D1*
X3081299Y2003307D1*
X3081207Y2005302D1*
X3081102Y2007205D1*
X3080997Y2009199D1*
X3080906Y2011102D1*
Y2013097D1*
X3080801Y2015000D1*
Y2016995D1*
Y2018898D1*
X3080696Y2020906D1*
Y2035906D1*
Y2050105D1*
Y2064501D1*
Y2078806D1*
Y2093097D1*
Y2107402D1*
Y2121706D1*
Y2135997D1*
Y2150302D1*
X3080801Y2164606D1*
Y2178898D1*
Y2193202D1*
Y2207507D1*
Y2221798D1*
Y2236102D1*
Y2250407D1*
Y2264698D1*
Y2279003D1*
Y2293307D1*
X3080906Y2307703D1*
Y2321903D1*
Y2336194D1*
Y2350604D1*
Y2364895D1*
Y2379199D1*
Y2393504D1*
Y2407795D1*
Y2422100D1*
Y2436404D1*
X3080997Y2450696D1*
Y2465000D1*
Y2479304D1*
Y2493596D1*
Y2507900D1*
Y2522205D1*
Y2536496D1*
Y2550801D1*
Y2565105D1*
Y2579501D1*
Y2593701D1*
Y2608005D1*
Y2622402D1*
X3080906Y2636706D1*
Y2650906D1*
Y2665302D1*
Y2679606D1*
Y2693898D1*
Y2708202D1*
X3080801Y2722507D1*
Y2736798D1*
Y2751102D1*
X3080696Y2765407D1*
Y2779698D1*
Y2794003D1*
X3080604Y2808307D1*
Y2822598D1*
X3080499Y2836903D1*
Y2851207D1*
Y2865499D1*
X3080407Y2879803D1*
Y2894199D1*
X3080302Y2908504D1*
X3080197Y2922703D1*
Y2937100D1*
Y2942507D1*
Y2948005D1*
X3080302Y2953399D1*
X3080499Y2958806D1*
X3080696Y2964199D1*
X3080997Y2969606D1*
X3081299Y2974895D1*
X3081706Y2980197D1*
X3082100Y2985499D1*
X3082703Y2990801D1*
X3083202Y2995997D1*
X3083806Y3001207D1*
X3084501Y3006404D1*
X3085197Y3011601D1*
X3085997Y3016706D1*
X3086798Y3021798D1*
X3087703Y3026903D1*
X3088701Y3031995D1*
X3089698Y3036995D1*
X3090696Y3042100D1*
X3091903Y3047100D1*
X3093005Y3051995D1*
X3094304Y3056995D1*
X3095604Y3061995D1*
X3096903Y3066903D1*
X3098307Y3071798D1*
X3099803Y3076706D1*
X3101299Y3081496D1*
X3102795Y3086404D1*
X3104501Y3091102D1*
X3106102Y3095906D1*
X3107900Y3100696D1*
X3109606Y3105499D1*
X3111496Y3110197D1*
X3113399Y3114895D1*
X3115302Y3119606D1*
X3117297Y3124304D1*
X3119396Y3128898D1*
X3121496Y3133596D1*
X3123701Y3138202D1*
X3125906Y3142795D1*
X3128307Y3147402D1*
X3130604Y3151903D1*
X3133005Y3156404D1*
X3135407Y3160997D1*
X3138005Y3165499D1*
X3140499Y3170000D1*
X3143202Y3174396D1*
X3145801Y3178806D1*
X3148596Y3183307D1*
X3151404Y3187703D1*
X3154199Y3192100D1*
X3157100Y3196496D1*
X3160105Y3200801D1*
X3163097Y3205197D1*
X3166194Y3209501D1*
X3169304Y3213806D1*
X3172507Y3218097D1*
X3175696Y3222402D1*
X3179003Y3226601D1*
X3182297Y3230906D1*
X3185801Y3235105D1*
X3189199Y3239304D1*
X3192703Y3243504D1*
X3198701Y3250407D1*
X3204501Y3257402D1*
X3210407Y3264396D1*
X3216299Y3271299D1*
X3222205Y3278307D1*
X3228097Y3285302D1*
X3234003Y3292297D1*
X3239803Y3299304D1*
X3245696Y3306299D1*
X3251496Y3313307D1*
X3257402Y3320302D1*
X3263202Y3327297D1*
X3269094Y3334304D1*
X3274895Y3341299D1*
X3280801Y3348307D1*
X3286601Y3355302D1*
X3292507Y3362402D1*
X3298307Y3369396D1*
X3304094Y3376404D1*
X3310000Y3383399D1*
X3315801Y3390407D1*
X3321601Y3397507D1*
X3327402Y3404501D1*
X3333307Y3411496D1*
X3339094Y3418596D1*
X3344895Y3425604D1*
X3350696Y3432598D1*
X3356496Y3439698D1*
X3362297Y3446706D1*
X3368097Y3453806D1*
X3373898Y3460801D1*
X3379698Y3467900D1*
X3385499Y3474895D1*
X3391404Y3481903D1*
X3397100Y3489003D1*
X3403005Y3495997D1*
X3408701Y3503097D1*
X3414501Y3510197D1*
X3420407Y3517205D1*
X3426102Y3524304D1*
X3431903Y3531299D1*
X3437703Y3538399D1*
X3443504Y3545407D1*
X3449304Y3552507D1*
X3455105Y3559501D1*
X3460906Y3566601D1*
X3466706Y3573596D1*
X3472507Y3580696D1*
X3478307Y3587703D1*
X3484094Y3594803D1*
X3489895Y3601798D1*
X3495696Y3608898D1*
X3501496Y3615906D1*
X3507297Y3623005D1*
X3513097Y3630105D1*
X3518898Y3637100D1*
X3524698Y3644094D1*
X3530499Y3651207D1*
X3536299Y3658202D1*
X3542100Y3665302D1*
X3547900Y3672297D1*
X3553701Y3679396D1*
X3559501Y3686404D1*
X3565302Y3693399D1*
X3565997Y3694304D1*
X3567402Y3695997D1*
X3568806Y3697703D1*
X3570105Y3699396D1*
X3571496Y3701102D1*
X3572900Y3702703D1*
X3574304Y3704396D1*
X3575604Y3706102D1*
X3576995Y3707795D1*
X3578399Y3709501D1*
X3579698Y3711207D1*
X3581102Y3712900D1*
X3582507Y3714606D1*
X3583898Y3716194D1*
X3585197Y3717900D1*
X3586601Y3719606D1*
X3588005Y3721299D1*
X3589304Y3723005D1*
X3590696Y3724698D1*
X3591995Y3726404D1*
X3593504Y3728097D1*
X3594803Y3729698D1*
X3596207Y3731404D1*
X3597598Y3733097D1*
X3599003Y3734803D1*
X3600407Y3736496D1*
X3601706Y3738097D1*
X3603097Y3739803D1*
X3604501Y3741496D1*
X3605997Y3743097D1*
X3607402Y3744803D1*
X3608806Y3746404D1*
X3610997Y3749003D1*
X3612598Y3750696D1*
X3614199Y3752402D1*
X3615801Y3754003D1*
X3617402Y3755604D1*
X3619094Y3757100D1*
X3620801Y3758596D1*
X3622402Y3760000D1*
X3624094Y3761404D1*
X3625801Y3762795D1*
X3627598Y3764003D1*
X3629304Y3765302D1*
X3631102Y3766404D1*
X3632795Y3767598D1*
X3634606Y3768596D1*
X3636404Y3769698D1*
X3638202Y3770696D1*
X3640105Y3771601D1*
X3641903Y3772507D1*
X3643701Y3773307D1*
X3645604Y3774094D1*
X3647507Y3774803D1*
X3649304Y3775499D1*
X3651207Y3776102D1*
X3653097Y3776601D1*
X3655000Y3777100D1*
X3656903Y3777598D1*
X3658806Y3778005D1*
X3660696Y3778307D1*
X3662598Y3778596D1*
X3664501Y3778806D1*
X3666404Y3779003D1*
X3668399Y3779199D1*
X3670302D1*
X3672297Y3779304D1*
X3674199Y3779199D1*
X3676102Y3779094D1*
X3678097Y3779003D1*
X3680000Y3778806D1*
X3681995Y3778504D1*
X3683898Y3778202D1*
X3685801Y3777795D1*
X3687703Y3777402D1*
X3689698Y3776903D1*
X3691601Y3776404D1*
X3693504Y3775696D1*
X3695407Y3775000D1*
X3697297Y3774304D1*
X3699304Y3773504D1*
X3701102Y3772703D1*
X3703005Y3771798D1*
X3704895Y3770906D1*
X3706798Y3769803D1*
X3708701Y3768701D1*
X3710499Y3767598D1*
X3712402Y3766404D1*
X3714199Y3765105D1*
X3715997Y3763806D1*
X3717900Y3762402D1*
X3719698Y3760906D1*
X3721496Y3759396D1*
X3723307Y3757900D1*
X3725000Y3756194D1*
X3726798Y3754501D1*
X3728701Y3752598D1*
X3730696Y3750696D1*
X3732703Y3748806D1*
X3734606Y3746903D1*
X3736601Y3745105D1*
X3738596Y3743202D1*
X3740604Y3741404D1*
X3742598Y3739606D1*
X3744606Y3737703D1*
X3746601Y3735906D1*
X3748701Y3734199D1*
X3750696Y3732402D1*
X3752703Y3730604D1*
X3754803Y3728898D1*
X3756798Y3727100D1*
X3758898Y3725407D1*
X3760997Y3723701D1*
X3763097Y3721995D1*
X3765105Y3720407D1*
X3767297Y3718701D1*
X3769396Y3717100D1*
X3771496Y3715407D1*
X3773701Y3713806D1*
X3775801Y3712205D1*
X3777900Y3710696D1*
X3780105Y3709094D1*
X3782297Y3707507D1*
X3784501Y3705997D1*
X3786706Y3704501D1*
X3788898Y3703005D1*
X3791102Y3701601D1*
X3793307Y3700105D1*
X3795604Y3698701D1*
X3797795Y3697297D1*
X3800105Y3695801D1*
X3802297Y3694501D1*
X3804606Y3693097D1*
X3806903Y3691798D1*
X3809199Y3690407D1*
X3811496Y3689094D1*
X3813898Y3687900D1*
X3816207Y3686601D1*
X3818596Y3685302D1*
X3820997Y3684094D1*
X3823307Y3682900D1*
X3825696Y3681706D1*
X3828202Y3680499D1*
X3830604Y3679396D1*
X3833005Y3678307D1*
X3835499Y3677100D1*
X3838005Y3676102D1*
X3840407Y3675000D1*
X3842900Y3673898D1*
X3845407Y3673005D1*
X3848005Y3671995D1*
X3850499Y3670997D1*
X3853005Y3670000D1*
X3855604Y3669094D1*
X3858202Y3668202D1*
X3860696Y3667297D1*
X3863399Y3666404D1*
X3865997Y3665604D1*
X3868596Y3664803D1*
X3871299Y3664003D1*
X3874698Y3663005D1*
X3878097Y3662100D1*
X3881496Y3661207D1*
X3884895Y3660302D1*
X3888307Y3659501D1*
X3891706Y3658701D1*
X3895105Y3657900D1*
X3898504Y3657205D1*
X3901903Y3656496D1*
X3905302Y3655801D1*
X3908596Y3655197D1*
X3911995Y3654698D1*
X3915407Y3654199D1*
X3918806Y3653596D1*
X3922205Y3653202D1*
X3925604Y3652703D1*
X3928898Y3652402D1*
X3932297Y3651995D1*
X3935696Y3651706D1*
X3939003Y3651404D1*
X3942402Y3651207D1*
X3945801Y3650997D1*
X3949094Y3650801D1*
X3952507Y3650696D1*
X3955801Y3650604D1*
X3959199Y3650499D1*
X3962507D1*
X3965906Y3650604D1*
X3969199D1*
X3972598Y3650696D1*
X3975906Y3650906D1*
X3979199Y3651102D1*
X3982598Y3651207D1*
X3985906Y3651496D1*
X3989199Y3651798D1*
X3992507Y3652100D1*
X3995906Y3652507D1*
X3999199Y3652900D1*
X4002507Y3653399D1*
X4005801Y3653806D1*
X4009094Y3654304D1*
X4012402Y3654895D1*
X4015696Y3655499D1*
X4019003Y3656102D1*
X4022297Y3656798D1*
X4025604Y3657507D1*
X4028898Y3658202D1*
X4032205Y3659003D1*
X4035407Y3659895D1*
X4038701Y3660696D1*
X4041995Y3661601D1*
X4045197Y3662598D1*
X4048504Y3663596D1*
X4051798Y3664606D1*
X4055000Y3665604D1*
X4058202Y3666798D1*
X4061496Y3667900D1*
X4064698Y3669094D1*
X4067900Y3670302D1*
X4071207Y3671496D1*
X4074396Y3672795D1*
X4077598Y3674094D1*
X4080801Y3675499D1*
X4084003Y3676903D1*
X4087507Y3678504D1*
X4090997Y3680105D1*
X4094501Y3681706D1*
X4097900Y3683399D1*
X4101207Y3685197D1*
X4104606Y3686903D1*
X4108005Y3688701D1*
X4111299Y3690499D1*
X4114501Y3692297D1*
X4117703Y3694199D1*
X4120997Y3696102D1*
X4124094Y3698097D1*
X4127297Y3700000D1*
X4130407Y3702100D1*
X4133504Y3704094D1*
X4136496Y3706102D1*
X4139606Y3708307D1*
X4142598Y3710407D1*
X4145499Y3712507D1*
X4148504Y3714698D1*
X4151299Y3716995D1*
X4154304Y3719304D1*
X4157100Y3721601D1*
X4159895Y3723898D1*
X4162703Y3726207D1*
X4165407Y3728596D1*
X4168097Y3730997D1*
X4170801Y3733504D1*
X4173399Y3735997D1*
X4176102Y3738504D1*
X4178701Y3741102D1*
X4181207Y3743596D1*
X4183701Y3746207D1*
X4186194Y3748898D1*
X4188701Y3751601D1*
X4191102Y3754304D1*
X4193504Y3756995D1*
X4195906Y3759803D1*
X4198202Y3762598D1*
X4200499Y3765499D1*
X4202795Y3768307D1*
X4205000Y3771207D1*
X4207205Y3774094D1*
X4209304Y3777100D1*
X4211496Y3780105D1*
X4213596Y3783097D1*
X4215604Y3786207D1*
X4217703Y3789304D1*
X4219606Y3792402D1*
X4221601Y3795499D1*
X4223504Y3798701D1*
X4225499Y3801903D1*
X4227297Y3805197D1*
X4229094Y3808504D1*
X4230906Y3811706D1*
X4232703Y3815105D1*
X4234396Y3818504D1*
X4236102Y3821903D1*
X4237703Y3825302D1*
X4239396Y3828806D1*
X4240906Y3832297D1*
X4242507Y3835801D1*
X4244003Y3839304D1*
X4245499Y3843005D1*
X4246102Y3844304D1*
X4246601Y3845604D1*
X4247100Y3846995D1*
X4247598Y3848307D1*
X4248097Y3849698D1*
X4248596Y3850997D1*
X4249094Y3852402D1*
X4249606Y3853806D1*
X4250000Y3855105D1*
X4250499Y3856496D1*
X4250997Y3857900D1*
X4251404Y3859199D1*
X4251903Y3860604D1*
X4252297Y3861995D1*
X4252703Y3863399D1*
X4253097Y3864698D1*
X4253596Y3866102D1*
X4253898Y3867507D1*
X4254396Y3868898D1*
X4254698Y3870302D1*
X4255105Y3871706D1*
X4255499Y3873005D1*
X4255906Y3874396D1*
X4256299Y3875906D1*
X4256601Y3877205D1*
X4256995Y3878596D1*
X4257297Y3880000D1*
X4257598Y3881404D1*
X4257900Y3882900D1*
X4258307Y3884304D1*
X4258596Y3885696D1*
X4258898Y3887100D1*
X4259304Y3888504D1*
X4259501Y3889895D1*
X4259803Y3891299D1*
X4260197Y3892703D1*
X4260407Y3894199D1*
X4260696Y3895604D1*
X4260997Y3896995D1*
X4261299Y3898504D1*
X4261496Y3899895D1*
X4261798Y3901299D1*
X4262100Y3902703D1*
X4262297Y3904199D1*
X4262507Y3905604D1*
X4262795Y3907100D1*
X4263097Y3908504D1*
X4263307Y3909895D1*
X4263504Y3911404D1*
X4263806Y3912795D1*
X4264003Y3914304D1*
X4264199Y3915696D1*
X4264396Y3917205D1*
X4264698Y3918596D1*
X4264895Y3920000D1*
X4265105Y3921496D1*
X4265302Y3923005D1*
X4265499Y3924396D1*
X4265696Y3925906D1*
X4265906Y3927297D1*
X4266102Y3928806D1*
X4266299Y3930302D1*
X4266496Y3931706D1*
X4266706Y3933202D1*
X4266995Y3935407D1*
X4267205Y3937598D1*
X4267507Y3939803D1*
X4267703Y3941995D1*
X4267900Y3944199D1*
X4268097Y3946404D1*
X4268202Y3948596D1*
X4268399Y3950801D1*
X4268504Y3953005D1*
X4268596Y3955105D1*
X4268701Y3957297D1*
X4268806Y3959501D1*
Y3961706D1*
Y3963806D1*
Y3965997D1*
Y3968202D1*
Y3970302D1*
X4268701Y3972402D1*
Y3974606D1*
X4268596Y3976706D1*
X4268504Y3978898D1*
X4268307Y3980997D1*
X4268202Y3983202D1*
X4268005Y3985302D1*
X4267900Y3987402D1*
X4267703Y3989501D1*
X4267507Y3991601D1*
X4267297Y3993701D1*
X4267100Y3995801D1*
X4266798Y3998005D1*
X4266496Y4000105D1*
X4266299Y4002205D1*
X4265906Y4004304D1*
X4265696Y4006404D1*
X4265302Y4008399D1*
X4264895Y4010604D1*
X4264606Y4012598D1*
X4264199Y4014698D1*
X4263806Y4016798D1*
X4263399Y4018898D1*
X4263005Y4020906D1*
X4262598Y4023005D1*
X4262100Y4025105D1*
X4261706Y4027100D1*
X4261207Y4029199D1*
X4260696Y4031207D1*
X4260197Y4033307D1*
X4259698Y4035302D1*
X4259199Y4037402D1*
X4258596Y4039396D1*
X4258097Y4041496D1*
X4257507Y4043504D1*
X4256995Y4045499D1*
X4256404Y4047507D1*
X4255801Y4049606D1*
X4255197Y4051601D1*
X4254606Y4053596D1*
X4253898Y4055604D1*
X4253307Y4057703D1*
X4252598Y4059698D1*
X4251903Y4061706D1*
X4251299Y4063701D1*
X4250604Y4065696D1*
X4249895Y4067703D1*
X4248701Y4070906D1*
X4247507Y4074094D1*
X4246299Y4077297D1*
X4245000Y4080499D1*
X4243701Y4083701D1*
X4242402Y4086798D1*
X4241102Y4089895D1*
X4239698Y4093005D1*
X4238307Y4096102D1*
X4236798Y4099199D1*
X4235302Y4102205D1*
X4233806Y4105197D1*
X4232205Y4108202D1*
X4230696Y4111102D1*
X4229003Y4114094D1*
X4227402Y4116995D1*
X4225696Y4119895D1*
X4224094Y4122703D1*
X4222297Y4125604D1*
X4220499Y4128399D1*
X4218701Y4131299D1*
X4216995Y4134003D1*
X4215105Y4136798D1*
X4213202Y4139501D1*
X4211299Y4142297D1*
X4209304Y4144895D1*
X4207402Y4147598D1*
X4205407Y4150197D1*
X4203399Y4152900D1*
X4201299Y4155499D1*
X4199199Y4158005D1*
X4197100Y4160604D1*
X4195000Y4163097D1*
X4192795Y4165604D1*
X4190604Y4168097D1*
X4188399Y4170499D1*
X4186102Y4172900D1*
X4183898Y4175302D1*
X4181601Y4177703D1*
X4179199Y4180000D1*
X4176903Y4182297D1*
X4174501Y4184606D1*
X4172100Y4186903D1*
X4169606Y4189199D1*
X4167100Y4191404D1*
X4164606Y4193596D1*
X4162100Y4195696D1*
X4159606Y4197900D1*
X4156995Y4200000D1*
X4154396Y4201995D1*
X4151798Y4204094D1*
X4149094Y4206102D1*
X4146496Y4208097D1*
X4143806Y4210105D1*
X4141102Y4211995D1*
X4138307Y4214003D1*
X4135499Y4215906D1*
X4132703Y4217703D1*
X4129895Y4219606D1*
X4126995Y4221404D1*
X4124199Y4223097D1*
X4121299Y4224895D1*
X4118399Y4226601D1*
X4115407Y4228307D1*
X4112598Y4229895D1*
X4109803Y4231496D1*
X4106995Y4233005D1*
X4104094Y4234501D1*
X4101207Y4235906D1*
X4098399Y4237402D1*
X4095499Y4238806D1*
X4092598Y4240197D1*
X4089803Y4241496D1*
X4086903Y4242795D1*
X4083898Y4244094D1*
X4080997Y4245407D1*
X4078097Y4246601D1*
X4075197Y4247900D1*
X4072205Y4249003D1*
X4069199Y4250197D1*
X4066299Y4251299D1*
X4063307Y4252402D1*
X4060302Y4253399D1*
X4057297Y4254396D1*
X4054304Y4255407D1*
X4051299Y4256404D1*
X4048307Y4257297D1*
X4045302Y4258202D1*
X4042205Y4259094D1*
X4039199Y4259895D1*
X4036102Y4260696D1*
X4033005Y4261496D1*
X4030000Y4262205D1*
X4026903Y4262900D1*
X4023806Y4263596D1*
X4020696Y4264199D1*
X4017598Y4264803D1*
X4014501Y4265407D1*
X4011404Y4265997D1*
X4008202Y4266496D1*
X4005105Y4266903D1*
X4001995Y4267402D1*
X3998806Y4267795D1*
X3995696Y4268202D1*
X3992507Y4268504D1*
X3989304Y4268806D1*
X3986102Y4269094D1*
X3982900Y4269304D1*
X3979803Y4269501D1*
X3976601Y4269698D1*
X3973399Y4269803D1*
X3970105Y4269895D1*
X3966903Y4270000D1*
X3963701D1*
X3960407D1*
X3957205D1*
X3953898Y4269895D1*
X3950696Y4269698D1*
X3947402Y4269606D1*
X3944199Y4269396D1*
X3940906Y4269199D1*
X3937598Y4268898D1*
X3934304Y4268596D1*
X3930997Y4268307D1*
X3927703Y4267900D1*
X3924396Y4267507D1*
X3921102Y4266995D1*
X3917795Y4266601D1*
X3913399Y4265906D1*
X3909094Y4265105D1*
X3904803Y4264304D1*
X3900604Y4263504D1*
X3896299Y4262598D1*
X3892100Y4261601D1*
X3888005Y4260604D1*
X3883898Y4259501D1*
X3879803Y4258399D1*
X3875696Y4257297D1*
X3871706Y4255997D1*
X3867703Y4254803D1*
X3863806Y4253504D1*
X3859895Y4252100D1*
X3855997Y4250696D1*
X3852100Y4249199D1*
X3848307Y4247703D1*
X3844501Y4246102D1*
X3840696Y4244501D1*
X3836995Y4242900D1*
X3833307Y4241207D1*
X3829606Y4239396D1*
X3825997Y4237703D1*
X3822297Y4235801D1*
X3818701Y4233898D1*
X3815197Y4231995D1*
X3811601Y4230000D1*
X3808202Y4228005D1*
X3804698Y4225997D1*
X3801207Y4223898D1*
X3797795Y4221706D1*
X3794396Y4219501D1*
X3790997Y4217297D1*
X3787703Y4215105D1*
X3784304Y4212795D1*
X3780997Y4210407D1*
X3777703Y4208005D1*
X3774501Y4205604D1*
X3771299Y4203097D1*
X3768097Y4200604D1*
X3764895Y4198005D1*
X3761706Y4195499D1*
X3758596Y4192795D1*
X3755499Y4190105D1*
X3752402Y4187507D1*
X3749304Y4184698D1*
X3746299Y4181903D1*
X3743202Y4179094D1*
X3740197Y4176299D1*
X3737205Y4173399D1*
X3734199Y4170499D1*
X3731299Y4167507D1*
X3728307Y4164501D1*
X3725407Y4161496D1*
X3722507Y4158504D1*
X3719606Y4155407D1*
X3716706Y4152297D1*
X3713898Y4149094D1*
X3711102Y4145906D1*
X3708202Y4142703D1*
X3705499Y4139396D1*
X3702598Y4136207D1*
X3699895Y4132900D1*
X3697100Y4129501D1*
X3685499Y4115302D1*
X3673806Y4101102D1*
X3662100Y4086798D1*
X3650499Y4072598D1*
X3638806Y4058399D1*
X3627100Y4044199D1*
X3615499Y4030000D1*
X3603806Y4015801D1*
X3592100Y4001496D1*
X3580407Y3987297D1*
X3568701Y3973097D1*
X3557100Y3958898D1*
X3545407Y3944698D1*
X3533701Y3930499D1*
X3521995Y3916299D1*
X3510302Y3902100D1*
X3498596Y3887900D1*
X3486995Y3873701D1*
X3475302Y3859501D1*
X3463504Y3845302D1*
X3451798Y3831102D1*
X3440105Y3816903D1*
X3428504Y3802703D1*
X3416798Y3788504D1*
X3405105Y3774304D1*
X3393399Y3760105D1*
X3381706Y3745906D1*
X3370000Y3731798D1*
X3358307Y3717598D1*
X3346601Y3703399D1*
X3334895Y3689199D1*
X3323202Y3675000D1*
X3311496Y3660801D1*
X3299803Y3646601D1*
X3288097Y3632402D1*
X3276299Y3618202D1*
X3264606Y3604094D1*
X3252900Y3589895D1*
X3241207Y3575696D1*
X3229501Y3561496D1*
X3217795Y3547297D1*
X3206102Y3533097D1*
X3194304Y3518898D1*
X3182598Y3504698D1*
X3170906Y3490604D1*
X3159199Y3476404D1*
X3147507Y3462205D1*
X3135801Y3448005D1*
X3124094Y3433806D1*
X3112402Y3419606D1*
X3100696Y3405407D1*
X3089003Y3391299D1*
X3077297Y3377100D1*
X3065604Y3362900D1*
X3053806Y3348701D1*
X3042100Y3334501D1*
X3030407Y3320302D1*
X3018701Y3306194D1*
X3006995Y3291995D1*
X2995302Y3277795D1*
X2983596Y3263596D1*
X2971903Y3249396D1*
X2960197Y3235197D1*
X2948504Y3220997D1*
X2945801Y3217795D1*
X2943097Y3214606D1*
X2940302Y3211496D1*
X2937598Y3208399D1*
X2934803Y3205302D1*
X2931995Y3202297D1*
X2929199Y3199199D1*
X2926299Y3196299D1*
X2923399Y3193399D1*
X2920499Y3190499D1*
X2917598Y3187703D1*
X2914606Y3184895D1*
X2911706Y3182100D1*
X2908701Y3179396D1*
X2905696Y3176706D1*
X2902703Y3174094D1*
X2899606Y3171496D1*
X2896496Y3168898D1*
X2893399Y3166299D1*
X2890302Y3163898D1*
X2887100Y3161404D1*
X2883898Y3159003D1*
X2880696Y3156601D1*
X2877598Y3154304D1*
X2874304Y3151995D1*
X2870997Y3149698D1*
X2867795Y3147507D1*
X2864396Y3145302D1*
X2861102Y3143097D1*
X2857795Y3140997D1*
X2854396Y3138898D1*
X2850997Y3136903D1*
X2847598Y3134895D1*
X2844094Y3132900D1*
X2840696Y3130997D1*
X2837205Y3129094D1*
X2833701Y3127297D1*
X2830105Y3125499D1*
X2826601Y3123701D1*
X2823005Y3121995D1*
X2819396Y3120197D1*
X2815801Y3118596D1*
X2812100Y3116903D1*
X2808504Y3115302D1*
X2804803Y3113806D1*
X2801102Y3112297D1*
X2797402Y3110801D1*
X2793596Y3109396D1*
X2789803Y3108005D1*
X2785997Y3106601D1*
X2782205Y3105302D1*
X2778399Y3104003D1*
X2774501Y3102703D1*
X2770604Y3101496D1*
X2766706Y3100302D1*
X2762795Y3099199D1*
X2758806Y3098097D1*
X2754895Y3096995D1*
X2750906Y3095906D1*
X2746798Y3095000D1*
X2742900Y3094003D1*
X2738806Y3093097D1*
X2734698Y3092205D1*
X2730604Y3091299D1*
X2729606Y3091102D1*
X2727795Y3090696D1*
X2725906Y3090302D1*
X2724003Y3090000D1*
X2722100Y3089606D1*
X2720197Y3089304D1*
X2718307Y3088898D1*
X2716404Y3088596D1*
X2714501Y3088202D1*
X2712598Y3087900D1*
X2710696Y3087598D1*
X2708806Y3087205D1*
X2706903Y3086995D1*
X2705000Y3086601D1*
X2703097Y3086404D1*
X2701207Y3086102D1*
X2699304Y3085801D1*
X2697402Y3085604D1*
X2695499Y3085407D1*
X2693596Y3085105D1*
X2691706Y3084895D1*
X2689698Y3084803D1*
X2687795Y3084606D1*
X2685906Y3084396D1*
X2684003Y3084199D1*
X2681995Y3084094D1*
X2680105Y3084003D1*
X2678202Y3083898D1*
X2676299Y3083806D1*
X2674304D1*
X2672402Y3083701D1*
X2670407D1*
X2654003D1*
X2638596Y3083806D1*
X2623097D1*
X2607703D1*
X2592297D1*
X2576903D1*
X2561496D1*
X2546102D1*
X2530696D1*
X2515302D1*
X2499895Y3083898D1*
X2484396D1*
X2469003D1*
X2453596D1*
X2438202D1*
X2422795D1*
X2407402D1*
X2391903D1*
X2376496D1*
X2361102D1*
X2345696D1*
X2330302D1*
X2314895D1*
X2299501D1*
X2284003D1*
X2268596D1*
X2253202D1*
X2237795D1*
X2222402D1*
X2206995D1*
X2191496D1*
X2176102D1*
X2160696D1*
X2145302D1*
X2129895D1*
X2114501D1*
X2099094D1*
X2083701D1*
X2068307D1*
X2052795D1*
X2037402D1*
X2021995D1*
X2006601D1*
X1991207D1*
X1975801D1*
X1960302D1*
X1944895D1*
X1929501D1*
X1914094D1*
X1898701Y3084003D1*
X1883307D1*
X1867900D1*
X1852402D1*
X1836995D1*
X1821601D1*
X1806207D1*
X1790801D1*
X1775407D1*
X1759895D1*
X1744606D1*
X1729199D1*
X1713701D1*
X1698307D1*
X1682900D1*
X1678806D1*
X1674803Y3084094D1*
X1670801Y3084199D1*
X1666798Y3084396D1*
X1662795Y3084606D1*
X1658806Y3084803D1*
X1654803Y3085105D1*
X1650906Y3085407D1*
X1646995Y3085801D1*
X1643005Y3086194D1*
X1639094Y3086601D1*
X1635197Y3087100D1*
X1631299Y3087703D1*
X1627402Y3088202D1*
X1623596Y3088898D1*
X1619803Y3089501D1*
X1615906Y3090302D1*
X1612100Y3090997D1*
X1608399Y3091798D1*
X1604606Y3092598D1*
X1600801Y3093399D1*
X1596995Y3094396D1*
X1593307Y3095302D1*
X1589606Y3096299D1*
X1585906Y3097297D1*
X1582205Y3098399D1*
X1578504Y3099501D1*
X1574895Y3100696D1*
X1571207Y3101903D1*
X1567598Y3103097D1*
X1564003Y3104396D1*
X1560302Y3105696D1*
X1556798Y3106995D1*
X1553202Y3108399D1*
X1549606Y3109895D1*
X1546102Y3111299D1*
X1542598Y3112795D1*
X1539003Y3114396D1*
X1535499Y3115906D1*
X1531995Y3117598D1*
X1528596Y3119199D1*
X1525105Y3120906D1*
X1521706Y3122598D1*
X1518307Y3124396D1*
X1514895Y3126194D1*
X1511496Y3128097D1*
X1508097Y3130000D1*
X1504698Y3131903D1*
X1501404Y3133806D1*
X1498097Y3135801D1*
X1494803Y3137900D1*
X1491496Y3139895D1*
X1488202Y3141995D1*
X1484895Y3144199D1*
X1481706Y3146404D1*
X1478504Y3148596D1*
X1475197Y3150801D1*
X1471995Y3153097D1*
X1468806Y3155407D1*
X1465696Y3157795D1*
X1462507Y3160197D1*
X1459396Y3162598D1*
X1456299Y3165105D1*
X1453202Y3167598D1*
X1444803Y3174396D1*
X1436404Y3181207D1*
X1428005Y3188097D1*
X1419606Y3194895D1*
X1411207Y3201798D1*
X1402900Y3208596D1*
X1394501Y3215499D1*
X1386102Y3222297D1*
X1377795Y3229094D1*
X1369396Y3235997D1*
X1361102Y3242900D1*
X1352703Y3249698D1*
X1344304Y3256601D1*
X1335997Y3263399D1*
X1327598Y3270302D1*
X1319304Y3277205D1*
X1310906Y3284094D1*
X1302598Y3290906D1*
X1294199Y3297795D1*
X1285906Y3304698D1*
X1277507Y3311601D1*
X1269199Y3318399D1*
X1260801Y3325302D1*
X1252507Y3332205D1*
X1244199Y3339094D1*
X1235801Y3345997D1*
X1227507Y3352795D1*
X1219199Y3359698D1*
X1210801Y3366601D1*
X1202507Y3373504D1*
X1194199Y3380407D1*
X1185801Y3387297D1*
X1177507Y3394199D1*
X1169199Y3401102D1*
X1160801Y3408005D1*
X1152507Y3414803D1*
X1144094Y3421706D1*
X1135801Y3428701D1*
X1127507Y3435499D1*
X1119094Y3442402D1*
X1110801Y3449304D1*
X1102507Y3456194D1*
X1094094Y3463097D1*
X1085801Y3470000D1*
X1077507Y3476903D1*
X1069094Y3483701D1*
X1060801Y3490604D1*
X1052402Y3497507D1*
X1044094Y3504396D1*
X1035801Y3511299D1*
X1027402Y3518097D1*
X1019094Y3525000D1*
X1010801Y3531903D1*
X1002402Y3538806D1*
X994003Y3545604D1*
X985696Y3552507D1*
X977297Y3559396D1*
X969003Y3566299D1*
X960696Y3573097D1*
X952297Y3580000D1*
X943898Y3586903D1*
X935604Y3593701D1*
X927205Y3600604D1*
X918806Y3607402D1*
X917598Y3608504D1*
X916299Y3609501D1*
X915197Y3610499D1*
X914003Y3611601D1*
X912795Y3612703D1*
X911706Y3613701D1*
X910604Y3614803D1*
X909501Y3615906D1*
X908399Y3616995D1*
X907402Y3618097D1*
X906404Y3619199D1*
X905407Y3620302D1*
X904501Y3621404D1*
X903596Y3622507D1*
X902703Y3623596D1*
X901798Y3624698D1*
X900997Y3625906D1*
X900105Y3626995D1*
X899304Y3628202D1*
X898504Y3629304D1*
X897795Y3630499D1*
X897100Y3631601D1*
X896404Y3632795D1*
X895696Y3634003D1*
X895000Y3635197D1*
X894396Y3636404D1*
X893806Y3637598D1*
X893202Y3638806D1*
X892598Y3640105D1*
X892100Y3641299D1*
X891102Y3643701D1*
X890604Y3645000D1*
X890197Y3646299D1*
X889698Y3647507D1*
X889304Y3648806D1*
X888898Y3650105D1*
X888596Y3651404D1*
X888307Y3652703D1*
X887900Y3654003D1*
X887703Y3655302D1*
X887402Y3656706D1*
X887205Y3658005D1*
X886903Y3659396D1*
X886706Y3660696D1*
X886496Y3662100D1*
X886404Y3663504D1*
X886194Y3664895D1*
X886102Y3666299D1*
X885997Y3667703D1*
X885906Y3669094D1*
Y3670604D1*
X885801Y3671995D1*
Y3673504D1*
Y3674895D1*
X885906Y3676404D1*
Y3677900D1*
X885997Y3679396D1*
X886102Y3680906D1*
X886194Y3682402D1*
X886299Y3684003D1*
X886404Y3685499D1*
X886601Y3687100D1*
X886798Y3688701D1*
X886903Y3689396D1*
X887205Y3690801D1*
X887402Y3692205D1*
X887703Y3693596D1*
X888005Y3695000D1*
X888504Y3696299D1*
X888806Y3697598D1*
X889304Y3698898D1*
X889803Y3700197D1*
X890302Y3701404D1*
X890906Y3702598D1*
X891706Y3704396D1*
X892297Y3705499D1*
X893005Y3706706D1*
X894003Y3708307D1*
X895000Y3710000D1*
X895696Y3710997D1*
X896496Y3712100D1*
X897598Y3713701D1*
X898399Y3714698D1*
X899606Y3716194D1*
X900801Y3717703D1*
X901995Y3719199D1*
X903307Y3720696D1*
X904094Y3721706D1*
X905000Y3722703D1*
X905801Y3723701D1*
X907100Y3725105D1*
X908307Y3726404D1*
X909396Y3727795D1*
X910604Y3729094D1*
X911706Y3730407D1*
X912900Y3731706D1*
X914003Y3733005D1*
X915197Y3734304D1*
X916299Y3735696D1*
X917507Y3736995D1*
X918596Y3738202D1*
X919803Y3739606D1*
X920997Y3740906D1*
X922205Y3742205D1*
X923307Y3743504D1*
X924501Y3744803D1*
X925604Y3746102D1*
X926798Y3747402D1*
X928005Y3748701D1*
X929094Y3750000D1*
X930302Y3751299D1*
X931496Y3752598D1*
X932598Y3753898D1*
X933806Y3755302D1*
X934895Y3756601D1*
X936102Y3757900D1*
X937205Y3759199D1*
X938307Y3760604D1*
X939501Y3761903D1*
X940604Y3763202D1*
X941706Y3764606D1*
X942795Y3765906D1*
X944003Y3767205D1*
X945105Y3768596D1*
X946207Y3769895D1*
X947297Y3771299D1*
X948399Y3772598D1*
X949501Y3774003D1*
X950604Y3775407D1*
X951601Y3776706D1*
X952703Y3778097D1*
X953701Y3779501D1*
X954803Y3780906D1*
X955801Y3782297D1*
X956903Y3783701D1*
X957900Y3785105D1*
X958898Y3786601D1*
X959895Y3788005D1*
X960906Y3789396D1*
X961903Y3790801D1*
X962900Y3792297D1*
X963898Y3793701D1*
X964803Y3795197D1*
X965696Y3796706D1*
X966706Y3798202D1*
X967598Y3799698D1*
X968504Y3801207D1*
X969396Y3802703D1*
X970197Y3804199D1*
X971102Y3805696D1*
X971995Y3807205D1*
X972795Y3808806D1*
X973701Y3810302D1*
X974501Y3811903D1*
X975302Y3813504D1*
X976207Y3815197D1*
X976995Y3816995D1*
X977900Y3818701D1*
X978701Y3820407D1*
X979501Y3822205D1*
X980407Y3823898D1*
X981207Y3825696D1*
X981903Y3827402D1*
X982703Y3829199D1*
X983504Y3830906D1*
X984304Y3832703D1*
X985105Y3834396D1*
X985906Y3836194D1*
X986601Y3838005D1*
X987402Y3839803D1*
X988097Y3841496D1*
X988806Y3843307D1*
X989501Y3845105D1*
X990197Y3846903D1*
X990906Y3848596D1*
X991601Y3850407D1*
X992205Y3852205D1*
X992900Y3854003D1*
X993596Y3855801D1*
X994199Y3857598D1*
X994803Y3859396D1*
X995407Y3861207D1*
X995997Y3863005D1*
X996601Y3864895D1*
X997205Y3866601D1*
X997795Y3868504D1*
X998399Y3870302D1*
X998898Y3872100D1*
X999396Y3874003D1*
X1000000Y3875801D1*
X1000499Y3877598D1*
X1000997Y3879501D1*
X1001496Y3881299D1*
X1001995Y3883202D1*
X1002402Y3885000D1*
X1002900Y3886903D1*
X1003399Y3888806D1*
X1003806Y3890604D1*
X1004199Y3892507D1*
X1004698Y3894396D1*
X1005000Y3896299D1*
X1005407Y3898097D1*
X1005801Y3900000D1*
X1006207Y3901903D1*
X1006496Y3903806D1*
X1006903Y3905696D1*
X1007205Y3907598D1*
X1007507Y3909606D1*
X1007795Y3911404D1*
X1008097Y3913399D1*
X1008399Y3915302D1*
X1008596Y3917205D1*
X1008898Y3919199D1*
X1009094Y3921102D1*
X1009396Y3923005D1*
X1009501Y3925000D1*
X1009698Y3926903D1*
X1009895Y3928898D1*
X1010105Y3930906D1*
X1010407Y3935197D1*
X1010696Y3939501D1*
X1010906Y3943806D1*
X1011102Y3948005D1*
X1011299Y3952205D1*
Y3956496D1*
X1011404Y3960696D1*
X1011299Y3964895D1*
Y3969003D1*
X1011102Y3973202D1*
X1010997Y3977297D1*
X1010801Y3981404D1*
X1010499Y3985499D1*
X1010105Y3989606D1*
X1009803Y3993596D1*
X1009396Y3997703D1*
X1008898Y4001706D1*
X1008399Y4005696D1*
X1007795Y4009698D1*
X1007100Y4013701D1*
X1006404Y4017703D1*
X1005696Y4021601D1*
X1004895Y4025499D1*
X1004094Y4029396D1*
X1003202Y4033307D1*
X1002297Y4037100D1*
X1001299Y4040997D1*
X1000302Y4044803D1*
X999199Y4048596D1*
X998005Y4052402D1*
X996798Y4056207D1*
X995604Y4060000D1*
X994304Y4063701D1*
X992900Y4067402D1*
X991601Y4071102D1*
X990105Y4074803D1*
X988596Y4078399D1*
X987100Y4082100D1*
X985499Y4085696D1*
X983806Y4089304D1*
X982100Y4092900D1*
X980407Y4096496D1*
X978596Y4100000D1*
X976706Y4103596D1*
X974803Y4107100D1*
X972795Y4110604D1*
X970906Y4114094D1*
X968806Y4117598D1*
X966706Y4121102D1*
X964501Y4124501D1*
X962297Y4127900D1*
X960000Y4131299D1*
X957703Y4134698D1*
X955302Y4138005D1*
X952900Y4141404D1*
X950407Y4144698D1*
X947900Y4148005D1*
X945302Y4151299D1*
X942703Y4154606D1*
X940000Y4157795D1*
X937297Y4161102D1*
X934501Y4164199D1*
X931706Y4167402D1*
X928701Y4170604D1*
X926496Y4173005D1*
X924304Y4175302D1*
X922100Y4177598D1*
X919895Y4179895D1*
X917598Y4182205D1*
X915302Y4184396D1*
X913005Y4186601D1*
X910696Y4188806D1*
X908307Y4190906D1*
X905997Y4193005D1*
X903596Y4195105D1*
X901194Y4197100D1*
X898806Y4199094D1*
X896404Y4201102D1*
X894003Y4203097D1*
X891496Y4205000D1*
X889003Y4206903D1*
X886496Y4208806D1*
X884003Y4210604D1*
X881601Y4212402D1*
X879003Y4214199D1*
X876404Y4215906D1*
X873898Y4217598D1*
X871299Y4219304D1*
X868701Y4220997D1*
X866102Y4222598D1*
X863504Y4224199D1*
X860801Y4225801D1*
X858202Y4227402D1*
X855499Y4228898D1*
X852795Y4230407D1*
X850105Y4231798D1*
X847297Y4233202D1*
X844606Y4234698D1*
X841798Y4236102D1*
X839094Y4237402D1*
X836299Y4238701D1*
X833504Y4240000D1*
X830696Y4241299D1*
X827795Y4242598D1*
X825000Y4243701D1*
X822100Y4244895D1*
X819199Y4246102D1*
X816299Y4247205D1*
X813399Y4248307D1*
X810499Y4249396D1*
X807507Y4250407D1*
X804606Y4251496D1*
X801601Y4252507D1*
X798596Y4253504D1*
X795604Y4254396D1*
X792598Y4255302D1*
X789606Y4256194D1*
X786496Y4256995D1*
X783504Y4257900D1*
X780407Y4258701D1*
X777297Y4259501D1*
X774199Y4260197D1*
X771102Y4260906D1*
X767900Y4261601D1*
X764803Y4262297D1*
X761601Y4263005D1*
X758399Y4263596D1*
X755197Y4264199D1*
X752297Y4264698D1*
X749396Y4265197D1*
X746601Y4265696D1*
X743806Y4266102D1*
X740906Y4266496D1*
X738005Y4266903D1*
X735197Y4267205D1*
X732297Y4267598D1*
X729501Y4267795D1*
X726601Y4268097D1*
X723806Y4268399D1*
X720997Y4268596D1*
X718097Y4268806D1*
X715302Y4269003D1*
X712507Y4269094D1*
X709698Y4269199D1*
X706903Y4269304D1*
X704003Y4269396D1*
X701207D1*
X698399D1*
X695604D1*
X692900D1*
X690000Y4269304D1*
X687297Y4269199D1*
X684501Y4269094D1*
X681706Y4269003D1*
X678898Y4268806D1*
X676102Y4268596D1*
X673307Y4268399D1*
X670604Y4268097D1*
X667795Y4267795D1*
X665105Y4267507D1*
X662297Y4267205D1*
X659606Y4266798D1*
X656798Y4266404D1*
X654094Y4265997D1*
X651404Y4265604D1*
X648596Y4265105D1*
X645906Y4264606D1*
X643202Y4264094D1*
X640407Y4263596D1*
X637703Y4262900D1*
X635000Y4262402D1*
X632297Y4261706D1*
X629606Y4261102D1*
X626903Y4260407D1*
X624199Y4259698D1*
X621496Y4259003D1*
X618806Y4258202D1*
X616102Y4257402D1*
X613504Y4256601D1*
X610801Y4255801D1*
X608202Y4254895D1*
X605499Y4254003D1*
X602795Y4253097D1*
X600197Y4252100D1*
X597507Y4251207D1*
X594895Y4250197D1*
X592297Y4249094D1*
X589606Y4248005D1*
X586995Y4246995D1*
X584396Y4245906D1*
X581798Y4244698D1*
X579199Y4243596D1*
X576194Y4242205D1*
X573202Y4240801D1*
X570302Y4239396D1*
X567297Y4237900D1*
X564396Y4236496D1*
X561496Y4235000D1*
X558701Y4233504D1*
X555801Y4231903D1*
X553005Y4230407D1*
X550197Y4228806D1*
X547402Y4227205D1*
X544606Y4225499D1*
X541798Y4223898D1*
X539094Y4222205D1*
X536404Y4220499D1*
X533806Y4218806D1*
X531102Y4216995D1*
X528399Y4215197D1*
X525801Y4213399D1*
X523202Y4211601D1*
X520604Y4209698D1*
X518097Y4207900D1*
X515604Y4205906D1*
X513097Y4204003D1*
X510604Y4202100D1*
X508097Y4200105D1*
X505696Y4198097D1*
X503307Y4195997D1*
X500906Y4194003D1*
X498504Y4191903D1*
X496102Y4189803D1*
X493806Y4187703D1*
X491496Y4185499D1*
X489199Y4183307D1*
X486903Y4181102D1*
X484606Y4178898D1*
X482402Y4176601D1*
X480197Y4174304D1*
X478097Y4171995D1*
X475906Y4169606D1*
X473806Y4167297D1*
X471706Y4164895D1*
X469606Y4162402D1*
X467507Y4160000D1*
X465499Y4157507D1*
X463399Y4155000D1*
X461404Y4152507D1*
X459501Y4149895D1*
X457507Y4147297D1*
X455604Y4144698D1*
X453701Y4142100D1*
X451798Y4139396D1*
X450000Y4136706D1*
X448097Y4134003D1*
X446299Y4131207D1*
X444501Y4128399D1*
X442795Y4125696D1*
X440997Y4122795D1*
X439304Y4119895D1*
X437598Y4117100D1*
X435906Y4114094D1*
X434304Y4111207D1*
X432703Y4108202D1*
X431102Y4105197D1*
X429895Y4103097D1*
X428898Y4100997D1*
X427795Y4098898D1*
X426706Y4096798D1*
X425696Y4094698D1*
X424698Y4092598D1*
X423701Y4090499D1*
X422703Y4088307D1*
X421706Y4086194D1*
X420801Y4084094D1*
X419803Y4081995D1*
X418898Y4079803D1*
X417900Y4077703D1*
X417100Y4075604D1*
X416194Y4073399D1*
X415302Y4071299D1*
X414396Y4069199D1*
X413596Y4066995D1*
X412795Y4064895D1*
X411995Y4062703D1*
X411207Y4060604D1*
X410407Y4058399D1*
X409698Y4056207D1*
X408898Y4054094D1*
X408202Y4051903D1*
X407507Y4049803D1*
X406798Y4047598D1*
X406207Y4045407D1*
X405499Y4043307D1*
X404803Y4041102D1*
X404199Y4038898D1*
X403596Y4036706D1*
X403005Y4034501D1*
X402402Y4032297D1*
X401903Y4030197D1*
X401404Y4027900D1*
X400801Y4025696D1*
X400302Y4023504D1*
X399895Y4021404D1*
X399396Y4019199D1*
X399003Y4016995D1*
X398504Y4014698D1*
X398097Y4012507D1*
X397703Y4010302D1*
X397297Y4008097D1*
X396903Y4005801D1*
X396601Y4003596D1*
X396299Y4001299D1*
X395997Y3999094D1*
X395696Y3996903D1*
X395407Y3994606D1*
X395197Y3992402D1*
X395000Y3990197D1*
X394698Y3987900D1*
X394501Y3985604D1*
X394396Y3983399D1*
X394199Y3981102D1*
X394094Y3978806D1*
X393898Y3976601D1*
X393806Y3974304D1*
Y3971995D1*
X393701Y3969803D1*
Y3967507D1*
Y3965197D1*
Y3960604D1*
Y3955997D1*
X393806Y3951404D1*
X394003Y3946903D1*
X394199Y3942402D1*
X394501Y3937795D1*
X394895Y3933399D1*
X395197Y3929003D1*
X395696Y3924501D1*
X396194Y3920105D1*
X396798Y3915801D1*
X397402Y3911404D1*
X398097Y3907100D1*
X398806Y3902795D1*
X399606Y3898504D1*
X400499Y3894304D1*
X401404Y3890105D1*
X402297Y3885801D1*
X403307Y3881601D1*
X404396Y3877507D1*
X405604Y3873399D1*
X406798Y3869304D1*
X408005Y3865197D1*
X409304Y3861102D1*
X410696Y3857100D1*
X412100Y3853097D1*
X413504Y3849094D1*
X415105Y3845197D1*
X416706Y3841207D1*
X418307Y3837297D1*
X420000Y3833504D1*
X421798Y3829606D1*
X423596Y3825801D1*
X425499Y3821995D1*
X427402Y3818202D1*
X429396Y3814501D1*
X431404Y3810696D1*
X433504Y3806995D1*
X435696Y3803399D1*
X437900Y3799698D1*
X440105Y3796102D1*
X442402Y3792507D1*
X444803Y3789003D1*
X447297Y3785407D1*
X449803Y3781903D1*
X452297Y3778399D1*
X454895Y3775000D1*
X457598Y3771601D1*
X460302Y3768097D1*
X463097Y3764803D1*
X465906Y3761404D1*
X468806Y3758097D1*
X471798Y3754803D1*
X474803Y3751496D1*
X477795Y3748307D1*
X480906Y3745105D1*
X484094Y3741903D1*
X487297Y3738806D1*
X490604Y3735696D1*
X494003Y3732598D1*
X497402Y3729501D1*
X500906Y3726404D1*
X504304Y3723399D1*
X507900Y3720407D1*
X514396Y3715105D1*
X520906Y3709698D1*
X527402Y3704396D1*
X533898Y3699003D1*
X540407Y3693596D1*
X546903Y3688307D1*
X553399Y3682900D1*
X559895Y3677598D1*
X566404Y3672205D1*
X572900Y3666798D1*
X579396Y3661496D1*
X585906Y3656102D1*
X592402Y3650801D1*
X598898Y3645407D1*
X605407Y3640105D1*
X611903Y3634698D1*
X618399Y3629304D1*
X624895Y3624003D1*
X631404Y3618596D1*
X638005Y3613307D1*
X644396Y3608005D1*
X650906Y3602598D1*
X657507Y3597205D1*
X663898Y3591903D1*
X670407Y3586496D1*
X676995Y3581207D1*
X683504Y3575801D1*
X690000Y3570499D1*
X696496Y3565105D1*
X703005Y3559803D1*
X709501Y3554396D1*
X715997Y3549094D1*
X722507Y3543701D1*
X729003Y3538307D1*
X735499Y3533005D1*
X741995Y3527598D1*
X748504Y3522297D1*
X755000Y3516903D1*
X761496Y3511601D1*
X768005Y3506194D1*
X774501Y3500906D1*
X780997Y3495499D1*
X787507Y3490197D1*
X794003Y3484803D1*
X800499Y3479501D1*
X806995Y3474094D1*
X813504Y3468701D1*
X820000Y3463399D1*
X826496Y3458005D1*
X833097Y3452703D1*
X839501Y3447297D1*
X845997Y3441995D1*
X852507Y3436601D1*
X859003Y3431207D1*
X865499Y3425906D1*
X871995Y3420499D1*
X878504Y3415197D1*
X885000Y3409803D1*
X891496Y3404396D1*
X898005Y3399094D1*
X904501Y3393701D1*
X910997Y3388399D1*
X917507Y3383005D1*
X924003Y3377703D1*
X932205Y3370906D1*
X940407Y3364094D1*
X948596Y3357402D1*
X956798Y3350604D1*
X965000Y3343806D1*
X973202Y3336995D1*
X981299Y3330302D1*
X989501Y3323596D1*
X997703Y3316798D1*
X1005906Y3310000D1*
X1014094Y3303307D1*
X1022297Y3296496D1*
X1030499Y3289698D1*
X1038701Y3283005D1*
X1046903Y3276194D1*
X1055000Y3269396D1*
X1063202Y3262598D1*
X1071404Y3255906D1*
X1079606Y3249094D1*
X1087795Y3242297D1*
X1095997Y3235604D1*
X1104094Y3228806D1*
X1112297Y3221995D1*
X1120604Y3215302D1*
X1128701Y3208504D1*
X1136903Y3201706D1*
X1145105Y3195000D1*
X1153307Y3188202D1*
X1161404Y3181404D1*
X1169698Y3174698D1*
X1177795Y3167900D1*
X1185997Y3161102D1*
X1194199Y3154396D1*
X1202402Y3147598D1*
X1210604Y3140801D1*
X1218701Y3134003D1*
X1226995Y3127205D1*
X1235105Y3120499D1*
X1243307Y3113701D1*
X1251496Y3106903D1*
X1259698Y3100197D1*
X1267900Y3093399D1*
X1275997Y3086601D1*
X1284199Y3079895D1*
X1292402Y3073097D1*
X1300604Y3066299D1*
X1308806Y3059501D1*
X1316995Y3052703D1*
X1325105Y3045997D1*
X1333307Y3039199D1*
X1341496Y3032402D1*
X1349698Y3025696D1*
X1357900Y3018898D1*
X1365997Y3012100D1*
X1374199Y3005302D1*
X1382402Y2998596D1*
X1390604Y2991798D1*
X1398806Y2985000D1*
X1406995Y2978307D1*
X1415105Y2971496D1*
X1423307Y2964698D1*
X1431496Y2957900D1*
X1439698Y2951102D1*
X1447900Y2944396D1*
X1451299Y2941404D1*
X1454698Y2938504D1*
X1458005Y2935604D1*
X1461299Y2932598D1*
X1464501Y2929698D1*
X1467703Y2926601D1*
X1470801Y2923504D1*
X1473898Y2920407D1*
X1476903Y2917297D1*
X1479895Y2914199D1*
X1482795Y2910997D1*
X1485696Y2907795D1*
X1488504Y2904606D1*
X1491299Y2901299D1*
X1494003Y2898005D1*
X1496706Y2894698D1*
X1499396Y2891404D1*
X1501995Y2888005D1*
X1504501Y2884606D1*
X1506995Y2881194D1*
X1509396Y2877795D1*
X1511798Y2874304D1*
X1514199Y2870801D1*
X1516496Y2867297D1*
X1518806Y2863806D1*
X1520997Y2860197D1*
X1523202Y2856601D1*
X1525302Y2853005D1*
X1527402Y2849396D1*
X1529501Y2845696D1*
X1531496Y2841995D1*
X1533504Y2838307D1*
X1535407Y2834606D1*
X1537297Y2830906D1*
X1539199Y2827100D1*
X1540997Y2823307D1*
X1542795Y2819501D1*
X1544501Y2815696D1*
X1546207Y2811798D1*
X1547795Y2807900D1*
X1549501Y2804003D1*
X1550997Y2800105D1*
X1552598Y2796194D1*
X1554094Y2792205D1*
X1555604Y2788307D1*
X1556995Y2784304D1*
X1558399Y2780197D1*
X1559803Y2776194D1*
X1561102Y2772205D1*
X1562402Y2768097D1*
X1563701Y2764003D1*
X1564895Y2759895D1*
X1566102Y2755801D1*
X1567297Y2751601D1*
X1568399Y2747507D1*
X1569501Y2743307D1*
X1570604Y2739094D1*
X1571601Y2734895D1*
X1572598Y2730696D1*
X1573596Y2726404D1*
X1574606Y2722205D1*
X1575499Y2717900D1*
X1576404Y2713596D1*
X1577297Y2709304D1*
X1577402Y2708504D1*
X1577703Y2706706D1*
X1578005Y2705000D1*
X1578202Y2703307D1*
X1578504Y2701601D1*
X1578701Y2699803D1*
X1578898Y2698097D1*
X1579094Y2696299D1*
X1579199Y2694606D1*
X1579396Y2692900D1*
X1579501Y2691102D1*
X1579606Y2689304D1*
X1579698Y2687598D1*
X1579803Y2685801D1*
X1579895Y2684094D1*
Y2682297D1*
X1579921Y2680315D1*
X1580000Y2678806D1*
Y2676995D1*
Y2675197D1*
X1580105Y2673504D1*
Y2671706D1*
Y2669895D1*
Y2668097D1*
X1580000Y2666404D1*
Y2664606D1*
Y2662795D1*
Y2660997D1*
Y2659304D1*
Y2657507D1*
Y2655696D1*
Y2654003D1*
Y2638504D1*
Y2624003D1*
Y2609396D1*
Y2594803D1*
Y2580302D1*
Y2565696D1*
Y2551102D1*
Y2536496D1*
Y2521903D1*
X1579895Y2507402D1*
Y2492795D1*
Y2478202D1*
Y2463596D1*
Y2449094D1*
Y2434501D1*
Y2419895D1*
X1579803Y2405407D1*
Y2390801D1*
Y2376194D1*
Y2361706D1*
Y2347100D1*
Y2332507D1*
Y2317900D1*
X1579698Y2303307D1*
Y2288806D1*
Y2274199D1*
Y2259606D1*
Y2245105D1*
Y2230499D1*
Y2215906D1*
Y2201299D1*
X1579606Y2186798D1*
Y2172205D1*
Y2157598D1*
Y2143097D1*
Y2128504D1*
Y2113898D1*
Y2099396D1*
Y2084803D1*
Y2070197D1*
X1579698Y2055604D1*
Y2040997D1*
Y2026496D1*
Y2011903D1*
Y1997297D1*
Y1982703D1*
X1579803Y1968202D1*
Y1953596D1*
Y1939003D1*
X1579895Y1924501D1*
Y1909895D1*
X1580000Y1895302D1*
Y1880801D1*
X1580105Y1866194D1*
Y1851601D1*
X1580197Y1836995D1*
Y1822507D1*
X1580302Y1807900D1*
X1580407Y1793307D1*
Y1778701D1*
X1580499Y1764094D1*
X1580604Y1749606D1*
X1580696Y1735000D1*
X1580801Y1720407D1*
Y1715105D1*
X1580696Y1709698D1*
X1580604Y1704396D1*
X1580499Y1699094D1*
X1580302Y1693806D1*
X1580000Y1688596D1*
X1579606Y1683399D1*
X1579304Y1678097D1*
X1578806Y1673005D1*
X1578307Y1667795D1*
X1577795Y1662703D1*
X1577205Y1657598D1*
X1576496Y1652507D1*
X1575801Y1647507D1*
X1575000Y1642507D1*
X1574199Y1637402D1*
X1573399Y1632507D1*
X1572402Y1627507D1*
X1571404Y1622598D1*
X1570302Y1617598D1*
X1569304Y1612795D1*
X1568097Y1607900D1*
X1566903Y1603097D1*
X1565604Y1598202D1*
X1564304Y1593399D1*
X1562900Y1588596D1*
X1561496Y1583898D1*
X1560000Y1579199D1*
X1558504Y1574501D1*
X1556903Y1569803D1*
X1555197Y1565105D1*
X1553504Y1560407D1*
X1551706Y1555801D1*
X1549895Y1551207D1*
X1548097Y1546601D1*
X1546102Y1541995D1*
X1544199Y1537507D1*
X1542100Y1533005D1*
X1540000Y1528399D1*
X1537900Y1524003D1*
X1535696Y1519501D1*
X1533399Y1515000D1*
X1531102Y1510604D1*
X1528806Y1506207D1*
X1526404Y1501798D1*
X1523898Y1497402D1*
X1521404Y1493097D1*
X1518806Y1488701D1*
X1516207Y1484396D1*
X1513504Y1480000D1*
X1510801Y1475801D1*
X1508005Y1471496D1*
X1505197Y1467205D1*
X1502205Y1463005D1*
X1499304Y1458701D1*
X1496299Y1454606D1*
X1493307Y1450302D1*
X1490197Y1446194D1*
X1486995Y1441995D1*
X1483806Y1437900D1*
X1480499Y1433701D1*
X1477205Y1429606D1*
X1473806Y1425499D1*
X1470407Y1421404D1*
X1465000Y1415105D1*
X1459698Y1408806D1*
X1454304Y1402402D1*
X1449003Y1396102D1*
X1443596Y1389803D1*
X1438307Y1383399D1*
X1433005Y1377100D1*
X1427703Y1370801D1*
X1422297Y1364396D1*
X1416995Y1358097D1*
X1411706Y1351706D1*
X1406404Y1345302D1*
X1400997Y1339003D1*
X1395696Y1332598D1*
X1390407Y1326194D1*
X1385105Y1319895D1*
X1379803Y1313504D1*
X1374501Y1307205D1*
X1369199Y1300801D1*
X1363898Y1294396D1*
X1358701Y1288005D1*
X1353307Y1281601D1*
X1348097Y1275302D1*
X1342795Y1268898D1*
X1337507Y1262507D1*
X1332205Y1256102D1*
X1326903Y1249698D1*
X1321706Y1243307D1*
X1316404Y1236903D1*
X1311102Y1230604D1*
X1305906Y1224199D1*
X1300604Y1217795D1*
X1295302Y1211404D1*
X1290000Y1205000D1*
X1284803Y1198596D1*
X1279501Y1192205D1*
X1274199Y1185801D1*
X1269003Y1179396D1*
X1263701Y1173005D1*
X1258504Y1166601D1*
X1253202Y1160105D1*
X1247900Y1153806D1*
X1242703Y1147402D1*
X1237402Y1140997D1*
X1232205Y1134501D1*
X1226903Y1128097D1*
X1221601Y1121798D1*
X1216404Y1115407D1*
X1211102Y1108898D1*
X1205906Y1102507D1*
X1200604Y1096102D1*
X1195302Y1089698D1*
X1190105Y1083307D1*
X1184803Y1076903D1*
X1179606Y1070499D1*
X1174304Y1064094D1*
X1169094Y1057703D1*
X1163806Y1051299D1*
X1158504Y1044895D1*
X1153307Y1038504D1*
X1148005Y1032100D1*
X1142703Y1025696D1*
X1137507Y1019304D1*
X1132205Y1012900D1*
X1130906Y1011404D1*
X1129698Y1009895D1*
X1128399Y1008399D1*
X1127205Y1006903D1*
X1125997Y1005407D1*
X1124698Y1003806D1*
X1123504Y1002297D1*
X1122205Y1000801D1*
X1120997Y999304D1*
X1119803Y997795D1*
X1118504Y996299D1*
X1117297Y994698D1*
X1116102Y993202D1*
X1114895Y991706D1*
X1113596Y990197D1*
X1112402Y988596D1*
X1111207Y987100D1*
X1109895Y985499D1*
X1108701Y984003D1*
X1107507Y982507D1*
X1106299Y980997D1*
X1105000Y979396D1*
X1103806Y977900D1*
X1102598Y976404D1*
X1101404Y974803D1*
X1100197Y973307D1*
X1098898Y971798D1*
X1097703Y970302D1*
X1096496Y968701D1*
X1095302Y967205D1*
X1094003Y965696D1*
X1092900Y964094D1*
X1091601Y962598D1*
X1090407Y961102D1*
X1089199Y959501D1*
X1088005Y958005D1*
X1086798Y956496D1*
X1085499Y954895D1*
X1084304Y953399D1*
X1083097Y951798D1*
X1081903Y950302D1*
X1080604Y948806D1*
X1079396Y947205D1*
X1078202Y945696D1*
X1076995Y944199D1*
X1075801Y942598D1*
X1074606Y941102D1*
X1073399Y939606D1*
X1072100Y938005D1*
X1070906Y936496D1*
X1069698Y935000D1*
X1068504Y933399D1*
X1067297Y931903D1*
X1065997Y930407D1*
X1064803Y928898D1*
X1063596Y927297D1*
X1062297Y925801D1*
X1061102Y924304D1*
X1059895Y922795D1*
X1058701Y921207D1*
X1057402Y919698D1*
X1056194Y918097D1*
X1055000Y916601D1*
X1053701Y915105D1*
X1052297Y913399D1*
X1050906Y911798D1*
X1049396Y910197D1*
X1047795Y908596D1*
X1046299Y907100D1*
X1044698Y905604D1*
X1043097Y904199D1*
X1041496Y902900D1*
X1039803Y901601D1*
X1038097Y900302D1*
X1036299Y899094D1*
X1034606Y897900D1*
X1032795Y896798D1*
X1030997Y895696D1*
X1029094Y894698D1*
X1027297Y893806D1*
X1025407Y892900D1*
X1023504Y891995D1*
X1021601Y891207D1*
X1019698Y890407D1*
X1017703Y889698D1*
X1015801Y889094D1*
X1013806Y888399D1*
X1011798Y887900D1*
X1009803Y887402D1*
X1007795Y886903D1*
X1005801Y886496D1*
X1003701Y886194D1*
X1001706Y885906D1*
X999606Y885604D1*
X997598Y885407D1*
X995499Y885302D1*
X993504Y885197D1*
X991404D1*
X989304D1*
X987297Y885302D1*
X985197Y885407D1*
X983202Y885604D1*
X981102Y885906D1*
X979003Y886194D1*
X976995Y886496D1*
X974895Y886903D1*
X972900Y887402D1*
X970906Y887900D1*
X968898Y888504D1*
X966903Y889094D1*
X964803Y889803D1*
X962900Y890604D1*
X960906Y891299D1*
X959003Y892205D1*
X956995Y893097D1*
X955105Y894003D1*
X953202Y895105D1*
X951299Y896194D1*
X949396Y897297D1*
X947598Y898504D1*
X945801Y899698D1*
X944003Y900997D1*
X942205Y902402D1*
X940407Y903806D1*
X938701Y905302D1*
X936995Y906798D1*
X935407Y908399D1*
X933701Y910105D1*
X931798Y912100D1*
X929895Y914094D1*
X927900Y915997D1*
X925997Y918005D1*
X924003Y919895D1*
X921995Y921798D1*
X920000Y923701D1*
X918005Y925604D1*
X915997Y927507D1*
X914003Y929304D1*
X911903Y931102D1*
X909895Y932900D1*
X907795Y934698D1*
X905801Y936496D1*
X903701Y938307D1*
X901601Y940000D1*
X899501Y941706D1*
X897402Y943399D1*
X895302Y945105D1*
X893097Y946798D1*
X890997Y948399D1*
X888806Y950000D1*
X886706Y951706D1*
X884501Y953202D1*
X882297Y954803D1*
X880105Y956404D1*
X877900Y957900D1*
X875604Y959396D1*
X873399Y960906D1*
X871207Y962402D1*
X868898Y963898D1*
X866601Y965302D1*
X864396Y966706D1*
X862100Y968202D1*
X859698Y969501D1*
X857402Y970906D1*
X855000Y972205D1*
X852703Y973596D1*
X850302Y974895D1*
X848005Y976207D1*
X845604Y977507D1*
X843202Y978701D1*
X840801Y980000D1*
X838399Y981207D1*
X835906Y982297D1*
X833504Y983504D1*
X830997Y984698D1*
X828504Y985801D1*
X826102Y986903D1*
X823596Y988005D1*
X820997Y989094D1*
X818504Y990197D1*
X815906Y991207D1*
X813399Y992205D1*
X810801Y993202D1*
X808202Y994094D1*
X805696Y995105D1*
X803005Y995997D1*
X800407Y996995D1*
X797795Y997900D1*
X795105Y998701D1*
X792402Y999606D1*
X789803Y1000407D1*
X787100Y1001207D1*
X785407Y1001706D1*
X783701Y1002205D1*
X781995Y1002703D1*
X780302Y1003097D1*
X778504Y1003596D1*
X776798Y1004003D1*
X775105Y1004501D1*
X773399Y1004895D1*
X771706Y1005302D1*
X770000Y1005801D1*
X768202Y1006102D1*
X766496Y1006601D1*
X764803Y1006903D1*
X763097Y1007297D1*
X761404Y1007598D1*
X759698Y1008005D1*
X757900Y1008307D1*
X756194Y1008701D1*
X754501Y1009003D1*
X752795Y1009304D1*
X751102Y1009606D1*
X749304Y1009895D1*
X747598Y1010197D1*
X745906Y1010499D1*
X744199Y1010696D1*
X742402Y1010997D1*
X740696Y1011207D1*
X739003Y1011404D1*
X737297Y1011706D1*
X735499Y1011903D1*
X733806Y1012100D1*
X732100Y1012297D1*
X730407Y1012402D1*
X728701Y1012598D1*
X726903Y1012795D1*
X725197Y1012900D1*
X723399Y1013005D1*
X721798Y1013202D1*
X720000Y1013307D1*
X718307Y1013399D1*
X716496Y1013504D1*
X714803Y1013596D1*
X713097D1*
X711404Y1013701D1*
X709606D1*
X707900D1*
X706194D1*
X704501D1*
X702703D1*
X700997D1*
X699304D1*
X697598D1*
X695906D1*
X694094Y1013596D1*
X692402Y1013504D1*
X690604Y1013399D1*
X689003Y1013307D1*
X687205Y1013202D1*
X685499Y1013097D1*
X683806Y1012900D1*
X681995Y1012795D1*
X680302Y1012598D1*
X678596Y1012507D1*
X676903Y1012297D1*
X673806Y1011903D1*
X670696Y1011496D1*
X667703Y1011207D1*
X664606Y1010696D1*
X661601Y1010302D1*
X658504Y1009803D1*
X655499Y1009396D1*
X652507Y1008898D1*
X649501Y1008307D1*
X646496Y1007795D1*
X643504Y1007205D1*
X640499Y1006601D1*
X637507Y1005906D1*
X634501Y1005302D1*
X631601Y1004606D1*
X628701Y1003898D1*
X625696Y1003202D1*
X622795Y1002507D1*
X619895Y1001706D1*
X616903Y1000906D1*
X614003Y1000105D1*
X611102Y999199D1*
X608307Y998307D1*
X605407Y997402D1*
X602507Y996496D1*
X599698Y995604D1*
X596798Y994606D1*
X594003Y993504D1*
X591207Y992507D1*
X588399Y991404D1*
X585604Y990302D1*
X582795Y989199D1*
X580105Y988097D1*
X577297Y986903D1*
X574501Y985696D1*
X571798Y984501D1*
X569094Y983202D1*
X566404Y981903D1*
X563596Y980604D1*
X560997Y979199D1*
X558307Y977795D1*
X555604Y976404D1*
X553005Y975000D1*
X550302Y973504D1*
X547703Y971995D1*
X545105Y970407D1*
X542507Y968898D1*
X539895Y967297D1*
X537297Y965604D1*
X534803Y964003D1*
X532297Y962297D1*
X529698Y960499D1*
X527205Y958806D1*
X524698Y956995D1*
X522205Y955105D1*
X519803Y953307D1*
X517297Y951404D1*
X514803Y949396D1*
X512402Y947507D1*
X510000Y945499D1*
X507598Y943504D1*
X505197Y941404D1*
X502795Y939304D1*
X500499Y937205D1*
X497795Y934606D1*
X495105Y932100D1*
X492402Y929606D1*
X489803Y926995D1*
X487205Y924396D1*
X484606Y921798D1*
X482205Y919199D1*
X479698Y916496D1*
X477205Y913898D1*
X474803Y911194D1*
X472402Y908596D1*
X470105Y905801D1*
X467703Y903097D1*
X465499Y900407D1*
X463202Y897598D1*
X460997Y894803D1*
X458806Y892100D1*
X456706Y889199D1*
X454606Y886404D1*
X452507Y883596D1*
X450499Y880696D1*
X448504Y877900D1*
X446496Y875000D1*
X444606Y871995D1*
X442703Y869094D1*
X440801Y866194D1*
X439094Y863202D1*
X437297Y860197D1*
X435499Y857205D1*
X433806Y854199D1*
X432100Y851102D1*
X430499Y848097D1*
X428898Y845000D1*
X427297Y841903D1*
X425801Y838701D1*
X424199Y835604D1*
X422703Y832402D1*
X421299Y829199D1*
X419895Y825997D1*
X418596Y822795D1*
X417205Y819501D1*
X415997Y816299D1*
X414698Y813005D1*
X413504Y809698D1*
X412297Y806404D1*
X411207Y803005D1*
X410105Y799698D1*
X409003Y796299D1*
X407900Y792795D1*
X406995Y789396D1*
X405997Y785906D1*
X405105Y782507D1*
X404199Y779003D1*
X403307Y775499D1*
X402507Y771903D1*
X401706Y768307D1*
X400997Y764698D1*
X400302Y761102D1*
X399606Y757507D1*
X399003Y753806D1*
X398399Y750105D1*
X397795Y746496D1*
X397297Y742703D1*
X396798Y738898D1*
X396404Y735604D1*
X395997Y732100D1*
X395696Y728701D1*
X395407Y725407D1*
X395105Y721995D1*
X394895Y718701D1*
X394698Y715302D1*
X394606Y711995D1*
X394501Y708701D1*
X394396Y705407D1*
Y702100D1*
Y698806D1*
Y695499D1*
X394501Y692297D1*
X394606Y689003D1*
X394803Y685801D1*
X395000Y682507D1*
X395197Y679304D1*
X395407Y676102D1*
X395696Y672900D1*
X395997Y669698D1*
X396404Y666601D1*
X396798Y663399D1*
X397297Y660197D1*
X397703Y657100D1*
X398307Y653898D1*
X398806Y650801D1*
X399396Y647703D1*
X400000Y644606D1*
X400604Y641496D1*
X401299Y638399D1*
X401995Y635302D1*
X402795Y632205D1*
X403504Y629094D1*
X404396Y626102D1*
X405197Y623005D1*
X406102Y620000D1*
X406995Y616995D1*
X407900Y614003D1*
X408898Y610997D1*
X409895Y607900D1*
X410906Y604895D1*
X411995Y601903D1*
X413202Y598898D1*
X414304Y595997D1*
X415499Y593005D1*
X416706Y590000D1*
X417900Y587100D1*
X419199Y584094D1*
X420499Y581207D1*
X421798Y578202D1*
X423202Y575302D1*
X424501Y572402D1*
X425997Y569501D1*
X427402Y566496D1*
X428898Y563596D1*
X430407Y560696D1*
X431995Y557795D1*
X433596Y554895D1*
X435197Y552100D1*
X436706Y549199D1*
X438399Y546299D1*
X440105Y543399D1*
X441798Y540604D1*
X444003Y536995D1*
X446194Y533504D1*
X448504Y530105D1*
X450801Y526601D1*
X453097Y523307D1*
X455407Y519895D1*
X457795Y516601D1*
X460197Y513399D1*
X462598Y510197D1*
X465000Y506995D1*
X467507Y503898D1*
X470105Y500801D1*
X472598Y497795D1*
X475197Y494803D1*
X477795Y491903D1*
X480499Y488898D1*
X483097Y486102D1*
X485906Y483307D1*
X488596Y480499D1*
X491404Y477795D1*
X494199Y475105D1*
X496995Y472402D1*
X499895Y469895D1*
X502703Y467297D1*
X505696Y464803D1*
X508596Y462297D1*
X511601Y459895D1*
X514606Y457507D1*
X517703Y455197D1*
X520696Y452900D1*
X523806Y450696D1*
X526903Y448504D1*
X530105Y446299D1*
X533307Y444199D1*
X536496Y442100D1*
X539803Y440105D1*
X543097Y438097D1*
X546404Y436194D1*
X549698Y434304D1*
X553097Y432402D1*
X556496Y430604D1*
X559895Y428898D1*
X563399Y427205D1*
X566798Y425499D1*
X570407Y423806D1*
X573898Y422297D1*
X577507Y420696D1*
X581102Y419199D1*
X584698Y417795D1*
X588399Y416404D1*
X591995Y415105D1*
X595801Y413701D1*
X599501Y412507D1*
X603307Y411299D1*
X607100Y410105D1*
X610906Y408898D1*
X614803Y407900D1*
X618701Y406798D1*
X622598Y405801D1*
X626496Y404895D1*
X630499Y403898D1*
X634501Y403097D1*
X638596Y402297D1*
X642598Y401496D1*
X648202Y400499D1*
X653701Y399606D1*
X659199Y398806D1*
X664698Y398005D1*
X670105Y397402D1*
X675604Y396798D1*
X680906Y396299D1*
X686299Y395906D1*
X691706Y395604D1*
X696995Y395407D1*
X702297Y395197D1*
X707598Y395105D1*
X712795D1*
X718005Y395197D1*
X723202Y395407D1*
X728399Y395604D1*
X733504Y395906D1*
X738596Y396404D1*
X743701Y396903D1*
X748806Y397402D1*
X753806Y398097D1*
X758806Y398898D1*
X763806Y399698D1*
X768701Y400604D1*
X773596Y401601D1*
X778504Y402703D1*
X783399Y403898D1*
X788202Y405105D1*
X793005Y406496D1*
X797795Y407900D1*
X802507Y409396D1*
X807205Y410997D1*
X811903Y412703D1*
X816601Y414396D1*
X821194Y416194D1*
X825696Y418202D1*
X830302Y420197D1*
X834803Y422205D1*
X839304Y424501D1*
X843806Y426706D1*
X848202Y429094D1*
X852598Y431496D1*
X856995Y434003D1*
X861299Y436601D1*
X865604Y439304D1*
X869895Y442100D1*
X874094Y444895D1*
X878307Y447900D1*
X882507Y450906D1*
X886601Y454003D1*
X890696Y457205D1*
X894698Y460499D1*
X898806Y463898D1*
X902795Y467297D1*
X906706Y470906D1*
X910696Y474501D1*
X914501Y478202D1*
X918399Y481995D1*
X922205Y485906D1*
X925997Y489895D1*
X929698Y493898D1*
X933399Y498097D1*
X937100Y502297D1*
X940696Y506601D1*
X951601Y519698D1*
X962402Y532795D1*
X973307Y545906D1*
X984094Y559003D1*
X994895Y571995D1*
X1005696Y585105D1*
X1016496Y598202D1*
X1027402Y611299D1*
X1038202Y624396D1*
X1049003Y637507D1*
X1059803Y650604D1*
X1070604Y663701D1*
X1081404Y676798D1*
X1092205Y689895D1*
X1103005Y703005D1*
X1113806Y716102D1*
X1124606Y729304D1*
X1135407Y742402D1*
X1146194Y755499D1*
X1156995Y768596D1*
X1167795Y781706D1*
X1178596Y794803D1*
X1189396Y807900D1*
X1200197Y820997D1*
X1210906Y834199D1*
X1221706Y847297D1*
X1232507Y860407D1*
X1243307Y873504D1*
X1254094Y886706D1*
X1264803Y899803D1*
X1275696Y912900D1*
X1286404Y925997D1*
X1297205Y939199D1*
X1308005Y952297D1*
X1318806Y965407D1*
X1329606Y978504D1*
X1340302Y991706D1*
X1351102Y1004803D1*
X1361903Y1017900D1*
X1372703Y1030997D1*
X1383504Y1044094D1*
X1394199Y1057205D1*
X1405000Y1070407D1*
X1415801Y1083504D1*
X1426601Y1096601D1*
X1437402Y1109698D1*
X1448202Y1122795D1*
X1459003Y1135906D1*
X1469803Y1149094D1*
X1480604Y1162205D1*
X1491404Y1175302D1*
X1502205Y1188307D1*
X1513005Y1201496D1*
X1523806Y1214606D1*
X1534606Y1227703D1*
X1545407Y1240801D1*
X1556207Y1253898D1*
X1567100Y1266995D1*
X1577900Y1280000D1*
X1588701Y1293202D1*
X1599501Y1306194D1*
X1610302Y1319304D1*
X1621102Y1332402D1*
X1631995Y1345499D1*
X1633898Y1347795D1*
X1635906Y1350197D1*
X1637795Y1352507D1*
X1639698Y1354895D1*
X1641601Y1357205D1*
X1643504Y1359606D1*
X1645407Y1361903D1*
X1647297Y1364304D1*
X1649199Y1366706D1*
X1651102Y1369003D1*
X1653005Y1371404D1*
X1654803Y1373806D1*
X1656798Y1376194D1*
X1658701Y1378504D1*
X1660499Y1380906D1*
X1662402Y1383307D1*
X1664304Y1385696D1*
X1666194Y1388097D1*
X1668097Y1390407D1*
X1670000Y1392795D1*
X1671903Y1395105D1*
X1673806Y1397507D1*
X1675696Y1399895D1*
X1677507Y1402205D1*
X1679501Y1404606D1*
X1681404Y1406995D1*
X1683307Y1409304D1*
X1685197Y1411706D1*
X1687100Y1414003D1*
X1689094Y1416404D1*
X1690997Y1418701D1*
X1693005Y1420997D1*
X1694895Y1423399D1*
X1696903Y1425696D1*
X1698806Y1428005D1*
X1700801Y1430302D1*
X1702795Y1432598D1*
X1704803Y1434895D1*
X1706798Y1437205D1*
X1708806Y1439501D1*
X1710801Y1441706D1*
X1712795Y1444003D1*
X1714895Y1446194D1*
X1716995Y1448399D1*
X1719094Y1450696D1*
X1721102Y1452900D1*
X1723202Y1455105D1*
X1725302Y1457297D1*
X1727402Y1459396D1*
X1729606Y1461706D1*
X1731706Y1463806D1*
X1733898Y1465906D1*
X1736102Y1468005D1*
X1738202Y1470197D1*
X1740407Y1472297D1*
X1742703Y1474304D1*
X1744895Y1476404D1*
X1747205Y1478504D1*
X1749501Y1480499D1*
X1751798Y1482598D1*
X1754094Y1484501D1*
X1756404Y1486601D1*
X1758806Y1488504D1*
X1761102Y1490499D1*
X1763806Y1492598D1*
X1766496Y1494803D1*
X1769199Y1496903D1*
X1771798Y1499003D1*
X1774606Y1500997D1*
X1777205Y1503097D1*
X1780000Y1505105D1*
X1782703Y1507100D1*
X1785499Y1509094D1*
X1788202Y1510997D1*
X1790997Y1512900D1*
X1793806Y1514803D1*
X1796601Y1516706D1*
X1799304Y1518504D1*
X1802100Y1520302D1*
X1805000Y1522100D1*
X1807795Y1523898D1*
X1810696Y1525604D1*
X1813504Y1527297D1*
X1816404Y1529003D1*
X1819304Y1530696D1*
X1822100Y1532297D1*
X1825000Y1533898D1*
X1827900Y1535499D1*
X1830906Y1536995D1*
X1833806Y1538596D1*
X1836706Y1540105D1*
X1839698Y1541601D1*
X1842703Y1543005D1*
X1845604Y1544396D1*
X1848596Y1545801D1*
X1851601Y1547205D1*
X1854606Y1548596D1*
X1857703Y1549895D1*
X1860696Y1551207D1*
X1863806Y1552507D1*
X1866798Y1553701D1*
X1869895Y1554895D1*
X1873005Y1556102D1*
X1876102Y1557297D1*
X1879199Y1558399D1*
X1882297Y1559501D1*
X1885499Y1560499D1*
X1888596Y1561601D1*
X1891798Y1562598D1*
X1895000Y1563596D1*
X1898202Y1564606D1*
X1901404Y1565499D1*
X1904606Y1566404D1*
X1907795Y1567297D1*
X1910997Y1568202D1*
X1914304Y1569003D1*
X1917598Y1569803D1*
X1920906Y1570604D1*
X1924199Y1571404D1*
X1927507Y1572100D1*
X1930801Y1572795D1*
X1934199Y1573399D1*
X1937507Y1574003D1*
X1940906Y1574606D1*
X1944304Y1575302D1*
X1947703Y1575801D1*
X1951102Y1576299D1*
X1954501Y1576798D1*
X1955696Y1576903D1*
X1958097Y1577297D1*
X1960499Y1577598D1*
X1962900Y1577900D1*
X1965197Y1578097D1*
X1966496Y1578307D1*
X1967598Y1578399D1*
X1970000Y1578596D1*
X1972402Y1578806D1*
X1974803Y1579003D1*
X1977205Y1579199D1*
X1979501Y1579396D1*
X1981903Y1579501D1*
X1984304Y1579698D1*
X1986706Y1579803D1*
X1989003Y1580000D1*
X1991404D1*
X1993806Y1580105D1*
X1996102Y1580197D1*
X1998504Y1580302D1*
X2000906Y1580407D1*
X2003307Y1580499D1*
X2005604D1*
X2008005Y1580604D1*
X2010407D1*
X2012703Y1580696D1*
X2015105D1*
X2017507D1*
X2019803D1*
X2022205D1*
X2024606Y1580801D1*
X2026903D1*
X2029304D1*
X2045105D1*
X2059698D1*
X2074304D1*
X2088898D1*
X2103596D1*
X2118202D1*
X2132795D1*
X2147402D1*
X2161995D1*
X2176601D1*
X2191207D1*
X2205801D1*
X2220407D1*
X2235105D1*
X2249698D1*
X2264304Y1580906D1*
X2278898D1*
X2293504D1*
X2308097D1*
X2322703D1*
X2337297D1*
X2351995D1*
X2366601D1*
X2381102D1*
X2395801D1*
X2410407D1*
X2425000D1*
X2439606D1*
X2454199D1*
X2468806D1*
X2483504D1*
X2498005D1*
X2512598D1*
X2527297D1*
X2541903D1*
X2556496D1*
X2571102D1*
X2585696D1*
X2600302D1*
X2614895D1*
X2629501D1*
X2644199D1*
X2658806D1*
X2673399D1*
X2688005D1*
X2702598D1*
X2717205D1*
X2731798D1*
X2746404D1*
X2760997D1*
X2775696D1*
X2790302D1*
X2804895D1*
X2819501D1*
X2834094D1*
X2848701D1*
X2863307D1*
X2877900D1*
X2892507D1*
X2907205D1*
X2921798D1*
X2936404D1*
X2950997D1*
X2965604D1*
X2969803D1*
X2974003D1*
X2978307Y1580801D1*
X2982507Y1580696D1*
X2986601Y1580499D1*
X2990801Y1580197D1*
X2995000Y1580000D1*
X2999094Y1579698D1*
X3003202Y1579396D1*
X3007297Y1579003D1*
X3011496Y1578596D1*
X3015499Y1578097D1*
X3019606Y1577703D1*
X3023596Y1577100D1*
X3027703Y1576496D1*
X3031706Y1575906D1*
X3035801Y1575302D1*
X3039803Y1574501D1*
X3043701Y1573806D1*
X3047703Y1573005D1*
X3051706Y1572205D1*
X3055604Y1571404D1*
X3059606Y1570499D1*
X3063504Y1569606D1*
X3067402Y1568596D1*
X3071299Y1567507D1*
X3075105Y1566496D1*
X3079003Y1565407D1*
X3082795Y1564199D1*
X3086706Y1563005D1*
X3090499Y1561798D1*
X3094304Y1560499D1*
X3098097Y1559199D1*
X3101903Y1557900D1*
X3105604Y1556496D1*
X3109396Y1555000D1*
X3113097Y1553596D1*
X3116798Y1551995D1*
X3120499Y1550499D1*
X3124199Y1548898D1*
X3127900Y1547205D1*
X3131496Y1545499D1*
X3135105Y1543806D1*
X3138701Y1541995D1*
X3142402Y1540197D1*
X3145906Y1538399D1*
X3149501Y1536404D1*
X3153097Y1534501D1*
X3156601Y1532507D1*
X3160105Y1530499D1*
X3163596Y1528399D1*
X3167100Y1526299D1*
X3170604Y1524094D1*
X3174094Y1521903D1*
X3177507Y1519698D1*
X3180906Y1517297D1*
X3184304Y1515000D1*
X3187703Y1512598D1*
X3191102Y1510197D1*
X3194501Y1507703D1*
X3197795Y1505197D1*
X3201102Y1502598D1*
X3204396Y1500105D1*
X3207703Y1497402D1*
X3214698Y1491706D1*
X3221601Y1486102D1*
X3228596Y1480407D1*
X3235604Y1474803D1*
X3242507Y1469094D1*
X3249396Y1463399D1*
X3256404Y1457795D1*
X3263307Y1452100D1*
X3270302Y1446404D1*
X3277205Y1440696D1*
X3284199Y1435105D1*
X3291102Y1429396D1*
X3298005Y1423701D1*
X3305000Y1418005D1*
X3311903Y1412297D1*
X3318806Y1406601D1*
X3325696Y1400906D1*
X3332703Y1395197D1*
X3339606Y1389606D1*
X3346601Y1383898D1*
X3353504Y1378202D1*
X3360407Y1372507D1*
X3367297Y1366798D1*
X3374199Y1361102D1*
X3381207Y1355407D1*
X3388097Y1349698D1*
X3395000Y1344003D1*
X3401903Y1338307D1*
X3408898Y1332598D1*
X3415801Y1326903D1*
X3422703Y1321207D1*
X3429606Y1315499D1*
X3436601Y1309803D1*
X3443504Y1304094D1*
X3450407Y1298399D1*
X3457297Y1292703D1*
X3464199Y1286995D1*
X3471207Y1281299D1*
X3478097Y1275604D1*
X3485000Y1269803D1*
X3491903Y1264199D1*
X3498806Y1258399D1*
X3505696Y1252703D1*
X3512703Y1247100D1*
X3519606Y1241299D1*
X3526496Y1235604D1*
X3533399Y1229895D1*
X3540302Y1224199D1*
X3547205Y1218504D1*
X3554199Y1212795D1*
X3561102Y1207100D1*
X3568005Y1201404D1*
X3574895Y1195696D1*
X3581798Y1190000D1*
X3588806Y1184304D1*
X3595696Y1178596D1*
X3602598Y1172900D1*
X3609501Y1167205D1*
X3616404Y1161496D1*
X3623307Y1155801D1*
X3630302Y1150105D1*
X3637205Y1144396D1*
X3644094Y1138701D1*
X3650997Y1133005D1*
X3652402Y1131798D1*
X3653898Y1130696D1*
X3655302Y1129501D1*
X3656706Y1128399D1*
X3658097Y1127205D1*
X3659501Y1125997D1*
X3660906Y1124895D1*
X3662297Y1123701D1*
X3663701Y1122598D1*
X3665105Y1121404D1*
X3666496Y1120302D1*
X3668005Y1119199D1*
X3669396Y1118005D1*
X3670801Y1116903D1*
X3672205Y1115696D1*
X3673596Y1114606D1*
X3675000Y1113399D1*
X3676496Y1112297D1*
X3677900Y1111102D1*
X3679304Y1110000D1*
X3680696Y1108806D1*
X3682100Y1107703D1*
X3683596Y1106496D1*
X3685000Y1105407D1*
X3686404Y1104304D1*
X3687795Y1103097D1*
X3689199Y1101995D1*
X3690696Y1100801D1*
X3692100Y1099698D1*
X3693504Y1098504D1*
X3694895Y1097402D1*
X3696299Y1096194D1*
X3697795Y1095105D1*
X3699199Y1093898D1*
X3700604Y1092795D1*
X3701995Y1091706D1*
X3703399Y1090499D1*
X3704803Y1089396D1*
X3706299Y1088202D1*
X3707703Y1087100D1*
X3709094Y1085906D1*
X3710499Y1084803D1*
X3711903Y1083596D1*
X3713307Y1082507D1*
X3714698Y1081299D1*
X3716102Y1080197D1*
X3717598Y1079094D1*
X3719003Y1077900D1*
X3720407Y1076798D1*
X3721798Y1075604D1*
X3723202Y1074501D1*
X3724606Y1073307D1*
X3725997Y1072205D1*
X3727507Y1070997D1*
X3728898Y1069895D1*
X3730302Y1068701D1*
X3731706Y1067598D1*
X3733097Y1066404D1*
X3734501Y1065197D1*
X3735906Y1064094D1*
X3737297Y1062900D1*
X3738701Y1061706D1*
X3740105Y1060604D1*
X3741601Y1059396D1*
X3742598Y1058504D1*
X3743701Y1057598D1*
X3744803Y1056706D1*
X3745906Y1055696D1*
X3746903Y1054803D1*
X3747900Y1053806D1*
X3749003Y1052900D1*
X3750000Y1051903D1*
X3750997Y1050997D1*
X3751903Y1050000D1*
X3752900Y1049003D1*
X3753898Y1048005D1*
X3754803Y1046995D1*
X3755696Y1045997D1*
X3756601Y1045000D1*
X3757507Y1044003D1*
X3758399Y1043005D1*
X3759199Y1041903D1*
X3760105Y1040906D1*
X3760906Y1039803D1*
X3761706Y1038806D1*
X3762507Y1037703D1*
X3763202Y1036706D1*
X3764003Y1035604D1*
X3764698Y1034501D1*
X3766102Y1032297D1*
X3767507Y1030105D1*
X3768097Y1028898D1*
X3768701Y1027795D1*
X3769304Y1026601D1*
X3769803Y1025407D1*
X3770997Y1023097D1*
X3771496Y1021903D1*
X3772402Y1019396D1*
X3772900Y1018202D1*
X3773701Y1015696D1*
X3774094Y1014396D1*
X3774501Y1013202D1*
X3774803Y1011903D1*
X3775105Y1010604D1*
X3775407Y1009304D1*
X3775696Y1008005D1*
X3775906Y1006601D1*
X3776102Y1005302D1*
X3776299Y1004003D1*
X3776496Y1002598D1*
X3776601Y1001207D1*
X3776798Y999803D1*
X3776903Y998399D1*
Y996995D1*
Y995604D1*
Y994094D1*
Y992598D1*
Y991102D1*
Y989698D1*
X3776798Y988202D1*
X3776706Y986601D1*
X3776496Y985105D1*
X3776299Y983596D1*
X3776194Y982795D1*
X3776102Y981299D1*
X3775801Y979803D1*
X3775604Y978399D1*
X3775302Y976903D1*
X3775105Y975407D1*
X3774803Y974003D1*
X3774501Y972598D1*
X3774094Y971207D1*
X3773806Y969803D1*
X3773399Y968399D1*
X3773005Y967100D1*
X3772598Y965801D1*
X3772205Y964396D1*
X3771706Y963097D1*
X3771207Y961798D1*
X3770604Y960499D1*
X3770105Y959199D1*
X3769501Y958005D1*
X3768898Y956706D1*
X3768307Y955499D1*
X3767598Y954199D1*
X3766903Y953005D1*
X3766207Y951798D1*
X3765499Y950604D1*
X3764698Y949396D1*
X3763898Y948202D1*
X3763005Y947100D1*
X3762100Y945906D1*
X3761207Y944803D1*
X3760302Y943596D1*
X3759304Y942507D1*
X3757402Y940407D1*
X3755997Y938898D1*
X3754606Y937402D1*
X3753202Y935906D1*
X3751798Y934396D1*
X3750407Y932795D1*
X3749094Y931299D1*
X3747703Y929803D1*
X3746299Y928307D1*
X3744895Y926706D1*
X3743504Y925197D1*
X3742100Y923701D1*
X3740696Y922205D1*
X3739304Y920604D1*
X3737900Y919094D1*
X3736601Y917598D1*
X3735197Y915997D1*
X3733806Y914501D1*
X3732402Y913005D1*
X3731102Y911404D1*
X3729803Y909895D1*
X3728399Y908307D1*
X3726995Y906798D1*
X3725696Y905197D1*
X3724396Y903701D1*
X3723005Y902100D1*
X3721706Y900499D1*
X3720407Y898898D1*
X3719094Y897297D1*
X3717795Y895801D1*
X3716496Y894199D1*
X3715197Y892598D1*
X3713898Y890906D1*
X3712598Y889304D1*
X3711404Y887703D1*
X3710197Y886102D1*
X3708898Y884396D1*
X3707703Y882795D1*
X3706496Y881207D1*
X3705302Y879501D1*
X3704094Y877795D1*
X3702900Y876102D1*
X3701706Y874501D1*
X3700604Y872795D1*
X3699396Y871102D1*
X3698307Y869396D1*
X3697205Y867598D1*
X3696102Y865906D1*
X3695000Y864094D1*
X3693898Y862402D1*
X3692900Y860696D1*
X3691798Y858898D1*
X3690801Y857100D1*
X3689803Y855302D1*
X3688806Y853504D1*
X3687795Y851601D1*
X3686798Y849895D1*
X3685906Y848005D1*
X3685000Y846102D1*
X3684003Y844304D1*
X3683097Y842402D1*
X3682297Y840499D1*
X3681404Y838596D1*
X3680604Y836601D1*
X3679895Y835105D1*
X3679304Y833596D1*
X3678701Y832100D1*
X3678097Y830604D1*
X3677402Y829094D1*
X3676798Y827598D1*
X3676207Y826102D1*
X3675604Y824606D1*
X3675000Y823097D1*
X3674396Y821601D1*
X3673806Y820105D1*
X3673307Y818596D1*
X3672703Y816995D1*
X3672100Y815499D1*
X3671496Y814003D1*
X3670997Y812507D1*
X3670407Y810997D1*
X3669895Y809396D1*
X3669396Y807900D1*
X3668806Y806404D1*
X3668307Y804895D1*
X3667795Y803307D1*
X3667205Y801798D1*
X3666706Y800302D1*
X3666299Y798701D1*
X3665696Y797205D1*
X3665302Y795604D1*
X3664803Y794094D1*
X3664304Y792507D1*
X3663898Y790997D1*
X3663399Y789396D1*
X3662900Y787900D1*
X3662507Y786299D1*
X3662100Y784803D1*
X3661601Y783202D1*
X3661207Y781601D1*
X3660801Y780105D1*
X3660407Y778504D1*
X3660000Y776903D1*
X3659606Y775302D1*
X3659199Y773806D1*
X3658806Y772205D1*
X3658504Y770604D1*
X3658097Y769003D1*
X3657795Y767402D1*
X3657402Y765801D1*
X3657100Y764199D1*
X3656798Y762598D1*
X3656496Y760997D1*
X3656207Y759396D1*
X3655906Y757795D1*
X3655604Y756102D1*
X3655302Y754501D1*
X3655000Y752900D1*
X3654803Y751299D1*
X3654501Y749698D1*
X3654304Y748005D1*
X3654003Y746404D1*
X3653806Y744698D1*
X3653596Y743097D1*
X3653399Y741404D1*
X3653202Y739803D1*
X3653097Y738097D1*
X3652900Y736404D1*
X3652297Y730801D1*
X3651903Y725197D1*
X3651496Y719698D1*
X3651299Y714199D1*
X3651102Y708701D1*
X3650997Y703202D1*
Y697795D1*
X3651102Y692507D1*
X3651207Y687100D1*
X3651496Y681798D1*
X3651798Y676601D1*
X3652205Y671404D1*
X3652703Y666194D1*
X3653307Y661102D1*
X3653898Y655997D1*
X3654698Y650906D1*
X3655499Y645906D1*
X3656404Y640906D1*
X3657402Y635997D1*
X3658504Y631102D1*
X3659606Y626194D1*
X3660906Y621299D1*
X3662205Y616496D1*
X3663504Y611798D1*
X3665000Y607100D1*
X3666601Y602402D1*
X3668202Y597703D1*
X3669895Y593097D1*
X3671706Y588504D1*
X3673504Y584003D1*
X3675499Y579501D1*
X3677507Y575000D1*
X3679606Y570604D1*
X3681798Y566194D1*
X3684003Y561798D1*
X3686404Y557507D1*
X3688806Y553202D1*
X3691299Y549003D1*
X3693806Y544698D1*
X3696404Y540604D1*
X3699199Y536404D1*
X3701903Y532297D1*
X3704803Y528202D1*
X3707703Y524199D1*
X3710696Y520197D1*
X3713806Y516194D1*
X3716903Y512297D1*
X3720197Y508399D1*
X3723504Y504501D1*
X3726798Y500696D1*
X3730197Y496903D1*
X3733806Y493202D1*
X3737297Y489501D1*
X3740997Y485696D1*
X3744698Y482100D1*
X3748504Y478504D1*
X3752402Y474895D1*
X3756299Y471404D1*
X3760302Y467795D1*
X3764396Y464396D1*
X3768504Y460906D1*
X3772795Y457507D1*
X3776995Y454094D1*
X3781404Y450801D1*
X3783504Y449094D1*
X3785696Y447507D1*
X3787900Y445906D1*
X3790105Y444396D1*
X3792402Y442795D1*
X3794606Y441299D1*
X3796798Y439803D1*
X3799094Y438399D1*
X3801299Y436903D1*
X3803596Y435499D1*
X3805906Y434094D1*
X3808202Y432703D1*
X3810604Y431299D1*
X3812900Y430000D1*
X3815197Y428701D1*
X3817598Y427402D1*
X3820000Y426194D1*
X3822297Y424895D1*
X3824698Y423701D1*
X3827100Y422507D1*
X3829501Y421404D1*
X3831903Y420197D1*
X3834304Y419094D1*
X3836798Y418005D1*
X3839199Y416995D1*
X3841706Y415906D1*
X3844199Y414895D1*
X3846601Y413898D1*
X3849094Y412900D1*
X3851601Y411995D1*
X3854199Y411102D1*
X3856706Y410197D1*
X3859199Y409396D1*
X3861798Y408504D1*
X3864304Y407703D1*
X3866903Y406903D1*
X3869396Y406207D1*
X3871995Y405499D1*
X3874606Y404803D1*
X3877205Y404094D1*
X3879803Y403399D1*
X3882507Y402795D1*
X3885105Y402205D1*
X3887703Y401601D1*
X3890407Y401102D1*
X3893005Y400499D1*
X3895696Y400105D1*
X3898399Y399606D1*
X3901102Y399199D1*
X3903806Y398701D1*
X3906496Y398399D1*
X3909199Y398005D1*
X3911903Y397703D1*
X3914606Y397402D1*
X3917297Y397100D1*
X3920105Y396903D1*
X3922795Y396706D1*
X3925604Y396496D1*
X3928399Y396299D1*
X3931207Y396194D1*
X3933898Y396102D1*
X3936706Y395997D1*
X3939501D1*
X3942297Y395906D1*
X3942703D1*
X3944003Y395997D1*
X3945669Y395669D1*
X3947244D1*
X3948819D1*
X3950000D1*
X3951575D1*
X3953150D1*
X3953937D1*
X3955118Y395276D1*
X3956299Y394882D1*
X3957480D1*
X3959055D1*
X3960630Y394488D1*
X3962598Y394094D1*
X3964567Y393701D1*
X3966798D1*
M02*
