G04 DipTrace 3.2.0.1*
G04 Rev1.3.gbl*
%MOIN*%
G04 #@! TF.FileFunction,Copper,L2,Bot*
G04 #@! TF.Part,Single*
%AMOUTLINE12*
4,1,4,
0.017399,0.066117,
0.066117,0.017399,
-0.017399,-0.066117,
-0.066117,-0.017399,
0.017399,0.066117,
0*%
%AMOUTLINE15*
4,1,4,
-0.066117,0.017399,
-0.017399,0.066117,
0.066117,-0.017399,
0.017399,-0.066117,
-0.066117,0.017399,
0*%
G04 #@! TA.AperFunction,Conductor*
%ADD13C,0.006*%
%ADD14C,0.02*%
%ADD15C,0.005984*%
G04 #@! TA.AperFunction,CopperBalancing*
%ADD16C,0.025*%
G04 #@! TA.AperFunction,ComponentPad*
%ADD22R,0.059055X0.059055*%
%ADD23C,0.059055*%
%ADD33R,0.047244X0.047244*%
G04 #@! TA.AperFunction,ViaPad*
%ADD36C,0.019*%
%ADD85OUTLINE12*%
%ADD88OUTLINE15*%
%FSLAX26Y26*%
G04*
G70*
G90*
G75*
G01*
G04 Bottom*
%LPD*%
X992650Y776114D2*
D13*
X983249Y785514D1*
Y788354D1*
X992403Y779201D1*
D14*
X1732677Y1682677D1*
X2149572Y2534530D2*
D13*
X2145197Y2538906D1*
X777559Y3690945D2*
Y3696197D1*
X774378Y3699378D1*
X2082703Y2726386D2*
X2282677D1*
X2020210D2*
X2098298Y2648298D1*
X774378Y3699378D2*
D14*
X764634Y3689634D1*
X1701493Y2907617D1*
X3884227Y977978D2*
D13*
X3883249Y977000D1*
D14*
X3897441Y991192D1*
X2957677Y1745177D1*
X2495160Y1976465D2*
D13*
X2497661D1*
X2495160Y1973963D1*
X2511407D1*
X2513908Y1976465D1*
X3690945Y3887795D2*
X3687106D1*
X3686878Y3888024D1*
X2607677Y2520177D2*
X2617052Y2529552D1*
X3686878Y3888024D2*
D14*
Y3894626D1*
X2901428Y2970177D1*
X1857383Y2262794D2*
D15*
X1862836D1*
X1882724Y2282682D1*
X2490945Y2187257D2*
Y2193157D1*
Y2197226D1*
X2551404Y2257685D1*
X2490945Y2193157D2*
X2420168Y2263934D1*
X2490945Y2187257D2*
Y2178478D1*
X2420168Y2107701D1*
X2490945Y2187257D2*
Y2180659D1*
X2563903Y2107701D1*
X3063927Y1720177D2*
D14*
X3938927Y1032677D1*
X2282677Y2826428D2*
D13*
Y2888928D1*
X2320178Y2826375D2*
Y2888927D1*
X2370177Y1776428D2*
X2270177D1*
X2263927Y1770177D1*
X2838927Y1801428D2*
X2926427D1*
X2576402Y2363924D2*
Y2476451D1*
X2538927Y2513927D1*
X2826427Y2813927D2*
Y2863927D1*
X2863927Y2901427D1*
X1838928Y2826428D2*
Y2857673D1*
X1832730Y2863871D1*
X1745239D1*
Y2857615D1*
X1740403Y2862451D1*
X1751428Y1607677D2*
D14*
X1038927Y732677D1*
X1601428Y2913927D2*
X721654Y3643701D1*
X718701D1*
X2907677Y3057677D2*
X3631201Y3943701D1*
X1995177Y1732705D2*
D13*
Y1838979D1*
X2538906D2*
X2601399D1*
X2882619Y1913971D2*
X2982609D1*
X1888974Y2888975D2*
D15*
X1732846D1*
X1713992Y2870121D1*
Y2770131D1*
X1682745Y2738885D1*
X1663927Y2076454D2*
D13*
X1788984D1*
X2357675Y1976465D2*
X2358801D1*
X2361302Y1973963D1*
X2163945Y2463913D2*
X2351244D1*
X2442118Y2373039D2*
X2451751Y2382672D1*
X2501409D1*
X2657643Y2226438D1*
X2682640D1*
X2701388Y2207690D1*
X2632646Y1920220D2*
X2520157D1*
X2495160Y1895223D1*
X2428231D2*
Y1897037D1*
X2463913Y1932719D1*
X2588900D1*
X2601399Y1945218D1*
X2670142Y2207690D2*
X2657643D1*
X2507659Y2357675D1*
X2482661D1*
Y2351425D1*
X2326427Y2332676D2*
X2388921Y2395171D1*
X2507659D1*
X2557654Y2345176D1*
X2588900D1*
X2707677Y2463953D1*
Y2532717D1*
D36*
X992650Y776114D3*
X2149572Y2534530D3*
X777559Y3690945D3*
X2082703Y2726386D3*
X2020210D3*
X3884227Y977978D3*
X2495160Y1976465D3*
X3690945Y3887795D3*
X2607677Y2520177D3*
X1857383Y2262794D3*
X2490945Y2187257D3*
X2551404Y2257685D3*
X2420168Y2263934D3*
Y2107701D3*
X2490945Y2187257D3*
X2563903Y2107701D3*
X2490945Y2187257D3*
X3063927Y1720177D3*
X2282677Y2826428D3*
Y2888928D3*
X2320178Y2826375D3*
Y2888927D3*
X2370177Y1776428D3*
X2263927Y1770177D3*
X2838927Y1801428D3*
X2926427D3*
X2576402Y2363924D3*
X2538927Y2513927D3*
X2826427Y2813927D3*
X2863927Y2901427D3*
X1838928Y2826428D3*
X1740403Y2862451D3*
X1751428Y1607677D3*
X1601428Y2913927D3*
X2907677Y3057677D3*
X1995177Y1732705D3*
Y1838979D3*
X2538906D3*
X2601399D3*
X2882619Y1913971D3*
X2982609D3*
X1888974Y2888975D3*
X1682745Y2738885D3*
X1663927Y2076454D3*
X1788984D3*
X1995177Y1838979D3*
X2357675Y1976465D3*
X2163945Y2463913D3*
X2351244D3*
X2701388Y2207690D3*
X2632646Y1920220D3*
X2442118Y2373039D3*
X2601399Y1945218D3*
X2670142Y2207690D3*
X2482661Y2351425D3*
X2601399Y1945218D3*
X2326427Y2332676D3*
X2707677Y2532717D3*
X2182693Y2282682D3*
X2257685D3*
X1647696Y2995308D2*
D16*
X2213936D1*
X2430580D2*
X3017669D1*
X1647696Y2970440D2*
X2223230D1*
X2430580D2*
X3017669D1*
X1647696Y2945571D2*
X3017669D1*
X1647696Y2920702D2*
X1869483D1*
X1908466D2*
X2263276D1*
X2339579D2*
X2831035D1*
X2896824D2*
X3017669D1*
X1647696Y2895833D2*
X1695517D1*
X1926802D2*
X2244867D1*
X2357987D2*
X2814134D1*
X2901991D2*
X3017669D1*
X1647696Y2870965D2*
X1682024D1*
X1922639D2*
X2248995D1*
X2353860D2*
X2795295D1*
X2885592D2*
X3017669D1*
X1647696Y2846096D2*
X1682024D1*
X1871576D2*
X2250035D1*
X2352783D2*
X2794434D1*
X2858428D2*
X3017669D1*
X1647696Y2821227D2*
X1682024D1*
X1745982D2*
X1800801D1*
X1877031D2*
X2244580D1*
X2358310D2*
X2788693D1*
X2864169D2*
X3017669D1*
X1647696Y2796358D2*
X1682024D1*
X1745982D2*
X1816661D1*
X1861206D2*
X2260406D1*
X2342521D2*
X2792496D1*
X2860329D2*
X3017669D1*
X1647696Y2771490D2*
X1665014D1*
X1745982D2*
X3017669D1*
X1734678Y2746621D2*
X3017669D1*
X1716916Y2721752D2*
X3017669D1*
X1647696Y2696883D2*
X3017669D1*
X1647696Y2672014D2*
X3017669D1*
X1647696Y2647146D2*
X3017669D1*
X1647696Y2622277D2*
X3017669D1*
X1647696Y2597408D2*
X3017669D1*
X1647696Y2572539D2*
X3017669D1*
X1647696Y2547671D2*
X2523903D1*
X2553950D2*
X2672428D1*
X2742916D2*
X3017669D1*
X1647696Y2522802D2*
X2501547D1*
X2576306D2*
X2670562D1*
X2744782D2*
X3017669D1*
X1647696Y2497933D2*
X2149703D1*
X2178207D2*
X2336983D1*
X2365487D2*
X2504167D1*
X2599129D2*
X2675693D1*
X2739686D2*
X3017669D1*
X1647696Y2473064D2*
X2126629D1*
X2388560D2*
X2535566D1*
X2608387D2*
X2672571D1*
X2739686D2*
X3017669D1*
X1647696Y2448196D2*
X2129070D1*
X2386119D2*
X2544392D1*
X2608387D2*
X2647703D1*
X2735093D2*
X3017669D1*
X1647696Y2423327D2*
X2377639D1*
X2518928D2*
X2544392D1*
X2608387D2*
X2622836D1*
X2711266D2*
X2951104D1*
X1647696Y2398458D2*
X2347999D1*
X2686399D2*
X2928820D1*
X1647696Y2373589D2*
X1949971D1*
X2015436D2*
X2024164D1*
X2141210D2*
X2323131D1*
X2661531D2*
X2923797D1*
X1647696Y2348720D2*
X1928799D1*
X2141210D2*
X2291697D1*
X2386694D2*
X2413093D1*
X2636663D2*
X2930399D1*
X1647696Y2323852D2*
X1924243D1*
X2141210D2*
X2289041D1*
X2363836D2*
X2457014D1*
X2611760D2*
X2952001D1*
X1647696Y2298983D2*
X1931383D1*
X2141210D2*
X2311253D1*
X2341588D2*
X2522144D1*
X2629307D2*
X2929071D1*
X1647696Y2274114D2*
X1960163D1*
X2005245D2*
X2024180D1*
X2141210D2*
X2547013D1*
X2654175D2*
X2923761D1*
X1647696Y2249245D2*
X2571881D1*
X2703839D2*
X2930148D1*
X1647696Y2224377D2*
X2596748D1*
X2735776D2*
X2923761D1*
X1647696Y2199508D2*
X2621615D1*
X2738933D2*
X2923761D1*
X1647696Y2174639D2*
X1699070D1*
X1816100D2*
X2647130D1*
X2718121D2*
X2923761D1*
X1647696Y2149770D2*
X1699070D1*
X1816100D2*
X2923761D1*
X1647696Y2124902D2*
X1699070D1*
X1816100D2*
X2923761D1*
X1818684Y2100033D2*
X3017669D1*
X1827440Y2075164D2*
X2668623D1*
X2872387D2*
X3017669D1*
X1816207Y2050295D2*
X2656531D1*
X2872387D2*
X3017669D1*
X1647696Y2025427D2*
X2657033D1*
X2872387D2*
X3017669D1*
X1647696Y2000558D2*
X2174822D1*
X2480854D2*
X2670597D1*
X2872387D2*
X3017669D1*
X1647696Y1975689D2*
X2174822D1*
X2480854D2*
X2579739D1*
X2623063D2*
X3017669D1*
X1647696Y1950820D2*
X2174822D1*
X2654102D2*
X3017669D1*
X1647696Y1925951D2*
X2174822D1*
X2670681D2*
X2846178D1*
X1647696Y1901083D2*
X2174822D1*
X2665622D2*
X2846501D1*
X1647696Y1876214D2*
X2174822D1*
X2547778D2*
X3017669D1*
X1647696Y1851345D2*
X1958870D1*
X2031476D2*
X2174822D1*
X2637703D2*
X3017669D1*
X1647696Y1826476D2*
X1958942D1*
X2031441D2*
X2502660D1*
X2637633D2*
X2810581D1*
X2954777D2*
X3017669D1*
X1647696Y1801608D2*
X1963177D1*
X2027171D2*
X2243899D1*
X2398392D2*
X2800427D1*
X2964932D2*
X3017669D1*
X1647696Y1776739D2*
X1963177D1*
X2027171D2*
X2226029D1*
X2408655D2*
X2810223D1*
X2955100D2*
X3017669D1*
X1647696Y1751870D2*
X1962207D1*
X2028139D2*
X2230442D1*
X2399003D2*
X3017669D1*
X1647696Y1727001D2*
X1957148D1*
X2033199D2*
X3017669D1*
X1647696Y1702133D2*
X1973690D1*
X2016656D2*
X3017669D1*
X1647696Y1677264D2*
X3017669D1*
X1647696Y1652395D2*
X3017669D1*
X2767043Y2094978D2*
X2869896D1*
Y1982938D1*
X2757857D1*
Y2004290D1*
X2753488Y1999346D1*
X2746804Y1993636D1*
X2739308Y1989045D1*
X2731188Y1985680D1*
X2722640Y1983629D1*
X2713877Y1982938D1*
X2705113Y1983629D1*
X2696566Y1985680D1*
X2688445Y1989045D1*
X2680949Y1993636D1*
X2674265Y1999346D1*
X2668555Y2006030D1*
X2663963Y2013526D1*
X2660598Y2021647D1*
X2658547Y2030194D1*
X2657857Y2038958D1*
X2658547Y2047722D1*
X2660598Y2056269D1*
X2663963Y2064390D1*
X2668555Y2071886D1*
X2674265Y2078570D1*
X2680949Y2084280D1*
X2688445Y2088871D1*
X2696566Y2092236D1*
X2705113Y2094287D1*
X2713877Y2094978D1*
X2722640Y2094287D1*
X2731188Y2092236D1*
X2739308Y2088871D1*
X2746804Y2084280D1*
X2753488Y2078570D1*
X2757846Y2073600D1*
X2757857Y2094978D1*
X2767043D1*
X1710745Y2193815D2*
X1813598D1*
Y2102705D1*
X1818102Y2097610D1*
X1821054Y2092794D1*
X1823215Y2087576D1*
X1824533Y2082084D1*
X1824976Y2076454D1*
X1824533Y2070824D1*
X1823215Y2065332D1*
X1821054Y2060114D1*
X1818102Y2055298D1*
X1814434Y2051004D1*
X1810140Y2047336D1*
X1805324Y2044385D1*
X1800106Y2042223D1*
X1794614Y2040906D1*
X1788984Y2040462D1*
X1783354Y2040906D1*
X1777862Y2042223D1*
X1772644Y2044385D1*
X1768388Y2046962D1*
X1684525D1*
X1680266Y2044385D1*
X1675049Y2042223D1*
X1669556Y2040906D1*
X1663927Y2040462D1*
X1658297Y2040906D1*
X1652804Y2042223D1*
X1647587Y2044385D1*
X1645169Y2045739D1*
X1645177Y1645143D1*
X3020211Y1645177D1*
X3020177Y2119159D1*
X2926264Y2119177D1*
Y2231217D1*
X2947615D1*
X2942672Y2235585D1*
X2936962Y2242269D1*
X2932370Y2249765D1*
X2929005Y2257886D1*
X2926954Y2266433D1*
X2926264Y2275197D1*
X2926954Y2283961D1*
X2929005Y2292508D1*
X2932370Y2300629D1*
X2936962Y2308125D1*
X2942672Y2314808D1*
X2949356Y2320518D1*
X2957022Y2325190D1*
X2949356Y2329875D1*
X2942672Y2335585D1*
X2936962Y2342269D1*
X2932370Y2349765D1*
X2929005Y2357886D1*
X2926954Y2366433D1*
X2926264Y2375197D1*
X2926954Y2383961D1*
X2929005Y2392508D1*
X2932370Y2400629D1*
X2936962Y2408125D1*
X2942672Y2414808D1*
X2949356Y2420518D1*
X2956852Y2425110D1*
X2964972Y2428475D1*
X2973520Y2430526D1*
X2982283Y2431217D1*
X2991047Y2430526D1*
X2999594Y2428475D1*
X3007715Y2425110D1*
X3015211Y2420518D1*
X3020167Y2416407D1*
X3020177Y3020211D1*
X2428064Y3020177D1*
X2428067Y2945949D1*
X2316028D1*
Y2967299D1*
X2311659Y2962357D1*
X2304975Y2956647D1*
X2297479Y2952055D1*
X2289358Y2948690D1*
X2280811Y2946639D1*
X2272047Y2945949D1*
X2263283Y2946639D1*
X2254736Y2948690D1*
X2246615Y2952055D1*
X2239119Y2956647D1*
X2232436Y2962357D1*
X2226726Y2969041D1*
X2222134Y2976537D1*
X2218769Y2984657D1*
X2216718Y2993205D1*
X2216028Y3001969D1*
X2216718Y3010732D1*
X2218769Y3019280D1*
X2219096Y3020167D1*
X1645143Y3020177D1*
X1645177Y2107188D1*
X1650154Y2109706D1*
X1655525Y2111451D1*
X1661102Y2112335D1*
X1666751D1*
X1672328Y2111451D1*
X1677699Y2109706D1*
X1682732Y2107143D1*
X1684522Y2105946D1*
X1701570D1*
X1701559Y2193815D1*
X1710745D1*
X2545274Y1890757D2*
Y1874394D1*
X2550028Y1873210D1*
X2555245Y1871049D1*
X2559501Y1868471D1*
X2580782D1*
X2585059Y1871049D1*
X2590277Y1873210D1*
X2595769Y1874528D1*
X2601399Y1874971D1*
X2607029Y1874528D1*
X2612521Y1873210D1*
X2617739Y1871049D1*
X2622555Y1868097D1*
X2626849Y1864429D1*
X2630517Y1860135D1*
X2633469Y1855319D1*
X2635630Y1850101D1*
X2636948Y1844609D1*
X2637391Y1838979D1*
X2636948Y1833349D1*
X2635630Y1827857D1*
X2633469Y1822639D1*
X2630517Y1817823D1*
X2626849Y1813529D1*
X2622555Y1809861D1*
X2617739Y1806909D1*
X2612521Y1804748D1*
X2607029Y1803430D1*
X2601399Y1802987D1*
X2595769Y1803430D1*
X2590277Y1804748D1*
X2585059Y1806909D1*
X2580803Y1809487D1*
X2559522D1*
X2555245Y1806909D1*
X2550028Y1804748D1*
X2544535Y1803430D1*
X2538906Y1802987D1*
X2533276Y1803430D1*
X2527783Y1804748D1*
X2522566Y1806909D1*
X2517749Y1809861D1*
X2513455Y1813529D1*
X2509787Y1817823D1*
X2506836Y1822639D1*
X2504675Y1827857D1*
X2503357Y1833349D1*
X2502913Y1838979D1*
X2503458Y1845118D1*
X2177329Y1845109D1*
Y2024077D1*
X2478345D1*
Y1962177D1*
X2569664Y1962211D1*
X2572281Y1966374D1*
X2575949Y1970668D1*
X2580243Y1974336D1*
X2585059Y1977287D1*
X2590277Y1979449D1*
X2595769Y1980766D1*
X2601399Y1981210D1*
X2607029Y1980766D1*
X2612521Y1979449D1*
X2617739Y1977287D1*
X2622555Y1974336D1*
X2626849Y1970668D1*
X2630517Y1966374D1*
X2633469Y1961558D1*
X2635705Y1956075D1*
X2641047Y1955218D1*
X2646419Y1953472D1*
X2651451Y1950909D1*
X2656021Y1947589D1*
X2660014Y1943596D1*
X2663335Y1939026D1*
X2665898Y1933993D1*
X2667643Y1928622D1*
X2668526Y1923045D1*
Y1917396D1*
X2667643Y1911819D1*
X2665898Y1906448D1*
X2663335Y1901415D1*
X2660014Y1896845D1*
X2656021Y1892852D1*
X2651451Y1889531D1*
X2646419Y1886969D1*
X2641047Y1885223D1*
X2635470Y1884340D1*
X2629822D1*
X2624244Y1885223D1*
X2618873Y1886969D1*
X2613840Y1889531D1*
X2612050Y1890728D1*
X2545268D1*
X2035870Y2382448D2*
X2138723D1*
Y2270408D1*
X2026684D1*
Y2291759D1*
X2022315Y2286816D1*
X2015631Y2281106D1*
X2008135Y2276514D1*
X2000014Y2273150D1*
X1991467Y2271098D1*
X1982703Y2270408D1*
X1973940Y2271098D1*
X1965392Y2273150D1*
X1957272Y2276514D1*
X1949776Y2281106D1*
X1943092Y2286816D1*
X1937382Y2293500D1*
X1932790Y2300996D1*
X1929425Y2309117D1*
X1927374Y2317664D1*
X1926684Y2326428D1*
X1927374Y2335192D1*
X1929425Y2343739D1*
X1932790Y2351860D1*
X1937382Y2359356D1*
X1943092Y2366039D1*
X1949776Y2371749D1*
X1957272Y2376341D1*
X1965392Y2379706D1*
X1973940Y2381757D1*
X1982703Y2382448D1*
X1991467Y2381757D1*
X2000014Y2379706D1*
X2008135Y2376341D1*
X2015631Y2371749D1*
X2022315Y2366039D1*
X2026673Y2361070D1*
X2026684Y2382448D1*
X2035870D1*
X2253185Y2847062D2*
Y2868304D1*
X2250608Y2872588D1*
X2248446Y2877806D1*
X2247129Y2883298D1*
X2246685Y2888928D1*
X2247129Y2894558D1*
X2248446Y2900050D1*
X2250608Y2905268D1*
X2253559Y2910084D1*
X2257227Y2914378D1*
X2261521Y2918046D1*
X2266337Y2920997D1*
X2271555Y2923159D1*
X2277047Y2924476D1*
X2282677Y2924920D1*
X2288307Y2924476D1*
X2293799Y2923159D1*
X2299017Y2920997D1*
X2301434Y2919643D1*
X2306406Y2922178D1*
X2311777Y2923924D1*
X2317354Y2924807D1*
X2323003D1*
X2328580Y2923924D1*
X2333951Y2922178D1*
X2338984Y2919615D1*
X2343554Y2916295D1*
X2347547Y2912302D1*
X2350867Y2907732D1*
X2353430Y2902699D1*
X2355176Y2897328D1*
X2356059Y2891751D1*
Y2886102D1*
X2355176Y2880525D1*
X2353430Y2875154D1*
X2350867Y2870121D1*
X2349671Y2868331D1*
Y2846978D1*
X2352248Y2842715D1*
X2354409Y2837497D1*
X2355727Y2832005D1*
X2356171Y2826375D1*
X2355727Y2820745D1*
X2354409Y2815253D1*
X2352248Y2810035D1*
X2349297Y2805219D1*
X2345629Y2800925D1*
X2341335Y2797257D1*
X2336518Y2794306D1*
X2331301Y2792144D1*
X2325808Y2790827D1*
X2320178Y2790383D1*
X2314549Y2790827D1*
X2309056Y2792144D1*
X2303839Y2794306D1*
X2301382Y2795681D1*
X2296450Y2793176D1*
X2291079Y2791430D1*
X2285501Y2790547D1*
X2279853D1*
X2274276Y2791430D1*
X2268904Y2793176D1*
X2263871Y2795739D1*
X2259302Y2799059D1*
X2255308Y2803052D1*
X2251988Y2807622D1*
X2249425Y2812655D1*
X2247680Y2818026D1*
X2246797Y2823604D1*
Y2829252D1*
X2247680Y2834829D1*
X2249425Y2840201D1*
X2251988Y2845234D1*
X2253185Y2847024D1*
X2349543Y1746936D2*
X2291295Y1746802D1*
X2287302Y1742808D1*
X2282732Y1739488D1*
X2277699Y1736925D1*
X2272328Y1735180D1*
X2266751Y1734297D1*
X2261102D1*
X2255525Y1735180D1*
X2250154Y1736925D1*
X2245121Y1739488D1*
X2240551Y1742808D1*
X2236558Y1746802D1*
X2233238Y1751371D1*
X2230675Y1756404D1*
X2228929Y1761776D1*
X2228046Y1767353D1*
Y1773001D1*
X2228929Y1778579D1*
X2230675Y1783950D1*
X2233238Y1788983D1*
X2236558Y1793552D1*
X2240551Y1797546D1*
X2245121Y1800866D1*
X2250154Y1803429D1*
X2255525Y1805175D1*
X2261102Y1806058D1*
X2266751D1*
X2279364Y1805920D1*
X2349517D1*
X2353837Y1808497D1*
X2359055Y1810659D1*
X2364547Y1811976D1*
X2370177Y1812420D1*
X2375807Y1811976D1*
X2381299Y1810659D1*
X2386517Y1808497D1*
X2391333Y1805546D1*
X2395627Y1801878D1*
X2399295Y1797584D1*
X2402247Y1792768D1*
X2404408Y1787550D1*
X2405726Y1782058D1*
X2406169Y1776428D1*
X2405726Y1770798D1*
X2404408Y1765306D1*
X2402247Y1760088D1*
X2399295Y1755272D1*
X2395627Y1750978D1*
X2391333Y1747310D1*
X2386517Y1744358D1*
X2381299Y1742197D1*
X2375807Y1740879D1*
X2370177Y1740436D1*
X2364547Y1740879D1*
X2359055Y1742197D1*
X2353837Y1744358D1*
X2349581Y1746936D1*
X2859560Y1830920D2*
X2905778D1*
X2910087Y1833497D1*
X2915304Y1835659D1*
X2920797Y1836976D1*
X2926427Y1837420D1*
X2932056Y1836976D1*
X2937549Y1835659D1*
X2942766Y1833497D1*
X2947583Y1830546D1*
X2951877Y1826878D1*
X2955545Y1822584D1*
X2958496Y1817768D1*
X2960657Y1812550D1*
X2961975Y1807058D1*
X2962419Y1801428D1*
X2961975Y1795798D1*
X2960657Y1790306D1*
X2958496Y1785088D1*
X2955545Y1780272D1*
X2951877Y1775978D1*
X2947583Y1772310D1*
X2942766Y1769358D1*
X2937549Y1767197D1*
X2932056Y1765879D1*
X2926427Y1765436D1*
X2920797Y1765879D1*
X2915304Y1767197D1*
X2910087Y1769358D1*
X2905831Y1771936D1*
X2859575D1*
X2855266Y1769358D1*
X2850049Y1767197D1*
X2844556Y1765879D1*
X2838927Y1765436D1*
X2833297Y1765879D1*
X2827804Y1767197D1*
X2822587Y1769358D1*
X2817770Y1772310D1*
X2813476Y1775978D1*
X2809808Y1780272D1*
X2806857Y1785088D1*
X2804696Y1790306D1*
X2803378Y1795798D1*
X2802934Y1801428D1*
X2803378Y1807058D1*
X2804696Y1812550D1*
X2806857Y1817768D1*
X2809808Y1822584D1*
X2813476Y1826878D1*
X2817770Y1830546D1*
X2822587Y1833497D1*
X2827804Y1835659D1*
X2833297Y1836976D1*
X2838927Y1837420D1*
X2844556Y1836976D1*
X2850049Y1835659D1*
X2855266Y1833497D1*
X2859522Y1830920D1*
X2546909Y2397619D2*
Y2464220D1*
X2532685Y2478459D1*
X2527804Y2479696D1*
X2522587Y2481857D1*
X2517770Y2484808D1*
X2513476Y2488476D1*
X2509808Y2492770D1*
X2506857Y2497587D1*
X2504696Y2502804D1*
X2503378Y2508297D1*
X2502934Y2513927D1*
X2503378Y2519556D1*
X2504696Y2525049D1*
X2506857Y2530266D1*
X2509808Y2535083D1*
X2513476Y2539377D1*
X2517770Y2543045D1*
X2522587Y2545996D1*
X2527804Y2548157D1*
X2533297Y2549475D1*
X2538927Y2549919D1*
X2544556Y2549475D1*
X2550049Y2548157D1*
X2555266Y2545996D1*
X2560083Y2543045D1*
X2564377Y2539377D1*
X2568045Y2535083D1*
X2570996Y2530266D1*
X2573157Y2525049D1*
X2574344Y2520218D1*
X2598828Y2495605D1*
X2601547Y2491861D1*
X2603648Y2487738D1*
X2605079Y2483336D1*
X2605803Y2478765D1*
X2605894Y2403858D1*
X2678194Y2476178D1*
X2678185Y2512073D1*
X2675608Y2516377D1*
X2673446Y2521594D1*
X2672129Y2527087D1*
X2671685Y2532717D1*
X2672129Y2538346D1*
X2673446Y2543839D1*
X2675608Y2549056D1*
X2678559Y2553873D1*
X2682227Y2558167D1*
X2686521Y2561835D1*
X2691337Y2564786D1*
X2696555Y2566948D1*
X2702047Y2568265D1*
X2707677Y2568709D1*
X2713307Y2568265D1*
X2718799Y2566948D1*
X2724017Y2564786D1*
X2728833Y2561835D1*
X2733127Y2558167D1*
X2736795Y2553873D1*
X2739747Y2549056D1*
X2741908Y2543839D1*
X2743226Y2538346D1*
X2743669Y2532717D1*
X2743226Y2527087D1*
X2741908Y2521594D1*
X2739747Y2516377D1*
X2737169Y2512121D1*
X2737079Y2461639D1*
X2736354Y2457068D1*
X2734924Y2452667D1*
X2732823Y2448543D1*
X2730104Y2444799D1*
X2670070Y2384636D1*
X2608054Y2322749D1*
X2606228Y2321311D1*
X2606709Y2319081D1*
X2669864Y2255925D1*
X2684954Y2255840D1*
X2689525Y2255115D1*
X2693927Y2253685D1*
X2698050Y2251584D1*
X2701794Y2248865D1*
X2707630Y2243156D1*
X2712510Y2241921D1*
X2717728Y2239760D1*
X2722545Y2236808D1*
X2726839Y2233140D1*
X2730507Y2228846D1*
X2733458Y2224030D1*
X2735619Y2218812D1*
X2736937Y2213320D1*
X2737381Y2207690D1*
X2736937Y2202060D1*
X2735619Y2196568D1*
X2733458Y2191350D1*
X2730507Y2186534D1*
X2726839Y2182240D1*
X2722545Y2178572D1*
X2717728Y2175621D1*
X2712510Y2173459D1*
X2707018Y2172142D1*
X2701388Y2171698D1*
X2695759Y2172142D1*
X2690266Y2173459D1*
X2685049Y2175621D1*
X2682650Y2176965D1*
X2677665Y2174438D1*
X2672294Y2172693D1*
X2666717Y2171810D1*
X2661068D1*
X2655491Y2172693D1*
X2650119Y2174438D1*
X2645087Y2177001D1*
X2640517Y2180322D1*
X2636524Y2184315D1*
X2633203Y2188885D1*
X2631440Y2192182D1*
X2502332Y2321293D1*
X2496434Y2318173D1*
X2491063Y2316428D1*
X2485486Y2315545D1*
X2479837D1*
X2474260Y2316428D1*
X2468888Y2318173D1*
X2463856Y2320736D1*
X2459286Y2324056D1*
X2455293Y2328050D1*
X2451972Y2332619D1*
X2449360Y2337786D1*
X2444942Y2337159D1*
X2439294D1*
X2433717Y2338042D1*
X2428345Y2339787D1*
X2423312Y2342350D1*
X2418743Y2345671D1*
X2414749Y2349664D1*
X2411429Y2354234D1*
X2408866Y2359266D1*
X2406912Y2365688D1*
X2401118Y2365678D1*
X2361844Y2326385D1*
X2360657Y2321554D1*
X2358496Y2316336D1*
X2355545Y2311520D1*
X2351877Y2307226D1*
X2347583Y2303558D1*
X2342766Y2300606D1*
X2337549Y2298445D1*
X2332056Y2297127D1*
X2326427Y2296684D1*
X2320797Y2297127D1*
X2315304Y2298445D1*
X2310087Y2300606D1*
X2305270Y2303558D1*
X2300976Y2307226D1*
X2297308Y2311520D1*
X2294357Y2316336D1*
X2292196Y2321554D1*
X2290878Y2327046D1*
X2290434Y2332676D1*
X2290878Y2338306D1*
X2292196Y2343798D1*
X2294357Y2349016D1*
X2297308Y2353832D1*
X2300976Y2358126D1*
X2305270Y2361794D1*
X2310087Y2364745D1*
X2315304Y2366907D1*
X2320135Y2368093D1*
X2369768Y2417597D1*
X2373512Y2420316D1*
X2377635Y2422417D1*
X2382037Y2423848D1*
X2386608Y2424572D1*
X2471598Y2424663D1*
X2509972Y2424572D1*
X2514543Y2423848D1*
X2518945Y2422417D1*
X2523068Y2420316D1*
X2526812Y2417597D1*
X2546909Y2397629D1*
X2796934Y2834560D2*
X2797025Y2866240D1*
X2797749Y2870811D1*
X2799180Y2875213D1*
X2801281Y2879336D1*
X2804000Y2883080D1*
X2828486Y2907693D1*
X2829696Y2912549D1*
X2831857Y2917766D1*
X2834808Y2922583D1*
X2838476Y2926877D1*
X2842770Y2930545D1*
X2847587Y2933496D1*
X2852804Y2935657D1*
X2858297Y2936975D1*
X2863927Y2937419D1*
X2869556Y2936975D1*
X2875049Y2935657D1*
X2880266Y2933496D1*
X2885083Y2930545D1*
X2889377Y2926877D1*
X2893045Y2922583D1*
X2895996Y2917766D1*
X2898157Y2912549D1*
X2899475Y2907056D1*
X2899919Y2901427D1*
X2899475Y2895797D1*
X2898157Y2890304D1*
X2895996Y2885087D1*
X2893045Y2880270D1*
X2889377Y2875976D1*
X2885083Y2872308D1*
X2880266Y2869357D1*
X2875049Y2867196D1*
X2870218Y2866009D1*
X2855930Y2851722D1*
X2855919Y2834537D1*
X2858496Y2830266D1*
X2860657Y2825049D1*
X2861975Y2819556D1*
X2862419Y2813927D1*
X2861975Y2808297D1*
X2860657Y2802804D1*
X2858496Y2797587D1*
X2855545Y2792770D1*
X2851877Y2788476D1*
X2847583Y2784808D1*
X2842766Y2781857D1*
X2837549Y2779696D1*
X2832056Y2778378D1*
X2826427Y2777934D1*
X2820797Y2778378D1*
X2815304Y2779696D1*
X2810087Y2781857D1*
X2805270Y2784808D1*
X2800976Y2788476D1*
X2797308Y2792770D1*
X2794357Y2797587D1*
X2792196Y2802804D1*
X2790878Y2808297D1*
X2790434Y2813927D1*
X2790878Y2819556D1*
X2792196Y2825049D1*
X2794357Y2830266D1*
X2796934Y2834522D1*
X1868420Y2857638D2*
Y2847088D1*
X1870997Y2842768D1*
X1873159Y2837550D1*
X1874476Y2832058D1*
X1874920Y2826428D1*
X1874476Y2820798D1*
X1873159Y2815306D1*
X1870997Y2810088D1*
X1868046Y2805272D1*
X1864378Y2800978D1*
X1860084Y2797310D1*
X1855268Y2794358D1*
X1850050Y2792197D1*
X1844558Y2790879D1*
X1838928Y2790436D1*
X1833298Y2790879D1*
X1827806Y2792197D1*
X1822588Y2794358D1*
X1817772Y2797310D1*
X1813478Y2800978D1*
X1809810Y2805272D1*
X1806858Y2810088D1*
X1804697Y2815306D1*
X1803379Y2820798D1*
X1802936Y2826428D1*
X1803379Y2832058D1*
X1803841Y2834386D1*
X1763366Y2834379D1*
X1758619Y2831333D1*
X1751526Y2828220D1*
X1746034Y2826902D1*
X1743479Y2826600D1*
X1743386Y2767818D1*
X1742661Y2763248D1*
X1741232Y2758848D1*
X1739131Y2754726D1*
X1736412Y2750983D1*
X1718171Y2732612D1*
X1716976Y2727762D1*
X1714815Y2722545D1*
X1711864Y2717728D1*
X1708196Y2713434D1*
X1703902Y2709766D1*
X1699085Y2706815D1*
X1693867Y2704654D1*
X1688375Y2703336D1*
X1682745Y2702892D1*
X1677115Y2703336D1*
X1671623Y2704654D1*
X1666406Y2706815D1*
X1661589Y2709766D1*
X1657295Y2713434D1*
X1653627Y2717728D1*
X1650676Y2722545D1*
X1648514Y2727762D1*
X1647197Y2733255D1*
X1646753Y2738885D1*
X1647197Y2744514D1*
X1648514Y2750007D1*
X1650676Y2755224D1*
X1653627Y2760041D1*
X1657295Y2764335D1*
X1661589Y2768003D1*
X1666406Y2770954D1*
X1671623Y2773115D1*
X1676476Y2774307D1*
X1684505Y2782341D1*
X1684598Y2872434D1*
X1685323Y2877004D1*
X1686752Y2881404D1*
X1688853Y2885526D1*
X1691572Y2889269D1*
X1711997Y2909824D1*
X1715516Y2912828D1*
X1719461Y2915245D1*
X1723735Y2917016D1*
X1728234Y2918096D1*
X1732856Y2918459D1*
X1868310D1*
X1872634Y2921045D1*
X1877852Y2923206D1*
X1883344Y2924524D1*
X1888974Y2924967D1*
X1894604Y2924524D1*
X1900096Y2923206D1*
X1905314Y2921045D1*
X1910130Y2918093D1*
X1914424Y2914425D1*
X1918092Y2910131D1*
X1921043Y2905315D1*
X1923205Y2900097D1*
X1924522Y2894605D1*
X1924966Y2888975D1*
X1924522Y2883345D1*
X1923205Y2877853D1*
X1921043Y2872635D1*
X1918092Y2867819D1*
X1914424Y2863525D1*
X1910130Y2859857D1*
X1905314Y2856906D1*
X1900096Y2854744D1*
X1894604Y2853427D1*
X1888974Y2852983D1*
X1883344Y2853427D1*
X1877852Y2854744D1*
X1872634Y2856906D1*
X1868360Y2859495D1*
X1868420Y2857664D1*
X1965685Y1753339D2*
Y1818361D1*
X1963108Y1822639D1*
X1960946Y1827857D1*
X1959629Y1833349D1*
X1959185Y1838979D1*
X1959629Y1844609D1*
X1960946Y1850101D1*
X1963108Y1855319D1*
X1966059Y1860135D1*
X1969727Y1864429D1*
X1974021Y1868097D1*
X1978837Y1871049D1*
X1984055Y1873210D1*
X1989547Y1874528D1*
X1995177Y1874971D1*
X2000807Y1874528D1*
X2006299Y1873210D1*
X2011517Y1871049D1*
X2016333Y1868097D1*
X2020627Y1864429D1*
X2024295Y1860135D1*
X2027247Y1855319D1*
X2029408Y1850101D1*
X2030726Y1844609D1*
X2031169Y1838979D1*
X2030726Y1833349D1*
X2029408Y1827857D1*
X2027247Y1822639D1*
X2024669Y1818383D1*
Y1753323D1*
X2027247Y1749045D1*
X2029408Y1743827D1*
X2030726Y1738335D1*
X2031169Y1732705D1*
X2030726Y1727075D1*
X2029408Y1721583D1*
X2027247Y1716365D1*
X2024295Y1711549D1*
X2020627Y1707255D1*
X2016333Y1703587D1*
X2011517Y1700635D1*
X2006299Y1698474D1*
X2000807Y1697156D1*
X1995177Y1696713D1*
X1989547Y1697156D1*
X1984055Y1698474D1*
X1978837Y1700635D1*
X1974021Y1703587D1*
X1969727Y1707255D1*
X1966059Y1711549D1*
X1963108Y1716365D1*
X1960946Y1721583D1*
X1959629Y1727075D1*
X1959185Y1732705D1*
X1959629Y1738335D1*
X1960946Y1743827D1*
X1963108Y1749045D1*
X1965685Y1753301D1*
X2903253Y1943463D2*
X2961959D1*
X2966269Y1946041D1*
X2971487Y1948202D1*
X2976979Y1949520D1*
X2982609Y1949963D1*
X2988239Y1949520D1*
X2993731Y1948202D1*
X2998949Y1946041D1*
X3003765Y1943089D1*
X3008059Y1939421D1*
X3011727Y1935127D1*
X3014678Y1930311D1*
X3016840Y1925093D1*
X3018157Y1919601D1*
X3018601Y1913971D1*
X3018157Y1908341D1*
X3016840Y1902849D1*
X3014678Y1897631D1*
X3011727Y1892815D1*
X3008059Y1888521D1*
X3003765Y1884853D1*
X2998949Y1881902D1*
X2993731Y1879740D1*
X2988239Y1878423D1*
X2982609Y1877979D1*
X2976979Y1878423D1*
X2971487Y1879740D1*
X2966269Y1881902D1*
X2962013Y1884479D1*
X2903269D1*
X2898959Y1881902D1*
X2893741Y1879740D1*
X2888249Y1878423D1*
X2882619Y1877979D1*
X2876990Y1878423D1*
X2871497Y1879740D1*
X2866280Y1881902D1*
X2861463Y1884853D1*
X2857169Y1888521D1*
X2853501Y1892815D1*
X2850550Y1897631D1*
X2848388Y1902849D1*
X2847071Y1908341D1*
X2846627Y1913971D1*
X2847071Y1919601D1*
X2848388Y1925093D1*
X2850550Y1930311D1*
X2853501Y1935127D1*
X2857169Y1939421D1*
X2861463Y1943089D1*
X2866280Y1946041D1*
X2871497Y1948202D1*
X2876990Y1949520D1*
X2882619Y1949963D1*
X2888249Y1949520D1*
X2893741Y1948202D1*
X2898959Y1946041D1*
X2903215Y1943463D1*
X2031058Y1836155D2*
X2030175Y1830577D1*
X2028429Y1825206D1*
X2025866Y1820173D1*
X2024669Y1818383D1*
X2031058Y1836155D1*
Y1841803D1*
X2030175Y1847381D1*
X2028429Y1852752D1*
X2025866Y1857785D1*
X2022546Y1862354D1*
X2018552Y1866348D1*
X2013983Y1869668D1*
X2008950Y1872231D1*
X2003579Y1873976D1*
X1998001Y1874860D1*
X1992353D1*
X1986776Y1873976D1*
X1981404Y1872231D1*
X1976371Y1869668D1*
X1971802Y1866348D1*
X1967808Y1862354D1*
X1964488Y1857785D1*
X1961925Y1852752D1*
X1960180Y1847381D1*
X1959297Y1841803D1*
Y1836155D1*
X1960180Y1830577D1*
X1961925Y1825206D1*
X1964488Y1820173D1*
X1965685Y1818383D1*
X2184579Y2493406D2*
X2330627D1*
X2334904Y2495983D1*
X2340122Y2498144D1*
X2345614Y2499462D1*
X2351244Y2499906D1*
X2356874Y2499462D1*
X2362366Y2498144D1*
X2367584Y2495983D1*
X2372400Y2493031D1*
X2376694Y2489364D1*
X2380362Y2485070D1*
X2383314Y2480253D1*
X2385475Y2475035D1*
X2386793Y2469543D1*
X2387236Y2463913D1*
X2386793Y2458283D1*
X2385475Y2452791D1*
X2383314Y2447573D1*
X2380362Y2442757D1*
X2376694Y2438463D1*
X2372400Y2434795D1*
X2367584Y2431844D1*
X2362366Y2429682D1*
X2356874Y2428365D1*
X2351244Y2427921D1*
X2345614Y2428365D1*
X2340122Y2429682D1*
X2334904Y2431844D1*
X2330648Y2434421D1*
X2184562D1*
X2180285Y2431844D1*
X2175067Y2429682D1*
X2169575Y2428365D1*
X2163945Y2427921D1*
X2158315Y2428365D1*
X2152823Y2429682D1*
X2147605Y2431844D1*
X2142789Y2434795D1*
X2138495Y2438463D1*
X2134827Y2442757D1*
X2131875Y2447573D1*
X2129714Y2452791D1*
X2128396Y2458283D1*
X2127953Y2463913D1*
X2128396Y2469543D1*
X2129714Y2475035D1*
X2131875Y2480253D1*
X2134827Y2485070D1*
X2138495Y2489364D1*
X2142789Y2493031D1*
X2147605Y2495983D1*
X2152823Y2498144D1*
X2158315Y2499462D1*
X2163945Y2499906D1*
X2169575Y2499462D1*
X2175067Y2498144D1*
X2180285Y2495983D1*
X2184541Y2493406D1*
X2569692Y1962203D2*
X2572281Y1966374D1*
X2575949Y1970668D1*
X2580243Y1974336D1*
X2585059Y1977287D1*
X2590277Y1979449D1*
X2595769Y1980766D1*
X2601399Y1981210D1*
X2607029Y1980766D1*
X2612521Y1979449D1*
X2617739Y1977287D1*
X2622555Y1974336D1*
X2626849Y1970668D1*
X2630517Y1966374D1*
X2633469Y1961558D1*
X2635705Y1956075D1*
D22*
X2813877Y2038958D3*
D23*
X2713877D3*
D22*
X1757579Y2137795D3*
D23*
X1857579D3*
D22*
X2372047Y3001969D3*
D23*
X2272047D3*
D22*
X2982283Y2175197D3*
D23*
Y2275197D3*
Y2375197D3*
Y2475197D3*
D85*
X1038927Y732677D3*
X983249Y788354D3*
D88*
X3938927Y1032677D3*
X3883249Y977000D3*
X718701Y3643701D3*
X774378Y3699378D3*
D85*
X3631201Y3943701D3*
X3686878Y3888024D3*
D33*
X2495160Y1895223D3*
X2428231D3*
X2361302D3*
X2294373D3*
X2227444D3*
Y1973963D3*
X2294373D3*
X2361302D3*
X2428231D3*
X2495160D3*
D22*
X2082703Y2326428D3*
D23*
X1982703D3*
M02*
