G04 DipTrace 3.2.0.1*
G04 Rev1.3.gbl*
%MOIN*%
G04 #@! TF.FileFunction,Copper,L2,Bot*
G04 #@! TF.Part,Single*
%AMOUTLINE6*
4,1,4,
0.017399,0.066117,
0.066117,0.017399,
-0.017399,-0.066117,
-0.066117,-0.017399,
0.017399,0.066117,
0*%
%AMOUTLINE9*
4,1,4,
-0.066117,0.017399,
-0.017399,0.066117,
0.066117,-0.017399,
0.017399,-0.066117,
-0.066117,0.017399,
0*%
G04 #@! TA.AperFunction,Conductor*
%ADD13C,0.006*%
%ADD14C,0.02*%
G04 #@! TA.AperFunction,CopperBalancing*
%ADD16C,0.025*%
G04 #@! TA.AperFunction,ComponentPad*
%ADD21R,0.059055X0.059055*%
%ADD22C,0.059055*%
%ADD33R,0.047244X0.047244*%
G04 #@! TA.AperFunction,ViaPad*
%ADD36C,0.019*%
%ADD79OUTLINE6*%
%ADD82OUTLINE9*%
%FSLAX26Y26*%
G04*
G70*
G90*
G75*
G01*
G04 Bottom*
%LPD*%
X992650Y776114D2*
D13*
X983249Y785514D1*
Y788354D1*
X3884227Y977978D2*
X3883249Y977000D1*
X3690945Y3887795D2*
X3687106D1*
X3686878Y3888024D1*
X2607677Y2520177D2*
X2617052Y2529552D1*
X2413919Y2357675D2*
Y2370177D1*
X983249Y788354D2*
X992403Y779201D1*
D14*
X1732677Y1682677D1*
X3686878Y3888024D2*
Y3894626D1*
X2901428Y2970177D1*
X3883249Y977000D2*
X3897441Y991192D1*
X2957677Y1745177D1*
X2495160Y1976465D2*
D13*
X2497661D1*
X2495160Y1973963D1*
X2511407D1*
X2513908Y1976465D1*
X2149572Y2534530D2*
X2145197Y2538906D1*
X777559Y3690945D2*
Y3696197D1*
X774378Y3699378D1*
X2082703Y2726386D2*
X2282677D1*
X2020210D2*
X2098298Y2648298D1*
X774378Y3699378D2*
D14*
X764634Y3689634D1*
X1726428Y2888928D1*
X3063927Y1720177D2*
X3938927Y1032677D1*
X2282677Y2826428D2*
D13*
Y2888928D1*
X2332677Y2826428D2*
Y2888927D1*
X2370177Y1776428D2*
X2270177D1*
X2263927Y1770177D1*
X2838927Y1801428D2*
X2926427D1*
X2576402Y2363924D2*
Y2476451D1*
X2538927Y2513927D1*
X2826427Y2813927D2*
Y2863927D1*
X2863927Y2901427D1*
X1838928Y2826428D2*
Y2832677D1*
X1770177D1*
X1740404Y2862450D1*
X1751428Y1607677D2*
D14*
X1038927Y732677D1*
X1601428Y2913927D2*
X721654Y3643701D1*
X718701D1*
X2907677Y3057677D2*
X3631201Y3943701D1*
X1995177Y1838928D2*
D13*
Y1738928D1*
X2526427Y1838928D2*
X2613927D1*
X2832677Y1907677D2*
X3026427D1*
X1707678Y2007676D2*
X1795177D1*
X1888927Y2888928D2*
Y2801427D1*
X1882677Y2795177D1*
X1820177Y2738928D2*
X1676428D1*
X2357675Y1976465D2*
X2358801D1*
X2361302Y1973963D1*
X2163945Y2463913D2*
X2351244D1*
X2442118Y2373039D2*
X2492294D1*
X2501409Y2363924D1*
Y2307680D1*
X2570152Y2238937D1*
X2670142D1*
X2701388Y2207690D1*
X2613898Y1920220D2*
X2520157D1*
X2495160Y1895223D1*
X2428231D2*
Y1897037D1*
X2463913Y1932719D1*
X2582651D1*
X2601399Y1951467D1*
X2663892Y2207690D2*
X2582651D1*
X2482661Y2307680D1*
Y2351425D1*
X2088927Y2232714D2*
Y2182677D1*
Y2013927D1*
X2326427Y2332676D2*
X2538928Y2545177D1*
X2695177D1*
X2707677Y2532677D1*
D36*
X992650Y776114D3*
X3884227Y977978D3*
X3690945Y3887795D3*
X2607677Y2520177D3*
X2413919Y2357675D3*
X2495160Y1976465D3*
X2149572Y2534530D3*
X777559Y3690945D3*
X2082703Y2726386D3*
X2020210D3*
X3063927Y1720177D3*
X2282677Y2826428D3*
Y2888928D3*
X2332677Y2826428D3*
Y2888927D3*
X2370177Y1776428D3*
X2263927Y1770177D3*
X2838927Y1801428D3*
X2926427D3*
X2576402Y2363924D3*
X2538927Y2513927D3*
X2826427Y2813927D3*
X2863927Y2901427D3*
X1838928Y2826428D3*
X1740404Y2862450D3*
X1751428Y1607677D3*
X1601428Y2913927D3*
X2907677Y3057677D3*
X1995177Y1838928D3*
Y1738928D3*
X2526427Y1838928D3*
X2613927D3*
X2832677Y1907677D3*
X3026427D3*
X1707678Y2007676D3*
X1795177D3*
X1888927Y2888928D3*
X1882677Y2795177D3*
X1820177Y2738928D3*
X1676428D3*
X2357675Y1976465D3*
X2163945Y2463913D3*
X2351244D3*
X2701388Y2207690D3*
X2613898Y1920220D3*
X2442118Y2373039D3*
X2601399Y1951467D3*
X2663892Y2207690D3*
X2482661Y2351425D3*
X2088927Y2232714D3*
Y2013927D3*
Y2182677D3*
X2326427Y2332676D3*
X2707677Y2532677D3*
X2182693Y2282682D3*
X2263934Y2301430D3*
X1647696Y2995308D2*
D16*
X2213936D1*
X2430580D2*
X3017669D1*
X1647696Y2970440D2*
X2223230D1*
X2430580D2*
X3017669D1*
X1647696Y2945571D2*
X3017669D1*
X1647696Y2920702D2*
X1869520D1*
X1908322D2*
X2263276D1*
X2302079D2*
X2313249D1*
X2352066D2*
X2831035D1*
X2896824D2*
X3017669D1*
X1647696Y2895833D2*
X1724440D1*
X1756353D2*
X1851110D1*
X1926766D2*
X2244867D1*
X2370510D2*
X2814134D1*
X2901991D2*
X3017669D1*
X1647696Y2870965D2*
X1702945D1*
X1777883D2*
X1855238D1*
X1922604D2*
X2248995D1*
X2366383D2*
X2795295D1*
X2885592D2*
X3017669D1*
X1647696Y2846096D2*
X1705852D1*
X1920917D2*
X2250035D1*
X2365307D2*
X2794434D1*
X2858428D2*
X3017669D1*
X1647696Y2821227D2*
X1737429D1*
X1920917D2*
X2244580D1*
X2370798D2*
X2788693D1*
X2864169D2*
X3017669D1*
X1647696Y2796358D2*
X1816661D1*
X1921133D2*
X2260406D1*
X2354972D2*
X2792496D1*
X2860329D2*
X3017669D1*
X1647696Y2771490D2*
X1658576D1*
X1694273D2*
X1802344D1*
X1838025D2*
X1853084D1*
X1912269D2*
X3017669D1*
X1857833Y2746621D2*
X3017669D1*
X1854316Y2721752D2*
X3017669D1*
X1647696Y2696883D2*
X3017669D1*
X1647696Y2672014D2*
X3017669D1*
X1647696Y2647146D2*
X3017669D1*
X1647696Y2622277D2*
X3017669D1*
X1647696Y2597408D2*
X3017669D1*
X1647696Y2572539D2*
X2525411D1*
X2708682D2*
X3017669D1*
X1647696Y2547671D2*
X2497205D1*
X2742881D2*
X3017669D1*
X1647696Y2522802D2*
X2472337D1*
X2744782D2*
X3017669D1*
X1647696Y2497933D2*
X2149703D1*
X2178207D2*
X2336983D1*
X2365487D2*
X2447470D1*
X2599129D2*
X2695789D1*
X2719555D2*
X3017669D1*
X1647696Y2473064D2*
X2126629D1*
X2388560D2*
X2422602D1*
X2511033D2*
X2535566D1*
X2608387D2*
X3017669D1*
X1647696Y2448196D2*
X2129070D1*
X2386119D2*
X2397735D1*
X2486165D2*
X2544392D1*
X2608387D2*
X3017669D1*
X1647696Y2423327D2*
X2372866D1*
X2461298D2*
X2544392D1*
X2608387D2*
X2951104D1*
X1647696Y2398458D2*
X2347999D1*
X2509741D2*
X2544392D1*
X2608387D2*
X2928820D1*
X1647696Y2373589D2*
X1949971D1*
X2015436D2*
X2024164D1*
X2141210D2*
X2323131D1*
X2613554D2*
X2923797D1*
X1647696Y2348720D2*
X1928799D1*
X2141210D2*
X2291697D1*
X2386694D2*
X2413093D1*
X2533388D2*
X2541262D1*
X2611508D2*
X2930399D1*
X1647696Y2323852D2*
X1924243D1*
X2141210D2*
X2289041D1*
X2363836D2*
X2450664D1*
X2533388D2*
X2952001D1*
X1647696Y2298983D2*
X1931383D1*
X2141210D2*
X2311253D1*
X2341588D2*
X2451991D1*
X2554310D2*
X2929071D1*
X1647696Y2274114D2*
X1960163D1*
X2005245D2*
X2024180D1*
X2141210D2*
X2472014D1*
X2579177D2*
X2923761D1*
X1647696Y2249245D2*
X2054466D1*
X2123412D2*
X2496882D1*
X2704054D2*
X2930148D1*
X1647696Y2224377D2*
X2051416D1*
X2126427D2*
X2521751D1*
X2735776D2*
X2923761D1*
X1647696Y2199508D2*
X2054610D1*
X2123232D2*
X2546618D1*
X2738933D2*
X2923761D1*
X1647696Y2174639D2*
X1699070D1*
X1816100D2*
X2051344D1*
X2126497D2*
X2647130D1*
X2718121D2*
X2923761D1*
X1647696Y2149770D2*
X1699070D1*
X1816100D2*
X2056942D1*
X2120936D2*
X2923761D1*
X1647696Y2124902D2*
X1699070D1*
X1816100D2*
X2056942D1*
X2120936D2*
X2923761D1*
X1647696Y2100033D2*
X1699070D1*
X1816100D2*
X2056942D1*
X2120936D2*
X3017669D1*
X1647696Y2075164D2*
X2056942D1*
X2120936D2*
X2668623D1*
X2872387D2*
X3017669D1*
X1647696Y2050295D2*
X2056942D1*
X2120936D2*
X2656531D1*
X2872387D2*
X3017669D1*
X1647696Y2025427D2*
X1673878D1*
X1828982D2*
X2052314D1*
X2125529D2*
X2657033D1*
X2872387D2*
X3017669D1*
X1647696Y2000558D2*
X1669895D1*
X1832965D2*
X2052995D1*
X2124848D2*
X2174822D1*
X2480854D2*
X2670597D1*
X2872387D2*
X3017669D1*
X1647696Y1975689D2*
X1688663D1*
X1726676D2*
X1776184D1*
X1814161D2*
X2174822D1*
X2480854D2*
X2572276D1*
X2630528D2*
X3017669D1*
X1647696Y1950820D2*
X2174822D1*
X2639892D2*
X3017669D1*
X1647696Y1925951D2*
X2174822D1*
X2651915D2*
X2799171D1*
X1647696Y1901083D2*
X2174822D1*
X2646890D2*
X2794793D1*
X1647696Y1876214D2*
X2174822D1*
X2547778D2*
X2812699D1*
X2852650D2*
X3006438D1*
X1647696Y1851345D2*
X1958907D1*
X2031476D2*
X2174822D1*
X2650192D2*
X3017669D1*
X1647696Y1826476D2*
X1958907D1*
X2031441D2*
X2490172D1*
X2650192D2*
X2810581D1*
X2954777D2*
X3017669D1*
X1647696Y1801608D2*
X1963177D1*
X2027171D2*
X2243899D1*
X2398392D2*
X2800427D1*
X2964932D2*
X3017669D1*
X1647696Y1776739D2*
X1963177D1*
X2027171D2*
X2226029D1*
X2408655D2*
X2810223D1*
X2955100D2*
X3017669D1*
X1647696Y1751870D2*
X1959087D1*
X2031261D2*
X2230442D1*
X2399003D2*
X3017669D1*
X1647696Y1727001D2*
X1958727D1*
X2031619D2*
X3017669D1*
X1647696Y1702133D2*
X3017669D1*
X1647696Y1677264D2*
X3017669D1*
X1647696Y1652395D2*
X3017669D1*
X2935450Y2231217D2*
X2947615D1*
X2942672Y2235585D1*
X2936962Y2242269D1*
X2932370Y2249765D1*
X2929005Y2257886D1*
X2926954Y2266433D1*
X2926264Y2275197D1*
X2926954Y2283961D1*
X2929005Y2292508D1*
X2932370Y2300629D1*
X2936962Y2308125D1*
X2942672Y2314808D1*
X2949356Y2320518D1*
X2957022Y2325190D1*
X2949356Y2329875D1*
X2942672Y2335585D1*
X2936962Y2342269D1*
X2932370Y2349765D1*
X2929005Y2357886D1*
X2926954Y2366433D1*
X2926264Y2375197D1*
X2926954Y2383961D1*
X2929005Y2392508D1*
X2932370Y2400629D1*
X2936962Y2408125D1*
X2942672Y2414808D1*
X2949356Y2420518D1*
X2956852Y2425110D1*
X2964972Y2428475D1*
X2973520Y2430526D1*
X2982283Y2431217D1*
X2991047Y2430526D1*
X2999594Y2428475D1*
X3007715Y2425110D1*
X3015211Y2420518D1*
X3020167Y2416407D1*
X3020177Y3020211D1*
X2428064Y3020177D1*
X2428067Y2945949D1*
X2316028D1*
Y2967299D1*
X2311659Y2962357D1*
X2304975Y2956647D1*
X2297479Y2952055D1*
X2289358Y2948690D1*
X2280811Y2946639D1*
X2272047Y2945949D1*
X2263283Y2946639D1*
X2254736Y2948690D1*
X2246615Y2952055D1*
X2239119Y2956647D1*
X2232436Y2962357D1*
X2226726Y2969041D1*
X2222134Y2976537D1*
X2218769Y2984657D1*
X2216718Y2993205D1*
X2216028Y3001969D1*
X2216718Y3010732D1*
X2218769Y3019280D1*
X2219096Y3020167D1*
X1645143Y3020177D1*
X1645177Y2756764D1*
X1649059Y2762303D1*
X1653052Y2766297D1*
X1657622Y2769617D1*
X1662655Y2772180D1*
X1668026Y2773925D1*
X1673604Y2774808D1*
X1679252D1*
X1684829Y2773925D1*
X1690201Y2772180D1*
X1695234Y2769617D1*
X1697024Y2768420D1*
X1799546D1*
X1803837Y2770997D1*
X1809055Y2773159D1*
X1814547Y2774476D1*
X1820177Y2774920D1*
X1825807Y2774476D1*
X1831299Y2773159D1*
X1836517Y2770997D1*
X1841333Y2768046D1*
X1845627Y2764378D1*
X1849295Y2760084D1*
X1852247Y2755268D1*
X1854408Y2750050D1*
X1855726Y2744558D1*
X1856169Y2738928D1*
X1855726Y2733298D1*
X1854408Y2727806D1*
X1852247Y2722588D1*
X1849295Y2717772D1*
X1845627Y2713478D1*
X1841333Y2709810D1*
X1836517Y2706858D1*
X1831299Y2704697D1*
X1825807Y2703379D1*
X1820177Y2702936D1*
X1814547Y2703379D1*
X1809055Y2704697D1*
X1803837Y2706858D1*
X1799581Y2709436D1*
X1697059D1*
X1692768Y2706858D1*
X1687550Y2704697D1*
X1682058Y2703379D1*
X1676428Y2702936D1*
X1670798Y2703379D1*
X1665306Y2704697D1*
X1660088Y2706858D1*
X1655272Y2709810D1*
X1650978Y2713478D1*
X1647310Y2717772D1*
X1645173Y2721134D1*
X1645177Y1645143D1*
X3020211Y1645177D1*
X3020177Y1872205D1*
X3015304Y1873446D1*
X3010087Y1875608D1*
X3005831Y1878185D1*
X2853285D1*
X2849017Y1875608D1*
X2843799Y1873446D1*
X2838307Y1872129D1*
X2832677Y1871685D1*
X2827047Y1872129D1*
X2821555Y1873446D1*
X2816337Y1875608D1*
X2811521Y1878559D1*
X2807227Y1882227D1*
X2803559Y1886521D1*
X2800608Y1891337D1*
X2798446Y1896555D1*
X2797129Y1902047D1*
X2796685Y1907677D1*
X2797129Y1913307D1*
X2798446Y1918799D1*
X2800608Y1924017D1*
X2803559Y1928833D1*
X2807227Y1933127D1*
X2811521Y1936795D1*
X2816337Y1939747D1*
X2821555Y1941908D1*
X2827047Y1943226D1*
X2832677Y1943669D1*
X2838307Y1943226D1*
X2843799Y1941908D1*
X2849017Y1939747D1*
X2853273Y1937169D1*
X3005819D1*
X3010087Y1939747D1*
X3015304Y1941908D1*
X3020178Y1943104D1*
X3020177Y2119159D1*
X2926264Y2119177D1*
Y2231217D1*
X2935450D1*
X2767043Y2094978D2*
X2869896D1*
Y1982938D1*
X2757857D1*
Y2004290D1*
X2753488Y1999346D1*
X2746804Y1993636D1*
X2739308Y1989045D1*
X2731188Y1985680D1*
X2722640Y1983629D1*
X2713877Y1982938D1*
X2705113Y1983629D1*
X2696566Y1985680D1*
X2688445Y1989045D1*
X2680949Y1993636D1*
X2674265Y1999346D1*
X2668555Y2006030D1*
X2663963Y2013526D1*
X2660598Y2021647D1*
X2658547Y2030194D1*
X2657857Y2038958D1*
X2658547Y2047722D1*
X2660598Y2056269D1*
X2663963Y2064390D1*
X2668555Y2071886D1*
X2674265Y2078570D1*
X2680949Y2084280D1*
X2688445Y2088871D1*
X2696566Y2092236D1*
X2705113Y2094287D1*
X2713877Y2094978D1*
X2722640Y2094287D1*
X2731188Y2092236D1*
X2739308Y2088871D1*
X2746804Y2084280D1*
X2753488Y2078570D1*
X2757846Y2073600D1*
X2757857Y2094978D1*
X2767043D1*
X2035870Y2382448D2*
X2138723D1*
Y2270408D1*
X2026684D1*
Y2291759D1*
X2022315Y2286816D1*
X2015631Y2281106D1*
X2008135Y2276514D1*
X2000014Y2273150D1*
X1991467Y2271098D1*
X1982703Y2270408D1*
X1973940Y2271098D1*
X1965392Y2273150D1*
X1957272Y2276514D1*
X1949776Y2281106D1*
X1943092Y2286816D1*
X1937382Y2293500D1*
X1932790Y2300996D1*
X1929425Y2309117D1*
X1927374Y2317664D1*
X1926684Y2326428D1*
X1927374Y2335192D1*
X1929425Y2343739D1*
X1932790Y2351860D1*
X1937382Y2359356D1*
X1943092Y2366039D1*
X1949776Y2371749D1*
X1957272Y2376341D1*
X1965392Y2379706D1*
X1973940Y2381757D1*
X1982703Y2382448D1*
X1991467Y2381757D1*
X2000014Y2379706D1*
X2008135Y2376341D1*
X2015631Y2371749D1*
X2022315Y2366039D1*
X2026673Y2361070D1*
X2026684Y2382448D1*
X2035870D1*
X2545274Y1890757D2*
Y1869585D1*
X2553986Y1868420D1*
X2593278D1*
X2597587Y1870997D1*
X2602804Y1873159D1*
X2608297Y1874476D1*
X2613927Y1874920D1*
X2619556Y1874476D1*
X2625049Y1873159D1*
X2630266Y1870997D1*
X2635083Y1868046D1*
X2639377Y1864378D1*
X2643045Y1860084D1*
X2645996Y1855268D1*
X2648157Y1850050D1*
X2649475Y1844558D1*
X2649919Y1838928D1*
X2649475Y1833298D1*
X2648157Y1827806D1*
X2645996Y1822588D1*
X2643045Y1817772D1*
X2639377Y1813478D1*
X2635083Y1809810D1*
X2630266Y1806858D1*
X2625049Y1804697D1*
X2619556Y1803379D1*
X2613927Y1802936D1*
X2608297Y1803379D1*
X2602804Y1804697D1*
X2597587Y1806858D1*
X2593331Y1809436D1*
X2547075D1*
X2542766Y1806858D1*
X2537549Y1804697D1*
X2532056Y1803379D1*
X2526427Y1802936D1*
X2520797Y1803379D1*
X2515304Y1804697D1*
X2510087Y1806858D1*
X2505270Y1809810D1*
X2500976Y1813478D1*
X2497308Y1817772D1*
X2494357Y1822588D1*
X2492196Y1827806D1*
X2490878Y1833298D1*
X2490434Y1838928D1*
X2490987Y1845110D1*
X2177329Y1845109D1*
Y2024077D1*
X2478345D1*
Y1962177D1*
X2567080Y1962211D1*
X2569329Y1967807D1*
X2572281Y1972623D1*
X2575949Y1976917D1*
X2580243Y1980585D1*
X2585059Y1983537D1*
X2590277Y1985698D1*
X2595769Y1987016D1*
X2601399Y1987459D1*
X2607029Y1987016D1*
X2612521Y1985698D1*
X2617739Y1983537D1*
X2622555Y1980585D1*
X2626849Y1976917D1*
X2630517Y1972623D1*
X2633469Y1967807D1*
X2635630Y1962589D1*
X2636948Y1957097D1*
X2637391Y1951467D1*
X2637273Y1947589D1*
X2641266Y1943596D1*
X2644587Y1939026D1*
X2647150Y1933993D1*
X2648895Y1928622D1*
X2649778Y1923045D1*
Y1917396D1*
X2648895Y1911819D1*
X2647150Y1906448D1*
X2644587Y1901415D1*
X2641266Y1896845D1*
X2637273Y1892852D1*
X2632703Y1889531D1*
X2627671Y1886969D1*
X2622299Y1885223D1*
X2616722Y1884340D1*
X2611073D1*
X2605496Y1885223D1*
X2600125Y1886969D1*
X2595092Y1889531D1*
X2593302Y1890728D1*
X2545251D1*
X1710745Y2193815D2*
X1813598D1*
Y2081776D1*
X1701559D1*
Y2193815D1*
X1710745D1*
X2253185Y2847062D2*
Y2868304D1*
X2250608Y2872588D1*
X2248446Y2877806D1*
X2247129Y2883298D1*
X2246685Y2888928D1*
X2247129Y2894558D1*
X2248446Y2900050D1*
X2250608Y2905268D1*
X2253559Y2910084D1*
X2257227Y2914378D1*
X2261521Y2918046D1*
X2266337Y2920997D1*
X2271555Y2923159D1*
X2277047Y2924476D1*
X2282677Y2924920D1*
X2288307Y2924476D1*
X2293799Y2923159D1*
X2299017Y2920997D1*
X2303833Y2918046D1*
X2307665Y2914806D1*
X2311521Y2918045D1*
X2316337Y2920996D1*
X2321555Y2923157D1*
X2327047Y2924475D1*
X2332677Y2924919D1*
X2338307Y2924475D1*
X2343799Y2923157D1*
X2349017Y2920996D1*
X2353833Y2918045D1*
X2358127Y2914377D1*
X2361795Y2910083D1*
X2364747Y2905266D1*
X2366908Y2900049D1*
X2368226Y2894556D1*
X2368669Y2888927D1*
X2368226Y2883297D1*
X2366908Y2877804D1*
X2364747Y2872587D1*
X2362169Y2868331D1*
Y2847050D1*
X2364747Y2842768D1*
X2366908Y2837550D1*
X2368226Y2832058D1*
X2368669Y2826428D1*
X2368226Y2820798D1*
X2366908Y2815306D1*
X2364747Y2810088D1*
X2361795Y2805272D1*
X2358127Y2800978D1*
X2353833Y2797310D1*
X2349017Y2794358D1*
X2343799Y2792197D1*
X2338307Y2790879D1*
X2332677Y2790436D1*
X2327047Y2790879D1*
X2321555Y2792197D1*
X2316337Y2794358D1*
X2311521Y2797310D1*
X2307689Y2800550D1*
X2303833Y2797310D1*
X2299017Y2794358D1*
X2293799Y2792197D1*
X2288307Y2790879D1*
X2282677Y2790436D1*
X2277047Y2790879D1*
X2271555Y2792197D1*
X2266337Y2794358D1*
X2261521Y2797310D1*
X2257227Y2800978D1*
X2253559Y2805272D1*
X2250608Y2810088D1*
X2248446Y2815306D1*
X2247129Y2820798D1*
X2246685Y2826428D1*
X2247129Y2832058D1*
X2248446Y2837550D1*
X2250608Y2842768D1*
X2253185Y2847024D1*
X2349543Y1746936D2*
X2291295Y1746802D1*
X2287302Y1742808D1*
X2282732Y1739488D1*
X2277699Y1736925D1*
X2272328Y1735180D1*
X2266751Y1734297D1*
X2261102D1*
X2255525Y1735180D1*
X2250154Y1736925D1*
X2245121Y1739488D1*
X2240551Y1742808D1*
X2236558Y1746802D1*
X2233238Y1751371D1*
X2230675Y1756404D1*
X2228929Y1761776D1*
X2228046Y1767353D1*
Y1773001D1*
X2228929Y1778579D1*
X2230675Y1783950D1*
X2233238Y1788983D1*
X2236558Y1793552D1*
X2240551Y1797546D1*
X2245121Y1800866D1*
X2250154Y1803429D1*
X2255525Y1805175D1*
X2261102Y1806058D1*
X2266751D1*
X2279364Y1805920D1*
X2349517D1*
X2353837Y1808497D1*
X2359055Y1810659D1*
X2364547Y1811976D1*
X2370177Y1812420D1*
X2375807Y1811976D1*
X2381299Y1810659D1*
X2386517Y1808497D1*
X2391333Y1805546D1*
X2395627Y1801878D1*
X2399295Y1797584D1*
X2402247Y1792768D1*
X2404408Y1787550D1*
X2405726Y1782058D1*
X2406169Y1776428D1*
X2405726Y1770798D1*
X2404408Y1765306D1*
X2402247Y1760088D1*
X2399295Y1755272D1*
X2395627Y1750978D1*
X2391333Y1747310D1*
X2386517Y1744358D1*
X2381299Y1742197D1*
X2375807Y1740879D1*
X2370177Y1740436D1*
X2364547Y1740879D1*
X2359055Y1742197D1*
X2353837Y1744358D1*
X2349581Y1746936D1*
X2859560Y1830920D2*
X2905778D1*
X2910087Y1833497D1*
X2915304Y1835659D1*
X2920797Y1836976D1*
X2926427Y1837420D1*
X2932056Y1836976D1*
X2937549Y1835659D1*
X2942766Y1833497D1*
X2947583Y1830546D1*
X2951877Y1826878D1*
X2955545Y1822584D1*
X2958496Y1817768D1*
X2960657Y1812550D1*
X2961975Y1807058D1*
X2962419Y1801428D1*
X2961975Y1795798D1*
X2960657Y1790306D1*
X2958496Y1785088D1*
X2955545Y1780272D1*
X2951877Y1775978D1*
X2947583Y1772310D1*
X2942766Y1769358D1*
X2937549Y1767197D1*
X2932056Y1765879D1*
X2926427Y1765436D1*
X2920797Y1765879D1*
X2915304Y1767197D1*
X2910087Y1769358D1*
X2905831Y1771936D1*
X2859575D1*
X2855266Y1769358D1*
X2850049Y1767197D1*
X2844556Y1765879D1*
X2838927Y1765436D1*
X2833297Y1765879D1*
X2827804Y1767197D1*
X2822587Y1769358D1*
X2817770Y1772310D1*
X2813476Y1775978D1*
X2809808Y1780272D1*
X2806857Y1785088D1*
X2804696Y1790306D1*
X2803378Y1795798D1*
X2802934Y1801428D1*
X2803378Y1807058D1*
X2804696Y1812550D1*
X2806857Y1817768D1*
X2809808Y1822584D1*
X2813476Y1826878D1*
X2817770Y1830546D1*
X2822587Y1833497D1*
X2827804Y1835659D1*
X2833297Y1836976D1*
X2838927Y1837420D1*
X2844556Y1836976D1*
X2850049Y1835659D1*
X2855266Y1833497D1*
X2859522Y1830920D1*
X2546909Y2384558D2*
Y2464220D1*
X2532685Y2478459D1*
X2527804Y2479696D1*
X2522587Y2481857D1*
X2519266Y2483808D1*
X2444407Y2408948D1*
X2450520Y2408037D1*
X2455891Y2406291D1*
X2460924Y2403728D1*
X2462714Y2402531D1*
X2494608Y2402441D1*
X2499178Y2401717D1*
X2503580Y2400286D1*
X2507703Y2398185D1*
X2511448Y2395466D1*
X2523836Y2383077D1*
X2526555Y2379333D1*
X2528656Y2375210D1*
X2530087Y2370808D1*
X2530811Y2366238D1*
X2530902Y2319894D1*
X2582374Y2268423D1*
X2672455Y2268339D1*
X2677026Y2267614D1*
X2681428Y2266184D1*
X2685551Y2264083D1*
X2689295Y2261364D1*
X2707667Y2243121D1*
X2712510Y2241921D1*
X2717728Y2239760D1*
X2722545Y2236808D1*
X2726839Y2233140D1*
X2730507Y2228846D1*
X2733458Y2224030D1*
X2735619Y2218812D1*
X2736937Y2213320D1*
X2737381Y2207690D1*
X2736937Y2202060D1*
X2735619Y2196568D1*
X2733458Y2191350D1*
X2730507Y2186534D1*
X2726839Y2182240D1*
X2722545Y2178572D1*
X2717728Y2175621D1*
X2712510Y2173459D1*
X2707018Y2172142D1*
X2701388Y2171698D1*
X2695759Y2172142D1*
X2690266Y2173459D1*
X2685049Y2175621D1*
X2682650Y2176965D1*
X2677665Y2174438D1*
X2672294Y2172693D1*
X2666717Y2171810D1*
X2661068D1*
X2655491Y2172693D1*
X2650119Y2174438D1*
X2645087Y2177001D1*
X2643297Y2178198D1*
X2580337Y2178289D1*
X2575766Y2179013D1*
X2571365Y2180444D1*
X2567241Y2182545D1*
X2563497Y2185264D1*
X2503335Y2245298D1*
X2460235Y2288526D1*
X2457516Y2292270D1*
X2455415Y2296394D1*
X2453984Y2300795D1*
X2453260Y2305366D1*
X2453169Y2330825D1*
X2450592Y2335085D1*
X2449360Y2337786D1*
X2444942Y2337159D1*
X2439294D1*
X2433717Y2338042D1*
X2428345Y2339787D1*
X2423312Y2342350D1*
X2418743Y2345671D1*
X2414749Y2349664D1*
X2411429Y2354234D1*
X2408866Y2359266D1*
X2407121Y2364638D1*
X2406215Y2370756D1*
X2361891Y2326432D1*
X2360657Y2321554D1*
X2358496Y2316336D1*
X2355545Y2311520D1*
X2351877Y2307226D1*
X2347583Y2303558D1*
X2342766Y2300606D1*
X2337549Y2298445D1*
X2332056Y2297127D1*
X2326427Y2296684D1*
X2320797Y2297127D1*
X2315304Y2298445D1*
X2310087Y2300606D1*
X2305270Y2303558D1*
X2300976Y2307226D1*
X2297308Y2311520D1*
X2294357Y2316336D1*
X2292196Y2321554D1*
X2290878Y2327046D1*
X2290434Y2332676D1*
X2290878Y2338306D1*
X2292196Y2343798D1*
X2294357Y2349016D1*
X2297308Y2353832D1*
X2300976Y2358126D1*
X2305270Y2361794D1*
X2310087Y2364745D1*
X2315304Y2366907D1*
X2320135Y2368093D1*
X2519774Y2567604D1*
X2523518Y2570323D1*
X2527642Y2572424D1*
X2532043Y2573854D1*
X2536614Y2574579D1*
X2621605Y2574669D1*
X2697491Y2574579D1*
X2702062Y2573854D1*
X2706463Y2572424D1*
X2710587Y2570323D1*
X2712520Y2569031D1*
X2721450Y2565929D1*
X2726483Y2563366D1*
X2731052Y2560046D1*
X2735046Y2556052D1*
X2738366Y2551483D1*
X2740929Y2546450D1*
X2742675Y2541079D1*
X2743558Y2535501D1*
Y2529853D1*
X2742675Y2524276D1*
X2740929Y2518904D1*
X2738366Y2513871D1*
X2735046Y2509302D1*
X2731052Y2505308D1*
X2726483Y2501988D1*
X2721450Y2499425D1*
X2716079Y2497680D1*
X2710501Y2496797D1*
X2704853D1*
X2699276Y2497680D1*
X2693904Y2499425D1*
X2688871Y2501988D1*
X2684302Y2505308D1*
X2680308Y2509302D1*
X2676988Y2513871D1*
X2675970Y2515692D1*
X2578877Y2515685D1*
X2598828Y2495605D1*
X2601547Y2491861D1*
X2603648Y2487738D1*
X2605079Y2483336D1*
X2605803Y2478765D1*
X2605894Y2393774D1*
Y2384552D1*
X2608471Y2380264D1*
X2610633Y2375046D1*
X2611950Y2369554D1*
X2612394Y2363924D1*
X2611950Y2358294D1*
X2610633Y2352802D1*
X2608471Y2347584D1*
X2605520Y2342768D1*
X2601852Y2338474D1*
X2597558Y2334806D1*
X2592741Y2331854D1*
X2587524Y2329693D1*
X2582031Y2328375D1*
X2576402Y2327932D1*
X2570772Y2328375D1*
X2565280Y2329693D1*
X2560062Y2331854D1*
X2555245Y2334806D1*
X2550951Y2338474D1*
X2547283Y2342768D1*
X2544332Y2347584D1*
X2542171Y2352802D1*
X2540853Y2358294D1*
X2540409Y2363924D1*
X2540853Y2369554D1*
X2542171Y2375046D1*
X2544332Y2380264D1*
X2546909Y2384520D1*
X2796934Y2834560D2*
X2797025Y2866240D1*
X2797749Y2870811D1*
X2799180Y2875213D1*
X2801281Y2879336D1*
X2804000Y2883080D1*
X2828486Y2907693D1*
X2829696Y2912549D1*
X2831857Y2917766D1*
X2834808Y2922583D1*
X2838476Y2926877D1*
X2842770Y2930545D1*
X2847587Y2933496D1*
X2852804Y2935657D1*
X2858297Y2936975D1*
X2863927Y2937419D1*
X2869556Y2936975D1*
X2875049Y2935657D1*
X2880266Y2933496D1*
X2885083Y2930545D1*
X2889377Y2926877D1*
X2893045Y2922583D1*
X2895996Y2917766D1*
X2898157Y2912549D1*
X2899475Y2907056D1*
X2899919Y2901427D1*
X2899475Y2895797D1*
X2898157Y2890304D1*
X2895996Y2885087D1*
X2893045Y2880270D1*
X2889377Y2875976D1*
X2885083Y2872308D1*
X2880266Y2869357D1*
X2875049Y2867196D1*
X2870218Y2866009D1*
X2855930Y2851722D1*
X2855919Y2834537D1*
X2858496Y2830266D1*
X2860657Y2825049D1*
X2861975Y2819556D1*
X2862419Y2813927D1*
X2861975Y2808297D1*
X2860657Y2802804D1*
X2858496Y2797587D1*
X2855545Y2792770D1*
X2851877Y2788476D1*
X2847583Y2784808D1*
X2842766Y2781857D1*
X2837549Y2779696D1*
X2832056Y2778378D1*
X2826427Y2777934D1*
X2820797Y2778378D1*
X2815304Y2779696D1*
X2810087Y2781857D1*
X2805270Y2784808D1*
X2800976Y2788476D1*
X2797308Y2792770D1*
X2794357Y2797587D1*
X2792196Y2802804D1*
X2790878Y2808297D1*
X2790434Y2813927D1*
X2790878Y2819556D1*
X2792196Y2825049D1*
X2794357Y2830266D1*
X2796934Y2834522D1*
X1811476Y2803185D2*
X1767864Y2803276D1*
X1763293Y2804000D1*
X1758891Y2805430D1*
X1754768Y2807531D1*
X1751024Y2810251D1*
X1734125Y2827022D1*
X1729282Y2828219D1*
X1724064Y2830381D1*
X1719248Y2833332D1*
X1714954Y2837000D1*
X1711286Y2841294D1*
X1708335Y2846110D1*
X1706173Y2851328D1*
X1704856Y2856820D1*
X1704412Y2862450D1*
X1704856Y2868080D1*
X1706173Y2873572D1*
X1708335Y2878790D1*
X1711286Y2883606D1*
X1714954Y2887900D1*
X1719248Y2891568D1*
X1724064Y2894520D1*
X1729282Y2896681D1*
X1734774Y2897999D1*
X1740404Y2898442D1*
X1746034Y2897999D1*
X1751526Y2896681D1*
X1756744Y2894520D1*
X1761560Y2891568D1*
X1765854Y2887900D1*
X1769522Y2883606D1*
X1772474Y2878790D1*
X1774635Y2873572D1*
X1775822Y2868741D1*
X1782395Y2862168D1*
X1836104Y2862308D1*
X1841752D1*
X1847329Y2861425D1*
X1852701Y2859680D1*
X1857734Y2857117D1*
X1859432Y2855982D1*
X1859434Y2868278D1*
X1856857Y2872588D1*
X1854696Y2877806D1*
X1853378Y2883298D1*
X1852934Y2888928D1*
X1853378Y2894558D1*
X1854696Y2900050D1*
X1856857Y2905268D1*
X1859808Y2910084D1*
X1863476Y2914378D1*
X1867770Y2918046D1*
X1872587Y2920997D1*
X1877804Y2923159D1*
X1883297Y2924476D1*
X1888927Y2924920D1*
X1894556Y2924476D1*
X1900049Y2923159D1*
X1905266Y2920997D1*
X1910083Y2918046D1*
X1914377Y2914378D1*
X1918045Y2910084D1*
X1920996Y2905268D1*
X1923157Y2900050D1*
X1924475Y2894558D1*
X1924919Y2888928D1*
X1924475Y2883298D1*
X1923157Y2877806D1*
X1920996Y2872588D1*
X1918419Y2868332D1*
X1918558Y2798001D1*
Y2792353D1*
X1917675Y2786776D1*
X1915929Y2781404D1*
X1913366Y2776371D1*
X1910046Y2771802D1*
X1906052Y2767808D1*
X1901483Y2764488D1*
X1896450Y2761925D1*
X1891079Y2760180D1*
X1885501Y2759297D1*
X1879853D1*
X1874276Y2760180D1*
X1868904Y2761925D1*
X1863871Y2764488D1*
X1859302Y2767808D1*
X1855308Y2771802D1*
X1851988Y2776371D1*
X1849425Y2781404D1*
X1847680Y2786776D1*
X1846916Y2791333D1*
X1841752Y2790547D1*
X1836104D1*
X1830526Y2791430D1*
X1825155Y2793176D1*
X1820122Y2795739D1*
X1815552Y2799059D1*
X1811457Y2803182D1*
X2024669Y1818294D2*
Y1759588D1*
X2027247Y1755268D1*
X2029408Y1750050D1*
X2030726Y1744558D1*
X2031169Y1738928D1*
X2030726Y1733298D1*
X2029408Y1727806D1*
X2027247Y1722588D1*
X2024295Y1717772D1*
X2020627Y1713478D1*
X2016333Y1709810D1*
X2011517Y1706858D1*
X2006299Y1704697D1*
X2000807Y1703379D1*
X1995177Y1702936D1*
X1989547Y1703379D1*
X1984055Y1704697D1*
X1978837Y1706858D1*
X1974021Y1709810D1*
X1969727Y1713478D1*
X1966059Y1717772D1*
X1963108Y1722588D1*
X1960946Y1727806D1*
X1959629Y1733298D1*
X1959185Y1738928D1*
X1959629Y1744558D1*
X1960946Y1750050D1*
X1963108Y1755268D1*
X1965685Y1759524D1*
Y1818268D1*
X1963108Y1822588D1*
X1960946Y1827806D1*
X1959629Y1833298D1*
X1959185Y1838928D1*
X1959629Y1844558D1*
X1960946Y1850050D1*
X1963108Y1855268D1*
X1966059Y1860084D1*
X1969727Y1864378D1*
X1974021Y1868046D1*
X1978837Y1870997D1*
X1984055Y1873159D1*
X1989547Y1874476D1*
X1995177Y1874920D1*
X2000807Y1874476D1*
X2006299Y1873159D1*
X2011517Y1870997D1*
X2016333Y1868046D1*
X2020627Y1864378D1*
X2024295Y1860084D1*
X2027247Y1855268D1*
X2029408Y1850050D1*
X2030726Y1844558D1*
X2031169Y1838928D1*
X2030726Y1833298D1*
X2029408Y1827806D1*
X2027247Y1822588D1*
X2024669Y1818332D1*
X1728312Y2037168D2*
X1774530D1*
X1778837Y2039745D1*
X1784055Y2041907D1*
X1789547Y2043224D1*
X1795177Y2043668D1*
X1800807Y2043224D1*
X1806299Y2041907D1*
X1811517Y2039745D1*
X1816333Y2036794D1*
X1820627Y2033126D1*
X1824295Y2028832D1*
X1827247Y2024016D1*
X1829408Y2018798D1*
X1830726Y2013306D1*
X1831169Y2007676D1*
X1830726Y2002046D1*
X1829408Y1996554D1*
X1827247Y1991336D1*
X1824295Y1986520D1*
X1820627Y1982226D1*
X1816333Y1978558D1*
X1811517Y1975606D1*
X1806299Y1973445D1*
X1800807Y1972127D1*
X1795177Y1971684D1*
X1789547Y1972127D1*
X1784055Y1973445D1*
X1778837Y1975606D1*
X1774581Y1978184D1*
X1728325D1*
X1724018Y1975606D1*
X1718801Y1973445D1*
X1713308Y1972127D1*
X1707678Y1971684D1*
X1702049Y1972127D1*
X1696556Y1973445D1*
X1691339Y1975606D1*
X1686522Y1978558D1*
X1682228Y1982226D1*
X1678560Y1986520D1*
X1675609Y1991336D1*
X1673448Y1996554D1*
X1672130Y2002046D1*
X1671686Y2007676D1*
X1672130Y2013306D1*
X1673448Y2018798D1*
X1675609Y2024016D1*
X1678560Y2028832D1*
X1682228Y2033126D1*
X1686522Y2036794D1*
X1691339Y2039745D1*
X1696556Y2041907D1*
X1702049Y2043224D1*
X1707678Y2043668D1*
X1713308Y2043224D1*
X1718801Y2041907D1*
X1724018Y2039745D1*
X1728274Y2037168D1*
X2184579Y2493406D2*
X2330627D1*
X2334904Y2495983D1*
X2340122Y2498144D1*
X2345614Y2499462D1*
X2351244Y2499906D1*
X2356874Y2499462D1*
X2362366Y2498144D1*
X2367584Y2495983D1*
X2372400Y2493031D1*
X2376694Y2489364D1*
X2380362Y2485070D1*
X2383314Y2480253D1*
X2385475Y2475035D1*
X2386793Y2469543D1*
X2387236Y2463913D1*
X2386793Y2458283D1*
X2385475Y2452791D1*
X2383314Y2447573D1*
X2380362Y2442757D1*
X2376694Y2438463D1*
X2372400Y2434795D1*
X2367584Y2431844D1*
X2362366Y2429682D1*
X2356874Y2428365D1*
X2351244Y2427921D1*
X2345614Y2428365D1*
X2340122Y2429682D1*
X2334904Y2431844D1*
X2330648Y2434421D1*
X2184562D1*
X2180285Y2431844D1*
X2175067Y2429682D1*
X2169575Y2428365D1*
X2163945Y2427921D1*
X2158315Y2428365D1*
X2152823Y2429682D1*
X2147605Y2431844D1*
X2142789Y2434795D1*
X2138495Y2438463D1*
X2134827Y2442757D1*
X2131875Y2447573D1*
X2129714Y2452791D1*
X2128396Y2458283D1*
X2127953Y2463913D1*
X2128396Y2469543D1*
X2129714Y2475035D1*
X2131875Y2480253D1*
X2134827Y2485070D1*
X2138495Y2489364D1*
X2142789Y2493031D1*
X2147605Y2495983D1*
X2152823Y2498144D1*
X2158315Y2499462D1*
X2163945Y2499906D1*
X2169575Y2499462D1*
X2175067Y2498144D1*
X2180285Y2495983D1*
X2184541Y2493406D1*
X2118419Y2212080D2*
Y2203324D1*
X2120996Y2199017D1*
X2123157Y2193799D1*
X2124475Y2188307D1*
X2124919Y2182677D1*
X2124475Y2177047D1*
X2123157Y2171555D1*
X2120996Y2166337D1*
X2118419Y2162081D1*
Y2034583D1*
X2120996Y2030266D1*
X2123157Y2025049D1*
X2124475Y2019556D1*
X2124919Y2013927D1*
X2124475Y2008297D1*
X2123157Y2002804D1*
X2120996Y1997587D1*
X2118045Y1992770D1*
X2114377Y1988476D1*
X2110083Y1984808D1*
X2105266Y1981857D1*
X2100049Y1979696D1*
X2094556Y1978378D1*
X2088927Y1977934D1*
X2083297Y1978378D1*
X2077804Y1979696D1*
X2072587Y1981857D1*
X2067770Y1984808D1*
X2063476Y1988476D1*
X2059808Y1992770D1*
X2056857Y1997587D1*
X2054696Y2002804D1*
X2053378Y2008297D1*
X2052934Y2013927D1*
X2053378Y2019556D1*
X2054696Y2025049D1*
X2056857Y2030266D1*
X2059434Y2034522D1*
Y2162021D1*
X2056857Y2166337D1*
X2054696Y2171555D1*
X2053378Y2177047D1*
X2052934Y2182677D1*
X2053378Y2188307D1*
X2054696Y2193799D1*
X2056857Y2199017D1*
X2059434Y2203273D1*
Y2212067D1*
X2056857Y2216374D1*
X2054696Y2221592D1*
X2053378Y2227084D1*
X2052934Y2232714D1*
X2053378Y2238344D1*
X2054696Y2243836D1*
X2056857Y2249054D1*
X2059808Y2253870D1*
X2063476Y2258164D1*
X2067770Y2261832D1*
X2072587Y2264783D1*
X2077804Y2266945D1*
X2083297Y2268262D1*
X2088927Y2268706D1*
X2094556Y2268262D1*
X2100049Y2266945D1*
X2105266Y2264783D1*
X2110083Y2261832D1*
X2114377Y2258164D1*
X2118045Y2253870D1*
X2120996Y2249054D1*
X2123157Y2243836D1*
X2124475Y2238344D1*
X2124919Y2232714D1*
X2124475Y2227084D1*
X2123157Y2221592D1*
X2120996Y2216374D1*
X2118419Y2212118D1*
D21*
X2982283Y2175197D3*
D22*
Y2275197D3*
Y2375197D3*
Y2475197D3*
D21*
X2813877Y2038958D3*
D22*
X2713877D3*
D21*
X2082703Y2326428D3*
D22*
X1982703D3*
D79*
X1038927Y732677D3*
X983249Y788354D3*
D82*
X3938927Y1032677D3*
X3883249Y977000D3*
D79*
X3631201Y3943701D3*
X3686878Y3888024D3*
D82*
X718701Y3643701D3*
X774378Y3699378D3*
D33*
X2495160Y1895223D3*
X2428231D3*
X2361302D3*
X2294373D3*
X2227444D3*
Y1973963D3*
X2294373D3*
X2361302D3*
X2428231D3*
X2495160D3*
D21*
X2372047Y3001969D3*
D22*
X2272047D3*
D21*
X1757579Y2137795D3*
D22*
X1857579D3*
M02*
