M48
INCH
T01C0.012
T02C0.0354
T03C0.2756
%
T02
X+028139Y+020390
X+027139Y+020390
X+017576Y+021378
X+018576Y+021378
X+023720Y+030020
X+022720Y+030020
X+029823Y+021752
X+029823Y+022752
X+029823Y+023752
X+029823Y+024752
X+020827Y+023264
X+019827Y+023264
T03
X+039567Y+007087
X+007087Y+007087
X+007087Y+039764
X+039567Y+039567
T01
X+021827Y+022827
X+022577Y+022827
X+009926Y+007761
X+021496Y+025345
X+007776Y+036909
X+020827Y+027264
X+020202Y+027264
X+038842Y+009780
X+024952Y+019765
X+036909Y+038878
X+026077Y+025202
X+018574Y+022628
X+024909Y+021873
X+025514Y+022577
X+024202Y+022639
X+024202Y+021077
X+025639Y+021077
X+030639Y+017202
X+022827Y+028264
X+022827Y+028889
X+023202Y+028264
X+023202Y+028889
X+023702Y+017764
X+022639Y+017702
X+028389Y+018014
X+029264Y+018014
X+025764Y+023639
X+025389Y+025139
X+028264Y+028139
X+028639Y+029014
X+018389Y+028264
X+017404Y+028625
X+017514Y+016077
X+016014Y+029139
X+029077Y+030577
X+019952Y+017327
X+019952Y+018390
X+025389Y+018390
X+026014Y+018390
X+028826Y+019140
X+029826Y+019140
X+018890Y+028890
X+016827Y+027389
X+016639Y+020765
X+017890Y+020765
X+023577Y+019765
X+021639Y+024639
X+023512Y+024639
X+027014Y+022077
X+026326Y+019202
X+024421Y+023730
X+026014Y+019452
X+026701Y+022077
X+024827Y+023514
X+023264Y+023327
X+027077Y+025327
T00
M30
