G04 DipTrace 3.2.0.1*
G04 09342-01_gorabn6_0_10.gbl*
%MOIN*%
G04 #@! TF.FileFunction,Copper,L2,Bot*
G04 #@! TF.Part,Single*
G04 #@! TA.AperFunction,Conductor*
%ADD13C,0.006*%
G04 #@! TA.AperFunction,ComponentPad*
%ADD15R,0.059055X0.059055*%
%ADD16C,0.059055*%
%ADD17R,0.051181X0.059055*%
%ADD18R,0.059055X0.051181*%
%ADD20R,0.018701X0.009843*%
%ADD21R,0.009843X0.018701*%
%FSLAX26Y26*%
G04*
G70*
G90*
G75*
G01*
G04 Bottom*
%LPD*%
X795102Y754354D2*
D13*
X814787D1*
X795102D2*
Y673252D1*
X715850Y594000D1*
X840850D1*
X853941D1*
X1100201Y840260D1*
X749354Y819000D2*
Y799315D1*
Y779630D2*
Y799315D1*
X785535D1*
X790850Y794000D1*
Y758606D1*
X795102Y754354D1*
X840850Y759945D2*
X865850D1*
Y825391D1*
X887655Y847196D1*
X815850Y919000D1*
Y827228D1*
X814787Y826165D1*
X815654Y919000D2*
X815850D1*
X815654Y1019000D2*
Y919000D1*
X1100201Y740260D2*
X1140850Y780909D1*
Y894000D1*
X934459D1*
X887655Y847196D1*
X775417Y754354D2*
Y744000D1*
X765850D1*
X740850Y719000D1*
X690850D1*
X665850Y694000D1*
Y569197D1*
X715850Y519197D1*
X840850D1*
X879138D1*
X1100201Y740260D1*
X490004Y840260D2*
X568744Y919000D1*
X740850D1*
X795102Y826165D2*
Y864748D1*
X740850Y919000D1*
X490004Y740260D2*
X440850Y789413D1*
Y869000D1*
X590850Y1019000D1*
X740850D1*
X775417Y826165D2*
Y859433D1*
X765850Y869000D1*
X618744D1*
X490004Y740260D1*
D15*
D3*
D16*
Y840260D3*
D18*
X840850Y594000D3*
Y519197D3*
X715850Y594000D3*
Y519197D3*
D17*
X740850Y919000D3*
X815654D3*
X740850Y1019000D3*
X815654D3*
D20*
X840850Y819000D3*
Y799315D3*
Y779630D3*
Y759945D3*
X749354Y819000D3*
Y799315D3*
Y779630D3*
Y759945D3*
D21*
X775417Y826165D3*
X795102D3*
X814787D3*
X775417Y754354D3*
X795102D3*
X814787D3*
D15*
X1100201Y840260D3*
D16*
Y740260D3*
M02*
