G04 DipTrace 3.2.0.1*
G04 I2C_Breakout.gbo*
%MOIN*%
G04 #@! TF.FileFunction,Legend,Bot*
G04 #@! TF.Part,Single*
%ADD15C,0.01*%
%ADD28C,0.009264*%
%FSLAX26Y26*%
G04*
G70*
G90*
G75*
G01*
G04 BotSilk*
%LPD*%
X421037Y1115358D2*
D15*
X521037D1*
Y415358D1*
X421037D1*
Y1115358D1*
X821037D2*
X921037D1*
Y415358D1*
X821037D1*
Y1115358D1*
X804180Y579895D2*
D28*
X798410Y582814D1*
X789788Y591369D1*
Y531148D1*
X802062Y677043D2*
Y679895D1*
X799210Y685666D1*
X796358Y688517D1*
X790588Y691369D1*
X779114D1*
X773410Y688517D1*
X770558Y685666D1*
X767640Y679895D1*
Y674192D1*
X770558Y668421D1*
X776262Y659866D1*
X804980Y631148D1*
X764788D1*
X799210Y791369D2*
X767706D1*
X784884Y768421D1*
X776262D1*
X770558Y765570D1*
X767706Y762718D1*
X764788Y754096D1*
Y748392D1*
X767706Y739770D1*
X773410Y734000D1*
X782032Y731148D1*
X790654D1*
X799210Y734000D1*
X802062Y736918D1*
X804980Y742622D1*
X779114Y831148D2*
Y891369D1*
X807832Y851244D1*
X764788D1*
X770558Y991369D2*
X799210D1*
X802062Y965570D1*
X799210Y968421D1*
X790588Y971340D1*
X782032D1*
X773410Y968421D1*
X767640Y962718D1*
X764788Y954096D1*
Y948392D1*
X767640Y939770D1*
X773410Y934000D1*
X782032Y931148D1*
X790588D1*
X799210Y934000D1*
X802062Y936918D1*
X804980Y942622D1*
X536390Y982814D2*
X539242Y988517D1*
X547864Y991369D1*
X553568D1*
X562190Y988517D1*
X567960Y979895D1*
X570812Y965570D1*
Y951244D1*
X567960Y939770D1*
X562190Y934000D1*
X553568Y931148D1*
X550716D1*
X542160Y934000D1*
X536390Y939770D1*
X533538Y948392D1*
Y951244D1*
X536390Y959866D1*
X542160Y965570D1*
X550716Y968421D1*
X553568D1*
X562190Y965570D1*
X567960Y959866D1*
X570812Y951244D1*
X562256Y818648D2*
X533538Y878869D1*
X573730D1*
X559338Y791369D2*
X567893Y788517D1*
X570812Y782814D1*
Y777043D1*
X567893Y771340D1*
X562190Y768421D1*
X550716Y765570D1*
X542094Y762718D1*
X536390Y756947D1*
X533538Y751244D1*
Y742622D1*
X536390Y736918D1*
X539242Y734000D1*
X547864Y731148D1*
X559338D1*
X567893Y734000D1*
X570812Y736918D1*
X573664Y742622D1*
Y751244D1*
X570812Y756947D1*
X565042Y762718D1*
X556486Y765570D1*
X545012Y768421D1*
X539242Y771340D1*
X536390Y777043D1*
Y782814D1*
X539242Y788517D1*
X547864Y791369D1*
X559338D1*
X533538Y683840D2*
X536456Y675218D1*
X542160Y669447D1*
X550782Y666596D1*
X553634D1*
X562256Y669447D1*
X567960Y675218D1*
X570878Y683840D1*
Y686692D1*
X567960Y695314D1*
X562256Y701017D1*
X553634Y703869D1*
X550782D1*
X542160Y701017D1*
X536456Y695314D1*
X533538Y683840D1*
Y669447D1*
X536456Y655122D1*
X542160Y646500D1*
X550782Y643648D1*
X556486D1*
X565108Y646500D1*
X567960Y652270D1*
X606649Y586145D2*
X600879Y589064D1*
X592257Y597619D1*
Y537398D1*
X556486Y597619D2*
X565108Y594767D1*
X570878Y586145D1*
X573730Y571820D1*
Y563197D1*
X570878Y548872D1*
X565108Y540250D1*
X556486Y537398D1*
X550782D1*
X542160Y540250D1*
X536456Y548872D1*
X533538Y563197D1*
Y571820D1*
X536456Y586145D1*
X542160Y594767D1*
X550782Y597619D1*
X556486D1*
X536456Y586145D2*
X570878Y548872D1*
X748956Y595121D2*
X751808Y592203D1*
X748956Y589351D1*
X746038Y592203D1*
X748956Y595121D1*
M02*
