G04 DipTrace 3.2.0.1*
G04 I2C_Breakout.gbl*
%MOIN*%
G04 #@! TF.FileFunction,Copper,L2,Bot*
G04 #@! TF.Part,Single*
G04 #@! TA.AperFunction,Conductor*
%ADD14C,0.006*%
G04 #@! TA.AperFunction,ComponentPad*
%ADD16R,0.059055X0.059055*%
%ADD17C,0.059055*%
%ADD18R,0.047244X0.047244*%
%FSLAX26Y26*%
G04*
G70*
G90*
G75*
G01*
G04 Bottom*
%LPD*%
X632750Y899217D2*
D14*
X537179D1*
X471037Y965358D1*
X632750Y832287D2*
X504108D1*
X471037Y865358D1*
X632750Y765358D2*
X471037D1*
X632750Y698429D2*
X504108D1*
X471037Y665358D1*
X632750Y631500D2*
X537179D1*
X471037Y565358D1*
X711490Y631500D2*
X804896D1*
X871037Y565358D1*
X711490Y698429D2*
X837967D1*
X871037Y665358D1*
X711490Y765358D2*
X871037D1*
X711490Y832287D2*
X837967D1*
X871037Y865358D1*
X711490Y899217D2*
X804896D1*
X871037Y965358D1*
D16*
X471037Y1065358D3*
D17*
Y965358D3*
Y865358D3*
Y765358D3*
Y665358D3*
Y565358D3*
Y465358D3*
D16*
X871037D3*
D17*
Y565358D3*
Y665358D3*
Y765358D3*
Y865358D3*
Y965358D3*
Y1065358D3*
D18*
X632750Y631500D3*
Y698429D3*
Y765358D3*
Y832287D3*
Y899217D3*
X711490D3*
Y832287D3*
Y765358D3*
Y698429D3*
Y631500D3*
M02*
