G04 DipTrace 3.2.0.1*
G04 I2C_Breakout.gtl*
%MOIN*%
G04 #@! TF.FileFunction,Copper,L1,Top*
G04 #@! TF.Part,Single*
%AMOUTLINE0*
4,1,4,
-0.010092,0.003131,
-0.003131,0.010092,
0.010092,-0.003131,
0.003131,-0.010092,
-0.010092,0.003131,
0*%
%AMOUTLINE3*
4,1,4,
-0.003131,-0.010092,
-0.010092,-0.003131,
0.003131,0.010092,
0.010092,0.003131,
-0.003131,-0.010092,
0*%
G04 #@! TA.AperFunction,Conductor*
%ADD14C,0.006*%
G04 #@! TA.AperFunction,ComponentPad*
%ADD16R,0.059055X0.059055*%
%ADD17C,0.059055*%
%ADD30OUTLINE0*%
%ADD33OUTLINE3*%
%FSLAX26Y26*%
G04*
G70*
G90*
G75*
G01*
G04 Top*
%LPD*%
X785927Y846929D2*
D14*
Y855772D1*
X543701Y1097997D1*
X497997D1*
X493701Y1093701D1*
X772008Y833009D2*
X771189D1*
X606201Y997997D1*
X497997D1*
X493701Y993701D1*
X758088Y819089D2*
Y821110D1*
X681201Y897997D1*
X497997D1*
X493701Y893701D1*
X744168Y805171D2*
X505171D1*
X493701Y793701D1*
X758644Y782787D2*
X753491D1*
X656201Y685497D1*
X501904D1*
X493701Y693701D1*
X772564Y768869D2*
Y764361D1*
X606201Y597997D1*
X497997D1*
X493701Y593701D1*
X786483Y754949D2*
Y753280D1*
X543701Y510497D1*
X510497D1*
X493701Y493701D1*
X808866Y740472D2*
Y732832D1*
X1056201Y485497D1*
X1085497D1*
X1093701Y493701D1*
X822785Y754392D2*
X824806D1*
X981201Y597997D1*
X1089404D1*
X1093701Y593701D1*
X836705Y768312D2*
Y767493D1*
X906201Y697997D1*
X1089404D1*
X1093701Y693701D1*
X850625Y782231D2*
X1082231D1*
X1093701Y793701D1*
X837261Y805727D2*
X838930D1*
X931201Y897997D1*
X1089404D1*
X1093701Y893701D1*
X823343Y819647D2*
Y827639D1*
X993701Y997997D1*
X1089404D1*
X1093701Y993701D1*
X809423Y833566D2*
Y838719D1*
X1043701Y1072997D1*
X1072997D1*
X1093701Y1093701D1*
D16*
X493701D3*
D17*
Y993701D3*
Y893701D3*
Y793701D3*
Y693701D3*
Y593701D3*
Y493701D3*
D16*
X1093701D3*
D17*
Y593701D3*
Y693701D3*
Y793701D3*
Y893701D3*
Y993701D3*
Y1093701D3*
D30*
X850625Y782231D3*
X836705Y768312D3*
X822785Y754392D3*
X808866Y740472D3*
X785927Y846929D3*
X772008Y833009D3*
X758088Y819089D3*
X744168Y805171D3*
D33*
X809423Y833566D3*
X823343Y819647D3*
X837261Y805727D3*
X758644Y782787D3*
X772564Y768869D3*
X786483Y754949D3*
M02*
