G04 DipTrace 3.2.0.1*
G04 I2C_Breakout.gbo*
%MOIN*%
G04 #@! TF.FileFunction,Legend,Bot*
G04 #@! TF.Part,Single*
%ADD15C,0.01*%
%ADD27C,0.00772*%
%ADD28C,0.009264*%
%FSLAX26Y26*%
G04*
G70*
G90*
G75*
G01*
G04 BotSilk*
%LPD*%
X443701Y1143701D2*
D15*
X543701D1*
Y443701D1*
X443701D1*
Y1143701D1*
X1043701D2*
X1143701D1*
Y443701D1*
X1043701D1*
Y1143701D1*
X1020594Y608238D2*
D28*
X1014823Y611156D1*
X1006201Y619712D1*
Y559490D1*
X1030975Y705386D2*
Y708238D1*
X1028123Y714008D1*
X1025271Y716860D1*
X1019501Y719712D1*
X1008027D1*
X1002323Y716860D1*
X999471Y714008D1*
X996553Y708238D1*
Y702534D1*
X999471Y696764D1*
X1005175Y688208D1*
X1033893Y659490D1*
X993701D1*
X1028123Y819712D2*
X996620D1*
X1013797Y796764D1*
X1005175D1*
X999471Y793912D1*
X996620Y791060D1*
X993701Y782438D1*
Y776734D1*
X996620Y768112D1*
X1002323Y762342D1*
X1010945Y759490D1*
X1019567D1*
X1028123Y762342D1*
X1030975Y765260D1*
X1033893Y770964D1*
X1008027Y859490D2*
Y919712D1*
X1036745Y879586D1*
X993701D1*
X999471Y1019712D2*
X1028123D1*
X1030975Y993912D1*
X1028123Y996764D1*
X1019501Y999682D1*
X1010945D1*
X1002323Y996764D1*
X996553Y991060D1*
X993701Y982438D1*
Y976734D1*
X996553Y968112D1*
X1002323Y962342D1*
X1010945Y959490D1*
X1019501D1*
X1028123Y962342D1*
X1030975Y965260D1*
X1033893Y970964D1*
X571553Y1011156D2*
X574405Y1016860D1*
X583027Y1019712D1*
X588731D1*
X597353Y1016860D1*
X603123Y1008238D1*
X605975Y993912D1*
Y979586D1*
X603123Y968112D1*
X597353Y962342D1*
X588731Y959490D1*
X585879D1*
X577323Y962342D1*
X571553Y968112D1*
X568701Y976734D1*
Y979586D1*
X571553Y988208D1*
X577323Y993912D1*
X585879Y996764D1*
X588731D1*
X597353Y993912D1*
X603123Y988208D1*
X605975Y979586D1*
X597419Y846990D2*
X568701Y907212D1*
X608893D1*
X594501Y819712D2*
X603057Y816860D1*
X605975Y811156D1*
Y805386D1*
X603057Y799682D1*
X597353Y796764D1*
X585879Y793912D1*
X577257Y791060D1*
X571553Y785290D1*
X568701Y779586D1*
Y770964D1*
X571553Y765260D1*
X574405Y762342D1*
X583027Y759490D1*
X594501D1*
X603057Y762342D1*
X605975Y765260D1*
X608827Y770964D1*
Y779586D1*
X605975Y785290D1*
X600205Y791060D1*
X591649Y793912D1*
X580175Y796764D1*
X574405Y799682D1*
X571553Y805386D1*
Y811156D1*
X574405Y816860D1*
X583027Y819712D1*
X594501D1*
X568701Y712182D2*
X571620Y703560D1*
X577323Y697790D1*
X585945Y694938D1*
X588797D1*
X597419Y697790D1*
X603123Y703560D1*
X606041Y712182D1*
Y715034D1*
X603123Y723656D1*
X597419Y729360D1*
X588797Y732212D1*
X585945D1*
X577323Y729360D1*
X571620Y723656D1*
X568701Y712182D1*
Y697790D1*
X571620Y683464D1*
X577323Y674842D1*
X585945Y671990D1*
X591649D1*
X600271Y674842D1*
X603123Y680612D1*
X629313Y608238D2*
X623542Y611156D1*
X614920Y619712D1*
Y559490D1*
X579149Y619712D2*
X587771Y616860D1*
X593541Y608238D1*
X596393Y593912D1*
Y585290D1*
X593541Y570964D1*
X587771Y562342D1*
X579149Y559490D1*
X573445D1*
X564823Y562342D1*
X559120Y570964D1*
X556201Y585290D1*
Y593912D1*
X559120Y608238D1*
X564823Y616860D1*
X573445Y619712D1*
X579149D1*
X559120Y608238D2*
X593541Y570964D1*
X871620Y623464D2*
X874471Y620545D1*
X871620Y617694D1*
X868701Y620545D1*
X871620Y623464D1*
X986148Y468874D2*
D27*
X967025Y418634D1*
X947902Y468874D1*
X896592Y456936D2*
X898969Y461689D1*
X903778Y466497D1*
X908531Y468874D1*
X918092D1*
X922901Y466497D1*
X927654Y461689D1*
X930086Y456936D1*
X932462Y449751D1*
Y437757D1*
X930086Y430627D1*
X927654Y425819D1*
X922901Y421066D1*
X918092Y418634D1*
X908531D1*
X903778Y421066D1*
X898969Y425819D1*
X896592Y430627D1*
X847660Y468874D2*
Y418634D1*
X881153Y468874D1*
Y418634D1*
X832221Y468874D2*
Y418634D1*
X803536D1*
X764165D2*
Y468819D1*
X788097Y435381D1*
X752227D1*
X734355Y456880D2*
Y459257D1*
X731979Y464065D1*
X729602Y466442D1*
X724794Y468819D1*
X715232D1*
X710479Y466442D1*
X708102Y464065D1*
X705671Y459257D1*
Y454504D1*
X708102Y449695D1*
X712856Y442566D1*
X736787Y418634D1*
X703294D1*
X673485Y468819D2*
X680670Y466442D1*
X685478Y459257D1*
X687855Y447319D1*
Y440134D1*
X685478Y428195D1*
X680670Y421010D1*
X673485Y418634D1*
X668731D1*
X661546Y421010D1*
X656793Y428195D1*
X654361Y440134D1*
Y447319D1*
X656793Y459257D1*
X661546Y466442D1*
X668731Y468819D1*
X673485D1*
X656793Y459257D2*
X685478Y428195D1*
X624552Y468819D2*
X631737Y466442D1*
X636546Y459257D1*
X638922Y447319D1*
Y440134D1*
X636546Y428195D1*
X631737Y421010D1*
X624552Y418634D1*
X619799D1*
X612614Y421010D1*
X607861Y428195D1*
X605429Y440134D1*
Y447319D1*
X607861Y459257D1*
X612614Y466442D1*
X619799Y468819D1*
X624552D1*
X607861Y459257D2*
X636546Y428195D1*
M02*
