G04 DipTrace 3.2.0.1*
G04 I2C_Breakout.gto*
%MOIN*%
G04 #@! TF.FileFunction,Legend,Top*
G04 #@! TF.Part,Single*
%ADD10C,0.009843*%
%ADD27C,0.00772*%
%ADD28C,0.009264*%
%FSLAX26Y26*%
G04*
G70*
G90*
G75*
G01*
G04 TopSilk*
%LPD*%
X443701Y443701D2*
D10*
X543701D1*
X443701Y1143701D2*
Y443701D1*
Y1143701D2*
X543701D1*
Y443701D1*
X1143701Y1143701D2*
X1043701D1*
X1143701Y443701D2*
Y1143701D1*
Y443701D2*
X1043701D1*
Y1143701D1*
X583027Y1120893D2*
D28*
X588797Y1123811D1*
X597419Y1132367D1*
Y1072145D1*
X573045Y1008823D2*
Y1011675D1*
X575897Y1017445D1*
X578749Y1020297D1*
X584519Y1023149D1*
X595993D1*
X601696Y1020297D1*
X604548Y1017445D1*
X607467Y1011675D1*
Y1005971D1*
X604548Y1000201D1*
X598845Y991645D1*
X570127Y962927D1*
X610319D1*
X575897Y913931D2*
X607400D1*
X590223Y890983D1*
X598845D1*
X604548Y888131D1*
X607400Y885279D1*
X610319Y876657D1*
Y870953D1*
X607400Y862331D1*
X601696Y856561D1*
X593074Y853709D1*
X584452D1*
X575897Y856561D1*
X573045Y859479D1*
X570127Y865183D1*
X597419Y756990D2*
Y817212D1*
X568701Y777086D1*
X611745D1*
X604548Y720494D2*
X575897D1*
X573045Y694694D1*
X575897Y697546D1*
X584519Y700464D1*
X593074D1*
X601696Y697546D1*
X607467Y691842D1*
X610319Y683220D1*
Y677516D1*
X607467Y668894D1*
X601696Y663124D1*
X593074Y660272D1*
X584519D1*
X575897Y663124D1*
X573045Y666042D1*
X570127Y671746D1*
X606008Y615220D2*
X603156Y620924D1*
X594534Y623776D1*
X588830D1*
X580208Y620924D1*
X574438Y612302D1*
X571586Y597976D1*
Y583650D1*
X574438Y572177D1*
X580208Y566406D1*
X588830Y563554D1*
X591682D1*
X600238Y566406D1*
X606008Y572177D1*
X608860Y580799D1*
Y583650D1*
X606008Y592273D1*
X600238Y597976D1*
X591682Y600828D1*
X588830D1*
X580208Y597976D1*
X574438Y592273D1*
X571586Y583650D1*
X581600Y466837D2*
X610319Y527058D1*
X570127D1*
X995527Y519712D2*
X986971Y516860D1*
X984053Y511156D1*
Y505386D1*
X986971Y499682D1*
X992675Y496764D1*
X1004149Y493912D1*
X1012771Y491060D1*
X1018475Y485290D1*
X1021327Y479586D1*
Y470964D1*
X1018475Y465260D1*
X1015623Y462342D1*
X1007001Y459490D1*
X995527D1*
X986971Y462342D1*
X984053Y465260D1*
X981201Y470964D1*
Y479586D1*
X984053Y485290D1*
X989823Y491060D1*
X998379Y493912D1*
X1009853Y496764D1*
X1015623Y499682D1*
X1018475Y505386D1*
Y511156D1*
X1015623Y516860D1*
X1007001Y519712D1*
X995527D1*
X1018541Y599682D2*
X1015623Y591060D1*
X1009919Y585290D1*
X1001297Y582438D1*
X998445D1*
X989823Y585290D1*
X984120Y591060D1*
X981201Y599682D1*
Y602534D1*
X984120Y611156D1*
X989823Y616860D1*
X998445Y619712D1*
X1001297D1*
X1009919Y616860D1*
X1015623Y611156D1*
X1018541Y599682D1*
Y585290D1*
X1015623Y570964D1*
X1009919Y562342D1*
X1001297Y559490D1*
X995594D1*
X986971Y562342D1*
X984120Y568112D1*
X956201Y708238D2*
X961971Y711156D1*
X970594Y719712D1*
Y659490D1*
X1006365Y719712D2*
X997743Y716860D1*
X991973Y708238D1*
X989121Y693912D1*
Y685290D1*
X991973Y670964D1*
X997743Y662342D1*
X1006365Y659490D1*
X1012069D1*
X1020691Y662342D1*
X1026394Y670964D1*
X1029313Y685290D1*
Y693912D1*
X1026394Y708238D1*
X1020691Y716860D1*
X1012069Y719712D1*
X1006365D1*
X1026394Y708238D2*
X991973Y670964D1*
X968701Y808238D2*
X974471Y811156D1*
X983094Y819712D1*
Y759490D1*
X1001621Y808238D2*
X1007391Y811156D1*
X1016013Y819712D1*
Y759490D1*
X956201Y908238D2*
X961971Y911156D1*
X970594Y919712D1*
Y859490D1*
X992039Y905386D2*
Y908238D1*
X994891Y914008D1*
X997743Y916860D1*
X1003513Y919712D1*
X1014987D1*
X1020691Y916860D1*
X1023542Y914008D1*
X1026461Y908238D1*
Y902534D1*
X1023542Y896764D1*
X1017839Y888208D1*
X989121Y859490D1*
X1029313D1*
X956201Y1008238D2*
X961971Y1011156D1*
X970594Y1019712D1*
Y959490D1*
X994891Y1019712D2*
X1026394D1*
X1009217Y996764D1*
X1017839D1*
X1023542Y993912D1*
X1026394Y991060D1*
X1029313Y982438D1*
Y976734D1*
X1026394Y968112D1*
X1020691Y962342D1*
X1012069Y959490D1*
X1003446D1*
X994891Y962342D1*
X992039Y965260D1*
X989121Y970964D1*
X956201Y1108238D2*
X961971Y1111156D1*
X970594Y1119712D1*
Y1059490D1*
X1017839D2*
Y1119712D1*
X989121Y1079586D1*
X1032165D1*
X771553Y873464D2*
X768701Y870545D1*
X771553Y867694D1*
X774471Y870545D1*
X771553Y873464D1*
X642929Y468874D2*
D27*
Y418634D1*
X671614D1*
X720546Y461689D2*
X715793Y466497D1*
X708608Y468874D1*
X699046D1*
X691861Y466497D1*
X687053Y461689D1*
Y456936D1*
X689485Y452127D1*
X691861Y449751D1*
X696615Y447374D1*
X710985Y442566D1*
X715793Y440189D1*
X718170Y437757D1*
X720546Y433004D1*
Y425819D1*
X715793Y421066D1*
X708608Y418634D1*
X699046D1*
X691861Y421066D1*
X687053Y425819D1*
X774232Y418634D2*
Y468874D1*
X755109Y418634D1*
X735986Y468874D1*
Y418634D1*
X818356Y461689D2*
X815980Y466442D1*
X808795Y468819D1*
X804041D1*
X796856Y466442D1*
X792048Y459257D1*
X789671Y447319D1*
Y435381D1*
X792048Y425819D1*
X796856Y421010D1*
X804041Y418634D1*
X806418D1*
X813548Y421010D1*
X818356Y425819D1*
X820733Y433004D1*
Y435381D1*
X818356Y442566D1*
X813548Y447319D1*
X806418Y449695D1*
X804041D1*
X796856Y447319D1*
X792048Y442566D1*
X789671Y435381D1*
X836172Y468874D2*
Y418634D1*
X852919D1*
X860104Y421066D1*
X864912Y425819D1*
X867289Y430627D1*
X869665Y437757D1*
Y449751D1*
X867289Y456936D1*
X864912Y461689D1*
X860104Y466497D1*
X852919Y468874D1*
X836172D1*
X918598Y461689D2*
X913845Y466497D1*
X906660Y468874D1*
X897098D1*
X889913Y466497D1*
X885105Y461689D1*
Y456936D1*
X887536Y452127D1*
X889913Y449751D1*
X894666Y447374D1*
X909036Y442566D1*
X913845Y440189D1*
X916221Y437757D1*
X918598Y433004D1*
Y425819D1*
X913845Y421066D1*
X906660Y418634D1*
X897098D1*
X889913Y421066D1*
X885105Y425819D1*
X934037Y468874D2*
Y418634D1*
X962722D1*
M02*
