G04 DipTrace 3.2.0.1*
G04 I2C_Breakout.gtl*
%MOIN*%
G04 #@! TF.FileFunction,Copper,L1,Top*
G04 #@! TF.Part,Single*
%AMOUTLINE0*
4,1,4,
-0.010092,0.003131,
-0.003131,0.010092,
0.010092,-0.003131,
0.003131,-0.010092,
-0.010092,0.003131,
0*%
%AMOUTLINE3*
4,1,4,
-0.003131,-0.010092,
-0.010092,-0.003131,
0.003131,0.010092,
0.010092,0.003131,
-0.003131,-0.010092,
0*%
G04 #@! TA.AperFunction,Conductor*
%ADD14C,0.006*%
G04 #@! TA.AperFunction,ComponentPad*
%ADD16R,0.059055X0.059055*%
%ADD17C,0.059055*%
%ADD30OUTLINE0*%
%ADD33OUTLINE3*%
%FSLAX26Y26*%
G04*
G70*
G90*
G75*
G01*
G04 Top*
%LPD*%
X663263Y818587D2*
D14*
Y873133D1*
X471037Y1065358D1*
X649344Y804667D2*
X646037D1*
Y815358D1*
X491741Y969655D1*
X475334D1*
X471037Y965358D1*
X635425Y790747D2*
Y792768D1*
X558537Y869655D1*
X475334D1*
X471037Y865358D1*
X621505Y776828D2*
X482507D1*
X471037Y765358D1*
X635981Y754445D2*
X630827D1*
X533537Y657155D1*
X479241D1*
X471037Y665358D1*
X649901Y740526D2*
X646205D1*
X475334Y569655D1*
X471037Y565358D1*
X663820Y726606D2*
Y695640D1*
X450334Y482155D1*
X454241D1*
X471037Y465358D1*
X686203Y712130D2*
Y650193D1*
X871037Y465358D1*
X700121Y726050D2*
Y723774D1*
X854241Y569655D1*
X866741D1*
X871037Y565358D1*
X714041Y739970D2*
Y739151D1*
X783537Y669655D1*
X866741D1*
X871037Y665358D1*
X727961Y753888D2*
X859568D1*
X871037Y765358D1*
X714598Y777385D2*
X716267D1*
X808537Y869655D1*
X866741D1*
X871037Y865358D1*
X700679Y791304D2*
Y795000D1*
X875334Y969655D1*
X871037Y965358D1*
X686759Y805223D2*
Y856080D1*
X875334Y1044655D1*
Y1061062D1*
X871037Y1065358D1*
D16*
X471037D3*
D17*
Y965358D3*
Y865358D3*
Y765358D3*
Y665358D3*
Y565358D3*
Y465358D3*
D16*
X871037D3*
D17*
Y565358D3*
Y665358D3*
Y765358D3*
Y865358D3*
Y965358D3*
Y1065358D3*
D30*
X727961Y753888D3*
X714041Y739970D3*
X700121Y726050D3*
X686203Y712130D3*
X663263Y818587D3*
X649344Y804667D3*
X635425Y790747D3*
X621505Y776828D3*
D33*
X686759Y805223D3*
X700679Y791304D3*
X714598Y777385D3*
X635981Y754445D3*
X649901Y740526D3*
X663820Y726606D3*
M02*
