M48
INCH
T01C0.012
T02C0.0354
T03C0.2756
%
T03
X+039567Y+007087
X+007087Y+007087
X+007087Y+039764
X+039567Y+039567
T02
X+029823Y+021752
X+029823Y+022752
X+029823Y+023752
X+029823Y+024752
X+019389Y+024077
X+020389Y+024077
X+023720Y+030020
X+022720Y+030020
X+017576Y+021378
X+018576Y+021378
T01
X+009926Y+007761
X+038842Y+009780
X+036909Y+038878
X+007776Y+036909
X+021702Y+027077
X+022202Y+027952
X+026077Y+025202
X+023702Y+023639
X+023639Y+018764
X+030639Y+017202
X+022827Y+028264
X+022827Y+028889
X+023327Y+028264
X+023327Y+028889
X+023702Y+017764
X+022639Y+017702
X+028389Y+018014
X+029264Y+018014
X+025639Y+023577
X+025389Y+025139
X+028264Y+028139
X+028639Y+029014
X+018389Y+028264
X+017404Y+028625
X+017514Y+016077
X+016014Y+029139
X+029077Y+030577
X+019952Y+018389
X+019952Y+017389
X+025264Y+018389
X+026139Y+018389
X+028327Y+019077
X+030264Y+019077
X+017139Y+020014
X+017952Y+020014
X+018889Y+028889
X+018827Y+027952
X+018202Y+027389
X+016764Y+027389
X+023639Y+019514
X+023577Y+024577
X+020577Y+026264
X+020889Y+026264
X+023514Y+025452
X+020889Y+023327
X+020889Y+020139
X+020889Y+021827
X+023264Y+023327
X+027077Y+025327
T00
M30
