G04 DipTrace 3.2.0.1*
G04 Rev1.2.gbl*
%MOIN*%
G04 #@! TF.FileFunction,Copper,L2,Bot*
G04 #@! TF.Part,Single*
%AMOUTLINE6*
4,1,4,
0.017399,0.066117,
0.066117,0.017399,
-0.017399,-0.066117,
-0.066117,-0.017399,
0.017399,0.066117,
0*%
%AMOUTLINE9*
4,1,4,
-0.066117,0.017399,
-0.017399,0.066117,
0.066117,-0.017399,
0.017399,-0.066117,
-0.066117,0.017399,
0*%
G04 #@! TA.AperFunction,Conductor*
%ADD13C,0.006*%
%ADD14C,0.02*%
G04 #@! TA.AperFunction,CopperBalancing*
%ADD15C,0.025*%
G04 #@! TA.AperFunction,ComponentPad*
%ADD20R,0.059055X0.059055*%
%ADD21C,0.059055*%
%ADD32R,0.047244X0.047244*%
G04 #@! TA.AperFunction,ViaPad*
%ADD35C,0.019*%
%ADD77OUTLINE6*%
%ADD80OUTLINE9*%
%FSLAX26Y26*%
G04*
G70*
G90*
G75*
G01*
G04 Bottom*
%LPD*%
X992650Y776114D2*
D13*
X983249Y785514D1*
Y788354D1*
X3884227Y977978D2*
X3883249Y977000D1*
X3690945Y3887795D2*
X3687106D1*
X3686878Y3888024D1*
X777559Y3690945D2*
Y3696197D1*
X774378Y3699378D1*
X2170177Y2707677D2*
X2282677D1*
X2220177Y2795177D2*
X2232677Y2782677D1*
X2607677Y2520177D2*
X2617052Y2529552D1*
X2370177Y2363927D2*
Y2370177D1*
X983249Y788354D2*
X992403Y779201D1*
D14*
X1732677Y1682677D1*
X3686878Y3888024D2*
Y3894626D1*
X2901428Y2970177D1*
X3883249Y977000D2*
X3897441Y991192D1*
X2957677Y1745177D1*
X774378Y3699378D2*
X764634Y3689634D1*
X1726428Y2888928D1*
X2363927Y1876428D2*
D13*
X2370178D1*
X2376428Y1882677D1*
X3063927Y1720177D2*
D14*
X3938927Y1032677D1*
X2282677Y2826428D2*
D13*
Y2888928D1*
X2332677Y2826428D2*
Y2888927D1*
X2370177Y1776428D2*
X2270177D1*
X2263927Y1770177D1*
X2838927Y1801428D2*
X2926427D1*
X2563927Y2357677D2*
Y2488927D1*
X2538927Y2513927D1*
X2826427Y2813927D2*
Y2863927D1*
X2863927Y2901427D1*
X1838928Y2826428D2*
Y2832677D1*
X1770177D1*
X1740404Y2862450D1*
X1751428Y1607677D2*
D14*
X1038927Y732677D1*
X1601428Y2913927D2*
X721654Y3643701D1*
X718701D1*
X2907677Y3057677D2*
X3631201Y3943701D1*
X1995177Y1838928D2*
D13*
Y1738928D1*
X2526427Y1838928D2*
X2613927D1*
X2832677Y1907677D2*
X3026427D1*
X1713927Y2001428D2*
X1795177D1*
X1888927Y2888928D2*
Y2801428D1*
X1882677Y2795177D1*
X1820177Y2738928D2*
X1676428D1*
X2363927Y1951428D2*
X2362106Y1953248D1*
X2357677Y2457677D2*
Y2507677D1*
X2282677Y2582677D1*
X2101428D1*
X2057677Y2626428D1*
X2228248Y2031988D2*
X2225738D1*
X2251427Y2057677D1*
Y2351427D1*
X2357677Y2457677D1*
X2088927Y2626428D2*
X2120177Y2595177D1*
X2301428D1*
X2351428Y2545177D1*
X2295177Y2031988D2*
X2295865D1*
X2270177Y2057676D1*
Y2338928D1*
X2376427Y2445177D1*
Y2520178D1*
X2351428Y2545177D1*
X2088927Y2332678D2*
Y2182677D1*
Y2013927D1*
X2326427Y2332677D2*
Y2376427D1*
X2495177Y2545177D1*
X2695177D1*
X2707677Y2532677D1*
D35*
X992650Y776114D3*
X3884227Y977978D3*
X3690945Y3887795D3*
X777559Y3690945D3*
X2170177Y2707677D3*
X2220177Y2795177D3*
X2607677Y2520177D3*
X2370177Y2363927D3*
X2363927Y1876428D3*
X3063927Y1720177D3*
X2282677Y2826428D3*
Y2888928D3*
X2332677Y2826428D3*
Y2888927D3*
X2370177Y1776428D3*
X2263927Y1770177D3*
X2838927Y1801428D3*
X2926427D3*
X2563927Y2357677D3*
X2538927Y2513927D3*
X2826427Y2813927D3*
X2863927Y2901427D3*
X1838928Y2826428D3*
X1740404Y2862450D3*
X1751428Y1607677D3*
X1601428Y2913927D3*
X2907677Y3057677D3*
X1995177Y1838928D3*
Y1738928D3*
X2526427Y1838928D3*
X2613927D3*
X2832677Y1907677D3*
X3026427D3*
X1713927Y2001428D3*
X1795177D3*
X1888927Y2888928D3*
X1882677Y2795177D3*
X1820177Y2738928D3*
X1676428D3*
X2363927Y1951428D3*
X2357677Y2457677D3*
X2057677Y2626428D3*
X2357677Y2457677D3*
X2088927Y2626428D3*
X2351428Y2545177D3*
X2088927Y2332678D3*
Y2013927D3*
Y2182677D3*
X2326427Y2332677D3*
X2707677Y2532677D3*
X1647695Y2995308D2*
D15*
X2213935D1*
X2430580D2*
X3017669D1*
X1647695Y2970440D2*
X2223229D1*
X2430580D2*
X3017669D1*
X1647695Y2945571D2*
X3017669D1*
X1647695Y2920702D2*
X1869519D1*
X1908322D2*
X2263276D1*
X2302079D2*
X2313249D1*
X2352066D2*
X2831036D1*
X2896824D2*
X3017669D1*
X1647695Y2895833D2*
X1724439D1*
X1756352D2*
X1851110D1*
X1926766D2*
X2244868D1*
X2370510D2*
X2814134D1*
X2901991D2*
X3017669D1*
X1647695Y2870965D2*
X1702945D1*
X1777883D2*
X1855237D1*
X1922604D2*
X2248994D1*
X2366384D2*
X2795295D1*
X2885592D2*
X3017669D1*
X1647695Y2846096D2*
X1705851D1*
X1920917D2*
X2250035D1*
X2365307D2*
X2794434D1*
X2858428D2*
X3017669D1*
X1647695Y2821227D2*
X1737429D1*
X1920917D2*
X2244581D1*
X2370797D2*
X2788692D1*
X2864169D2*
X3017669D1*
X1647695Y2796358D2*
X1816662D1*
X1921133D2*
X2260405D1*
X2354972D2*
X2792496D1*
X2860329D2*
X3017669D1*
X1647695Y2771490D2*
X1658576D1*
X1694273D2*
X1802344D1*
X1838025D2*
X1853084D1*
X1912269D2*
X3017669D1*
X1857833Y2746621D2*
X3017669D1*
X1854316Y2721752D2*
X3017669D1*
X1647695Y2696883D2*
X3017669D1*
X1647695Y2672014D2*
X3017669D1*
X1647695Y2647146D2*
X2025759D1*
X2120864D2*
X3017669D1*
X1647695Y2622277D2*
X2019407D1*
X2315572D2*
X3017669D1*
X1647695Y2597408D2*
X2033869D1*
X2343418D2*
X3017669D1*
X1647695Y2572539D2*
X2067349D1*
X2377328D2*
X2481667D1*
X2708683D2*
X3017669D1*
X1647695Y2547671D2*
X2273467D1*
X2393153D2*
X2453462D1*
X2742880D2*
X3017669D1*
X1647695Y2522802D2*
X2298335D1*
X2408296D2*
X2428595D1*
X2744782D2*
X3017669D1*
X1647695Y2497933D2*
X2323203D1*
X2492158D2*
X2504167D1*
X2594499D2*
X2695788D1*
X2719556D2*
X3017669D1*
X1647695Y2473064D2*
X2322629D1*
X2467290D2*
X2531941D1*
X2595935D2*
X3017669D1*
X1647695Y2448196D2*
X1880392D1*
X1997458D2*
X2304005D1*
X2442386D2*
X2531941D1*
X2595935D2*
X3017669D1*
X1647695Y2423327D2*
X1880392D1*
X1997458D2*
X2279101D1*
X2417519D2*
X2531941D1*
X2595935D2*
X2951104D1*
X1647695Y2398458D2*
X1880392D1*
X1997458D2*
X2254233D1*
X2392651D2*
X2531941D1*
X2595935D2*
X2928820D1*
X1647695Y2373589D2*
X1880392D1*
X1997458D2*
X2229366D1*
X2367783D2*
X2529142D1*
X2598698D2*
X2923796D1*
X1647695Y2348720D2*
X2054215D1*
X2123663D2*
X2219426D1*
X2361145D2*
X2526559D1*
X2601281D2*
X2930399D1*
X1647695Y2323852D2*
X2051524D1*
X2126318D2*
X2219426D1*
X2363836D2*
X2549130D1*
X2578710D2*
X2952001D1*
X1647695Y2298983D2*
X2056942D1*
X2120936D2*
X2219426D1*
X2302187D2*
X2311301D1*
X2341588D2*
X2929071D1*
X1647695Y2274114D2*
X2056942D1*
X2120936D2*
X2219426D1*
X2302187D2*
X2923761D1*
X1647695Y2249245D2*
X2056942D1*
X2120936D2*
X2219426D1*
X2302187D2*
X2930148D1*
X1647695Y2224377D2*
X2056942D1*
X2120936D2*
X2219426D1*
X2302187D2*
X2923761D1*
X1647695Y2199508D2*
X2054610D1*
X2123232D2*
X2219426D1*
X2302187D2*
X2923761D1*
X1647695Y2174639D2*
X1699069D1*
X1816100D2*
X2051344D1*
X2126498D2*
X2219426D1*
X2302187D2*
X2923761D1*
X1647695Y2149770D2*
X1699069D1*
X1816100D2*
X2056942D1*
X2120936D2*
X2219426D1*
X2302187D2*
X2923761D1*
X1647695Y2124902D2*
X1699069D1*
X1816100D2*
X2056942D1*
X2120936D2*
X2219426D1*
X2302187D2*
X2923761D1*
X1647695Y2100033D2*
X1699069D1*
X1816100D2*
X2056942D1*
X2120936D2*
X2219426D1*
X2302187D2*
X3017669D1*
X1647695Y2075164D2*
X2056942D1*
X2120936D2*
X2175647D1*
X2548568D2*
X3017669D1*
X1647695Y2050295D2*
X2056942D1*
X2120936D2*
X2175647D1*
X2548568D2*
X3017669D1*
X1647695Y2025427D2*
X1684608D1*
X1824496D2*
X2052313D1*
X2125529D2*
X2175647D1*
X2548568D2*
X3017669D1*
X1647695Y2000558D2*
X1675457D1*
X1833647D2*
X2052995D1*
X2124847D2*
X2175647D1*
X2548568D2*
X3017669D1*
X1647695Y1975689D2*
X1686259D1*
X1822846D2*
X2175647D1*
X2481644D2*
X3017669D1*
X1647695Y1950820D2*
X2175647D1*
X2481644D2*
X3017669D1*
X1647695Y1925951D2*
X2175647D1*
X2481644D2*
X2799171D1*
X1647695Y1901083D2*
X2794793D1*
X1647695Y1876214D2*
X2812699D1*
X2852650D2*
X3006438D1*
X1647695Y1851345D2*
X1958907D1*
X2031476D2*
X2490136D1*
X2650192D2*
X3017669D1*
X1647695Y1826476D2*
X1958907D1*
X2031441D2*
X2490172D1*
X2650192D2*
X2810582D1*
X2954777D2*
X3017669D1*
X1647695Y1801608D2*
X1963177D1*
X2027170D2*
X2243899D1*
X2398392D2*
X2800427D1*
X2964932D2*
X3017669D1*
X1647695Y1776739D2*
X1963177D1*
X2027170D2*
X2226028D1*
X2408655D2*
X2810223D1*
X2955100D2*
X3017669D1*
X1647695Y1751870D2*
X1959086D1*
X2031261D2*
X2230442D1*
X2399002D2*
X3017669D1*
X1647695Y1727001D2*
X1958727D1*
X2031620D2*
X3017669D1*
X1647695Y1702133D2*
X3017669D1*
X1647695Y1677264D2*
X3017669D1*
X1647695Y1652395D2*
X3017669D1*
X2935450Y2231217D2*
X2947615D1*
X2942672Y2235585D1*
X2936963Y2242269D1*
X2932370Y2249764D1*
X2929006Y2257886D1*
X2926953Y2266433D1*
X2926264Y2275197D1*
X2926953Y2283960D1*
X2929006Y2292508D1*
X2932370Y2300629D1*
X2936963Y2308124D1*
X2942672Y2314809D1*
X2949356Y2320518D1*
X2957023Y2325190D1*
X2949356Y2329876D1*
X2942672Y2335585D1*
X2936963Y2342269D1*
X2932370Y2349764D1*
X2929006Y2357886D1*
X2926953Y2366433D1*
X2926264Y2375197D1*
X2926953Y2383960D1*
X2929006Y2392508D1*
X2932370Y2400629D1*
X2936963Y2408124D1*
X2942672Y2414809D1*
X2949356Y2420518D1*
X2956851Y2425111D1*
X2964972Y2428475D1*
X2973520Y2430527D1*
X2982283Y2431217D1*
X2991047Y2430527D1*
X2999594Y2428475D1*
X3007716Y2425111D1*
X3015211Y2420518D1*
X3020167Y2416407D1*
X3020177Y3020211D1*
X2428065Y3020177D1*
X2428067Y2945949D1*
X2316028D1*
Y2967300D1*
X2311659Y2962357D1*
X2304975Y2956648D1*
X2297480Y2952055D1*
X2289358Y2948691D1*
X2280811Y2946639D1*
X2272047Y2945949D1*
X2263284Y2946639D1*
X2254736Y2948691D1*
X2246615Y2952055D1*
X2239120Y2956648D1*
X2232435Y2962357D1*
X2226726Y2969041D1*
X2222133Y2976536D1*
X2218769Y2984657D1*
X2216717Y2993205D1*
X2216028Y3001969D1*
X2216717Y3010732D1*
X2218769Y3019280D1*
X2219096Y3020166D1*
X1645143Y3020177D1*
X1645177Y2756764D1*
X1649059Y2762303D1*
X1653053Y2766296D1*
X1657622Y2769616D1*
X1662654Y2772180D1*
X1668026Y2773925D1*
X1673604Y2774809D1*
X1679252D1*
X1684830Y2773925D1*
X1690201Y2772180D1*
X1695234Y2769616D1*
X1697024Y2768420D1*
X1799546D1*
X1803837Y2770997D1*
X1809055Y2773158D1*
X1814547Y2774477D1*
X1820177Y2774920D1*
X1825808Y2774477D1*
X1831299Y2773158D1*
X1836517Y2770997D1*
X1841333Y2768046D1*
X1845627Y2764378D1*
X1849295Y2760083D1*
X1852246Y2755268D1*
X1854408Y2750050D1*
X1855726Y2744558D1*
X1856169Y2738928D1*
X1855726Y2733297D1*
X1854408Y2727806D1*
X1852246Y2722588D1*
X1849295Y2717772D1*
X1845627Y2713478D1*
X1841333Y2709810D1*
X1836517Y2706859D1*
X1831299Y2704697D1*
X1825808Y2703379D1*
X1820177Y2702936D1*
X1814547Y2703379D1*
X1809055Y2704697D1*
X1803837Y2706859D1*
X1799581Y2709435D1*
X1697059Y2709436D1*
X1692768Y2706859D1*
X1687550Y2704697D1*
X1682058Y2703379D1*
X1676428Y2702936D1*
X1670797Y2703379D1*
X1665306Y2704697D1*
X1660088Y2706859D1*
X1655272Y2709810D1*
X1650978Y2713478D1*
X1647310Y2717772D1*
X1645173Y2721133D1*
X1645177Y1645143D1*
X3020211Y1645177D1*
X3020177Y1872204D1*
X3015304Y1873447D1*
X3010086Y1875608D1*
X3005831Y1878185D1*
X2853285D1*
X2849017Y1875608D1*
X2843799Y1873447D1*
X2838308Y1872128D1*
X2832677Y1871685D1*
X2827047Y1872128D1*
X2821555Y1873447D1*
X2816337Y1875608D1*
X2811522Y1878559D1*
X2807227Y1882227D1*
X2803559Y1886522D1*
X2800608Y1891337D1*
X2798447Y1896555D1*
X2797128Y1902047D1*
X2796685Y1907677D1*
X2797128Y1913308D1*
X2798447Y1918799D1*
X2800608Y1924017D1*
X2803559Y1928833D1*
X2807227Y1933127D1*
X2811522Y1936795D1*
X2816337Y1939746D1*
X2821555Y1941908D1*
X2827047Y1943226D1*
X2832677Y1943669D1*
X2838308Y1943226D1*
X2843799Y1941908D1*
X2849017Y1939746D1*
X2853273Y1937170D1*
X3005818Y1937169D1*
X3010086Y1939746D1*
X3015304Y1941908D1*
X3020179Y1943103D1*
X3020177Y2119159D1*
X2926264Y2119177D1*
Y2231217D1*
X2935450D1*
X2245098Y1903134D2*
X2178134D1*
Y2082102D1*
X2221949D1*
X2222025Y2353740D1*
X2222749Y2358311D1*
X2224179Y2362713D1*
X2226280Y2366836D1*
X2229001Y2370580D1*
X2289034Y2430742D1*
X2322248Y2463957D1*
X2323447Y2468799D1*
X2325608Y2474017D1*
X2328185Y2478273D1*
Y2495463D1*
X2270470Y2553176D1*
X2099114Y2553276D1*
X2094543Y2554000D1*
X2090142Y2555430D1*
X2086018Y2557531D1*
X2082274Y2560251D1*
X2051419Y2590978D1*
X2046555Y2592197D1*
X2041337Y2594359D1*
X2036522Y2597310D1*
X2032227Y2600978D1*
X2028559Y2605272D1*
X2025608Y2610088D1*
X2023447Y2615306D1*
X2022128Y2620797D1*
X2021685Y2626428D1*
X2022128Y2632058D1*
X2023447Y2637550D1*
X2025608Y2642768D1*
X2028559Y2647583D1*
X2032227Y2651878D1*
X2036522Y2655546D1*
X2041337Y2658497D1*
X2046555Y2660658D1*
X2052047Y2661977D1*
X2057677Y2662420D1*
X2063308Y2661977D1*
X2068799Y2660658D1*
X2073285Y2658834D1*
X2077804Y2660658D1*
X2083296Y2661977D1*
X2088927Y2662420D1*
X2094557Y2661977D1*
X2100049Y2660658D1*
X2105267Y2658497D1*
X2110082Y2655546D1*
X2114377Y2651878D1*
X2118045Y2647583D1*
X2120996Y2642768D1*
X2123157Y2637550D1*
X2124344Y2632719D1*
X2132389Y2624674D1*
X2303742Y2624578D1*
X2308313Y2623854D1*
X2312714Y2622424D1*
X2316837Y2620323D1*
X2320581Y2617603D1*
X2357679Y2580635D1*
X2362550Y2579408D1*
X2367768Y2577246D1*
X2372583Y2574295D1*
X2376878Y2570627D1*
X2380546Y2566333D1*
X2383497Y2561517D1*
X2385658Y2556299D1*
X2386845Y2551468D1*
X2398853Y2539332D1*
X2401573Y2535588D1*
X2403674Y2531465D1*
X2405104Y2527063D1*
X2405828Y2522492D1*
X2405919Y2497607D1*
X2476023Y2567603D1*
X2479768Y2570323D1*
X2483891Y2572424D1*
X2488292Y2573855D1*
X2492863Y2574579D1*
X2577854Y2574669D1*
X2697491Y2574579D1*
X2702062Y2573855D1*
X2706463Y2572424D1*
X2710587Y2570323D1*
X2712519Y2569031D1*
X2721451Y2565930D1*
X2726483Y2563365D1*
X2731052Y2560046D1*
X2735046Y2556052D1*
X2738365Y2551483D1*
X2740930Y2546451D1*
X2742675Y2541079D1*
X2743558Y2535501D1*
Y2529853D1*
X2742675Y2524275D1*
X2740930Y2518904D1*
X2738365Y2513871D1*
X2735046Y2509302D1*
X2731052Y2505309D1*
X2726483Y2501989D1*
X2721451Y2499425D1*
X2716079Y2497680D1*
X2710501Y2496796D1*
X2704853D1*
X2699275Y2497680D1*
X2693904Y2499425D1*
X2688871Y2501989D1*
X2684302Y2505309D1*
X2680309Y2509302D1*
X2676989Y2513871D1*
X2675969Y2515692D1*
X2578877Y2515685D1*
X2586353Y2508080D1*
X2589073Y2504336D1*
X2591174Y2500213D1*
X2592604Y2495811D1*
X2593328Y2491240D1*
X2593419Y2406249D1*
Y2378296D1*
X2595996Y2374017D1*
X2598157Y2368799D1*
X2599476Y2363308D1*
X2599919Y2357677D1*
X2599476Y2352047D1*
X2598157Y2346555D1*
X2595996Y2341337D1*
X2593045Y2336522D1*
X2589377Y2332227D1*
X2585082Y2328559D1*
X2580267Y2325608D1*
X2575049Y2323447D1*
X2569557Y2322128D1*
X2563927Y2321685D1*
X2558296Y2322128D1*
X2552804Y2323447D1*
X2547586Y2325608D1*
X2542771Y2328559D1*
X2538476Y2332227D1*
X2534808Y2336522D1*
X2531857Y2341337D1*
X2529696Y2346555D1*
X2528378Y2352047D1*
X2527934Y2357677D1*
X2528378Y2363308D1*
X2529696Y2368799D1*
X2531857Y2374017D1*
X2534434Y2378273D1*
Y2476705D1*
X2530524Y2478929D1*
X2525153Y2480674D1*
X2520121Y2483238D1*
X2515551Y2486558D1*
X2511558Y2490551D1*
X2508238Y2495121D1*
X2505674Y2500153D1*
X2503929Y2505524D1*
X2503036Y2511334D1*
X2355896Y2364188D1*
X2355919Y2353281D1*
X2358496Y2349017D1*
X2360657Y2343799D1*
X2361976Y2338308D1*
X2362419Y2332677D1*
X2361976Y2327047D1*
X2360657Y2321555D1*
X2358496Y2316337D1*
X2355545Y2311522D1*
X2351877Y2307227D1*
X2347582Y2303559D1*
X2342767Y2300608D1*
X2337549Y2298447D1*
X2332057Y2297128D1*
X2326427Y2296685D1*
X2320796Y2297128D1*
X2315304Y2298447D1*
X2310086Y2300608D1*
X2305271Y2303559D1*
X2300976Y2307227D1*
X2299665Y2308646D1*
X2299669Y2082105D1*
X2546079Y2082102D1*
Y1981874D1*
X2479155D1*
X2479150Y1903134D1*
X2245063Y1903170D1*
X1710746Y2193815D2*
X1813599D1*
Y2081775D1*
X1701559D1*
Y2193815D1*
X1710746D1*
X1892094Y2463697D2*
X1994947D1*
Y2351657D1*
X1882908D1*
Y2463697D1*
X1892094D1*
X2253185Y2847061D2*
Y2868305D1*
X2250608Y2872588D1*
X2248447Y2877806D1*
X2247128Y2883297D1*
X2246685Y2888928D1*
X2247128Y2894558D1*
X2248447Y2900050D1*
X2250608Y2905268D1*
X2253559Y2910083D1*
X2257227Y2914378D1*
X2261522Y2918046D1*
X2266337Y2920997D1*
X2271555Y2923158D1*
X2277047Y2924477D1*
X2282677Y2924920D1*
X2288308Y2924477D1*
X2293799Y2923158D1*
X2299017Y2920997D1*
X2303833Y2918046D1*
X2307665Y2914805D1*
X2311522Y2918045D1*
X2316337Y2920996D1*
X2321555Y2923157D1*
X2327047Y2924476D1*
X2332677Y2924919D1*
X2338308Y2924476D1*
X2343799Y2923157D1*
X2349017Y2920996D1*
X2353833Y2918045D1*
X2358127Y2914377D1*
X2361795Y2910082D1*
X2364746Y2905267D1*
X2366908Y2900049D1*
X2368226Y2894557D1*
X2368669Y2888927D1*
X2368226Y2883296D1*
X2366908Y2877804D1*
X2364746Y2872586D1*
X2362170Y2868331D1*
X2362169Y2847050D1*
X2364746Y2842768D1*
X2366908Y2837550D1*
X2368226Y2832058D1*
X2368669Y2826428D1*
X2368226Y2820797D1*
X2366908Y2815306D1*
X2364746Y2810088D1*
X2361795Y2805272D1*
X2358127Y2800978D1*
X2353833Y2797310D1*
X2349017Y2794359D1*
X2343799Y2792197D1*
X2338308Y2790879D1*
X2332677Y2790436D1*
X2327047Y2790879D1*
X2321555Y2792197D1*
X2316337Y2794359D1*
X2311522Y2797310D1*
X2307689Y2800550D1*
X2303833Y2797310D1*
X2299017Y2794359D1*
X2293799Y2792197D1*
X2288308Y2790879D1*
X2282677Y2790436D1*
X2277047Y2790879D1*
X2271555Y2792197D1*
X2266337Y2794359D1*
X2261522Y2797310D1*
X2257227Y2800978D1*
X2253559Y2805272D1*
X2250608Y2810088D1*
X2248447Y2815306D1*
X2247128Y2820797D1*
X2246685Y2826428D1*
X2247128Y2832058D1*
X2248447Y2837550D1*
X2250608Y2842768D1*
X2253185Y2847024D1*
X2349544Y1746936D2*
X2291295Y1746802D1*
X2287302Y1742809D1*
X2282732Y1739489D1*
X2277700Y1736925D1*
X2272329Y1735180D1*
X2266750Y1734296D1*
X2261103D1*
X2255524Y1735180D1*
X2250153Y1736925D1*
X2245121Y1739489D1*
X2240551Y1742809D1*
X2236558Y1746802D1*
X2233238Y1751371D1*
X2230674Y1756404D1*
X2228929Y1761775D1*
X2228045Y1767353D1*
Y1773001D1*
X2228929Y1778579D1*
X2230674Y1783951D1*
X2233238Y1788983D1*
X2236558Y1793552D1*
X2240551Y1797546D1*
X2245121Y1800865D1*
X2250153Y1803430D1*
X2255524Y1805175D1*
X2261103Y1806058D1*
X2266750D1*
X2279364Y1805920D1*
X2349517D1*
X2353837Y1808497D1*
X2359055Y1810658D1*
X2364547Y1811977D1*
X2370177Y1812420D1*
X2375808Y1811977D1*
X2381299Y1810658D1*
X2386517Y1808497D1*
X2391333Y1805546D1*
X2395627Y1801878D1*
X2399295Y1797583D1*
X2402246Y1792768D1*
X2404408Y1787550D1*
X2405726Y1782058D1*
X2406169Y1776428D1*
X2405726Y1770797D1*
X2404408Y1765306D1*
X2402246Y1760088D1*
X2399295Y1755272D1*
X2395627Y1750978D1*
X2391333Y1747310D1*
X2386517Y1744359D1*
X2381299Y1742197D1*
X2375808Y1740879D1*
X2370177Y1740436D1*
X2364547Y1740879D1*
X2359055Y1742197D1*
X2353837Y1744359D1*
X2349581Y1746935D1*
X2859560Y1830920D2*
X2905779D1*
X2910086Y1833497D1*
X2915304Y1835658D1*
X2920796Y1836977D1*
X2926427Y1837420D1*
X2932057Y1836977D1*
X2937549Y1835658D1*
X2942767Y1833497D1*
X2947582Y1830546D1*
X2951877Y1826878D1*
X2955545Y1822583D1*
X2958496Y1817768D1*
X2960657Y1812550D1*
X2961976Y1807058D1*
X2962419Y1801428D1*
X2961976Y1795797D1*
X2960657Y1790306D1*
X2958496Y1785088D1*
X2955545Y1780272D1*
X2951877Y1775978D1*
X2947582Y1772310D1*
X2942767Y1769359D1*
X2937549Y1767197D1*
X2932057Y1765879D1*
X2926427Y1765436D1*
X2920796Y1765879D1*
X2915304Y1767197D1*
X2910086Y1769359D1*
X2905831Y1771935D1*
X2859574Y1771936D1*
X2855267Y1769359D1*
X2850049Y1767197D1*
X2844557Y1765879D1*
X2838927Y1765436D1*
X2833296Y1765879D1*
X2827804Y1767197D1*
X2822586Y1769359D1*
X2817771Y1772310D1*
X2813476Y1775978D1*
X2809808Y1780272D1*
X2806857Y1785088D1*
X2804696Y1790306D1*
X2803378Y1795797D1*
X2802934Y1801428D1*
X2803378Y1807058D1*
X2804696Y1812550D1*
X2806857Y1817768D1*
X2809808Y1822583D1*
X2813476Y1826878D1*
X2817771Y1830546D1*
X2822586Y1833497D1*
X2827804Y1835658D1*
X2833296Y1836977D1*
X2838927Y1837420D1*
X2844557Y1836977D1*
X2850049Y1835658D1*
X2855267Y1833497D1*
X2859522Y1830920D1*
X2796934Y2834560D2*
X2797025Y2866240D1*
X2797749Y2870811D1*
X2799179Y2875213D1*
X2801280Y2879336D1*
X2804001Y2883080D1*
X2828485Y2907693D1*
X2829696Y2912549D1*
X2831857Y2917767D1*
X2834808Y2922582D1*
X2838476Y2926877D1*
X2842771Y2930545D1*
X2847586Y2933496D1*
X2852804Y2935657D1*
X2858296Y2936976D1*
X2863927Y2937419D1*
X2869557Y2936976D1*
X2875049Y2935657D1*
X2880267Y2933496D1*
X2885082Y2930545D1*
X2889377Y2926877D1*
X2893045Y2922582D1*
X2895996Y2917767D1*
X2898157Y2912549D1*
X2899476Y2907057D1*
X2899919Y2901427D1*
X2899476Y2895796D1*
X2898157Y2890304D1*
X2895996Y2885086D1*
X2893045Y2880271D1*
X2889377Y2875976D1*
X2885082Y2872308D1*
X2880267Y2869357D1*
X2875049Y2867196D1*
X2870217Y2866009D1*
X2855930Y2851722D1*
X2855919Y2834537D1*
X2858496Y2830267D1*
X2860657Y2825049D1*
X2861976Y2819557D1*
X2862419Y2813927D1*
X2861976Y2808296D1*
X2860657Y2802804D1*
X2858496Y2797586D1*
X2855545Y2792771D1*
X2851877Y2788476D1*
X2847582Y2784808D1*
X2842767Y2781857D1*
X2837549Y2779696D1*
X2832057Y2778378D1*
X2826427Y2777934D1*
X2820796Y2778378D1*
X2815304Y2779696D1*
X2810086Y2781857D1*
X2805271Y2784808D1*
X2800976Y2788476D1*
X2797308Y2792771D1*
X2794357Y2797586D1*
X2792196Y2802804D1*
X2790878Y2808296D1*
X2790434Y2813927D1*
X2790878Y2819557D1*
X2792196Y2825049D1*
X2794357Y2830267D1*
X2796934Y2834522D1*
X1811476Y2803185D2*
X1767863Y2803276D1*
X1763292Y2804000D1*
X1758891Y2805430D1*
X1754768Y2807531D1*
X1751024Y2810251D1*
X1734124Y2827022D1*
X1729282Y2828220D1*
X1724064Y2830381D1*
X1719249Y2833332D1*
X1714954Y2837000D1*
X1711286Y2841294D1*
X1708335Y2846110D1*
X1706174Y2851328D1*
X1704855Y2856820D1*
X1704412Y2862450D1*
X1704855Y2868081D1*
X1706174Y2873572D1*
X1708335Y2878790D1*
X1711286Y2883606D1*
X1714954Y2887900D1*
X1719249Y2891568D1*
X1724064Y2894519D1*
X1729282Y2896681D1*
X1734774Y2897999D1*
X1740404Y2898442D1*
X1746035Y2897999D1*
X1751526Y2896681D1*
X1756744Y2894519D1*
X1761560Y2891568D1*
X1765854Y2887900D1*
X1769522Y2883606D1*
X1772473Y2878790D1*
X1774635Y2873572D1*
X1775822Y2868741D1*
X1782395Y2862168D1*
X1836104Y2862309D1*
X1841752D1*
X1847330Y2861425D1*
X1852701Y2859680D1*
X1857734Y2857116D1*
X1859432Y2855982D1*
X1859434Y2868280D1*
X1856857Y2872588D1*
X1854696Y2877806D1*
X1853378Y2883297D1*
X1852934Y2888928D1*
X1853378Y2894558D1*
X1854696Y2900050D1*
X1856857Y2905268D1*
X1859808Y2910083D1*
X1863476Y2914378D1*
X1867771Y2918046D1*
X1872586Y2920997D1*
X1877804Y2923158D1*
X1883296Y2924477D1*
X1888927Y2924920D1*
X1894557Y2924477D1*
X1900049Y2923158D1*
X1905267Y2920997D1*
X1910082Y2918046D1*
X1914377Y2914378D1*
X1918045Y2910083D1*
X1920996Y2905268D1*
X1923157Y2900050D1*
X1924476Y2894558D1*
X1924919Y2888928D1*
X1924476Y2883297D1*
X1923157Y2877806D1*
X1920996Y2872588D1*
X1918419Y2868332D1*
X1918558Y2798001D1*
Y2792353D1*
X1917675Y2786775D1*
X1915930Y2781404D1*
X1913365Y2776371D1*
X1910046Y2771802D1*
X1906052Y2767809D1*
X1901483Y2764489D1*
X1896451Y2761925D1*
X1891079Y2760180D1*
X1885501Y2759296D1*
X1879853D1*
X1874275Y2760180D1*
X1868904Y2761925D1*
X1863871Y2764489D1*
X1859302Y2767809D1*
X1855309Y2771802D1*
X1851989Y2776371D1*
X1849425Y2781404D1*
X1847680Y2786775D1*
X1846917Y2791334D1*
X1841752Y2790547D1*
X1836104D1*
X1830526Y2791430D1*
X1825154Y2793175D1*
X1820122Y2795739D1*
X1815553Y2799059D1*
X1811457Y2803183D1*
X2024669Y1818294D2*
Y1759588D1*
X2027246Y1755268D1*
X2029408Y1750050D1*
X2030726Y1744558D1*
X2031169Y1738928D1*
X2030726Y1733297D1*
X2029408Y1727806D1*
X2027246Y1722588D1*
X2024295Y1717772D1*
X2020627Y1713478D1*
X2016333Y1709810D1*
X2011517Y1706859D1*
X2006299Y1704697D1*
X2000808Y1703379D1*
X1995177Y1702936D1*
X1989547Y1703379D1*
X1984055Y1704697D1*
X1978837Y1706859D1*
X1974022Y1709810D1*
X1969727Y1713478D1*
X1966059Y1717772D1*
X1963108Y1722588D1*
X1960947Y1727806D1*
X1959628Y1733297D1*
X1959185Y1738928D1*
X1959628Y1744558D1*
X1960947Y1750050D1*
X1963108Y1755268D1*
X1965685Y1759524D1*
Y1818268D1*
X1963108Y1822588D1*
X1960947Y1827806D1*
X1959628Y1833297D1*
X1959185Y1838928D1*
X1959628Y1844558D1*
X1960947Y1850050D1*
X1963108Y1855268D1*
X1966059Y1860083D1*
X1969727Y1864378D1*
X1974022Y1868046D1*
X1978837Y1870997D1*
X1984055Y1873158D1*
X1989547Y1874477D1*
X1995177Y1874920D1*
X2000808Y1874477D1*
X2006299Y1873158D1*
X2011517Y1870997D1*
X2016333Y1868046D1*
X2020627Y1864378D1*
X2024295Y1860083D1*
X2027246Y1855268D1*
X2029408Y1850050D1*
X2030726Y1844558D1*
X2031169Y1838928D1*
X2030726Y1833297D1*
X2029408Y1827806D1*
X2027246Y1822588D1*
X2024670Y1818332D1*
X2547060Y1868420D2*
X2593279D1*
X2597586Y1870997D1*
X2602804Y1873158D1*
X2608296Y1874477D1*
X2613927Y1874920D1*
X2619557Y1874477D1*
X2625049Y1873158D1*
X2630267Y1870997D1*
X2635082Y1868046D1*
X2639377Y1864378D1*
X2643045Y1860083D1*
X2645996Y1855268D1*
X2648157Y1850050D1*
X2649476Y1844558D1*
X2649919Y1838928D1*
X2649476Y1833297D1*
X2648157Y1827806D1*
X2645996Y1822588D1*
X2643045Y1817772D1*
X2639377Y1813478D1*
X2635082Y1809810D1*
X2630267Y1806859D1*
X2625049Y1804697D1*
X2619557Y1803379D1*
X2613927Y1802936D1*
X2608296Y1803379D1*
X2602804Y1804697D1*
X2597586Y1806859D1*
X2593331Y1809435D1*
X2547074Y1809436D1*
X2542767Y1806859D1*
X2537549Y1804697D1*
X2532057Y1803379D1*
X2526427Y1802936D1*
X2520796Y1803379D1*
X2515304Y1804697D1*
X2510086Y1806859D1*
X2505271Y1809810D1*
X2500976Y1813478D1*
X2497308Y1817772D1*
X2494357Y1822588D1*
X2492196Y1827806D1*
X2490878Y1833297D1*
X2490434Y1838928D1*
X2490878Y1844558D1*
X2492196Y1850050D1*
X2494357Y1855268D1*
X2497308Y1860083D1*
X2500976Y1864378D1*
X2505271Y1868046D1*
X2510086Y1870997D1*
X2515304Y1873158D1*
X2520796Y1874477D1*
X2526427Y1874920D1*
X2532057Y1874477D1*
X2537549Y1873158D1*
X2542767Y1870997D1*
X2547022Y1868420D1*
X1734560Y2030920D2*
X1774535D1*
X1778837Y2033497D1*
X1784055Y2035658D1*
X1789547Y2036977D1*
X1795177Y2037420D1*
X1800808Y2036977D1*
X1806299Y2035658D1*
X1811517Y2033497D1*
X1816333Y2030546D1*
X1820627Y2026878D1*
X1824295Y2022583D1*
X1827246Y2017768D1*
X1829408Y2012550D1*
X1830726Y2007058D1*
X1831169Y2001428D1*
X1830726Y1995797D1*
X1829408Y1990306D1*
X1827246Y1985088D1*
X1824295Y1980272D1*
X1820627Y1975978D1*
X1816333Y1972310D1*
X1811517Y1969359D1*
X1806299Y1967197D1*
X1800808Y1965879D1*
X1795177Y1965436D1*
X1789547Y1965879D1*
X1784055Y1967197D1*
X1778837Y1969359D1*
X1774581Y1971935D1*
X1734569Y1971936D1*
X1730267Y1969359D1*
X1725049Y1967197D1*
X1719557Y1965879D1*
X1713927Y1965436D1*
X1708296Y1965879D1*
X1702804Y1967197D1*
X1697586Y1969359D1*
X1692771Y1972310D1*
X1688476Y1975978D1*
X1684808Y1980272D1*
X1681857Y1985088D1*
X1679696Y1990306D1*
X1678378Y1995797D1*
X1677934Y2001428D1*
X1678378Y2007058D1*
X1679696Y2012550D1*
X1681857Y2017768D1*
X1684808Y2022583D1*
X1688476Y2026878D1*
X1692771Y2030546D1*
X1697586Y2033497D1*
X1702804Y2035658D1*
X1708296Y2036977D1*
X1713927Y2037420D1*
X1719557Y2036977D1*
X1725049Y2035658D1*
X1730267Y2033497D1*
X1734522Y2030920D1*
X2322260Y2463968D2*
X2323447Y2468799D1*
X2325608Y2474017D1*
X2328185Y2478273D1*
X2118419Y2312045D2*
Y2203316D1*
X2120996Y2199017D1*
X2123157Y2193799D1*
X2124476Y2188308D1*
X2124919Y2182677D1*
X2124476Y2177047D1*
X2123157Y2171555D1*
X2120996Y2166337D1*
X2118419Y2162081D1*
Y2034583D1*
X2120996Y2030267D1*
X2123157Y2025049D1*
X2124476Y2019557D1*
X2124919Y2013927D1*
X2124476Y2008296D1*
X2123157Y2002804D1*
X2120996Y1997586D1*
X2118045Y1992771D1*
X2114377Y1988476D1*
X2110082Y1984808D1*
X2105267Y1981857D1*
X2100049Y1979696D1*
X2094557Y1978378D1*
X2088927Y1977934D1*
X2083296Y1978378D1*
X2077804Y1979696D1*
X2072586Y1981857D1*
X2067771Y1984808D1*
X2063476Y1988476D1*
X2059808Y1992771D1*
X2056857Y1997586D1*
X2054696Y2002804D1*
X2053378Y2008296D1*
X2052934Y2013927D1*
X2053378Y2019557D1*
X2054696Y2025049D1*
X2056857Y2030267D1*
X2059434Y2034522D1*
Y2162021D1*
X2056857Y2166337D1*
X2054696Y2171555D1*
X2053378Y2177047D1*
X2052934Y2182677D1*
X2053378Y2188308D1*
X2054696Y2193799D1*
X2056857Y2199017D1*
X2059434Y2203273D1*
Y2312040D1*
X2056857Y2316338D1*
X2054696Y2321556D1*
X2053378Y2327048D1*
X2052934Y2332678D1*
X2053378Y2338309D1*
X2054696Y2343801D1*
X2056857Y2349019D1*
X2059808Y2353834D1*
X2063476Y2358129D1*
X2067771Y2361797D1*
X2072586Y2364748D1*
X2077804Y2366909D1*
X2083296Y2368227D1*
X2088927Y2368671D1*
X2094557Y2368227D1*
X2100049Y2366909D1*
X2105267Y2364748D1*
X2110082Y2361797D1*
X2114377Y2358129D1*
X2118045Y2353834D1*
X2120996Y2349019D1*
X2123157Y2343801D1*
X2124476Y2338309D1*
X2124919Y2332678D1*
X2124476Y2327048D1*
X2123157Y2321556D1*
X2120996Y2316338D1*
X2118419Y2312083D1*
D20*
X2982283Y2175197D3*
D21*
Y2275197D3*
Y2375197D3*
Y2475197D3*
D20*
X1938927Y2407677D3*
D21*
X2038927D3*
D77*
X1038927Y732677D3*
X983249Y788354D3*
D80*
X3938927Y1032677D3*
X3883249Y977000D3*
D77*
X3631201Y3943701D3*
X3686878Y3888024D3*
D80*
X718701Y3643701D3*
X774378Y3699378D3*
D32*
X2228248Y1953248D3*
X2295177D3*
X2362106D3*
X2429035D3*
X2495965D3*
X2228248Y2031988D3*
X2295177D3*
X2362106D3*
X2429035D3*
X2495965D3*
D20*
X2372047Y3001969D3*
D21*
X2272047D3*
D20*
X1757579Y2137795D3*
D21*
X1857579D3*
M02*
