G04 DipTrace 3.2.0.1*
G04 Rev1.2.gto*
%MOIN*%
G04 #@! TF.FileFunction,Legend,Top*
G04 #@! TF.Part,Single*
%ADD10C,0.009843*%
%ADD12C,0.003*%
%ADD22C,0.015422*%
%ADD23C,0.015406*%
%ADD24C,0.015404*%
%ADD26C,0.015714*%
%ADD33C,0.015401*%
%ADD68C,0.00772*%
%ADD69C,0.009264*%
%FSLAX26Y26*%
G04*
G70*
G90*
G75*
G01*
G04 TopSilk*
%LPD*%
X1741220Y2237223D2*
D10*
Y2288365D1*
X1925857Y2380286D2*
X1976999D1*
X1978325Y2659469D2*
Y2710610D1*
X1976357Y2759862D2*
Y2811004D1*
X2338356Y1992786D2*
X2389497D1*
X2633248Y2416318D2*
X2582106D1*
X613215Y510355D2*
X577046Y474187D1*
X4152046Y613215D2*
X4188215Y577046D1*
X4049187Y4152046D2*
X4085355Y4188215D1*
X510355Y4061687D2*
X474187Y4097855D1*
X3032283Y2525197D2*
X2932283D1*
X3032283Y2125197D2*
Y2525197D1*
X2932283Y2125197D2*
Y2525197D1*
X3032283Y2125197D2*
X2932283D1*
X2088927Y2357677D2*
Y2457677D1*
X1888927Y2357677D2*
X2088927D1*
X1888927D2*
Y2457677D1*
X2088927D1*
D22*
X1833394Y1730711D3*
X1791435Y1701759D2*
D10*
X1707918Y1785280D1*
X1694006Y1771362D1*
X1777508Y1687841D1*
X1791435Y1701759D1*
D23*
X2934644Y1833394D3*
X2963596Y1791435D2*
D10*
X2880075Y1707918D1*
X2893993Y1694006D1*
X2977514Y1777508D1*
X2963596Y1791435D1*
D22*
X2831960Y2914959D3*
X2873919Y2943911D2*
D10*
X2957437Y2860390D1*
X2971349Y2874308D1*
X2887847Y2957828D1*
X2873919Y2943911D1*
D23*
X1730711Y2831960D3*
X1701759Y2873919D2*
D10*
X1785280Y2957437D1*
X1771362Y2971349D1*
X1687841Y2887847D1*
X1701759Y2873919D1*
D24*
X2188526Y2128637D3*
X2179325Y2078495D2*
D10*
X2061220D1*
Y2058810D1*
X2179325D1*
Y2078495D1*
X2612992Y2045511D2*
X2632672D1*
Y2065128D1*
X2349218Y2328972D2*
Y2309290D1*
Y2328972D2*
X2368898D1*
X2632672Y2309290D2*
Y2328972D1*
X2612992D2*
X2632672D1*
X2364962Y2049435D2*
X2353154Y2061204D1*
D26*
X2382674Y2017999D3*
X2222047Y3051969D2*
D10*
Y2951969D1*
X2422047Y3051969D2*
X2222047D1*
X2422047D2*
Y2951969D1*
X2222047D1*
X1907579Y2087795D2*
Y2187795D1*
X1707579Y2087795D2*
X1907579D1*
X1707579D2*
Y2187795D1*
X1907579D1*
D33*
X1751910Y2342638D3*
X1757173Y2396704D2*
D10*
X1875281D1*
X1757173Y2428195D2*
X1875281D1*
Y2396704D2*
Y2428195D1*
X1757173Y2396704D2*
Y2428195D1*
X3976177Y4257677D2*
D12*
X3997177D1*
X3972480Y4254677D2*
X4027177D1*
X3969258Y4251677D2*
X4027177D1*
X619177Y4248677D2*
X634177D1*
X3966727D2*
X4043771D1*
X604177Y4245677D2*
X634177D1*
X3964907D2*
X4060177D1*
X604177Y4242677D2*
X634177D1*
X3963451D2*
X4060177D1*
X593747Y4239677D2*
X634177D1*
X799177D2*
X811177D1*
X3962156D2*
X4070513D1*
X585848Y4236677D2*
X634177D1*
X798690D2*
X816670D1*
X3960742D2*
X4077543D1*
X578160Y4233677D2*
X634177D1*
X797735D2*
X822476D1*
X3958979D2*
X4083734D1*
X571708Y4230677D2*
X634177D1*
X796194D2*
X827112D1*
X3957272D2*
X4088995D1*
X566603Y4227677D2*
X634177D1*
X794220D2*
X830483D1*
X3955956D2*
X4091335D1*
X556177Y4224677D2*
X634177D1*
X792297D2*
X838810D1*
X3954613D2*
X4105177D1*
X553199Y4221677D2*
X634177D1*
X790741D2*
X844143D1*
X3952902D2*
X4105177D1*
X549924Y4218677D2*
X634177D1*
X789413D2*
X849301D1*
X3814177D2*
D3*
X3951150D2*
X4105177D1*
X547214Y4215677D2*
X634177D1*
X788361D2*
X854188D1*
X3807717D2*
X3814177D1*
X3949680D2*
X4100372D1*
X545452Y4212677D2*
X634177D1*
X787676D2*
X859141D1*
X3801977D2*
X3814177D1*
X3948390D2*
X4095711D1*
X550177Y4209677D2*
X634177D1*
X781177D2*
X863877D1*
X3796475D2*
X3814177D1*
X3947361D2*
X4091108D1*
X550177Y4206677D2*
X634177D1*
X780250D2*
X867956D1*
X3791693D2*
X3814165D1*
X3946707D2*
X4087304D1*
X550177Y4203677D2*
X634177D1*
X778762D2*
X869761D1*
X3788043D2*
X3814060D1*
X3946177D2*
X4084366D1*
X550177Y4200677D2*
X634177D1*
X777209D2*
X880177D1*
X3784834D2*
X3813678D1*
X3945270D2*
X4081648D1*
X550177Y4197677D2*
X634177D1*
X776146D2*
X879714D1*
X3781122D2*
X3812959D1*
X3943775D2*
X4078488D1*
X550177Y4194677D2*
X634177D1*
X775483D2*
X878969D1*
X3776903D2*
X3812190D1*
X3942215D2*
X4074959D1*
X550177Y4191677D2*
X634177D1*
X774846D2*
X878185D1*
X3773301D2*
X3811667D1*
X3941149D2*
X4071778D1*
X550177Y4188677D2*
X634177D1*
X773999D2*
X877614D1*
X3770918D2*
X3811389D1*
X3940484D2*
X4069147D1*
X550177Y4185677D2*
X640177D1*
X772978D2*
X871177D1*
X3763177D2*
X3811261D1*
X3939846D2*
X4066563D1*
X550177Y4182677D2*
X640177D1*
X771675D2*
X868639D1*
X3761201D2*
X3811209D1*
X3939022D2*
X4063456D1*
X556177Y4179677D2*
X640177D1*
X769955D2*
X865898D1*
X3758610D2*
X3811188D1*
X3938213D2*
X4059948D1*
X556641Y4176677D2*
X640201D1*
X768288D2*
X863196D1*
X3755711D2*
X3811181D1*
X3937675D2*
X4056774D1*
X557385Y4173677D2*
X640412D1*
X767188D2*
X860423D1*
X3752800D2*
X3811178D1*
X3937391D2*
X4054169D1*
X558161Y4170677D2*
X640904D1*
X766611D2*
X857471D1*
X3749979D2*
X3811178D1*
X3937262D2*
X4051797D1*
X558689Y4167677D2*
X642545D1*
X766349D2*
X854346D1*
X3747140D2*
X3811177D1*
X3937209D2*
X4049455D1*
X558984Y4164677D2*
X644135D1*
X766238D2*
X851216D1*
X3744250D2*
X3811177D1*
X3937188D2*
X4047361D1*
X565177Y4161677D2*
X645194D1*
X760177D2*
X848240D1*
X3741868D2*
X3811177D1*
X3931177D2*
X4045537D1*
X565201Y4158677D2*
X645765D1*
X760165D2*
X845200D1*
X3740311D2*
X3811177D1*
X3931177D2*
X4043425D1*
X565412Y4155677D2*
X646126D1*
X760060D2*
X842155D1*
X3733177D2*
X3811177D1*
X3931177D2*
X4040937D1*
X565904Y4152677D2*
X646614D1*
X759678D2*
X839302D1*
X3732690D2*
X3811177D1*
X3931177D2*
X4038737D1*
X567659Y4149677D2*
X647373D1*
X758959D2*
X836464D1*
X3731724D2*
X3811177D1*
X3931177D2*
X4037146D1*
X569633Y4146677D2*
X648157D1*
X758190D2*
X833486D1*
X3730077D2*
X3811177D1*
X3931177D2*
X4035576D1*
X571412Y4143677D2*
X648685D1*
X757667D2*
X830375D1*
X3727732D2*
X3811177D1*
X3931177D2*
X4033444D1*
X572741Y4140677D2*
X648965D1*
X757389D2*
X827463D1*
X3725196D2*
X3811177D1*
X3931177D2*
X4031060D1*
X573522Y4137677D2*
X649093D1*
X757261D2*
X825344D1*
X3723240D2*
X3805177D1*
X3931177D2*
X4029196D1*
X573924Y4134677D2*
X649147D1*
X757209D2*
X824066D1*
X3722030D2*
X3805177D1*
X3931177D2*
X4028099D1*
X580177Y4131677D2*
X655177D1*
X757188D2*
X817177D1*
X3715177D2*
X3805177D1*
X3931177D2*
X4027559D1*
X581226Y4128677D2*
X655201D1*
X757181D2*
X816238D1*
X3715177D2*
X3805177D1*
X3931177D2*
X4027316D1*
X582330Y4125677D2*
X655412D1*
X751177D2*
X814645D1*
X3715177D2*
X3805177D1*
X3931177D2*
X4021177D1*
X583687Y4122677D2*
X655904D1*
X751177D2*
X812709D1*
X3715177D2*
X3805177D1*
X3931177D2*
X4021154D1*
X585640Y4119677D2*
X657545D1*
X751177D2*
X810940D1*
X3715177D2*
X3805177D1*
X3931177D2*
X4020943D1*
X588181Y4116677D2*
X659135D1*
X751177D2*
X809613D1*
X3715177D2*
X3805177D1*
X3931177D2*
X4020451D1*
X591101Y4113677D2*
X660205D1*
X751177D2*
X808832D1*
X3715177D2*
X3805177D1*
X3931177D2*
X4018798D1*
X593959Y4110677D2*
X660879D1*
X751177D2*
X808430D1*
X3715177D2*
X3805177D1*
X3931177D2*
X4017103D1*
X4210177D2*
X4222177D1*
X596247Y4107677D2*
X661599D1*
X751177D2*
X802177D1*
X3715177D2*
X3811177D1*
X3931177D2*
X4015661D1*
X4195814D2*
X4225061D1*
X598223Y4104677D2*
X662733D1*
X751201D2*
X802177D1*
X3715177D2*
X3811177D1*
X3931177D2*
X4014382D1*
X4185277D2*
X4227169D1*
X436177Y4101677D2*
X439177D1*
X600445D2*
X664177D1*
X751412D2*
X796177D1*
X3715177D2*
X3811177D1*
X3931177D2*
X3937177D1*
X3991177D2*
X4013350D1*
X4177054D2*
X4228760D1*
X434769Y4098677D2*
X440116D1*
X603007D2*
X659990D1*
X751904D2*
X795690D1*
X3715177D2*
X3811177D1*
X4009177D2*
X4012673D1*
X4170684D2*
X4229939D1*
X433696Y4095677D2*
X441709D1*
X605718D2*
X657208D1*
X753946D2*
X794735D1*
X3715177D2*
X3811177D1*
X4009177D2*
X4012177D1*
X4165016D2*
X4230830D1*
X432496Y4092677D2*
X443645D1*
X608443D2*
X644841D1*
X757217D2*
X793194D1*
X3715177D2*
X3811177D1*
X4150177D2*
X4231932D1*
X430854Y4089677D2*
X445414D1*
X611245D2*
X637803D1*
X762358D2*
X791230D1*
X3715177D2*
X3811177D1*
X4147761D2*
X4233518D1*
X429131Y4086677D2*
X446741D1*
X614177D2*
X631514D1*
X768968D2*
X789398D1*
X3715177D2*
X3811177D1*
X4144635D2*
X4235117D1*
X427673Y4083677D2*
X447522D1*
X616839D2*
X626429D1*
X775404D2*
X788128D1*
X3715177D2*
X3811177D1*
X4141711D2*
X4236190D1*
X426387Y4080677D2*
X447924D1*
X619177D2*
X622177D1*
X781177D2*
X787177D1*
X3715177D2*
X3811177D1*
X4139688D2*
X4236786D1*
X425360Y4077677D2*
X454177D1*
X3715177D2*
X3811177D1*
X4133372D2*
X4243177D1*
X424707Y4074677D2*
X456715D1*
X3715177D2*
X3811177D1*
X4128699D2*
X4243189D1*
X424177Y4071677D2*
X459456D1*
X3709177D2*
X3811177D1*
X4123991D2*
X4243294D1*
X423270Y4068677D2*
X462170D1*
X3709177D2*
X3811177D1*
X4119816D2*
X4243677D1*
X421775Y4065677D2*
X465060D1*
X3709177D2*
X3811177D1*
X4116266D2*
X4244395D1*
X420215Y4062677D2*
X468500D1*
X3709177D2*
X3811177D1*
X4113161D2*
X4245164D1*
X419156Y4059677D2*
X472714D1*
X3709177D2*
X3811189D1*
X4110184D2*
X4245688D1*
X418565Y4056677D2*
X477238D1*
X3709177D2*
X3811294D1*
X4107029D2*
X4245966D1*
X412177Y4053677D2*
X481229D1*
X3709177D2*
X3811677D1*
X4103779D2*
X4246093D1*
X412177Y4050677D2*
X484711D1*
X3709177D2*
X3812395D1*
X4100483D2*
X4246147D1*
X412177Y4047677D2*
X487902D1*
X3709177D2*
X3813164D1*
X4097284D2*
X4252177D1*
X412165Y4044677D2*
X490410D1*
X3709177D2*
X3813688D1*
X4094379D2*
X4252189D1*
X412060Y4041677D2*
X492018D1*
X3709177D2*
X3813966D1*
X4091731D2*
X4252294D1*
X411678Y4038677D2*
X502177D1*
X3709177D2*
X3814093D1*
X4089609D2*
X4252677D1*
X410959Y4035677D2*
X505619D1*
X3709177D2*
X3814146D1*
X4088308D2*
X4253395D1*
X410190Y4032677D2*
X509638D1*
X3709177D2*
X3814166D1*
X4087618D2*
X4254164D1*
X409667Y4029677D2*
X513133D1*
X3709177D2*
X3814173D1*
X4093177D2*
X4254688D1*
X409365Y4026677D2*
X515465D1*
X3709177D2*
X3814176D1*
X4093291D2*
X4254966D1*
X409027Y4023677D2*
X523177D1*
X3709177D2*
X3814177D1*
X4093676D2*
X4228177D1*
X4240177D2*
X4255099D1*
X408210Y4020677D2*
X523177D1*
X3709177D2*
X3814177D1*
X4094418D2*
X4228177D1*
X4240177D2*
X4255177D1*
X406752Y4017677D2*
X533237D1*
X3709177D2*
X3820177D1*
X4095399D2*
X4183177D1*
X405207Y4014677D2*
X540795D1*
X3709165D2*
X3819238D1*
X4096687D2*
X4162177D1*
X404158Y4011677D2*
X547010D1*
X3709060D2*
X3817622D1*
X4098402D2*
X4162177D1*
X403600Y4008677D2*
X562177D1*
X3708678D2*
X3815475D1*
X4100067D2*
X4149919D1*
X403346Y4005677D2*
X562177D1*
X3707959D2*
X3812941D1*
X4101167D2*
X4141359D1*
X403240Y4002677D2*
X562177D1*
X3707190D2*
X3810154D1*
X4101744D2*
X4133236D1*
X403200Y3999677D2*
X556177D1*
X3706667D2*
X3807626D1*
X4102017D2*
X4126223D1*
X403185Y3996677D2*
X556177D1*
X3706400D2*
X3805420D1*
X4102177D2*
X4120177D1*
X403180Y3993677D2*
X556177D1*
X3706378D2*
X3803153D1*
X403178Y3990677D2*
X556177D1*
X3706708D2*
X3800887D1*
X403177Y3987677D2*
X556165D1*
X3707406D2*
X3798757D1*
X403177Y3984677D2*
X556060D1*
X3708168D2*
X3796407D1*
X403177Y3981677D2*
X555678D1*
X3708689D2*
X3793398D1*
X403177Y3978677D2*
X554959D1*
X3708966D2*
X3789927D1*
X397177Y3975677D2*
X554190D1*
X3709093D2*
X3786790D1*
X397365Y3972677D2*
X553667D1*
X3709146D2*
X3784377D1*
X398677Y3969677D2*
X553389D1*
X3709166D2*
X3782561D1*
X402442Y3966677D2*
X553261D1*
X3709173D2*
X3780892D1*
X406809Y3963677D2*
X553209D1*
X3709176D2*
X3778899D1*
X411546Y3960677D2*
X553188D1*
X3574177D2*
D3*
X3709177D2*
X3776584D1*
X417210Y3957677D2*
X553181D1*
X3574177D2*
D3*
X3709177D2*
X3773981D1*
X423234Y3954677D2*
X553178D1*
X3574177D2*
D3*
X3709177D2*
X3771190D1*
X428004Y3951677D2*
X553189D1*
X3568177D2*
X3574177D1*
X3709177D2*
X3768847D1*
X431456Y3948677D2*
X553294D1*
X3568177D2*
X3574177D1*
X3709177D2*
X3767303D1*
X439951Y3945677D2*
X553677D1*
X3562177D2*
X3574177D1*
X3709177D2*
X3760177D1*
X446554Y3942677D2*
X554395D1*
X3560224D2*
X3574177D1*
X3709177D2*
X3759128D1*
X453625Y3939677D2*
X555164D1*
X3557844D2*
X3574177D1*
X3709177D2*
X3758024D1*
X460044Y3936677D2*
X555652D1*
X3555698D2*
X3574177D1*
X3709177D2*
X3756668D1*
X465980Y3933677D2*
X555885D1*
X3554131D2*
X3574177D1*
X3709177D2*
X3754714D1*
X481177Y3930677D2*
X554928D1*
X3552571D2*
X3574177D1*
X3709177D2*
X3752173D1*
X481177Y3927677D2*
X551453D1*
X3550442D2*
X3574177D1*
X3709177D2*
X3749253D1*
X511177Y3924677D2*
X547177D1*
X3548058D2*
X3574177D1*
X3709177D2*
X3746418D1*
X3546183Y3921677D2*
X3574177D1*
X3709177D2*
X3744328D1*
X3545009Y3918677D2*
X3574177D1*
X3709177D2*
X3743061D1*
X3538177Y3915677D2*
X3574177D1*
X3715177D2*
X3736177D1*
X3535662Y3912677D2*
X3574177D1*
X3715177D2*
X3735238D1*
X3533133Y3909677D2*
X3574165D1*
X3715177D2*
X3733622D1*
X4102177D2*
X4105177D1*
X3531218Y3906677D2*
X3574060D1*
X3715177D2*
X3731475D1*
X4101250D2*
X4138177D1*
X3530102Y3903677D2*
X3573678D1*
X3715177D2*
X3728929D1*
X4099751D2*
X4138177D1*
X3529532Y3900677D2*
X3572959D1*
X3715177D2*
X3726060D1*
X4098092D2*
X4155990D1*
X3523177Y3897677D2*
X3572190D1*
X3715177D2*
X3723359D1*
X4096659D2*
X4174177D1*
X3521900Y3894677D2*
X3571667D1*
X3715177D2*
X3721180D1*
X4095359D2*
X4174177D1*
X3520027Y3891677D2*
X3571389D1*
X3715177D2*
X3719525D1*
X4094124D2*
X4180951D1*
X3517244Y3888677D2*
X3571261D1*
X3715177D2*
X3718177D1*
X4092719D2*
X4187554D1*
X3513869Y3885677D2*
X3571209D1*
X4090858D2*
X4194602D1*
X3510769Y3882677D2*
X3571188D1*
X4088807D2*
X4200792D1*
X3508393Y3879677D2*
X3571181D1*
X4087125D2*
X4205801D1*
X3506792Y3876677D2*
X3571178D1*
X4085926D2*
X4216177D1*
X3505899Y3873677D2*
X3571178D1*
X4086108D2*
X4219619D1*
X3505453Y3870677D2*
X3571177D1*
X4089619D2*
X4223638D1*
X3499177Y3867677D2*
X3571177D1*
X4092635D2*
X4227133D1*
X3499177Y3864677D2*
X3571177D1*
X4094670D2*
X4229465D1*
X3493177Y3861677D2*
X3571177D1*
X4100982D2*
X4235994D1*
X3491224Y3858677D2*
X3571177D1*
X4105667D2*
X4240893D1*
X3488844Y3855677D2*
X3571177D1*
X4110504D2*
X4246177D1*
X3486721Y3852677D2*
X3571177D1*
X4115260D2*
X4244792D1*
X3485372Y3849677D2*
X3571177D1*
X4120165D2*
X4243931D1*
X3484645Y3846677D2*
X3571177D1*
X4124885D2*
X4243495D1*
X3478177Y3843677D2*
X3571177D1*
X4128957D2*
X4243301D1*
X3476911Y3840677D2*
X3571177D1*
X4130762D2*
X4243220D1*
X3475144Y3837677D2*
X3571177D1*
X4141177D2*
X4237177D1*
X3472731Y3834677D2*
X3571177D1*
X4143715D2*
X4236250D1*
X3469969Y3831677D2*
X3571177D1*
X4146456D2*
X4234762D1*
X3467257Y3828677D2*
X3571189D1*
X4149158D2*
X4233197D1*
X3464686Y3825677D2*
X3571294D1*
X4151931D2*
X4232041D1*
X3462594Y3822677D2*
X3571677D1*
X4154883D2*
X4231101D1*
X3461302Y3819677D2*
X3572395D1*
X4158008D2*
X4230104D1*
X3460616Y3816677D2*
X3573164D1*
X4161127D2*
X4229019D1*
X628177Y3813677D2*
X649177D1*
X3454177D2*
X3573688D1*
X4164020D2*
X4227690D1*
X628177Y3810677D2*
X651469D1*
X3452900D2*
X3573966D1*
X4166877D2*
X4225960D1*
X442177Y3807677D2*
X469177D1*
X598177D2*
X654129D1*
X3451027D2*
X3574093D1*
X4169863D2*
X4224289D1*
X442177Y3804677D2*
X469177D1*
X598177D2*
X657110D1*
X3448255D2*
X3574146D1*
X4173001D2*
X4223184D1*
X442177Y3801677D2*
X660201D1*
X3444974D2*
X3574166D1*
X4176148D2*
X4222575D1*
X448177Y3798677D2*
X663363D1*
X3442151D2*
X3574173D1*
X4179230D2*
X4216177D1*
X448664Y3795677D2*
X667158D1*
X3440088D2*
X3574176D1*
X4182642D2*
X4215128D1*
X449619Y3792677D2*
X671637D1*
X3438327D2*
X3574177D1*
X4186300D2*
X4214024D1*
X451160Y3789677D2*
X676015D1*
X3436403D2*
X3574177D1*
X4189540D2*
X4212668D1*
X453124Y3786677D2*
X679806D1*
X3434071D2*
X3574177D1*
X4192189D2*
X4210707D1*
X454957Y3783677D2*
X683063D1*
X3431329D2*
X3574177D1*
X4194742D2*
X4208094D1*
X456227Y3780677D2*
X686093D1*
X3428292D2*
X3574177D1*
X4197749D2*
X4204849D1*
X463177Y3777677D2*
X689060D1*
X3425208D2*
X3574177D1*
X4201177D2*
D3*
X463664Y3774677D2*
X691470D1*
X3422351D2*
X3574177D1*
X464642Y3771677D2*
X693039D1*
X3419709D2*
X3574177D1*
X466395Y3768677D2*
X703177D1*
X3417489D2*
X3574177D1*
X469133Y3765677D2*
X706167D1*
X3415812D2*
X3574177D1*
X472517Y3762677D2*
X709570D1*
X3414438D2*
X3574177D1*
X475822Y3759677D2*
X712854D1*
X3413370D2*
X3574177D1*
X478972Y3756677D2*
X715975D1*
X3412679D2*
X3574201D1*
X482115Y3753677D2*
X719005D1*
X3406177D2*
X3574412D1*
X484950Y3750677D2*
X721448D1*
X3406177D2*
X3574904D1*
X487376Y3747677D2*
X723031D1*
X3406177D2*
X3576545D1*
X489860Y3744677D2*
X733177D1*
X3406177D2*
X3578135D1*
X492924Y3741677D2*
X735715D1*
X3406177D2*
X3579194D1*
X496416Y3738677D2*
X738456D1*
X3406177D2*
X3579753D1*
X499584Y3735677D2*
X741170D1*
X3406177D2*
X3580009D1*
X502222Y3732677D2*
X744060D1*
X3406154D2*
X3580091D1*
X504910Y3729677D2*
X747500D1*
X3405943D2*
X3579920D1*
X508409Y3726677D2*
X751726D1*
X3405451D2*
X3579447D1*
X512741Y3723677D2*
X756332D1*
X3403809D2*
X3577808D1*
X517114Y3720677D2*
X760506D1*
X3402220D2*
X3576207D1*
X521437Y3717677D2*
X764058D1*
X3401161D2*
X3575020D1*
X526891Y3714677D2*
X767059D1*
X3400601D2*
X3573867D1*
X534697Y3711677D2*
X769667D1*
X3400346D2*
X3572105D1*
X544177Y3708677D2*
X772177D1*
X3400240D2*
X3569571D1*
X613177Y3705677D2*
X715177D1*
X3400200D2*
X3566599D1*
X613177Y3702677D2*
X715177D1*
X3400185D2*
X3563440D1*
X3400180Y3699677D2*
X3560494D1*
X3400178Y3696677D2*
X3558346D1*
X3400177Y3693677D2*
X3556906D1*
X3400177Y3690677D2*
X3555350D1*
X3400177Y3687677D2*
X3552887D1*
X3400177Y3684677D2*
X3549707D1*
X3400177Y3681677D2*
X3546679D1*
X3400177Y3678677D2*
X3544110D1*
X3400177Y3675677D2*
X3541550D1*
X3400177Y3672677D2*
X3538464D1*
X3400177Y3669677D2*
X3535064D1*
X3400165Y3666677D2*
X3532285D1*
X3400060Y3663677D2*
X3530480D1*
X3399678Y3660677D2*
X3529049D1*
X3398959Y3657677D2*
X3527185D1*
X3398190Y3654677D2*
X3524700D1*
X3397667Y3651677D2*
X3521989D1*
X3397389Y3648677D2*
X3519138D1*
X3397261Y3645677D2*
X3516030D1*
X3397209Y3642677D2*
X3512894D1*
X3397188Y3639677D2*
X3509995D1*
X3397181Y3636677D2*
X3507619D1*
X3397178Y3633677D2*
X3505842D1*
X3397178Y3630677D2*
X3504225D1*
X3397177Y3627677D2*
X3502363D1*
X3397177Y3624677D2*
X3500057D1*
X3397177Y3621677D2*
X3497324D1*
X3397177Y3618677D2*
X3494314D1*
X3397177Y3615677D2*
X3491442D1*
X3397177Y3612677D2*
X3489326D1*
X3397177Y3609677D2*
X3487899D1*
X3397177Y3606677D2*
X3486347D1*
X3397177Y3603677D2*
X3483886D1*
X3397177Y3600677D2*
X3480683D1*
X3397177Y3597677D2*
X3477468D1*
X3397177Y3594677D2*
X3474357D1*
X3397177Y3591677D2*
X3471230D1*
X3397189Y3588677D2*
X3468425D1*
X3397294Y3585677D2*
X3466212D1*
X3262177Y3582677D2*
X3265177D1*
X3397677D2*
X3464493D1*
X3260224Y3579677D2*
X3265177D1*
X3398395D2*
X3462854D1*
X3257844Y3576677D2*
X3265177D1*
X3399164D2*
X3460796D1*
X697177Y3573677D2*
X718177D1*
X889177D2*
X940177D1*
X3255710D2*
X3265177D1*
X3399688D2*
X3458304D1*
X699389Y3570677D2*
X718177D1*
X889177D2*
X942583D1*
X3254236D2*
X3265177D1*
X3399966D2*
X3455621D1*
X701982Y3567677D2*
X787177D1*
X799177D2*
X802177D1*
X814177D2*
X945628D1*
X3252953D2*
X3265177D1*
X3400093D2*
X3452906D1*
X705379Y3564677D2*
X787177D1*
X799177D2*
X802177D1*
X814177D2*
X949328D1*
X3251137D2*
X3265177D1*
X3400146D2*
X3450089D1*
X709716Y3561677D2*
X953153D1*
X3248594D2*
X3265177D1*
X3400166D2*
X3447007D1*
X713986Y3558677D2*
X956545D1*
X3245708D2*
X3265154D1*
X3400173D2*
X3443885D1*
X717419Y3555677D2*
X959671D1*
X3242824D2*
X3264943D1*
X3400176D2*
X3440991D1*
X720445Y3552677D2*
X962781D1*
X3240213D2*
X3264451D1*
X3400177D2*
X3438618D1*
X723758Y3549677D2*
X965994D1*
X3238116D2*
X3262809D1*
X3400177D2*
X3436842D1*
X727389Y3546677D2*
X969359D1*
X3236429D2*
X3261220D1*
X3400177D2*
X3435201D1*
X730890Y3543677D2*
X973108D1*
X3234628D2*
X3260161D1*
X3400177D2*
X3433152D1*
X734467Y3540677D2*
X977589D1*
X3232014D2*
X3259601D1*
X3400177D2*
X3430292D1*
X738445Y3537677D2*
X982174D1*
X3228759D2*
X3259346D1*
X3400177D2*
X3426887D1*
X742435Y3534677D2*
X986073D1*
X3225699D2*
X3259240D1*
X3400177D2*
X3423775D1*
X746092Y3531677D2*
X989491D1*
X3223117D2*
X3259200D1*
X3400177D2*
X3421372D1*
X749519Y3528677D2*
X992934D1*
X3220552D2*
X3259185D1*
X3400177D2*
X3419559D1*
X752839Y3525677D2*
X996927D1*
X3217465D2*
X3259180D1*
X3400201D2*
X3417891D1*
X755838Y3522677D2*
X1001421D1*
X3214064D2*
X3259178D1*
X3400412D2*
X3415922D1*
X758323Y3519677D2*
X1005487D1*
X3211285D2*
X3259177D1*
X3400904D2*
X3413816D1*
X759365Y3516677D2*
X1008689D1*
X3209480D2*
X3259177D1*
X3402599D2*
X3411948D1*
X772177Y3513677D2*
X1011570D1*
X3208049D2*
X3259177D1*
X3404437D2*
X3410440D1*
X774153Y3510677D2*
X1014810D1*
X3206185D2*
X3259177D1*
X3406177D2*
X3409177D1*
X776757Y3507677D2*
X1018420D1*
X3203700D2*
X3259177D1*
X779749Y3504677D2*
X1022014D1*
X3200989D2*
X3259177D1*
X782913Y3501677D2*
X1025957D1*
X3198138D2*
X3259177D1*
X785861Y3498677D2*
X1030547D1*
X3195030D2*
X3259177D1*
X788325Y3495677D2*
X1034923D1*
X3191894D2*
X3259177D1*
X789366Y3492677D2*
X1038384D1*
X3188995D2*
X3259177D1*
X799177Y3489677D2*
X1041320D1*
X3186619D2*
X3259177D1*
X802167Y3486677D2*
X1044245D1*
X3184866D2*
X3259177D1*
X805546Y3483677D2*
X1047018D1*
X3183459D2*
X3259177D1*
X808666Y3480677D2*
X1049064D1*
X3182377D2*
X3259177D1*
X811457Y3477677D2*
X1050308D1*
X3181681D2*
X3259177D1*
X814683Y3474677D2*
X1055982D1*
X3175177D2*
X3259177D1*
X818850Y3471677D2*
X1060655D1*
X3172662D2*
X3259177D1*
X823281Y3468677D2*
X1065363D1*
X3170133D2*
X3259177D1*
X827114Y3465677D2*
X1069538D1*
X3168195D2*
X3259177D1*
X830482Y3462677D2*
X1073112D1*
X3166848D2*
X3259177D1*
X833705Y3459677D2*
X1076428D1*
X3165328D2*
X3259177D1*
X836954Y3456677D2*
X1080158D1*
X3162879D2*
X3259177D1*
X840244Y3453677D2*
X1084656D1*
X3159681D2*
X3259177D1*
X843723Y3450677D2*
X1089167D1*
X3156467D2*
X3259177D1*
X847869Y3447677D2*
X1093161D1*
X3153357D2*
X3259177D1*
X852404Y3444677D2*
X1096762D1*
X3150230D2*
X3259177D1*
X856538Y3441677D2*
X1099808D1*
X3147425D2*
X3259177D1*
X860084Y3438677D2*
X1102334D1*
X3145235D2*
X3259177D1*
X863190Y3435677D2*
X1104958D1*
X3143727D2*
X3259177D1*
X866146Y3432677D2*
X1108405D1*
X3142874D2*
X3259177D1*
X869080Y3429677D2*
X1112516D1*
X3142444D2*
X3259177D1*
X871478Y3426677D2*
X1116076D1*
X3136177D2*
X3259177D1*
X873041Y3423677D2*
X1118444D1*
X3136177D2*
X3259177D1*
X883177Y3420677D2*
X1126177D1*
X3130177D2*
X3259177D1*
X886167Y3417677D2*
X1128692D1*
X3128224D2*
X3259177D1*
X889546Y3414677D2*
X1131222D1*
X3125844D2*
X3259177D1*
X892654Y3411677D2*
X1133148D1*
X3123698D2*
X3259177D1*
X895355Y3408677D2*
X1134339D1*
X3122131D2*
X3259177D1*
X898347Y3405677D2*
X1147177D1*
X3120571D2*
X3259177D1*
X902369Y3402677D2*
X1148583D1*
X3118419D2*
X3259177D1*
X907177Y3399677D2*
X1150177D1*
X3115801D2*
X3259177D1*
X961177Y3396677D2*
X1117177D1*
X3112962D2*
X3265177D1*
X961177Y3393677D2*
X1117177D1*
X3109652D2*
X3265177D1*
X1030177Y3390677D2*
X1051177D1*
X3106032D2*
X3265177D1*
X3102831Y3387677D2*
X3265177D1*
X3100415Y3384677D2*
X3265177D1*
X3098800Y3381677D2*
X3265177D1*
X3097905Y3378677D2*
X3265177D1*
X3097476Y3375677D2*
X3265177D1*
X3097292Y3372677D2*
X3265177D1*
X3097219Y3369677D2*
X3265177D1*
X3097192Y3366677D2*
X3265177D1*
X3097182Y3363677D2*
X3265177D1*
X3091177Y3360677D2*
X3265177D1*
X3091177Y3357677D2*
X3265177D1*
X3091177Y3354677D2*
X3265177D1*
X3091177Y3351677D2*
X3265177D1*
X3091177Y3348677D2*
X3265154D1*
X3091177Y3345677D2*
X3264931D1*
X3091177Y3342677D2*
X3264404D1*
X3091177Y3339677D2*
X3262327D1*
X3091177Y3336677D2*
X3260006D1*
X3091177Y3333677D2*
X3258151D1*
X3091177Y3330677D2*
X3256845D1*
X3091177Y3327677D2*
X3255441D1*
X3091177Y3324677D2*
X3253389D1*
X3091177Y3321677D2*
X3251038D1*
X3091177Y3318677D2*
X3249175D1*
X3091177Y3315677D2*
X3248006D1*
X3091177Y3312677D2*
X3241177D1*
X3091177Y3309677D2*
X3241177D1*
X3091177Y3306677D2*
X3235177D1*
X3091177Y3303677D2*
X3234485D1*
X3091165Y3300677D2*
X3233299D1*
X3091060Y3297677D2*
X3230611D1*
X3090678Y3294677D2*
X3227704D1*
X3089959Y3291677D2*
X3224797D1*
X3089190Y3288677D2*
X3221977D1*
X3088667Y3285677D2*
X3219139D1*
X3088389Y3282677D2*
X3216251D1*
X3088261Y3279677D2*
X3213864D1*
X3088209Y3276677D2*
X3212194D1*
X3088188Y3273677D2*
X3210593D1*
X3088181Y3270677D2*
X3208427D1*
X3088178Y3267677D2*
X3205828D1*
X1291177Y3264677D2*
X1318177D1*
X3088178D2*
X3203186D1*
X1291177Y3261677D2*
X1319455D1*
X3088177D2*
X3200522D1*
X1081177Y3258677D2*
X1135177D1*
X1222177D2*
X1321328D1*
X3088177D2*
X3197852D1*
X1083153Y3255677D2*
X1135177D1*
X1222177D2*
X1324134D1*
X3088177D2*
X3195087D1*
X1085780Y3252677D2*
X1327744D1*
X3088177D2*
X3192208D1*
X1088983Y3249677D2*
X1331819D1*
X3088177D2*
X3189645D1*
X1092924Y3246677D2*
X1336408D1*
X3088177D2*
X3187426D1*
X1097413Y3243677D2*
X1341089D1*
X3088177D2*
X3185155D1*
X1101482Y3240677D2*
X1344971D1*
X3088177D2*
X3182888D1*
X1104687Y3237677D2*
X1347953D1*
X3088177D2*
X3180758D1*
X1107569Y3234677D2*
X1350692D1*
X3088177D2*
X3178407D1*
X1110810Y3231677D2*
X1353849D1*
X3088177D2*
X3175409D1*
X1114373Y3228677D2*
X1357277D1*
X3088177D2*
X3172044D1*
X1117592Y3225677D2*
X1360074D1*
X3088177D2*
X3169278D1*
X1120428Y3222677D2*
X1361877D1*
X3088177D2*
X3167478D1*
X1123672Y3219677D2*
X1372177D1*
X3088177D2*
X3166048D1*
X1127846Y3216677D2*
X1374153D1*
X3088177D2*
X3164173D1*
X1132280Y3213677D2*
X1376745D1*
X3088177D2*
X3161607D1*
X1136114Y3210677D2*
X1379667D1*
X3088177D2*
X3158712D1*
X1139506Y3207677D2*
X1382788D1*
X3088177D2*
X3155802D1*
X1142940Y3204677D2*
X1386375D1*
X3088177D2*
X3152979D1*
X1146929Y3201677D2*
X1390662D1*
X3088189D2*
X3150140D1*
X1151445Y3198677D2*
X1395218D1*
X3088294D2*
X3147240D1*
X1155698Y3195677D2*
X1399222D1*
X3088677D2*
X3144770D1*
X1159454Y3192677D2*
X1402732D1*
X3089395D2*
X3142917D1*
X1163007Y3189677D2*
X1406134D1*
X3090164D2*
X3141257D1*
X1166349Y3186677D2*
X1409425D1*
X3090688D2*
X3139376D1*
X1169467Y3183677D2*
X1412686D1*
X3090966D2*
X3137062D1*
X1172570Y3180677D2*
X1416225D1*
X3091093D2*
X3134325D1*
X1176212Y3177677D2*
X1420163D1*
X3091146D2*
X3131291D1*
X1180652Y3174677D2*
X1424090D1*
X3091166D2*
X3128208D1*
X1184963Y3171677D2*
X1427522D1*
X3091173D2*
X3125351D1*
X1188411Y3168677D2*
X1430663D1*
X3091176D2*
X3122697D1*
X1191442Y3165677D2*
X1433778D1*
X3091177D2*
X3120372D1*
X1194746Y3162677D2*
X1436970D1*
X3091177D2*
X3118301D1*
X1198237Y3159677D2*
X1440113D1*
X3091177D2*
X3116103D1*
X1201060Y3156677D2*
X1443016D1*
X3091177D2*
X3113868D1*
X1202872Y3153677D2*
X1445876D1*
X3091177D2*
X3111750D1*
X1213177Y3150677D2*
X1448863D1*
X3091177D2*
X3109404D1*
X1215153Y3147677D2*
X1452025D1*
X3091177D2*
X3106408D1*
X1217757Y3144677D2*
X1455370D1*
X3091177D2*
X3103032D1*
X1220749Y3141677D2*
X1459112D1*
X3091177D2*
X3100172D1*
X1223913Y3138677D2*
X1463590D1*
X3091177D2*
X3098117D1*
X1226861Y3135677D2*
X1468174D1*
X3091177D2*
X3096535D1*
X1229325Y3132677D2*
X1472061D1*
X3091177D2*
X3095259D1*
X1230366Y3129677D2*
X1475385D1*
X3091177D2*
X3094177D1*
X1243177Y3126677D2*
X1478552D1*
X1245153Y3123677D2*
X1482209D1*
X1247745Y3120677D2*
X1486652D1*
X1250643Y3117677D2*
X1490964D1*
X1253566Y3114677D2*
X1494411D1*
X1256493Y3111677D2*
X1497443D1*
X1259737Y3108677D2*
X1500781D1*
X1263579Y3105677D2*
X1504611D1*
X1267688Y3102677D2*
X1508771D1*
X1271866Y3099677D2*
X1513380D1*
X1275917Y3096677D2*
X1517968D1*
X1279309Y3093677D2*
X1521974D1*
X1282177Y3090677D2*
X1523769D1*
X1324177Y3087677D2*
X1510177D1*
X1324177Y3084677D2*
X1510177D1*
X1399177Y3081677D2*
X1435177D1*
X3181177Y1572677D2*
X3313177D1*
X3181177Y1569677D2*
X3313177D1*
X3142177Y1566677D2*
X3379177D1*
X3144501Y1563677D2*
X3384271D1*
X3147002Y1560677D2*
X3388472D1*
X3149796Y1557677D2*
X3391927D1*
X3153300Y1554677D2*
X3395064D1*
X3157684Y1551677D2*
X3398274D1*
X3161998Y1548677D2*
X3401456D1*
X3165637Y1545677D2*
X3404495D1*
X3169326Y1542677D2*
X3407468D1*
X3173706Y1539677D2*
X3410729D1*
X3178227Y1536677D2*
X3414553D1*
X3182095Y1533677D2*
X3418476D1*
X3185499Y1530677D2*
X3422107D1*
X1570177Y1527677D2*
X1573177D1*
X3188937D2*
X3425524D1*
X1569690Y1524677D2*
X1573177D1*
X3192928D2*
X3428888D1*
X1568712Y1521677D2*
X1573177D1*
X3197445D2*
X3432319D1*
X1566960Y1518677D2*
X1573177D1*
X3201698D2*
X3436094D1*
X1564221Y1515677D2*
X1573177D1*
X3205454D2*
X3440584D1*
X1560861Y1512677D2*
X1573177D1*
X3209007D2*
X3445172D1*
X1557743Y1509677D2*
X1573177D1*
X3212349D2*
X3449072D1*
X1555158Y1506677D2*
X1573177D1*
X3215443D2*
X3452491D1*
X1552793Y1503677D2*
X1573177D1*
X3218336D2*
X3455934D1*
X1550442Y1500677D2*
X1573177D1*
X3221224D2*
X3459927D1*
X1548267Y1497677D2*
X1573177D1*
X3224333D2*
X3464421D1*
X1546260Y1494677D2*
X1573177D1*
X3227477D2*
X3468487D1*
X1544065Y1491677D2*
X1573177D1*
X3230491D2*
X3471689D1*
X1541652Y1488677D2*
X1573177D1*
X3233353D2*
X3474570D1*
X1538996Y1485677D2*
X1573177D1*
X3236242D2*
X3477810D1*
X1536084Y1482677D2*
X1573177D1*
X3239475D2*
X3481420D1*
X1533369Y1479677D2*
X1573177D1*
X3243199D2*
X3485014D1*
X1531192Y1476677D2*
X1573177D1*
X3247579D2*
X3488957D1*
X1529486Y1473677D2*
X1573177D1*
X3252159D2*
X3493547D1*
X1527852Y1470677D2*
X1573177D1*
X3255997D2*
X3497923D1*
X1525783Y1467677D2*
X1573177D1*
X3258974D2*
X3501396D1*
X1523198Y1464677D2*
X1573177D1*
X3261812D2*
X3504437D1*
X1520238Y1461677D2*
X1573189D1*
X3265373D2*
X3507756D1*
X1517187Y1458677D2*
X1573294D1*
X3269729D2*
X3511353D1*
X1514320Y1455677D2*
X1573677D1*
X3274063D2*
X3514573D1*
X1511484Y1452677D2*
X1574395D1*
X3277924D2*
X3517320D1*
X1508606Y1449677D2*
X1575164D1*
X3281450D2*
X3520289D1*
X1505864Y1446677D2*
X1575688D1*
X3284836D2*
X3524127D1*
X1503565Y1443677D2*
X1575966D1*
X3288062D2*
X3528510D1*
X1501821Y1440677D2*
X1576093D1*
X3290997D2*
X3532579D1*
X1500194Y1437677D2*
X1576146D1*
X3293870D2*
X3536122D1*
X1498150Y1434677D2*
X1576166D1*
X3296861D2*
X3539430D1*
X1495291Y1431677D2*
X1576173D1*
X3300012D2*
X3543158D1*
X1491863Y1428677D2*
X1576176D1*
X3303265D2*
X3547656D1*
X1488541Y1425677D2*
X1576177D1*
X3306730D2*
X3552167D1*
X1485396Y1422677D2*
X1576177D1*
X3310872D2*
X3556173D1*
X1482357Y1419677D2*
X1576177D1*
X3315405D2*
X3559879D1*
X1479916Y1416677D2*
X1576177D1*
X3319538D2*
X3563296D1*
X1478314Y1413677D2*
X1576177D1*
X3323084D2*
X3566435D1*
X1476981Y1410677D2*
X1576177D1*
X3326190D2*
X3569446D1*
X1475147Y1407677D2*
X1576177D1*
X3329146D2*
X3572721D1*
X1472597Y1404677D2*
X1576177D1*
X3332080D2*
X3576550D1*
X1469709Y1401677D2*
X1576177D1*
X3334478D2*
X3466177D1*
X3484177D2*
X3487177D1*
X3505177D2*
X3580457D1*
X1466824Y1398677D2*
X1576177D1*
X3336041D2*
X3466177D1*
X3484177D2*
X3487177D1*
X3505177D2*
X3583923D1*
X1464213Y1395677D2*
X1576177D1*
X3346177D2*
X3397177D1*
X3574177D2*
X3586771D1*
X1462116Y1392677D2*
X1576177D1*
X3346177D2*
X3397177D1*
X3574177D2*
X3589177D1*
X1460453Y1389677D2*
X1576177D1*
X1458839Y1386677D2*
X1576165D1*
X1456778Y1383677D2*
X1576060D1*
X1454196Y1380677D2*
X1575678D1*
X1451238Y1377677D2*
X1574959D1*
X1448164Y1374677D2*
X1574190D1*
X1445109Y1371677D2*
X1573667D1*
X1441719Y1368677D2*
X1573389D1*
X1438169Y1365677D2*
X1573261D1*
X1435325Y1362677D2*
X1573209D1*
X1433495Y1359677D2*
X1573188D1*
X1432054Y1356677D2*
X1573181D1*
X1430186Y1353677D2*
X1573178D1*
X1427724Y1350677D2*
X1573178D1*
X1425200Y1347677D2*
X1573177D1*
X1422902Y1344677D2*
X1573177D1*
X1420467Y1341677D2*
X1573177D1*
X1417433Y1338677D2*
X1573177D1*
X1414053Y1335677D2*
X1573177D1*
X1411281Y1332677D2*
X1573177D1*
X1409479Y1329677D2*
X1573177D1*
X1408049Y1326677D2*
X1573177D1*
X1406173Y1323677D2*
X1573177D1*
X1403607Y1320677D2*
X1573177D1*
X1400724Y1317677D2*
X1573177D1*
X1397966Y1314677D2*
X1573177D1*
X1395786Y1311677D2*
X1573177D1*
X1394178Y1308677D2*
X1573154D1*
X1395725Y1305677D2*
X1572943D1*
X1397227Y1302677D2*
X1572451D1*
X1398235Y1299677D2*
X1570809D1*
X1398770Y1296677D2*
X1569220D1*
X1399015Y1293677D2*
X1568161D1*
X1399116Y1290677D2*
X1567601D1*
X1399155Y1287677D2*
X1567346D1*
X1399170Y1284677D2*
X1567229D1*
X1399175Y1281677D2*
X1567059D1*
X1399176Y1278677D2*
X1566724D1*
X1399177Y1275677D2*
X1565007D1*
X1399177Y1272677D2*
X1562537D1*
X1399177Y1269677D2*
X1559686D1*
X1399177Y1266677D2*
X1556816D1*
X1399177Y1263677D2*
X1554210D1*
X3568177D2*
X3676177D1*
X1399177Y1260677D2*
X1552115D1*
X3568177D2*
X3676177D1*
X1399177Y1257677D2*
X1550453D1*
X3514177D2*
X3742177D1*
X1399177Y1254677D2*
X1548839D1*
X3517434D2*
X3752526D1*
X1399177Y1251677D2*
X1546778D1*
X3520147D2*
X3759429D1*
X1399177Y1248677D2*
X1544196D1*
X3522877D2*
X3764559D1*
X1399201Y1245677D2*
X1541238D1*
X3526396D2*
X3769400D1*
X1399412Y1242677D2*
X1538187D1*
X3530737D2*
X3774115D1*
X1399904Y1239677D2*
X1535343D1*
X3535054D2*
X3777988D1*
X1401545Y1236677D2*
X1532706D1*
X3538820D2*
X3780961D1*
X1403135Y1233677D2*
X1530488D1*
X3542068D2*
X3783695D1*
X1404194Y1230677D2*
X1528788D1*
X3545118D2*
X3786886D1*
X1404753Y1227677D2*
X1527181D1*
X3548328D2*
X3790651D1*
X1405009Y1224677D2*
X1525145D1*
X3551802D2*
X3794786D1*
X1405114Y1221677D2*
X1522290D1*
X3555867D2*
X3799397D1*
X1405155Y1218677D2*
X1518886D1*
X3560506D2*
X3804086D1*
X1405169Y1215677D2*
X1515752D1*
X3564961D2*
X3807969D1*
X1405175Y1212677D2*
X1513161D1*
X3568785D2*
X3810952D1*
X1405176Y1209677D2*
X1510794D1*
X3572056D2*
X3813692D1*
X1405177Y1206677D2*
X1508443D1*
X3575102D2*
X3816849D1*
X1405177Y1203677D2*
X1506267D1*
X3578175D2*
X3820277D1*
X1405177Y1200677D2*
X1504260D1*
X3580998D2*
X3823074D1*
X1405177Y1197677D2*
X1502065D1*
X3583608D2*
X3824877D1*
X1405177Y1194677D2*
X1499652D1*
X3586745D2*
X3835177D1*
X1405177Y1191677D2*
X1496984D1*
X3590874D2*
X3837153D1*
X1405177Y1188677D2*
X1493966D1*
X3595290D2*
X3839745D1*
X1405177Y1185677D2*
X1490858D1*
X3599117D2*
X3842667D1*
X1405177Y1182677D2*
X1487880D1*
X3602507D2*
X3845788D1*
X1405177Y1179677D2*
X1485234D1*
X3605940D2*
X3849375D1*
X1405177Y1176677D2*
X1483123D1*
X3609929D2*
X3853662D1*
X1405177Y1173677D2*
X1481444D1*
X3614445D2*
X3858218D1*
X1405177Y1170677D2*
X1479746D1*
X3618698D2*
X3862222D1*
X1405177Y1167677D2*
X1477502D1*
X3622454D2*
X3865732D1*
X1405177Y1164677D2*
X1474860D1*
X3626007D2*
X3869134D1*
X1405177Y1161677D2*
X1472187D1*
X3629349D2*
X3872425D1*
X1405177Y1158677D2*
X1469433D1*
X3632467D2*
X3875686D1*
X1405177Y1155677D2*
X1466588D1*
X3635570D2*
X3879225D1*
X1405177Y1152677D2*
X1463857D1*
X3639212D2*
X3883163D1*
X1405177Y1149677D2*
X1461563D1*
X3643652D2*
X3887090D1*
X1258177Y1146677D2*
D3*
X1405177D2*
X1459821D1*
X3647963D2*
X3890522D1*
X1256103Y1143677D2*
X1258177D1*
X1405177D2*
X1458194D1*
X3651411D2*
X3893663D1*
X1254106Y1140677D2*
X1258177D1*
X1405177D2*
X1456149D1*
X3654442D2*
X3896778D1*
X1252192Y1137677D2*
X1259104D1*
X1405177D2*
X1453291D1*
X3657746D2*
X3899946D1*
X1250062Y1134677D2*
X1260592D1*
X1405177D2*
X1449886D1*
X3661237D2*
X3902879D1*
X1247853Y1131677D2*
X1262145D1*
X1405177D2*
X1446752D1*
X3664060D2*
X3905331D1*
X1245745Y1128677D2*
X1263196D1*
X1405154D2*
X1444161D1*
X3665872D2*
X3906369D1*
X1243402Y1125677D2*
X1263754D1*
X1404943D2*
X1441794D1*
X3676177D2*
X3919177D1*
X1240396Y1122677D2*
X1264009D1*
X1404451D2*
X1439443D1*
X3678153D2*
X3921153D1*
X1236927Y1119677D2*
X1264114D1*
X1402809D2*
X1437255D1*
X3680757D2*
X3923780D1*
X1233790Y1116677D2*
X1264155D1*
X1401220D2*
X1435155D1*
X3683749D2*
X3926983D1*
X1231377Y1113677D2*
X1264169D1*
X1400161D2*
X1432683D1*
X3686913D2*
X3930924D1*
X1229561Y1110677D2*
X1264175D1*
X1399601D2*
X1429933D1*
X3689861D2*
X3935413D1*
X1227880Y1107677D2*
X1264176D1*
X1399346D2*
X1427226D1*
X3692325D2*
X3939482D1*
X1225794Y1104677D2*
X1264177D1*
X1399240D2*
X1424537D1*
X3693366D2*
X3942687D1*
X1223201Y1101677D2*
X1264177D1*
X1399200D2*
X1421857D1*
X3706177D2*
X3945569D1*
X1220239Y1098677D2*
X1264177D1*
X1399185D2*
X1419089D1*
X3708153D2*
X3948810D1*
X1217188Y1095677D2*
X1264177D1*
X1399180D2*
X1416232D1*
X3710745D2*
X3952373D1*
X1214343Y1092677D2*
X1264177D1*
X1399178D2*
X1413856D1*
X3713643D2*
X3955548D1*
X1211706Y1089677D2*
X1264177D1*
X1399177D2*
X1412191D1*
X3716541D2*
X3957981D1*
X1209488Y1086677D2*
X1264177D1*
X1399177D2*
X1410593D1*
X3719249D2*
X3805177D1*
X3922177D2*
X3959757D1*
X1207788Y1083677D2*
X1264177D1*
X1399177D2*
X1408447D1*
X3721733D2*
X3805177D1*
X3922177D2*
X3961177D1*
X1206181Y1080677D2*
X1264189D1*
X1399177D2*
X1406018D1*
X3724177D2*
X3730177D1*
X1204145Y1077677D2*
X1264294D1*
X1399177D2*
X1403937D1*
X1201290Y1074677D2*
X1264677D1*
X1399177D2*
X1402177D1*
X1197886Y1071677D2*
X1265395D1*
X1194775Y1068677D2*
X1266164D1*
X1192395Y1065677D2*
X1266688D1*
X1190783Y1062677D2*
X1266966D1*
X1189833Y1059677D2*
X1267093D1*
X1183177Y1056677D2*
X1267146D1*
X1182238Y1053677D2*
X1267166D1*
X1180622Y1050677D2*
X1267173D1*
X1178475Y1047677D2*
X1267176D1*
X1175918Y1044677D2*
X1267177D1*
X1172943Y1041677D2*
X1267177D1*
X1169850Y1038677D2*
X1267177D1*
X1166878Y1035677D2*
X1267177D1*
X1164233Y1032677D2*
X1267177D1*
X1162122Y1029677D2*
X1267177D1*
X1160443Y1026677D2*
X1267177D1*
X1158746Y1023677D2*
X1267177D1*
X1156502Y1020677D2*
X1267165D1*
X1153860Y1017677D2*
X1267060D1*
X1151187Y1014677D2*
X1266678D1*
X1148433Y1011677D2*
X1265959D1*
X1145588Y1008677D2*
X1265190D1*
X1142857Y1005677D2*
X1264667D1*
X1140563Y1002677D2*
X1264389D1*
X1138821Y999677D2*
X1264261D1*
X1137194Y996677D2*
X1264209D1*
X1135149Y993677D2*
X1264188D1*
X1132291Y990677D2*
X1264181D1*
X1128886Y987677D2*
X1264178D1*
X1125775Y984677D2*
X1264178D1*
X1123395Y981677D2*
X1264177D1*
X1121783Y978677D2*
X1264177D1*
X1120833Y975677D2*
X1264177D1*
X1114177Y972677D2*
X1264177D1*
X1113427Y969677D2*
X1264177D1*
X1111336Y966677D2*
X1264177D1*
X1109008Y963677D2*
X1264177D1*
X1107163Y960677D2*
X1264177D1*
X1106002Y957677D2*
X1264177D1*
X1099177Y954677D2*
X1264177D1*
X3976177D2*
X4027177D1*
X1098128Y951677D2*
X1264154D1*
X3976177D2*
X4027177D1*
X1097024Y948677D2*
X1263943D1*
X3907177D2*
X4093177D1*
X1095668Y945677D2*
X1263451D1*
X3892177D2*
X4138177D1*
X1093726Y942677D2*
X1261809D1*
X3892177D2*
X4140366D1*
X1091290Y939677D2*
X1260220D1*
X3901177D2*
X4142747D1*
X1088753Y936677D2*
X1259161D1*
X3903692D2*
X4145368D1*
X1086637Y933677D2*
X1258601D1*
X3906222D2*
X4148164D1*
X1085329Y930677D2*
X1258346D1*
X3908148D2*
X4150508D1*
X1084664Y927677D2*
X1258240D1*
X3909339D2*
X4152051D1*
X1084368Y924677D2*
X1258200D1*
X3914982D2*
X4162177D1*
X1084248Y921677D2*
X1258185D1*
X3919655D2*
X4165167D1*
X1084202Y918677D2*
X1258180D1*
X3924375D2*
X4168570D1*
X1084186Y915677D2*
X1258178D1*
X3928644D2*
X4171854D1*
X1084180Y912677D2*
X1258166D1*
X3932448D2*
X4174975D1*
X1084178Y909677D2*
X1258060D1*
X3935679D2*
X4178005D1*
X1084177Y906677D2*
X1257678D1*
X3938287D2*
X4180448D1*
X1084177Y903677D2*
X1256936D1*
X3939351D2*
X4182031D1*
X1090177Y900677D2*
X1255956D1*
X3944982D2*
X4189177D1*
X1090177Y897677D2*
X1254644D1*
X3949644D2*
X4190226D1*
X1090177Y894677D2*
X1252718D1*
X3954246D2*
X4191330D1*
X1090177Y891677D2*
X1250276D1*
X3958050D2*
X4192675D1*
X1090177Y888677D2*
X1247611D1*
X3960988D2*
X4194535D1*
X1090177Y885677D2*
X1244903D1*
X3963706D2*
X4196799D1*
X1090177Y882677D2*
X1242111D1*
X3966855D2*
X4199383D1*
X1090177Y879677D2*
X1239240D1*
X3970279D2*
X4202166D1*
X457177Y876677D2*
X463177D1*
X1090177D2*
X1236865D1*
X3973075D2*
X4204513D1*
X457177Y873677D2*
X463177D1*
X1090177D2*
X1235309D1*
X3974877D2*
X4206168D1*
X451177Y870677D2*
X469177D1*
X1090177D2*
X1228177D1*
X3985177D2*
X4207764D1*
X450714Y867677D2*
X471715D1*
X1090177D2*
X1227690D1*
X3987715D2*
X4209905D1*
X449970Y864677D2*
X474468D1*
X1090177D2*
X1226712D1*
X3990491D2*
X4212293D1*
X449193Y861677D2*
X477252D1*
X1090177D2*
X1224960D1*
X3993486D2*
X4214158D1*
X448665Y858677D2*
X480184D1*
X1090177D2*
X1222221D1*
X3997183D2*
X4215259D1*
X448371Y855677D2*
X482986D1*
X1090177D2*
X1218861D1*
X4001423D2*
X4215824D1*
X442177Y852677D2*
X485050D1*
X1090177D2*
X1215767D1*
X4005040D2*
X4090177D1*
X4165177D2*
X4222177D1*
X442177Y849677D2*
X486303D1*
X1090177D2*
X1213369D1*
X4007431D2*
X4090177D1*
X4165177D2*
X4222177D1*
X436177Y846677D2*
X493177D1*
X1090177D2*
X1211558D1*
X4015177D2*
X4045177D1*
X4216177D2*
X4228177D1*
X435714Y843677D2*
X495715D1*
X1090177D2*
X1209891D1*
X4015177D2*
X4045177D1*
X4216177D2*
X4228177D1*
X434970Y840677D2*
X498456D1*
X1090177D2*
X1207922D1*
X434170Y837677D2*
X501158D1*
X1090201D2*
X1205795D1*
X433433Y834677D2*
X503954D1*
X1090412D2*
X1203722D1*
X432390Y831677D2*
X507117D1*
X1090904D2*
X1201394D1*
X430814Y828677D2*
X511007D1*
X1092545D2*
X1198393D1*
X429117Y825677D2*
X515598D1*
X1094135D2*
X1194926D1*
X427668Y822677D2*
X520323D1*
X1095194D2*
X1191790D1*
X426386Y819677D2*
X525162D1*
X1095753D2*
X1189377D1*
X425360Y816677D2*
X530096D1*
X1096009D2*
X1187561D1*
X424707Y813677D2*
X534359D1*
X1096114D2*
X1185880D1*
X424159Y810677D2*
X537642D1*
X1096155D2*
X1183794D1*
X423438Y807677D2*
X540553D1*
X1096169D2*
X1181201D1*
X421066Y804677D2*
X543804D1*
X1096175D2*
X1178263D1*
X418177Y801677D2*
X547372D1*
X1096176D2*
X1175421D1*
X421446Y798677D2*
X550603D1*
X1096177D2*
X1173329D1*
X424252Y795677D2*
X553556D1*
X1096177D2*
X1172061D1*
X427259Y792677D2*
X557289D1*
X1096177D2*
X1165177D1*
X431091Y789677D2*
X562540D1*
X1096177D2*
X1165177D1*
X435273Y786677D2*
X568250D1*
X1096177D2*
X1159177D1*
X439050Y783677D2*
X573250D1*
X1096177D2*
X1158690D1*
X440800Y780677D2*
X575510D1*
X1096177D2*
X1157724D1*
X451177Y777677D2*
X575873D1*
X1096177D2*
X1156077D1*
X451177Y774677D2*
X574537D1*
X1096177D2*
X1153732D1*
X462605Y771677D2*
X572999D1*
X1096177D2*
X1151196D1*
X472166Y768677D2*
X571623D1*
X949177D2*
D3*
X1090177D2*
X1149240D1*
X480689Y765677D2*
X570370D1*
X946187D2*
X949177D1*
X1090177D2*
X1148030D1*
X488802Y762677D2*
X569354D1*
X942808D2*
X949177D1*
X1090177D2*
X1141177D1*
X495825Y759677D2*
X568726D1*
X939735D2*
X949177D1*
X1090177D2*
X1141177D1*
X502437Y756677D2*
X568391D1*
X937355D2*
X949177D1*
X1090177D2*
X1141177D1*
X520177Y753677D2*
X562177D1*
X935552D2*
X949177D1*
X1090177D2*
X1135177D1*
X520177Y750677D2*
X562177D1*
X933877D2*
X949177D1*
X1090177D2*
X1133201D1*
X544177Y747677D2*
X562177D1*
X931804D2*
X949177D1*
X1090177D2*
X1130610D1*
X929307Y744677D2*
X949177D1*
X1090177D2*
X1127711D1*
X926622Y741677D2*
X949177D1*
X1090177D2*
X1124824D1*
X923906Y738677D2*
X949177D1*
X1090177D2*
X1122213D1*
X921113Y735677D2*
X949177D1*
X1090177D2*
X1120139D1*
X918240Y732677D2*
X949177D1*
X1090177D2*
X1118687D1*
X4138177D2*
D3*
X915865Y729677D2*
X949177D1*
X1090177D2*
X1117859D1*
X4108177D2*
X4174177D1*
X914309Y726677D2*
X949177D1*
X1090177D2*
X1117439D1*
X4108177D2*
X4174177D1*
X907177Y723677D2*
X955177D1*
X1090177D2*
X1111177D1*
X4108177D2*
X4192177D1*
X906690Y720677D2*
X955177D1*
X1090177D2*
X1108639D1*
X4108177D2*
X4192177D1*
X905724Y717677D2*
X955177D1*
X1090177D2*
X1105887D1*
X4108189D2*
X4202670D1*
X904077Y714677D2*
X955177D1*
X1090177D2*
X1103102D1*
X4108294D2*
X4211511D1*
X901732Y711677D2*
X955177D1*
X1090177D2*
X1100170D1*
X4108677D2*
X4219421D1*
X899196Y708677D2*
X955177D1*
X1090177D2*
X1097369D1*
X4109395D2*
X4226504D1*
X897240Y705677D2*
X955177D1*
X1090177D2*
X1095294D1*
X4110164D2*
X4232498D1*
X896030Y702677D2*
X955177D1*
X1090177D2*
X1093892D1*
X4110688D2*
X4235120D1*
X889177Y699677D2*
X955177D1*
X1084177D2*
X1092396D1*
X4110966D2*
X4243810D1*
X888238Y696677D2*
X955177D1*
X1084177D2*
X1090091D1*
X4111081D2*
X4249108D1*
X886645Y693677D2*
X955177D1*
X1084177D2*
X1087177D1*
X4111028D2*
X4253926D1*
X884686Y690677D2*
X955177D1*
X4110666D2*
X4257999D1*
X882682Y687677D2*
X955177D1*
X4109955D2*
X4259624D1*
X880380Y684677D2*
X955177D1*
X4109189D2*
X4260511D1*
X877388Y681677D2*
X955177D1*
X4108666D2*
X4260915D1*
X873924Y678677D2*
X955177D1*
X4108388D2*
X4261080D1*
X870789Y675677D2*
X955177D1*
X4108261D2*
X4261143D1*
X868377Y672677D2*
X955189D1*
X4108209D2*
X4261165D1*
X866560Y669677D2*
X955294D1*
X4108188D2*
X4261173D1*
X864880Y666677D2*
X955665D1*
X4108158D2*
X4261176D1*
X862793Y663677D2*
X956278D1*
X4107944D2*
X4261177D1*
X550177Y660677D2*
X556177D1*
X860201D2*
X956665D1*
X4107451D2*
X4261177D1*
X550177Y657677D2*
X558228D1*
X857263D2*
X956470D1*
X4105809D2*
X4261177D1*
X540094Y654677D2*
X560014D1*
X854421D2*
X955979D1*
X4104220D2*
X4261177D1*
X532307Y651677D2*
X561152D1*
X852329D2*
X955583D1*
X4103156D2*
X4261177D1*
X525165Y648677D2*
X561739D1*
X851061D2*
X955357D1*
X4102565D2*
X4261177D1*
X505177Y645677D2*
X562004D1*
X844177D2*
X955250D1*
X4109302D2*
X4261177D1*
X505177Y642677D2*
X562116D1*
X844201D2*
X955205D1*
X4116745D2*
X4261177D1*
X481552Y639677D2*
X568177D1*
X844412D2*
X955187D1*
X4124661D2*
X4255177D1*
X409177Y636677D2*
D3*
X457177D2*
X568641D1*
X844904D2*
X955181D1*
X4131455D2*
X4255177D1*
X409177Y633677D2*
D3*
X457177D2*
X569385D1*
X846545D2*
X955178D1*
X4136422D2*
X4255165D1*
X409177Y630677D2*
X570161D1*
X848135D2*
X955178D1*
X4140713D2*
X4255060D1*
X409189Y627677D2*
X570689D1*
X849194D2*
X955177D1*
X4145797D2*
X4254678D1*
X409294Y624677D2*
X570984D1*
X849753D2*
X955177D1*
X4151759D2*
X4253959D1*
X409677Y621677D2*
X577177D1*
X850009D2*
X955177D1*
X4157469D2*
X4253190D1*
X410395Y618677D2*
X576238D1*
X850114D2*
X955177D1*
X4162756D2*
X4252667D1*
X411164Y615677D2*
X574645D1*
X850155D2*
X955177D1*
X4168036D2*
X4252389D1*
X411711Y612677D2*
X572663D1*
X850181D2*
X955177D1*
X4172722D2*
X4252238D1*
X412200Y609677D2*
X570460D1*
X850292D2*
X955177D1*
X4176321D2*
X4251974D1*
X413092Y606677D2*
X567498D1*
X850676D2*
X955177D1*
X4179411D2*
X4251189D1*
X414582Y603677D2*
X563464D1*
X851383D2*
X955177D1*
X4182747D2*
X4249733D1*
X416140Y600677D2*
X559284D1*
X852047D2*
X955177D1*
X4186350D2*
X4248087D1*
X417194Y597677D2*
X555763D1*
X852200D2*
X955177D1*
X4189560D2*
X4246657D1*
X417753Y594677D2*
X554305D1*
X851865D2*
X955177D1*
X4192190D2*
X4245382D1*
X418009Y591677D2*
X547177D1*
X851605D2*
X949177D1*
X4194672D2*
X4244358D1*
X418118Y588677D2*
X544662D1*
X851853D2*
X949177D1*
X4197410D2*
X4243706D1*
X424177Y585677D2*
X542132D1*
X852364D2*
X949177D1*
X4200305D2*
X4243177D1*
X424189Y582677D2*
X540206D1*
X852768D2*
X949177D1*
X4203093D2*
X4242270D1*
X424294Y579677D2*
X539015D1*
X852996D2*
X949177D1*
X4205905D2*
X4240775D1*
X424677Y576677D2*
X529177D1*
X853104D2*
X949177D1*
X3877177D2*
X3883177D1*
X4208873D2*
X4239215D1*
X425395Y573677D2*
X525688D1*
X853149D2*
X949177D1*
X3877177D2*
X3886619D1*
X4211981D2*
X4238156D1*
X426165Y570677D2*
X521214D1*
X853167D2*
X949177D1*
X3877177D2*
X3890638D1*
X4033177D2*
X4045177D1*
X4214915D2*
X4237565D1*
X426690Y567677D2*
X515901D1*
X853174D2*
X949177D1*
X3871177D2*
X3894133D1*
X4027061D2*
X4048639D1*
X4217232D2*
X4231177D1*
X426984Y564677D2*
X509716D1*
X853176D2*
X949177D1*
X3870128D2*
X3896465D1*
X4020322D2*
X4051898D1*
X4219199D2*
X4230711D1*
X433177Y561677D2*
X503380D1*
X853177D2*
X949177D1*
X3869024D2*
X3913177D1*
X4013088D2*
X4055196D1*
X4221265D2*
X4229942D1*
X433664Y558677D2*
X497762D1*
X652177D2*
X664177D1*
X853177D2*
X949177D1*
X3867668D2*
X3913177D1*
X4007097D2*
X4058423D1*
X4223308D2*
X4229042D1*
X434637Y555677D2*
X495196D1*
X651152D2*
X664177D1*
X853177D2*
X949177D1*
X3865726D2*
X3913177D1*
X4002740D2*
X4061471D1*
X4225177D2*
X4228177D1*
X436349Y552677D2*
X478177D1*
X650259D2*
X733177D1*
X853177D2*
X949177D1*
X3863290D2*
X3913177D1*
X4001482D2*
X4064346D1*
X438971Y549677D2*
X478177D1*
X649688D2*
X733177D1*
X853177D2*
X949177D1*
X3860741D2*
X3913177D1*
X4001789D2*
X4067204D1*
X442177Y546677D2*
X463177D1*
X649378D2*
X733177D1*
X853177D2*
X949177D1*
X3858520D2*
X3913177D1*
X4002327D2*
X4070100D1*
X643177Y543677D2*
X733177D1*
X853177D2*
X949177D1*
X3856829D2*
X3913177D1*
X4002749D2*
X4072490D1*
X643154Y540677D2*
X733177D1*
X853177D2*
X949177D1*
X3855446D2*
X3913177D1*
X4002987D2*
X4074160D1*
X642943Y537677D2*
X733177D1*
X853177D2*
X949177D1*
X3854373D2*
X3913177D1*
X4003101D2*
X4075761D1*
X642451Y534677D2*
X733177D1*
X853177D2*
X949165D1*
X3853680D2*
X3913177D1*
X4003150D2*
X4077904D1*
X640809Y531677D2*
X733177D1*
X853177D2*
X949060D1*
X3847177D2*
X3907177D1*
X4009177D2*
X4080292D1*
X639208Y528677D2*
X733177D1*
X853177D2*
X948654D1*
X3846238D2*
X3907177D1*
X4010104D2*
X4082181D1*
X638020Y525677D2*
X733177D1*
X853177D2*
X947701D1*
X3844622D2*
X3907177D1*
X4011592D2*
X4083502D1*
X636867Y522677D2*
X733177D1*
X853177D2*
X945957D1*
X3842475D2*
X3907177D1*
X4013145D2*
X4084911D1*
X635129Y519677D2*
X733177D1*
X853177D2*
X943232D1*
X3839929D2*
X3907165D1*
X4014208D2*
X4086965D1*
X632805Y516677D2*
X733177D1*
X853177D2*
X939966D1*
X3837037D2*
X3907060D1*
X4014871D2*
X4089339D1*
X630598Y513677D2*
X733177D1*
X853177D2*
X937149D1*
X3834127D2*
X3906678D1*
X4015508D2*
X4091400D1*
X628853Y510677D2*
X733165D1*
X853177D2*
X935088D1*
X3831190D2*
X3905959D1*
X4016332D2*
X4093257D1*
X627234Y507677D2*
X733060D1*
X853177D2*
X933327D1*
X3828049D2*
X3905190D1*
X4017142D2*
X4095231D1*
X625392Y504677D2*
X732678D1*
X853177D2*
X931403D1*
X3824889D2*
X3904643D1*
X4017680D2*
X4097027D1*
X623305Y501677D2*
X731959D1*
X853177D2*
X929071D1*
X3821891D2*
X3904154D1*
X4017963D2*
X4098378D1*
X621440Y498677D2*
X731190D1*
X853177D2*
X926329D1*
X3819237D2*
X3903262D1*
X4018092D2*
X4099734D1*
X620245Y495677D2*
X730667D1*
X853177D2*
X923315D1*
X3817147D2*
X3901773D1*
X4018145D2*
X4101438D1*
X619596Y492677D2*
X730389D1*
X853177D2*
X920442D1*
X3815690D2*
X3900214D1*
X4018166D2*
X4103086D1*
X613177Y489677D2*
X730261D1*
X853177D2*
X918337D1*
X3814860D2*
X3899160D1*
X4024177D2*
X4104187D1*
X611900Y486677D2*
X730185D1*
X853177D2*
X917063D1*
X3814439D2*
X3898601D1*
X4024177D2*
X4104864D1*
X610027Y483677D2*
X729954D1*
X853177D2*
X910177D1*
X3808177D2*
X3898345D1*
X4024177D2*
X4105506D1*
X607244Y480677D2*
X729452D1*
X853177D2*
X907639D1*
X3805639D2*
X3898237D1*
X4024177D2*
X4106331D1*
X603869Y477677D2*
X727810D1*
X853177D2*
X904898D1*
X3802898D2*
X3892177D1*
X4024177D2*
X4107142D1*
X600746Y474677D2*
X726220D1*
X853177D2*
X902208D1*
X3800196D2*
X3891714D1*
X4024201D2*
X4107703D1*
X598159Y471677D2*
X725161D1*
X853165D2*
X899505D1*
X3797423D2*
X3890970D1*
X4024412D2*
X4108198D1*
X595793Y468677D2*
X724601D1*
X853060D2*
X896619D1*
X3794471D2*
X3890193D1*
X4024904D2*
X4109091D1*
X593442Y465677D2*
X724345D1*
X852678D2*
X893077D1*
X3791381D2*
X3889668D1*
X4026545D2*
X4110581D1*
X591231Y462677D2*
X724237D1*
X851959D2*
X888655D1*
X3788603D2*
X3889389D1*
X4028135D2*
X4112140D1*
X588921Y459677D2*
X718177D1*
X851190D2*
X884171D1*
X3786481D2*
X3889261D1*
X4029194D2*
X4113194D1*
X585696Y456677D2*
X718165D1*
X850667D2*
X880199D1*
X3786062D2*
X3889207D1*
X4029753D2*
X4113753D1*
X581615Y453677D2*
X718060D1*
X850389D2*
X876707D1*
X3788574D2*
X3883177D1*
X4030009D2*
X4114008D1*
X577716Y450677D2*
X717678D1*
X850261D2*
X874049D1*
X3790702D2*
X3882714D1*
X4030114D2*
X4114137D1*
X574394Y447677D2*
X716959D1*
X850209D2*
X872375D1*
X3792126D2*
X3881970D1*
X4030155D2*
X4114407D1*
X570885Y444677D2*
X716190D1*
X850188D2*
X862177D1*
X3802177D2*
X3881193D1*
X4030169D2*
X4114970D1*
X566613Y441677D2*
X715664D1*
X850181D2*
X859365D1*
X3805619D2*
X3880665D1*
X4030175D2*
X4117310D1*
X562339Y438677D2*
X715371D1*
X850177D2*
X856177D1*
X3809638D2*
X3880371D1*
X4030176D2*
X4120177D1*
X558772Y435677D2*
X709177D1*
X3813133D2*
X3874177D1*
X4030177D2*
X4114268D1*
X557309Y432677D2*
X709177D1*
X3815465D2*
X3872114D1*
X4030177D2*
X4109470D1*
X562857Y429677D2*
X709177D1*
X3825685D2*
X3870223D1*
X4030177D2*
X4100263D1*
X568590Y426677D2*
X709177D1*
X3832075D2*
X3868701D1*
X4030177D2*
X4095215D1*
X574141Y423677D2*
X703177D1*
X3838043D2*
X3867368D1*
X4030177D2*
X4090001D1*
X579071Y420677D2*
X702714D1*
X3842995D2*
X3866200D1*
X4030177D2*
X4085807D1*
X581365Y417677D2*
X701970D1*
X3847177D2*
X3865177D1*
X4030177D2*
X4083115D1*
X598177Y414677D2*
X701193D1*
X4030177D2*
X4066177D1*
X598177Y411677D2*
X700665D1*
X4030177D2*
X4066177D1*
X613177Y408677D2*
X700371D1*
X4030177D2*
X4051177D1*
X628177Y405677D2*
X694177D1*
X4030177D2*
X4036177D1*
X628177Y402677D2*
X694177D1*
X4030177D2*
X4036177D1*
X658177Y399677D2*
X694177D1*
X3976177Y4257677D2*
X3972480Y4254677D1*
X3969258Y4251677D1*
X3966727Y4248677D1*
X3964907Y4245677D1*
X3963451Y4242677D1*
X3962156Y4239677D1*
X3960742Y4236677D1*
X3958979Y4233677D1*
X3957272Y4230677D1*
X3955956Y4227677D1*
X3954613Y4224677D1*
X3952902Y4221677D1*
X3951150Y4218677D1*
X3949680Y4215677D1*
X3948390Y4212677D1*
X3947361Y4209677D1*
X3946707Y4206677D1*
X3946177Y4203677D1*
X3945270Y4200677D1*
X3943775Y4197677D1*
X3942215Y4194677D1*
X3941149Y4191677D1*
X3940484Y4188677D1*
X3939846Y4185677D1*
X3939022Y4182677D1*
X3938213Y4179677D1*
X3937675Y4176677D1*
X3937391Y4173677D1*
X3937262Y4170677D1*
X3937209Y4167677D1*
X3937188Y4164677D1*
X3937177Y4161677D1*
X3931177D1*
Y4158677D1*
Y4155677D1*
Y4152677D1*
Y4149677D1*
Y4146677D1*
Y4143677D1*
Y4140677D1*
Y4137677D1*
Y4134677D1*
Y4131677D1*
Y4128677D1*
Y4125677D1*
Y4122677D1*
Y4119677D1*
Y4116677D1*
Y4113677D1*
Y4110677D1*
Y4107677D1*
Y4104677D1*
Y4101677D1*
X3997177Y4257677D2*
X4027177Y4254677D1*
Y4251677D1*
X4043771Y4248677D1*
X4060177Y4245677D1*
Y4242677D1*
Y4239677D1*
X4070513D1*
X4077543Y4236677D1*
X4083734Y4233677D1*
X4088995Y4230677D1*
X4091335Y4227677D1*
X4093177Y4224677D1*
X4105177D1*
Y4221677D1*
Y4218677D1*
Y4215677D1*
X4100372D1*
X4095711Y4212677D1*
X4091108Y4209677D1*
X4087304Y4206677D1*
X4084366Y4203677D1*
X4081648Y4200677D1*
X4078488Y4197677D1*
X4074959Y4194677D1*
X4071778Y4191677D1*
X4069147Y4188677D1*
X4066563Y4185677D1*
X4063456Y4182677D1*
X4059948Y4179677D1*
X4056774Y4176677D1*
X4054169Y4173677D1*
X4051797Y4170677D1*
X4049455Y4167677D1*
X4047361Y4164677D1*
X4045537Y4161677D1*
X4043425Y4158677D1*
X4040937Y4155677D1*
X4038737Y4152677D1*
X4037146Y4149677D1*
X4035576Y4146677D1*
X4033444Y4143677D1*
X4031060Y4140677D1*
X4029196Y4137677D1*
X4028099Y4134677D1*
X4027559Y4131677D1*
X4027316Y4128677D1*
X4027177Y4125677D1*
X4021177D1*
X4021154Y4122677D1*
X4020943Y4119677D1*
X4020451Y4116677D1*
X4018798Y4113677D1*
X4017103Y4110677D1*
X4015661Y4107677D1*
X4014382Y4104677D1*
X4013350Y4101677D1*
X4012673Y4098677D1*
X4012177Y4095677D1*
X619177Y4248677D2*
X604177Y4245677D1*
Y4242677D1*
Y4239677D1*
X593747D1*
X585848Y4236677D1*
X578160Y4233677D1*
X571708Y4230677D1*
X566603Y4227677D1*
X561756Y4224677D1*
X556177D1*
X553199Y4221677D1*
X549924Y4218677D1*
X547214Y4215677D1*
X545452Y4212677D1*
X544177Y4209677D1*
X550177D1*
Y4206677D1*
Y4203677D1*
Y4200677D1*
Y4197677D1*
Y4194677D1*
Y4191677D1*
Y4188677D1*
Y4185677D1*
Y4182677D1*
Y4179677D1*
X556177D1*
X556641Y4176677D1*
X557385Y4173677D1*
X558161Y4170677D1*
X558689Y4167677D1*
X558984Y4164677D1*
X559177Y4161677D1*
X565177D1*
X565201Y4158677D1*
X565412Y4155677D1*
X565904Y4152677D1*
X567659Y4149677D1*
X569633Y4146677D1*
X571412Y4143677D1*
X572741Y4140677D1*
X573522Y4137677D1*
X573924Y4134677D1*
X574177Y4131677D1*
X580177D1*
X581226Y4128677D1*
X582330Y4125677D1*
X583687Y4122677D1*
X585640Y4119677D1*
X588181Y4116677D1*
X591101Y4113677D1*
X593959Y4110677D1*
X596247Y4107677D1*
X598223Y4104677D1*
X600445Y4101677D1*
X603007Y4098677D1*
X605718Y4095677D1*
X608443Y4092677D1*
X611245Y4089677D1*
X614177Y4086677D1*
X616839Y4083677D1*
X619177Y4080677D1*
X634177Y4248677D2*
Y4245677D1*
Y4242677D1*
Y4239677D1*
Y4236677D1*
Y4233677D1*
Y4230677D1*
Y4227677D1*
Y4224677D1*
Y4221677D1*
Y4218677D1*
Y4215677D1*
Y4212677D1*
Y4209677D1*
Y4206677D1*
Y4203677D1*
Y4200677D1*
Y4197677D1*
Y4194677D1*
Y4191677D1*
Y4188677D1*
Y4185677D1*
X640177D1*
Y4182677D1*
Y4179677D1*
X640201Y4176677D1*
X640412Y4173677D1*
X640904Y4170677D1*
X642545Y4167677D1*
X644135Y4164677D1*
X645194Y4161677D1*
X645765Y4158677D1*
X646126Y4155677D1*
X646614Y4152677D1*
X647373Y4149677D1*
X648157Y4146677D1*
X648685Y4143677D1*
X648965Y4140677D1*
X649093Y4137677D1*
X649147Y4134677D1*
X649177Y4131677D1*
X655177D1*
X655201Y4128677D1*
X655412Y4125677D1*
X655904Y4122677D1*
X657545Y4119677D1*
X659135Y4116677D1*
X660205Y4113677D1*
X660879Y4110677D1*
X661599Y4107677D1*
X662733Y4104677D1*
X664177Y4101677D1*
X659990Y4098677D1*
X657208Y4095677D1*
X655177Y4092677D1*
X644841D1*
X637803Y4089677D1*
X631514Y4086677D1*
X626429Y4083677D1*
X622177Y4080677D1*
X799177Y4239677D2*
X798690Y4236677D1*
X797735Y4233677D1*
X796194Y4230677D1*
X794220Y4227677D1*
X792297Y4224677D1*
X790741Y4221677D1*
X789413Y4218677D1*
X788361Y4215677D1*
X787676Y4212677D1*
X787177Y4209677D1*
X781177D1*
X780250Y4206677D1*
X778762Y4203677D1*
X777209Y4200677D1*
X776146Y4197677D1*
X775483Y4194677D1*
X774846Y4191677D1*
X773999Y4188677D1*
X772978Y4185677D1*
X771675Y4182677D1*
X769955Y4179677D1*
X768288Y4176677D1*
X767188Y4173677D1*
X766611Y4170677D1*
X766349Y4167677D1*
X766238Y4164677D1*
X766177Y4161677D1*
X760177D1*
X760165Y4158677D1*
X760060Y4155677D1*
X759678Y4152677D1*
X758959Y4149677D1*
X758190Y4146677D1*
X757667Y4143677D1*
X757389Y4140677D1*
X757261Y4137677D1*
X757209Y4134677D1*
X757188Y4131677D1*
X757181Y4128677D1*
X757177Y4125677D1*
X751177D1*
Y4122677D1*
Y4119677D1*
Y4116677D1*
Y4113677D1*
Y4110677D1*
Y4107677D1*
X751201Y4104677D1*
X751412Y4101677D1*
X751904Y4098677D1*
X753946Y4095677D1*
X757217Y4092677D1*
X762358Y4089677D1*
X768968Y4086677D1*
X775404Y4083677D1*
X781177Y4080677D1*
X811177Y4239677D2*
X816670Y4236677D1*
X822476Y4233677D1*
X827112Y4230677D1*
X830483Y4227677D1*
X832177Y4224677D1*
X838810D1*
X844143Y4221677D1*
X849301Y4218677D1*
X854188Y4215677D1*
X859141Y4212677D1*
X863877Y4209677D1*
X867956Y4206677D1*
X869761Y4203677D1*
X871177Y4200677D1*
X880177D1*
X879714Y4197677D1*
X878969Y4194677D1*
X878185Y4191677D1*
X877614Y4188677D1*
X877177Y4185677D1*
X871177D1*
X868639Y4182677D1*
X865898Y4179677D1*
X863196Y4176677D1*
X860423Y4173677D1*
X857471Y4170677D1*
X854346Y4167677D1*
X851216Y4164677D1*
X848240Y4161677D1*
X845200Y4158677D1*
X842155Y4155677D1*
X839302Y4152677D1*
X836464Y4149677D1*
X833486Y4146677D1*
X830375Y4143677D1*
X827463Y4140677D1*
X825344Y4137677D1*
X824066Y4134677D1*
X823177Y4131677D1*
X817177D1*
X816238Y4128677D1*
X814645Y4125677D1*
X812709Y4122677D1*
X810940Y4119677D1*
X809613Y4116677D1*
X808832Y4113677D1*
X808430Y4110677D1*
X808177Y4107677D1*
X802177D1*
Y4104677D1*
Y4101677D1*
X796177D1*
X795690Y4098677D1*
X794735Y4095677D1*
X793194Y4092677D1*
X791230Y4089677D1*
X789398Y4086677D1*
X788128Y4083677D1*
X787177Y4080677D1*
X3814177Y4218677D2*
X3807717Y4215677D1*
X3801977Y4212677D1*
X3796475Y4209677D1*
X3791693Y4206677D1*
X3788043Y4203677D1*
X3784834Y4200677D1*
X3781122Y4197677D1*
X3776903Y4194677D1*
X3773301Y4191677D1*
X3770918Y4188677D1*
X3769177Y4185677D1*
X3763177D1*
X3761201Y4182677D1*
X3758610Y4179677D1*
X3755711Y4176677D1*
X3752800Y4173677D1*
X3749979Y4170677D1*
X3747140Y4167677D1*
X3744250Y4164677D1*
X3741868Y4161677D1*
X3740311Y4158677D1*
X3739177Y4155677D1*
X3733177D1*
X3732690Y4152677D1*
X3731724Y4149677D1*
X3730077Y4146677D1*
X3727732Y4143677D1*
X3725196Y4140677D1*
X3723240Y4137677D1*
X3722030Y4134677D1*
X3721177Y4131677D1*
X3715177D1*
Y4128677D1*
Y4125677D1*
Y4122677D1*
Y4119677D1*
Y4116677D1*
Y4113677D1*
Y4110677D1*
Y4107677D1*
Y4104677D1*
Y4101677D1*
Y4098677D1*
Y4095677D1*
Y4092677D1*
Y4089677D1*
Y4086677D1*
Y4083677D1*
Y4080677D1*
Y4077677D1*
Y4074677D1*
Y4071677D1*
X3709177D1*
Y4068677D1*
Y4065677D1*
Y4062677D1*
Y4059677D1*
Y4056677D1*
Y4053677D1*
Y4050677D1*
Y4047677D1*
Y4044677D1*
Y4041677D1*
Y4038677D1*
Y4035677D1*
Y4032677D1*
Y4029677D1*
Y4026677D1*
Y4023677D1*
Y4020677D1*
Y4017677D1*
X3709165Y4014677D1*
X3709060Y4011677D1*
X3708678Y4008677D1*
X3707959Y4005677D1*
X3707190Y4002677D1*
X3706667Y3999677D1*
X3706400Y3996677D1*
X3706378Y3993677D1*
X3706708Y3990677D1*
X3707406Y3987677D1*
X3708168Y3984677D1*
X3708689Y3981677D1*
X3708966Y3978677D1*
X3709093Y3975677D1*
X3709146Y3972677D1*
X3709166Y3969677D1*
X3709173Y3966677D1*
X3709176Y3963677D1*
X3709177Y3960677D1*
Y3957677D1*
Y3954677D1*
Y3951677D1*
Y3948677D1*
Y3945677D1*
Y3942677D1*
Y3939677D1*
Y3936677D1*
Y3933677D1*
Y3930677D1*
Y3927677D1*
Y3924677D1*
Y3921677D1*
Y3918677D1*
Y3915677D1*
X3715177D1*
Y3912677D1*
Y3909677D1*
Y3906677D1*
Y3903677D1*
Y3900677D1*
Y3897677D1*
Y3894677D1*
Y3891677D1*
Y3888677D1*
X3814177Y4215677D2*
Y4212677D1*
Y4209677D1*
X3814165Y4206677D1*
X3814060Y4203677D1*
X3813678Y4200677D1*
X3812959Y4197677D1*
X3812190Y4194677D1*
X3811667Y4191677D1*
X3811389Y4188677D1*
X3811261Y4185677D1*
X3811209Y4182677D1*
X3811188Y4179677D1*
X3811181Y4176677D1*
X3811178Y4173677D1*
Y4170677D1*
X3811177Y4167677D1*
Y4164677D1*
Y4161677D1*
Y4158677D1*
Y4155677D1*
Y4152677D1*
Y4149677D1*
Y4146677D1*
Y4143677D1*
Y4140677D1*
Y4137677D1*
X3805177D1*
Y4134677D1*
Y4131677D1*
Y4128677D1*
Y4125677D1*
Y4122677D1*
Y4119677D1*
Y4116677D1*
Y4113677D1*
Y4110677D1*
Y4107677D1*
X3811177D1*
Y4104677D1*
Y4101677D1*
Y4098677D1*
Y4095677D1*
Y4092677D1*
Y4089677D1*
Y4086677D1*
Y4083677D1*
Y4080677D1*
Y4077677D1*
Y4074677D1*
Y4071677D1*
Y4068677D1*
Y4065677D1*
Y4062677D1*
X3811189Y4059677D1*
X3811294Y4056677D1*
X3811677Y4053677D1*
X3812395Y4050677D1*
X3813164Y4047677D1*
X3813688Y4044677D1*
X3813966Y4041677D1*
X3814093Y4038677D1*
X3814146Y4035677D1*
X3814166Y4032677D1*
X3814173Y4029677D1*
X3814176Y4026677D1*
X3814177Y4023677D1*
Y4020677D1*
Y4017677D1*
X3820177D1*
X3819238Y4014677D1*
X3817622Y4011677D1*
X3815475Y4008677D1*
X3812941Y4005677D1*
X3810154Y4002677D1*
X3807626Y3999677D1*
X3805420Y3996677D1*
X3803153Y3993677D1*
X3800887Y3990677D1*
X3798757Y3987677D1*
X3796407Y3984677D1*
X3793398Y3981677D1*
X3789927Y3978677D1*
X3786790Y3975677D1*
X3784377Y3972677D1*
X3782561Y3969677D1*
X3780892Y3966677D1*
X3778899Y3963677D1*
X3776584Y3960677D1*
X3773981Y3957677D1*
X3771190Y3954677D1*
X3768847Y3951677D1*
X3767303Y3948677D1*
X3766177Y3945677D1*
X3760177D1*
X3759128Y3942677D1*
X3758024Y3939677D1*
X3756668Y3936677D1*
X3754714Y3933677D1*
X3752173Y3930677D1*
X3749253Y3927677D1*
X3746418Y3924677D1*
X3744328Y3921677D1*
X3743061Y3918677D1*
X3742177Y3915677D1*
X3736177D1*
X3735238Y3912677D1*
X3733622Y3909677D1*
X3731475Y3906677D1*
X3728929Y3903677D1*
X3726060Y3900677D1*
X3723359Y3897677D1*
X3721180Y3894677D1*
X3719525Y3891677D1*
X3718177Y3888677D1*
X4210177Y4110677D2*
X4195814Y4107677D1*
X4185277Y4104677D1*
X4177054Y4101677D1*
X4170684Y4098677D1*
X4165016Y4095677D1*
X4158751Y4092677D1*
X4150177D1*
X4147761Y4089677D1*
X4144635Y4086677D1*
X4141711Y4083677D1*
X4139688Y4080677D1*
X4138177Y4077677D1*
X4133372D1*
X4128699Y4074677D1*
X4123991Y4071677D1*
X4119816Y4068677D1*
X4116266Y4065677D1*
X4113161Y4062677D1*
X4110184Y4059677D1*
X4107029Y4056677D1*
X4103779Y4053677D1*
X4100483Y4050677D1*
X4097284Y4047677D1*
X4094379Y4044677D1*
X4091731Y4041677D1*
X4089609Y4038677D1*
X4088308Y4035677D1*
X4087618Y4032677D1*
X4087177Y4029677D1*
X4093177D1*
X4093291Y4026677D1*
X4093676Y4023677D1*
X4094418Y4020677D1*
X4095399Y4017677D1*
X4096687Y4014677D1*
X4098402Y4011677D1*
X4100067Y4008677D1*
X4101167Y4005677D1*
X4101744Y4002677D1*
X4102017Y3999677D1*
X4102177Y3996677D1*
X4222177Y4110677D2*
X4225061Y4107677D1*
X4227169Y4104677D1*
X4228760Y4101677D1*
X4229939Y4098677D1*
X4230830Y4095677D1*
X4231932Y4092677D1*
X4233518Y4089677D1*
X4235117Y4086677D1*
X4236190Y4083677D1*
X4236786Y4080677D1*
X4237177Y4077677D1*
X4243177D1*
X4243189Y4074677D1*
X4243294Y4071677D1*
X4243677Y4068677D1*
X4244395Y4065677D1*
X4245164Y4062677D1*
X4245688Y4059677D1*
X4245966Y4056677D1*
X4246093Y4053677D1*
X4246147Y4050677D1*
X4246177Y4047677D1*
X4252177D1*
X4252189Y4044677D1*
X4252294Y4041677D1*
X4252677Y4038677D1*
X4253395Y4035677D1*
X4254164Y4032677D1*
X4254688Y4029677D1*
X4254966Y4026677D1*
X4255099Y4023677D1*
X4255177Y4020677D1*
X436177Y4101677D2*
X434769Y4098677D1*
X433696Y4095677D1*
X432496Y4092677D1*
X430854Y4089677D1*
X429131Y4086677D1*
X427673Y4083677D1*
X426387Y4080677D1*
X425360Y4077677D1*
X424707Y4074677D1*
X424177Y4071677D1*
X423270Y4068677D1*
X421775Y4065677D1*
X420215Y4062677D1*
X419156Y4059677D1*
X418565Y4056677D1*
X418177Y4053677D1*
X412177D1*
Y4050677D1*
Y4047677D1*
X412165Y4044677D1*
X412060Y4041677D1*
X411678Y4038677D1*
X410959Y4035677D1*
X410190Y4032677D1*
X409667Y4029677D1*
X409365Y4026677D1*
X409027Y4023677D1*
X408210Y4020677D1*
X406752Y4017677D1*
X405207Y4014677D1*
X404158Y4011677D1*
X403600Y4008677D1*
X403346Y4005677D1*
X403240Y4002677D1*
X403200Y3999677D1*
X403185Y3996677D1*
X403180Y3993677D1*
X403178Y3990677D1*
X403177Y3987677D1*
Y3984677D1*
Y3981677D1*
Y3978677D1*
Y3975677D1*
X397177D1*
X397365Y3972677D1*
X398677Y3969677D1*
X402442Y3966677D1*
X406809Y3963677D1*
X411546Y3960677D1*
X417210Y3957677D1*
X423234Y3954677D1*
X428004Y3951677D1*
X431456Y3948677D1*
X433177Y3945677D1*
X439951D1*
X446554Y3942677D1*
X453625Y3939677D1*
X460044Y3936677D1*
X465980Y3933677D1*
X472476Y3930677D1*
X481177D1*
Y3927677D1*
X511177Y3924677D1*
X439177Y4101677D2*
X440116Y4098677D1*
X441709Y4095677D1*
X443645Y4092677D1*
X445414Y4089677D1*
X446741Y4086677D1*
X447522Y4083677D1*
X447924Y4080677D1*
X448177Y4077677D1*
X454177D1*
X456715Y4074677D1*
X459456Y4071677D1*
X462170Y4068677D1*
X465060Y4065677D1*
X468500Y4062677D1*
X472714Y4059677D1*
X477238Y4056677D1*
X481229Y4053677D1*
X484711Y4050677D1*
X487902Y4047677D1*
X490410Y4044677D1*
X492018Y4041677D1*
X493177Y4038677D1*
X502177D1*
X505619Y4035677D1*
X509638Y4032677D1*
X513133Y4029677D1*
X515465Y4026677D1*
X517177Y4023677D1*
X523177D1*
Y4020677D1*
X533237Y4017677D1*
X540795Y4014677D1*
X547010Y4011677D1*
X553549Y4008677D1*
X562177D1*
Y4005677D1*
Y4002677D1*
Y3999677D1*
X556177D1*
Y3996677D1*
Y3993677D1*
Y3990677D1*
X556165Y3987677D1*
X556060Y3984677D1*
X555678Y3981677D1*
X554959Y3978677D1*
X554190Y3975677D1*
X553667Y3972677D1*
X553389Y3969677D1*
X553261Y3966677D1*
X553209Y3963677D1*
X553188Y3960677D1*
X553181Y3957677D1*
X553178Y3954677D1*
X553189Y3951677D1*
X553294Y3948677D1*
X553677Y3945677D1*
X554395Y3942677D1*
X555164Y3939677D1*
X555652Y3936677D1*
X555885Y3933677D1*
X554928Y3930677D1*
X551453Y3927677D1*
X547177Y3924677D1*
X3940177Y4104677D2*
X3937177Y4101677D1*
X3973177Y4104677D2*
X3991177Y4101677D1*
X4009177Y4098677D1*
Y4095677D1*
X4228177Y4026677D2*
Y4023677D1*
Y4020677D1*
X4240177Y4026677D2*
Y4023677D1*
Y4020677D1*
X4204177D2*
X4183177Y4017677D1*
X4162177Y4014677D1*
Y4011677D1*
Y4008677D1*
X4149919D1*
X4141359Y4005677D1*
X4133236Y4002677D1*
X4126223Y3999677D1*
X4120177Y3996677D1*
X3574177Y3960677D2*
Y3957677D1*
Y3954677D1*
Y3951677D1*
X3568177D1*
Y3948677D1*
Y3945677D1*
X3562177D1*
X3560224Y3942677D1*
X3557844Y3939677D1*
X3555698Y3936677D1*
X3554131Y3933677D1*
X3552571Y3930677D1*
X3550442Y3927677D1*
X3548058Y3924677D1*
X3546183Y3921677D1*
X3545009Y3918677D1*
X3544177Y3915677D1*
X3538177D1*
X3535662Y3912677D1*
X3533133Y3909677D1*
X3531218Y3906677D1*
X3530102Y3903677D1*
X3529532Y3900677D1*
X3529177Y3897677D1*
X3523177D1*
X3521900Y3894677D1*
X3520027Y3891677D1*
X3517244Y3888677D1*
X3513869Y3885677D1*
X3510769Y3882677D1*
X3508393Y3879677D1*
X3506792Y3876677D1*
X3505899Y3873677D1*
X3505453Y3870677D1*
X3505177Y3867677D1*
X3499177D1*
Y3864677D1*
Y3861677D1*
X3493177D1*
X3491224Y3858677D1*
X3488844Y3855677D1*
X3486721Y3852677D1*
X3485372Y3849677D1*
X3484645Y3846677D1*
X3484177Y3843677D1*
X3478177D1*
X3476911Y3840677D1*
X3475144Y3837677D1*
X3472731Y3834677D1*
X3469969Y3831677D1*
X3467257Y3828677D1*
X3464686Y3825677D1*
X3462594Y3822677D1*
X3461302Y3819677D1*
X3460616Y3816677D1*
X3460177Y3813677D1*
X3454177D1*
X3452900Y3810677D1*
X3451027Y3807677D1*
X3448255Y3804677D1*
X3444974Y3801677D1*
X3442151Y3798677D1*
X3440088Y3795677D1*
X3438327Y3792677D1*
X3436403Y3789677D1*
X3434071Y3786677D1*
X3431329Y3783677D1*
X3428292Y3780677D1*
X3425208Y3777677D1*
X3422351Y3774677D1*
X3419709Y3771677D1*
X3417489Y3768677D1*
X3415812Y3765677D1*
X3414438Y3762677D1*
X3413370Y3759677D1*
X3412679Y3756677D1*
X3412177Y3753677D1*
X3406177D1*
Y3750677D1*
Y3747677D1*
Y3744677D1*
Y3741677D1*
Y3738677D1*
Y3735677D1*
X3406154Y3732677D1*
X3405943Y3729677D1*
X3405451Y3726677D1*
X3403809Y3723677D1*
X3402220Y3720677D1*
X3401161Y3717677D1*
X3400601Y3714677D1*
X3400346Y3711677D1*
X3400240Y3708677D1*
X3400200Y3705677D1*
X3400185Y3702677D1*
X3400180Y3699677D1*
X3400178Y3696677D1*
X3400177Y3693677D1*
Y3690677D1*
Y3687677D1*
Y3684677D1*
Y3681677D1*
Y3678677D1*
Y3675677D1*
Y3672677D1*
Y3669677D1*
X3400165Y3666677D1*
X3400060Y3663677D1*
X3399678Y3660677D1*
X3398959Y3657677D1*
X3398190Y3654677D1*
X3397667Y3651677D1*
X3397389Y3648677D1*
X3397261Y3645677D1*
X3397209Y3642677D1*
X3397188Y3639677D1*
X3397181Y3636677D1*
X3397178Y3633677D1*
Y3630677D1*
X3397177Y3627677D1*
Y3624677D1*
Y3621677D1*
Y3618677D1*
Y3615677D1*
Y3612677D1*
Y3609677D1*
Y3606677D1*
Y3603677D1*
Y3600677D1*
Y3597677D1*
Y3594677D1*
Y3591677D1*
X3397189Y3588677D1*
X3397294Y3585677D1*
X3397677Y3582677D1*
X3398395Y3579677D1*
X3399164Y3576677D1*
X3399688Y3573677D1*
X3399966Y3570677D1*
X3400093Y3567677D1*
X3400146Y3564677D1*
X3400166Y3561677D1*
X3400173Y3558677D1*
X3400176Y3555677D1*
X3400177Y3552677D1*
Y3549677D1*
Y3546677D1*
Y3543677D1*
Y3540677D1*
Y3537677D1*
Y3534677D1*
Y3531677D1*
Y3528677D1*
X3400201Y3525677D1*
X3400412Y3522677D1*
X3400904Y3519677D1*
X3402599Y3516677D1*
X3404437Y3513677D1*
X3406177Y3510677D1*
X3574177Y3951677D2*
Y3948677D1*
Y3945677D1*
Y3942677D1*
Y3939677D1*
Y3936677D1*
Y3933677D1*
Y3930677D1*
Y3927677D1*
Y3924677D1*
Y3921677D1*
Y3918677D1*
Y3915677D1*
Y3912677D1*
X3574165Y3909677D1*
X3574060Y3906677D1*
X3573678Y3903677D1*
X3572959Y3900677D1*
X3572190Y3897677D1*
X3571667Y3894677D1*
X3571389Y3891677D1*
X3571261Y3888677D1*
X3571209Y3885677D1*
X3571188Y3882677D1*
X3571181Y3879677D1*
X3571178Y3876677D1*
Y3873677D1*
X3571177Y3870677D1*
Y3867677D1*
Y3864677D1*
Y3861677D1*
Y3858677D1*
Y3855677D1*
Y3852677D1*
Y3849677D1*
Y3846677D1*
Y3843677D1*
Y3840677D1*
Y3837677D1*
Y3834677D1*
Y3831677D1*
X3571189Y3828677D1*
X3571294Y3825677D1*
X3571677Y3822677D1*
X3572395Y3819677D1*
X3573164Y3816677D1*
X3573688Y3813677D1*
X3573966Y3810677D1*
X3574093Y3807677D1*
X3574146Y3804677D1*
X3574166Y3801677D1*
X3574173Y3798677D1*
X3574176Y3795677D1*
X3574177Y3792677D1*
Y3789677D1*
Y3786677D1*
Y3783677D1*
Y3780677D1*
Y3777677D1*
Y3774677D1*
Y3771677D1*
Y3768677D1*
Y3765677D1*
Y3762677D1*
Y3759677D1*
X3574201Y3756677D1*
X3574412Y3753677D1*
X3574904Y3750677D1*
X3576545Y3747677D1*
X3578135Y3744677D1*
X3579194Y3741677D1*
X3579753Y3738677D1*
X3580009Y3735677D1*
X3580091Y3732677D1*
X3579920Y3729677D1*
X3579447Y3726677D1*
X3577808Y3723677D1*
X3576207Y3720677D1*
X3575020Y3717677D1*
X3573867Y3714677D1*
X3572105Y3711677D1*
X3569571Y3708677D1*
X3566599Y3705677D1*
X3563440Y3702677D1*
X3560494Y3699677D1*
X3558346Y3696677D1*
X3556906Y3693677D1*
X3555350Y3690677D1*
X3552887Y3687677D1*
X3549707Y3684677D1*
X3546679Y3681677D1*
X3544110Y3678677D1*
X3541550Y3675677D1*
X3538464Y3672677D1*
X3535064Y3669677D1*
X3532285Y3666677D1*
X3530480Y3663677D1*
X3529049Y3660677D1*
X3527185Y3657677D1*
X3524700Y3654677D1*
X3521989Y3651677D1*
X3519138Y3648677D1*
X3516030Y3645677D1*
X3512894Y3642677D1*
X3509995Y3639677D1*
X3507619Y3636677D1*
X3505842Y3633677D1*
X3504225Y3630677D1*
X3502363Y3627677D1*
X3500057Y3624677D1*
X3497324Y3621677D1*
X3494314Y3618677D1*
X3491442Y3615677D1*
X3489326Y3612677D1*
X3487899Y3609677D1*
X3486347Y3606677D1*
X3483886Y3603677D1*
X3480683Y3600677D1*
X3477468Y3597677D1*
X3474357Y3594677D1*
X3471230Y3591677D1*
X3468425Y3588677D1*
X3466212Y3585677D1*
X3464493Y3582677D1*
X3462854Y3579677D1*
X3460796Y3576677D1*
X3458304Y3573677D1*
X3455621Y3570677D1*
X3452906Y3567677D1*
X3450089Y3564677D1*
X3447007Y3561677D1*
X3443885Y3558677D1*
X3440991Y3555677D1*
X3438618Y3552677D1*
X3436842Y3549677D1*
X3435201Y3546677D1*
X3433152Y3543677D1*
X3430292Y3540677D1*
X3426887Y3537677D1*
X3423775Y3534677D1*
X3421372Y3531677D1*
X3419559Y3528677D1*
X3417891Y3525677D1*
X3415922Y3522677D1*
X3413816Y3519677D1*
X3411948Y3516677D1*
X3410440Y3513677D1*
X3409177Y3510677D1*
X4102177Y3909677D2*
X4101250Y3906677D1*
X4099751Y3903677D1*
X4098092Y3900677D1*
X4096659Y3897677D1*
X4095359Y3894677D1*
X4094124Y3891677D1*
X4092719Y3888677D1*
X4090858Y3885677D1*
X4088807Y3882677D1*
X4087125Y3879677D1*
X4085926Y3876677D1*
X4086108Y3873677D1*
X4089619Y3870677D1*
X4092635Y3867677D1*
X4094670Y3864677D1*
X4096177Y3861677D1*
X4100982D1*
X4105667Y3858677D1*
X4110504Y3855677D1*
X4115260Y3852677D1*
X4120165Y3849677D1*
X4124885Y3846677D1*
X4128957Y3843677D1*
X4130762Y3840677D1*
X4132177Y3837677D1*
X4141177D1*
X4143715Y3834677D1*
X4146456Y3831677D1*
X4149158Y3828677D1*
X4151931Y3825677D1*
X4154883Y3822677D1*
X4158008Y3819677D1*
X4161127Y3816677D1*
X4164020Y3813677D1*
X4166877Y3810677D1*
X4169863Y3807677D1*
X4173001Y3804677D1*
X4176148Y3801677D1*
X4179230Y3798677D1*
X4182642Y3795677D1*
X4186300Y3792677D1*
X4189540Y3789677D1*
X4192189Y3786677D1*
X4194742Y3783677D1*
X4197749Y3780677D1*
X4201177Y3777677D1*
X4105177Y3909677D2*
X4138177Y3906677D1*
Y3903677D1*
X4155990Y3900677D1*
X4174177Y3897677D1*
Y3894677D1*
Y3891677D1*
X4180951D1*
X4187554Y3888677D1*
X4194602Y3885677D1*
X4200792Y3882677D1*
X4205801Y3879677D1*
X4210605Y3876677D1*
X4216177D1*
X4219619Y3873677D1*
X4223638Y3870677D1*
X4227133Y3867677D1*
X4229465Y3864677D1*
X4231177Y3861677D1*
X4235994D1*
X4240893Y3858677D1*
X4246177Y3855677D1*
X4244792Y3852677D1*
X4243931Y3849677D1*
X4243495Y3846677D1*
X4243301Y3843677D1*
X4243220Y3840677D1*
X4243177Y3837677D1*
X4237177D1*
X4236250Y3834677D1*
X4234762Y3831677D1*
X4233197Y3828677D1*
X4232041Y3825677D1*
X4231101Y3822677D1*
X4230104Y3819677D1*
X4229019Y3816677D1*
X4227690Y3813677D1*
X4225960Y3810677D1*
X4224289Y3807677D1*
X4223184Y3804677D1*
X4222575Y3801677D1*
X4222177Y3798677D1*
X4216177D1*
X4215128Y3795677D1*
X4214024Y3792677D1*
X4212668Y3789677D1*
X4210707Y3786677D1*
X4208094Y3783677D1*
X4204849Y3780677D1*
X4201177Y3777677D1*
X628177Y3813677D2*
Y3810677D1*
Y3807677D1*
X598177D1*
Y3804677D1*
Y3801677D1*
X649177Y3813677D2*
X651469Y3810677D1*
X654129Y3807677D1*
X657110Y3804677D1*
X660201Y3801677D1*
X663363Y3798677D1*
X667158Y3795677D1*
X671637Y3792677D1*
X676015Y3789677D1*
X679806Y3786677D1*
X683063Y3783677D1*
X686093Y3780677D1*
X689060Y3777677D1*
X691470Y3774677D1*
X693039Y3771677D1*
X694177Y3768677D1*
X703177D1*
X706167Y3765677D1*
X709570Y3762677D1*
X712854Y3759677D1*
X715975Y3756677D1*
X719005Y3753677D1*
X721448Y3750677D1*
X723031Y3747677D1*
X724177Y3744677D1*
X733177D1*
X735715Y3741677D1*
X738456Y3738677D1*
X741170Y3735677D1*
X744060Y3732677D1*
X747500Y3729677D1*
X751726Y3726677D1*
X756332Y3723677D1*
X760506Y3720677D1*
X764058Y3717677D1*
X767059Y3714677D1*
X769667Y3711677D1*
X772177Y3708677D1*
X442177Y3807677D2*
Y3804677D1*
Y3801677D1*
Y3798677D1*
X448177D1*
X448664Y3795677D1*
X449619Y3792677D1*
X451160Y3789677D1*
X453124Y3786677D1*
X454957Y3783677D1*
X456227Y3780677D1*
X457177Y3777677D1*
X463177D1*
X463664Y3774677D1*
X464642Y3771677D1*
X466395Y3768677D1*
X469133Y3765677D1*
X472517Y3762677D1*
X475822Y3759677D1*
X478972Y3756677D1*
X482115Y3753677D1*
X484950Y3750677D1*
X487376Y3747677D1*
X489860Y3744677D1*
X492924Y3741677D1*
X496416Y3738677D1*
X499584Y3735677D1*
X502222Y3732677D1*
X504910Y3729677D1*
X508409Y3726677D1*
X512741Y3723677D1*
X517114Y3720677D1*
X521437Y3717677D1*
X526891Y3714677D1*
X534697Y3711677D1*
X544177Y3708677D1*
X469177Y3807677D2*
Y3804677D1*
Y3801677D1*
X613177Y3708677D2*
Y3705677D1*
Y3702677D1*
X715177Y3708677D2*
Y3705677D1*
Y3702677D1*
X3262177Y3582677D2*
X3260224Y3579677D1*
X3257844Y3576677D1*
X3255710Y3573677D1*
X3254236Y3570677D1*
X3252953Y3567677D1*
X3251137Y3564677D1*
X3248594Y3561677D1*
X3245708Y3558677D1*
X3242824Y3555677D1*
X3240213Y3552677D1*
X3238116Y3549677D1*
X3236429Y3546677D1*
X3234628Y3543677D1*
X3232014Y3540677D1*
X3228759Y3537677D1*
X3225699Y3534677D1*
X3223117Y3531677D1*
X3220552Y3528677D1*
X3217465Y3525677D1*
X3214064Y3522677D1*
X3211285Y3519677D1*
X3209480Y3516677D1*
X3208049Y3513677D1*
X3206185Y3510677D1*
X3203700Y3507677D1*
X3200989Y3504677D1*
X3198138Y3501677D1*
X3195030Y3498677D1*
X3191894Y3495677D1*
X3188995Y3492677D1*
X3186619Y3489677D1*
X3184866Y3486677D1*
X3183459Y3483677D1*
X3182377Y3480677D1*
X3181681Y3477677D1*
X3181177Y3474677D1*
X3175177D1*
X3172662Y3471677D1*
X3170133Y3468677D1*
X3168195Y3465677D1*
X3166848Y3462677D1*
X3165328Y3459677D1*
X3162879Y3456677D1*
X3159681Y3453677D1*
X3156467Y3450677D1*
X3153357Y3447677D1*
X3150230Y3444677D1*
X3147425Y3441677D1*
X3145235Y3438677D1*
X3143727Y3435677D1*
X3142874Y3432677D1*
X3142444Y3429677D1*
X3142177Y3426677D1*
X3136177D1*
Y3423677D1*
Y3420677D1*
X3130177D1*
X3128224Y3417677D1*
X3125844Y3414677D1*
X3123698Y3411677D1*
X3122131Y3408677D1*
X3120571Y3405677D1*
X3118419Y3402677D1*
X3115801Y3399677D1*
X3112962Y3396677D1*
X3109652Y3393677D1*
X3106032Y3390677D1*
X3102831Y3387677D1*
X3100415Y3384677D1*
X3098800Y3381677D1*
X3097905Y3378677D1*
X3097476Y3375677D1*
X3097292Y3372677D1*
X3097219Y3369677D1*
X3097192Y3366677D1*
X3097182Y3363677D1*
X3097177Y3360677D1*
X3091177D1*
Y3357677D1*
Y3354677D1*
Y3351677D1*
Y3348677D1*
Y3345677D1*
Y3342677D1*
Y3339677D1*
Y3336677D1*
Y3333677D1*
Y3330677D1*
Y3327677D1*
Y3324677D1*
Y3321677D1*
Y3318677D1*
Y3315677D1*
Y3312677D1*
Y3309677D1*
Y3306677D1*
Y3303677D1*
X3091165Y3300677D1*
X3091060Y3297677D1*
X3090678Y3294677D1*
X3089959Y3291677D1*
X3089190Y3288677D1*
X3088667Y3285677D1*
X3088389Y3282677D1*
X3088261Y3279677D1*
X3088209Y3276677D1*
X3088188Y3273677D1*
X3088181Y3270677D1*
X3088178Y3267677D1*
Y3264677D1*
X3088177Y3261677D1*
Y3258677D1*
Y3255677D1*
Y3252677D1*
Y3249677D1*
Y3246677D1*
Y3243677D1*
Y3240677D1*
Y3237677D1*
Y3234677D1*
Y3231677D1*
Y3228677D1*
Y3225677D1*
Y3222677D1*
Y3219677D1*
Y3216677D1*
Y3213677D1*
Y3210677D1*
Y3207677D1*
Y3204677D1*
X3088189Y3201677D1*
X3088294Y3198677D1*
X3088677Y3195677D1*
X3089395Y3192677D1*
X3090164Y3189677D1*
X3090688Y3186677D1*
X3090966Y3183677D1*
X3091093Y3180677D1*
X3091146Y3177677D1*
X3091166Y3174677D1*
X3091173Y3171677D1*
X3091176Y3168677D1*
X3091177Y3165677D1*
Y3162677D1*
Y3159677D1*
Y3156677D1*
Y3153677D1*
Y3150677D1*
Y3147677D1*
Y3144677D1*
Y3141677D1*
Y3138677D1*
Y3135677D1*
Y3132677D1*
Y3129677D1*
X3265177Y3582677D2*
Y3579677D1*
Y3576677D1*
Y3573677D1*
Y3570677D1*
Y3567677D1*
Y3564677D1*
Y3561677D1*
X3265154Y3558677D1*
X3264943Y3555677D1*
X3264451Y3552677D1*
X3262809Y3549677D1*
X3261220Y3546677D1*
X3260161Y3543677D1*
X3259601Y3540677D1*
X3259346Y3537677D1*
X3259240Y3534677D1*
X3259200Y3531677D1*
X3259185Y3528677D1*
X3259180Y3525677D1*
X3259178Y3522677D1*
X3259177Y3519677D1*
Y3516677D1*
Y3513677D1*
Y3510677D1*
Y3507677D1*
Y3504677D1*
Y3501677D1*
Y3498677D1*
Y3495677D1*
Y3492677D1*
Y3489677D1*
Y3486677D1*
Y3483677D1*
Y3480677D1*
Y3477677D1*
Y3474677D1*
Y3471677D1*
Y3468677D1*
Y3465677D1*
Y3462677D1*
Y3459677D1*
Y3456677D1*
Y3453677D1*
Y3450677D1*
Y3447677D1*
Y3444677D1*
Y3441677D1*
Y3438677D1*
Y3435677D1*
Y3432677D1*
Y3429677D1*
Y3426677D1*
Y3423677D1*
Y3420677D1*
Y3417677D1*
Y3414677D1*
Y3411677D1*
Y3408677D1*
Y3405677D1*
Y3402677D1*
Y3399677D1*
Y3396677D1*
X3265177D1*
Y3393677D1*
Y3390677D1*
Y3387677D1*
Y3384677D1*
Y3381677D1*
Y3378677D1*
Y3375677D1*
Y3372677D1*
Y3369677D1*
Y3366677D1*
Y3363677D1*
Y3360677D1*
Y3357677D1*
Y3354677D1*
Y3351677D1*
X3265154Y3348677D1*
X3264931Y3345677D1*
X3264404Y3342677D1*
X3262327Y3339677D1*
X3260006Y3336677D1*
X3258151Y3333677D1*
X3256845Y3330677D1*
X3255441Y3327677D1*
X3253389Y3324677D1*
X3251038Y3321677D1*
X3249175Y3318677D1*
X3248006Y3315677D1*
X3247177Y3312677D1*
X3241177D1*
Y3309677D1*
Y3306677D1*
X3235177D1*
X3234485Y3303677D1*
X3233299Y3300677D1*
X3230611Y3297677D1*
X3227704Y3294677D1*
X3224797Y3291677D1*
X3221977Y3288677D1*
X3219139Y3285677D1*
X3216251Y3282677D1*
X3213864Y3279677D1*
X3212194Y3276677D1*
X3210593Y3273677D1*
X3208427Y3270677D1*
X3205828Y3267677D1*
X3203186Y3264677D1*
X3200522Y3261677D1*
X3197852Y3258677D1*
X3195087Y3255677D1*
X3192208Y3252677D1*
X3189645Y3249677D1*
X3187426Y3246677D1*
X3185155Y3243677D1*
X3182888Y3240677D1*
X3180758Y3237677D1*
X3178407Y3234677D1*
X3175409Y3231677D1*
X3172044Y3228677D1*
X3169278Y3225677D1*
X3167478Y3222677D1*
X3166048Y3219677D1*
X3164173Y3216677D1*
X3161607Y3213677D1*
X3158712Y3210677D1*
X3155802Y3207677D1*
X3152979Y3204677D1*
X3150140Y3201677D1*
X3147240Y3198677D1*
X3144770Y3195677D1*
X3142917Y3192677D1*
X3141257Y3189677D1*
X3139376Y3186677D1*
X3137062Y3183677D1*
X3134325Y3180677D1*
X3131291Y3177677D1*
X3128208Y3174677D1*
X3125351Y3171677D1*
X3122697Y3168677D1*
X3120372Y3165677D1*
X3118301Y3162677D1*
X3116103Y3159677D1*
X3113868Y3156677D1*
X3111750Y3153677D1*
X3109404Y3150677D1*
X3106408Y3147677D1*
X3103032Y3144677D1*
X3100172Y3141677D1*
X3098117Y3138677D1*
X3096535Y3135677D1*
X3095259Y3132677D1*
X3094177Y3129677D1*
X697177Y3573677D2*
X699389Y3570677D1*
X701982Y3567677D1*
X705379Y3564677D1*
X709716Y3561677D1*
X713986Y3558677D1*
X717419Y3555677D1*
X720445Y3552677D1*
X723758Y3549677D1*
X727389Y3546677D1*
X730890Y3543677D1*
X734467Y3540677D1*
X738445Y3537677D1*
X742435Y3534677D1*
X746092Y3531677D1*
X749519Y3528677D1*
X752839Y3525677D1*
X755838Y3522677D1*
X758323Y3519677D1*
X759365Y3516677D1*
X760177Y3513677D1*
X772177D1*
X774153Y3510677D1*
X776757Y3507677D1*
X779749Y3504677D1*
X782913Y3501677D1*
X785861Y3498677D1*
X788325Y3495677D1*
X789366Y3492677D1*
X790177Y3489677D1*
X799177D1*
X802167Y3486677D1*
X805546Y3483677D1*
X808666Y3480677D1*
X811457Y3477677D1*
X814683Y3474677D1*
X818850Y3471677D1*
X823281Y3468677D1*
X827114Y3465677D1*
X830482Y3462677D1*
X833705Y3459677D1*
X836954Y3456677D1*
X840244Y3453677D1*
X843723Y3450677D1*
X847869Y3447677D1*
X852404Y3444677D1*
X856538Y3441677D1*
X860084Y3438677D1*
X863190Y3435677D1*
X866146Y3432677D1*
X869080Y3429677D1*
X871478Y3426677D1*
X873041Y3423677D1*
X874177Y3420677D1*
X883177D1*
X886167Y3417677D1*
X889546Y3414677D1*
X892654Y3411677D1*
X895355Y3408677D1*
X898347Y3405677D1*
X902369Y3402677D1*
X907177Y3399677D1*
X718177Y3573677D2*
Y3570677D1*
Y3567677D1*
X889177Y3573677D2*
Y3570677D1*
Y3567677D1*
X940177Y3573677D2*
X942583Y3570677D1*
X945628Y3567677D1*
X949328Y3564677D1*
X953153Y3561677D1*
X956545Y3558677D1*
X959671Y3555677D1*
X962781Y3552677D1*
X965994Y3549677D1*
X969359Y3546677D1*
X973108Y3543677D1*
X977589Y3540677D1*
X982174Y3537677D1*
X986073Y3534677D1*
X989491Y3531677D1*
X992934Y3528677D1*
X996927Y3525677D1*
X1001421Y3522677D1*
X1005487Y3519677D1*
X1008689Y3516677D1*
X1011570Y3513677D1*
X1014810Y3510677D1*
X1018420Y3507677D1*
X1022014Y3504677D1*
X1025957Y3501677D1*
X1030547Y3498677D1*
X1034923Y3495677D1*
X1038384Y3492677D1*
X1041320Y3489677D1*
X1044245Y3486677D1*
X1047018Y3483677D1*
X1049064Y3480677D1*
X1050308Y3477677D1*
X1051177Y3474677D1*
X1055982D1*
X1060655Y3471677D1*
X1065363Y3468677D1*
X1069538Y3465677D1*
X1073112Y3462677D1*
X1076428Y3459677D1*
X1080158Y3456677D1*
X1084656Y3453677D1*
X1089167Y3450677D1*
X1093161Y3447677D1*
X1096762Y3444677D1*
X1099808Y3441677D1*
X1102334Y3438677D1*
X1104958Y3435677D1*
X1108405Y3432677D1*
X1112516Y3429677D1*
X1116076Y3426677D1*
X1118444Y3423677D1*
X1120177Y3420677D1*
X1126177D1*
X1128692Y3417677D1*
X1131222Y3414677D1*
X1133148Y3411677D1*
X1134339Y3408677D1*
X1135177Y3405677D1*
X1147177D1*
X1148583Y3402677D1*
X1150177Y3399677D1*
X1117177Y3396677D1*
Y3393677D1*
X787177Y3567677D2*
Y3564677D1*
X799177Y3567677D2*
Y3564677D1*
X802177Y3567677D2*
Y3564677D1*
X814177Y3567677D2*
Y3564677D1*
X961177Y3399677D2*
Y3396677D1*
Y3393677D1*
X1027177D2*
X1030177Y3390677D1*
X1054177Y3393677D2*
X1051177Y3390677D1*
X1291177Y3264677D2*
Y3261677D1*
Y3258677D1*
X1318177Y3264677D2*
X1319455Y3261677D1*
X1321328Y3258677D1*
X1324134Y3255677D1*
X1327744Y3252677D1*
X1331819Y3249677D1*
X1336408Y3246677D1*
X1341089Y3243677D1*
X1344971Y3240677D1*
X1347953Y3237677D1*
X1350692Y3234677D1*
X1353849Y3231677D1*
X1357277Y3228677D1*
X1360074Y3225677D1*
X1361877Y3222677D1*
X1363177Y3219677D1*
X1372177D1*
X1374153Y3216677D1*
X1376745Y3213677D1*
X1379667Y3210677D1*
X1382788Y3207677D1*
X1386375Y3204677D1*
X1390662Y3201677D1*
X1395218Y3198677D1*
X1399222Y3195677D1*
X1402732Y3192677D1*
X1406134Y3189677D1*
X1409425Y3186677D1*
X1412686Y3183677D1*
X1416225Y3180677D1*
X1420163Y3177677D1*
X1424090Y3174677D1*
X1427522Y3171677D1*
X1430663Y3168677D1*
X1433778Y3165677D1*
X1436970Y3162677D1*
X1440113Y3159677D1*
X1443016Y3156677D1*
X1445876Y3153677D1*
X1448863Y3150677D1*
X1452025Y3147677D1*
X1455370Y3144677D1*
X1459112Y3141677D1*
X1463590Y3138677D1*
X1468174Y3135677D1*
X1472061Y3132677D1*
X1475385Y3129677D1*
X1478552Y3126677D1*
X1482209Y3123677D1*
X1486652Y3120677D1*
X1490964Y3117677D1*
X1494411Y3114677D1*
X1497443Y3111677D1*
X1500781Y3108677D1*
X1504611Y3105677D1*
X1508771Y3102677D1*
X1513380Y3099677D1*
X1517968Y3096677D1*
X1521974Y3093677D1*
X1523769Y3090677D1*
X1525177Y3087677D1*
X1510177D1*
Y3084677D1*
X1081177Y3258677D2*
X1083153Y3255677D1*
X1085780Y3252677D1*
X1088983Y3249677D1*
X1092924Y3246677D1*
X1097413Y3243677D1*
X1101482Y3240677D1*
X1104687Y3237677D1*
X1107569Y3234677D1*
X1110810Y3231677D1*
X1114373Y3228677D1*
X1117592Y3225677D1*
X1120428Y3222677D1*
X1123672Y3219677D1*
X1127846Y3216677D1*
X1132280Y3213677D1*
X1136114Y3210677D1*
X1139506Y3207677D1*
X1142940Y3204677D1*
X1146929Y3201677D1*
X1151445Y3198677D1*
X1155698Y3195677D1*
X1159454Y3192677D1*
X1163007Y3189677D1*
X1166349Y3186677D1*
X1169467Y3183677D1*
X1172570Y3180677D1*
X1176212Y3177677D1*
X1180652Y3174677D1*
X1184963Y3171677D1*
X1188411Y3168677D1*
X1191442Y3165677D1*
X1194746Y3162677D1*
X1198237Y3159677D1*
X1201060Y3156677D1*
X1202872Y3153677D1*
X1204177Y3150677D1*
X1213177D1*
X1215153Y3147677D1*
X1217757Y3144677D1*
X1220749Y3141677D1*
X1223913Y3138677D1*
X1226861Y3135677D1*
X1229325Y3132677D1*
X1230366Y3129677D1*
X1231177Y3126677D1*
X1243177D1*
X1245153Y3123677D1*
X1247745Y3120677D1*
X1250643Y3117677D1*
X1253566Y3114677D1*
X1256493Y3111677D1*
X1259737Y3108677D1*
X1263579Y3105677D1*
X1267688Y3102677D1*
X1271866Y3099677D1*
X1275917Y3096677D1*
X1279309Y3093677D1*
X1282177Y3090677D1*
X1135177Y3258677D2*
Y3255677D1*
Y3252677D1*
X1222177Y3258677D2*
Y3255677D1*
Y3252677D1*
X1324177Y3090677D2*
Y3087677D1*
Y3084677D1*
X1396177D2*
X1399177Y3081677D1*
X1438177Y3084677D2*
X1435177Y3081677D1*
X3181177Y1572677D2*
Y1569677D1*
Y1566677D1*
X3313177Y1572677D2*
Y1569677D1*
Y1566677D1*
X3142177D2*
X3144501Y1563677D1*
X3147002Y1560677D1*
X3149796Y1557677D1*
X3153300Y1554677D1*
X3157684Y1551677D1*
X3161998Y1548677D1*
X3165637Y1545677D1*
X3169326Y1542677D1*
X3173706Y1539677D1*
X3178227Y1536677D1*
X3182095Y1533677D1*
X3185499Y1530677D1*
X3188937Y1527677D1*
X3192928Y1524677D1*
X3197445Y1521677D1*
X3201698Y1518677D1*
X3205454Y1515677D1*
X3209007Y1512677D1*
X3212349Y1509677D1*
X3215443Y1506677D1*
X3218336Y1503677D1*
X3221224Y1500677D1*
X3224333Y1497677D1*
X3227477Y1494677D1*
X3230491Y1491677D1*
X3233353Y1488677D1*
X3236242Y1485677D1*
X3239475Y1482677D1*
X3243199Y1479677D1*
X3247579Y1476677D1*
X3252159Y1473677D1*
X3255997Y1470677D1*
X3258974Y1467677D1*
X3261812Y1464677D1*
X3265373Y1461677D1*
X3269729Y1458677D1*
X3274063Y1455677D1*
X3277924Y1452677D1*
X3281450Y1449677D1*
X3284836Y1446677D1*
X3288062Y1443677D1*
X3290997Y1440677D1*
X3293870Y1437677D1*
X3296861Y1434677D1*
X3300012Y1431677D1*
X3303265Y1428677D1*
X3306730Y1425677D1*
X3310872Y1422677D1*
X3315405Y1419677D1*
X3319538Y1416677D1*
X3323084Y1413677D1*
X3326190Y1410677D1*
X3329146Y1407677D1*
X3332080Y1404677D1*
X3334478Y1401677D1*
X3336041Y1398677D1*
X3337177Y1395677D1*
X3346177D1*
Y1392677D1*
X3379177Y1566677D2*
X3384271Y1563677D1*
X3388472Y1560677D1*
X3391927Y1557677D1*
X3395064Y1554677D1*
X3398274Y1551677D1*
X3401456Y1548677D1*
X3404495Y1545677D1*
X3407468Y1542677D1*
X3410729Y1539677D1*
X3414553Y1536677D1*
X3418476Y1533677D1*
X3422107Y1530677D1*
X3425524Y1527677D1*
X3428888Y1524677D1*
X3432319Y1521677D1*
X3436094Y1518677D1*
X3440584Y1515677D1*
X3445172Y1512677D1*
X3449072Y1509677D1*
X3452491Y1506677D1*
X3455934Y1503677D1*
X3459927Y1500677D1*
X3464421Y1497677D1*
X3468487Y1494677D1*
X3471689Y1491677D1*
X3474570Y1488677D1*
X3477810Y1485677D1*
X3481420Y1482677D1*
X3485014Y1479677D1*
X3488957Y1476677D1*
X3493547Y1473677D1*
X3497923Y1470677D1*
X3501396Y1467677D1*
X3504437Y1464677D1*
X3507756Y1461677D1*
X3511353Y1458677D1*
X3514573Y1455677D1*
X3517320Y1452677D1*
X3520289Y1449677D1*
X3524127Y1446677D1*
X3528510Y1443677D1*
X3532579Y1440677D1*
X3536122Y1437677D1*
X3539430Y1434677D1*
X3543158Y1431677D1*
X3547656Y1428677D1*
X3552167Y1425677D1*
X3556173Y1422677D1*
X3559879Y1419677D1*
X3563296Y1416677D1*
X3566435Y1413677D1*
X3569446Y1410677D1*
X3572721Y1407677D1*
X3576550Y1404677D1*
X3580457Y1401677D1*
X3583923Y1398677D1*
X3586771Y1395677D1*
X3589177Y1392677D1*
X1570177Y1527677D2*
X1569690Y1524677D1*
X1568712Y1521677D1*
X1566960Y1518677D1*
X1564221Y1515677D1*
X1560861Y1512677D1*
X1557743Y1509677D1*
X1555158Y1506677D1*
X1552793Y1503677D1*
X1550442Y1500677D1*
X1548267Y1497677D1*
X1546260Y1494677D1*
X1544065Y1491677D1*
X1541652Y1488677D1*
X1538996Y1485677D1*
X1536084Y1482677D1*
X1533369Y1479677D1*
X1531192Y1476677D1*
X1529486Y1473677D1*
X1527852Y1470677D1*
X1525783Y1467677D1*
X1523198Y1464677D1*
X1520238Y1461677D1*
X1517187Y1458677D1*
X1514320Y1455677D1*
X1511484Y1452677D1*
X1508606Y1449677D1*
X1505864Y1446677D1*
X1503565Y1443677D1*
X1501821Y1440677D1*
X1500194Y1437677D1*
X1498150Y1434677D1*
X1495291Y1431677D1*
X1491863Y1428677D1*
X1488541Y1425677D1*
X1485396Y1422677D1*
X1482357Y1419677D1*
X1479916Y1416677D1*
X1478314Y1413677D1*
X1476981Y1410677D1*
X1475147Y1407677D1*
X1472597Y1404677D1*
X1469709Y1401677D1*
X1466824Y1398677D1*
X1464213Y1395677D1*
X1462116Y1392677D1*
X1460453Y1389677D1*
X1458839Y1386677D1*
X1456778Y1383677D1*
X1454196Y1380677D1*
X1451238Y1377677D1*
X1448164Y1374677D1*
X1445109Y1371677D1*
X1441719Y1368677D1*
X1438169Y1365677D1*
X1435325Y1362677D1*
X1433495Y1359677D1*
X1432054Y1356677D1*
X1430186Y1353677D1*
X1427724Y1350677D1*
X1425200Y1347677D1*
X1422902Y1344677D1*
X1420467Y1341677D1*
X1417433Y1338677D1*
X1414053Y1335677D1*
X1411281Y1332677D1*
X1409479Y1329677D1*
X1408049Y1326677D1*
X1406173Y1323677D1*
X1403607Y1320677D1*
X1400724Y1317677D1*
X1397966Y1314677D1*
X1395786Y1311677D1*
X1394178Y1308677D1*
X1395725Y1305677D1*
X1397227Y1302677D1*
X1398235Y1299677D1*
X1398770Y1296677D1*
X1399015Y1293677D1*
X1399116Y1290677D1*
X1399155Y1287677D1*
X1399170Y1284677D1*
X1399175Y1281677D1*
X1399176Y1278677D1*
X1399177Y1275677D1*
Y1272677D1*
Y1269677D1*
Y1266677D1*
Y1263677D1*
Y1260677D1*
Y1257677D1*
Y1254677D1*
Y1251677D1*
Y1248677D1*
X1399201Y1245677D1*
X1399412Y1242677D1*
X1399904Y1239677D1*
X1401545Y1236677D1*
X1403135Y1233677D1*
X1404194Y1230677D1*
X1404753Y1227677D1*
X1405009Y1224677D1*
X1405114Y1221677D1*
X1405155Y1218677D1*
X1405169Y1215677D1*
X1405175Y1212677D1*
X1405176Y1209677D1*
X1405177Y1206677D1*
Y1203677D1*
Y1200677D1*
Y1197677D1*
Y1194677D1*
Y1191677D1*
Y1188677D1*
Y1185677D1*
Y1182677D1*
Y1179677D1*
Y1176677D1*
Y1173677D1*
Y1170677D1*
Y1167677D1*
Y1164677D1*
Y1161677D1*
Y1158677D1*
Y1155677D1*
Y1152677D1*
Y1149677D1*
Y1146677D1*
Y1143677D1*
Y1140677D1*
Y1137677D1*
Y1134677D1*
Y1131677D1*
X1405154Y1128677D1*
X1404943Y1125677D1*
X1404451Y1122677D1*
X1402809Y1119677D1*
X1401220Y1116677D1*
X1400161Y1113677D1*
X1399601Y1110677D1*
X1399346Y1107677D1*
X1399240Y1104677D1*
X1399200Y1101677D1*
X1399185Y1098677D1*
X1399180Y1095677D1*
X1399178Y1092677D1*
X1399177Y1089677D1*
Y1086677D1*
Y1083677D1*
Y1080677D1*
Y1077677D1*
Y1074677D1*
X1573177Y1527677D2*
Y1524677D1*
Y1521677D1*
Y1518677D1*
Y1515677D1*
Y1512677D1*
Y1509677D1*
Y1506677D1*
Y1503677D1*
Y1500677D1*
Y1497677D1*
Y1494677D1*
Y1491677D1*
Y1488677D1*
Y1485677D1*
Y1482677D1*
Y1479677D1*
Y1476677D1*
Y1473677D1*
Y1470677D1*
Y1467677D1*
Y1464677D1*
X1573189Y1461677D1*
X1573294Y1458677D1*
X1573677Y1455677D1*
X1574395Y1452677D1*
X1575164Y1449677D1*
X1575688Y1446677D1*
X1575966Y1443677D1*
X1576093Y1440677D1*
X1576146Y1437677D1*
X1576166Y1434677D1*
X1576173Y1431677D1*
X1576176Y1428677D1*
X1576177Y1425677D1*
Y1422677D1*
Y1419677D1*
Y1416677D1*
Y1413677D1*
Y1410677D1*
Y1407677D1*
Y1404677D1*
Y1401677D1*
Y1398677D1*
Y1395677D1*
Y1392677D1*
Y1389677D1*
X1576165Y1386677D1*
X1576060Y1383677D1*
X1575678Y1380677D1*
X1574959Y1377677D1*
X1574190Y1374677D1*
X1573667Y1371677D1*
X1573389Y1368677D1*
X1573261Y1365677D1*
X1573209Y1362677D1*
X1573188Y1359677D1*
X1573181Y1356677D1*
X1573178Y1353677D1*
Y1350677D1*
X1573177Y1347677D1*
Y1344677D1*
Y1341677D1*
Y1338677D1*
Y1335677D1*
Y1332677D1*
Y1329677D1*
Y1326677D1*
Y1323677D1*
Y1320677D1*
Y1317677D1*
Y1314677D1*
Y1311677D1*
X1573154Y1308677D1*
X1572943Y1305677D1*
X1572451Y1302677D1*
X1570809Y1299677D1*
X1569220Y1296677D1*
X1568161Y1293677D1*
X1567601Y1290677D1*
X1567346Y1287677D1*
X1567229Y1284677D1*
X1567059Y1281677D1*
X1566724Y1278677D1*
X1565007Y1275677D1*
X1562537Y1272677D1*
X1559686Y1269677D1*
X1556816Y1266677D1*
X1554210Y1263677D1*
X1552115Y1260677D1*
X1550453Y1257677D1*
X1548839Y1254677D1*
X1546778Y1251677D1*
X1544196Y1248677D1*
X1541238Y1245677D1*
X1538187Y1242677D1*
X1535343Y1239677D1*
X1532706Y1236677D1*
X1530488Y1233677D1*
X1528788Y1230677D1*
X1527181Y1227677D1*
X1525145Y1224677D1*
X1522290Y1221677D1*
X1518886Y1218677D1*
X1515752Y1215677D1*
X1513161Y1212677D1*
X1510794Y1209677D1*
X1508443Y1206677D1*
X1506267Y1203677D1*
X1504260Y1200677D1*
X1502065Y1197677D1*
X1499652Y1194677D1*
X1496984Y1191677D1*
X1493966Y1188677D1*
X1490858Y1185677D1*
X1487880Y1182677D1*
X1485234Y1179677D1*
X1483123Y1176677D1*
X1481444Y1173677D1*
X1479746Y1170677D1*
X1477502Y1167677D1*
X1474860Y1164677D1*
X1472187Y1161677D1*
X1469433Y1158677D1*
X1466588Y1155677D1*
X1463857Y1152677D1*
X1461563Y1149677D1*
X1459821Y1146677D1*
X1458194Y1143677D1*
X1456149Y1140677D1*
X1453291Y1137677D1*
X1449886Y1134677D1*
X1446752Y1131677D1*
X1444161Y1128677D1*
X1441794Y1125677D1*
X1439443Y1122677D1*
X1437255Y1119677D1*
X1435155Y1116677D1*
X1432683Y1113677D1*
X1429933Y1110677D1*
X1427226Y1107677D1*
X1424537Y1104677D1*
X1421857Y1101677D1*
X1419089Y1098677D1*
X1416232Y1095677D1*
X1413856Y1092677D1*
X1412191Y1089677D1*
X1410593Y1086677D1*
X1408447Y1083677D1*
X1406018Y1080677D1*
X1403937Y1077677D1*
X1402177Y1074677D1*
X3466177Y1404677D2*
Y1401677D1*
Y1398677D1*
X3484177Y1404677D2*
Y1401677D1*
Y1398677D1*
X3487177Y1404677D2*
Y1401677D1*
Y1398677D1*
X3505177Y1404677D2*
Y1401677D1*
Y1398677D1*
X3397177D2*
Y1395677D1*
Y1392677D1*
X3574177Y1398677D2*
Y1395677D1*
Y1392677D1*
X3568177Y1263677D2*
Y1260677D1*
Y1257677D1*
X3676177Y1263677D2*
Y1260677D1*
Y1257677D1*
X3514177D2*
X3517434Y1254677D1*
X3520147Y1251677D1*
X3522877Y1248677D1*
X3526396Y1245677D1*
X3530737Y1242677D1*
X3535054Y1239677D1*
X3538820Y1236677D1*
X3542068Y1233677D1*
X3545118Y1230677D1*
X3548328Y1227677D1*
X3551802Y1224677D1*
X3555867Y1221677D1*
X3560506Y1218677D1*
X3564961Y1215677D1*
X3568785Y1212677D1*
X3572056Y1209677D1*
X3575102Y1206677D1*
X3578175Y1203677D1*
X3580998Y1200677D1*
X3583608Y1197677D1*
X3586745Y1194677D1*
X3590874Y1191677D1*
X3595290Y1188677D1*
X3599117Y1185677D1*
X3602507Y1182677D1*
X3605940Y1179677D1*
X3609929Y1176677D1*
X3614445Y1173677D1*
X3618698Y1170677D1*
X3622454Y1167677D1*
X3626007Y1164677D1*
X3629349Y1161677D1*
X3632467Y1158677D1*
X3635570Y1155677D1*
X3639212Y1152677D1*
X3643652Y1149677D1*
X3647963Y1146677D1*
X3651411Y1143677D1*
X3654442Y1140677D1*
X3657746Y1137677D1*
X3661237Y1134677D1*
X3664060Y1131677D1*
X3665872Y1128677D1*
X3667177Y1125677D1*
X3676177D1*
X3678153Y1122677D1*
X3680757Y1119677D1*
X3683749Y1116677D1*
X3686913Y1113677D1*
X3689861Y1110677D1*
X3692325Y1107677D1*
X3693366Y1104677D1*
X3694177Y1101677D1*
X3706177D1*
X3708153Y1098677D1*
X3710745Y1095677D1*
X3713643Y1092677D1*
X3716541Y1089677D1*
X3719249Y1086677D1*
X3721733Y1083677D1*
X3724177Y1080677D1*
X3742177Y1257677D2*
X3752526Y1254677D1*
X3759429Y1251677D1*
X3764559Y1248677D1*
X3769400Y1245677D1*
X3774115Y1242677D1*
X3777988Y1239677D1*
X3780961Y1236677D1*
X3783695Y1233677D1*
X3786886Y1230677D1*
X3790651Y1227677D1*
X3794786Y1224677D1*
X3799397Y1221677D1*
X3804086Y1218677D1*
X3807969Y1215677D1*
X3810952Y1212677D1*
X3813692Y1209677D1*
X3816849Y1206677D1*
X3820277Y1203677D1*
X3823074Y1200677D1*
X3824877Y1197677D1*
X3826177Y1194677D1*
X3835177D1*
X3837153Y1191677D1*
X3839745Y1188677D1*
X3842667Y1185677D1*
X3845788Y1182677D1*
X3849375Y1179677D1*
X3853662Y1176677D1*
X3858218Y1173677D1*
X3862222Y1170677D1*
X3865732Y1167677D1*
X3869134Y1164677D1*
X3872425Y1161677D1*
X3875686Y1158677D1*
X3879225Y1155677D1*
X3883163Y1152677D1*
X3887090Y1149677D1*
X3890522Y1146677D1*
X3893663Y1143677D1*
X3896778Y1140677D1*
X3899946Y1137677D1*
X3902879Y1134677D1*
X3905331Y1131677D1*
X3906369Y1128677D1*
X3907177Y1125677D1*
X3919177D1*
X3921153Y1122677D1*
X3923780Y1119677D1*
X3926983Y1116677D1*
X3930924Y1113677D1*
X3935413Y1110677D1*
X3939482Y1107677D1*
X3942687Y1104677D1*
X3945569Y1101677D1*
X3948810Y1098677D1*
X3952373Y1095677D1*
X3955548Y1092677D1*
X3957981Y1089677D1*
X3959757Y1086677D1*
X3961177Y1083677D1*
X1258177Y1146677D2*
X1256103Y1143677D1*
X1254106Y1140677D1*
X1252192Y1137677D1*
X1250062Y1134677D1*
X1247853Y1131677D1*
X1245745Y1128677D1*
X1243402Y1125677D1*
X1240396Y1122677D1*
X1236927Y1119677D1*
X1233790Y1116677D1*
X1231377Y1113677D1*
X1229561Y1110677D1*
X1227880Y1107677D1*
X1225794Y1104677D1*
X1223201Y1101677D1*
X1220239Y1098677D1*
X1217188Y1095677D1*
X1214343Y1092677D1*
X1211706Y1089677D1*
X1209488Y1086677D1*
X1207788Y1083677D1*
X1206181Y1080677D1*
X1204145Y1077677D1*
X1201290Y1074677D1*
X1197886Y1071677D1*
X1194775Y1068677D1*
X1192395Y1065677D1*
X1190783Y1062677D1*
X1189833Y1059677D1*
X1189177Y1056677D1*
X1183177D1*
X1182238Y1053677D1*
X1180622Y1050677D1*
X1178475Y1047677D1*
X1175918Y1044677D1*
X1172943Y1041677D1*
X1169850Y1038677D1*
X1166878Y1035677D1*
X1164233Y1032677D1*
X1162122Y1029677D1*
X1160443Y1026677D1*
X1158746Y1023677D1*
X1156502Y1020677D1*
X1153860Y1017677D1*
X1151187Y1014677D1*
X1148433Y1011677D1*
X1145588Y1008677D1*
X1142857Y1005677D1*
X1140563Y1002677D1*
X1138821Y999677D1*
X1137194Y996677D1*
X1135149Y993677D1*
X1132291Y990677D1*
X1128886Y987677D1*
X1125775Y984677D1*
X1123395Y981677D1*
X1121783Y978677D1*
X1120833Y975677D1*
X1120177Y972677D1*
X1114177D1*
X1113427Y969677D1*
X1111336Y966677D1*
X1109008Y963677D1*
X1107163Y960677D1*
X1106002Y957677D1*
X1105177Y954677D1*
X1099177D1*
X1098128Y951677D1*
X1097024Y948677D1*
X1095668Y945677D1*
X1093726Y942677D1*
X1091290Y939677D1*
X1088753Y936677D1*
X1086637Y933677D1*
X1085329Y930677D1*
X1084664Y927677D1*
X1084368Y924677D1*
X1084248Y921677D1*
X1084202Y918677D1*
X1084186Y915677D1*
X1084180Y912677D1*
X1084178Y909677D1*
X1084177Y906677D1*
Y903677D1*
Y900677D1*
X1090177D1*
Y897677D1*
Y894677D1*
Y891677D1*
Y888677D1*
Y885677D1*
Y882677D1*
Y879677D1*
Y876677D1*
Y873677D1*
Y870677D1*
Y867677D1*
Y864677D1*
Y861677D1*
Y858677D1*
Y855677D1*
Y852677D1*
Y849677D1*
Y846677D1*
Y843677D1*
Y840677D1*
X1090201Y837677D1*
X1090412Y834677D1*
X1090904Y831677D1*
X1092545Y828677D1*
X1094135Y825677D1*
X1095194Y822677D1*
X1095753Y819677D1*
X1096009Y816677D1*
X1096114Y813677D1*
X1096155Y810677D1*
X1096169Y807677D1*
X1096175Y804677D1*
X1096176Y801677D1*
X1096177Y798677D1*
Y795677D1*
Y792677D1*
Y789677D1*
Y786677D1*
Y783677D1*
Y780677D1*
Y777677D1*
Y774677D1*
Y771677D1*
Y768677D1*
X1090177D1*
Y765677D1*
Y762677D1*
Y759677D1*
Y756677D1*
Y753677D1*
Y750677D1*
Y747677D1*
Y744677D1*
Y741677D1*
Y738677D1*
Y735677D1*
Y732677D1*
Y729677D1*
Y726677D1*
Y723677D1*
Y720677D1*
Y717677D1*
Y714677D1*
Y711677D1*
Y708677D1*
Y705677D1*
Y702677D1*
Y699677D1*
X1084177D1*
Y696677D1*
Y693677D1*
X1258177Y1140677D2*
X1259104Y1137677D1*
X1260592Y1134677D1*
X1262145Y1131677D1*
X1263196Y1128677D1*
X1263754Y1125677D1*
X1264009Y1122677D1*
X1264114Y1119677D1*
X1264155Y1116677D1*
X1264169Y1113677D1*
X1264175Y1110677D1*
X1264176Y1107677D1*
X1264177Y1104677D1*
Y1101677D1*
Y1098677D1*
Y1095677D1*
Y1092677D1*
Y1089677D1*
Y1086677D1*
Y1083677D1*
X1264189Y1080677D1*
X1264294Y1077677D1*
X1264677Y1074677D1*
X1265395Y1071677D1*
X1266164Y1068677D1*
X1266688Y1065677D1*
X1266966Y1062677D1*
X1267093Y1059677D1*
X1267146Y1056677D1*
X1267166Y1053677D1*
X1267173Y1050677D1*
X1267176Y1047677D1*
X1267177Y1044677D1*
Y1041677D1*
Y1038677D1*
Y1035677D1*
Y1032677D1*
Y1029677D1*
Y1026677D1*
Y1023677D1*
X1267165Y1020677D1*
X1267060Y1017677D1*
X1266678Y1014677D1*
X1265959Y1011677D1*
X1265190Y1008677D1*
X1264667Y1005677D1*
X1264389Y1002677D1*
X1264261Y999677D1*
X1264209Y996677D1*
X1264188Y993677D1*
X1264181Y990677D1*
X1264178Y987677D1*
Y984677D1*
X1264177Y981677D1*
Y978677D1*
Y975677D1*
Y972677D1*
Y969677D1*
Y966677D1*
Y963677D1*
Y960677D1*
Y957677D1*
Y954677D1*
X1264154Y951677D1*
X1263943Y948677D1*
X1263451Y945677D1*
X1261809Y942677D1*
X1260220Y939677D1*
X1259161Y936677D1*
X1258601Y933677D1*
X1258346Y930677D1*
X1258240Y927677D1*
X1258200Y924677D1*
X1258185Y921677D1*
X1258180Y918677D1*
X1258178Y915677D1*
X1258166Y912677D1*
X1258060Y909677D1*
X1257678Y906677D1*
X1256936Y903677D1*
X1255956Y900677D1*
X1254644Y897677D1*
X1252718Y894677D1*
X1250276Y891677D1*
X1247611Y888677D1*
X1244903Y885677D1*
X1242111Y882677D1*
X1239240Y879677D1*
X1236865Y876677D1*
X1235309Y873677D1*
X1234177Y870677D1*
X1228177D1*
X1227690Y867677D1*
X1226712Y864677D1*
X1224960Y861677D1*
X1222221Y858677D1*
X1218861Y855677D1*
X1215767Y852677D1*
X1213369Y849677D1*
X1211558Y846677D1*
X1209891Y843677D1*
X1207922Y840677D1*
X1205795Y837677D1*
X1203722Y834677D1*
X1201394Y831677D1*
X1198393Y828677D1*
X1194926Y825677D1*
X1191790Y822677D1*
X1189377Y819677D1*
X1187561Y816677D1*
X1185880Y813677D1*
X1183794Y810677D1*
X1181201Y807677D1*
X1178263Y804677D1*
X1175421Y801677D1*
X1173329Y798677D1*
X1172061Y795677D1*
X1171177Y792677D1*
X1165177D1*
Y789677D1*
Y786677D1*
X1159177D1*
X1158690Y783677D1*
X1157724Y780677D1*
X1156077Y777677D1*
X1153732Y774677D1*
X1151196Y771677D1*
X1149240Y768677D1*
X1148030Y765677D1*
X1147177Y762677D1*
X1141177D1*
Y759677D1*
Y756677D1*
Y753677D1*
X1135177D1*
X1133201Y750677D1*
X1130610Y747677D1*
X1127711Y744677D1*
X1124824Y741677D1*
X1122213Y738677D1*
X1120139Y735677D1*
X1118687Y732677D1*
X1117859Y729677D1*
X1117439Y726677D1*
X1117177Y723677D1*
X1111177D1*
X1108639Y720677D1*
X1105887Y717677D1*
X1103102Y714677D1*
X1100170Y711677D1*
X1097369Y708677D1*
X1095294Y705677D1*
X1093892Y702677D1*
X1092396Y699677D1*
X1090091Y696677D1*
X1087177Y693677D1*
X3805177Y1089677D2*
Y1086677D1*
Y1083677D1*
X3922177Y1089677D2*
Y1086677D1*
Y1083677D1*
X3733177D2*
X3730177Y1080677D1*
X3976177Y954677D2*
Y951677D1*
Y948677D1*
X4027177Y954677D2*
Y951677D1*
Y948677D1*
X3907177D2*
X3892177Y945677D1*
Y942677D1*
Y939677D1*
X3901177D1*
X3903692Y936677D1*
X3906222Y933677D1*
X3908148Y930677D1*
X3909339Y927677D1*
X3910177Y924677D1*
X3914982D1*
X3919655Y921677D1*
X3924375Y918677D1*
X3928644Y915677D1*
X3932448Y912677D1*
X3935679Y909677D1*
X3938287Y906677D1*
X3939351Y903677D1*
X3940177Y900677D1*
X3944982D1*
X3949644Y897677D1*
X3954246Y894677D1*
X3958050Y891677D1*
X3960988Y888677D1*
X3963706Y885677D1*
X3966855Y882677D1*
X3970279Y879677D1*
X3973075Y876677D1*
X3974877Y873677D1*
X3976177Y870677D1*
X3985177D1*
X3987715Y867677D1*
X3990491Y864677D1*
X3993486Y861677D1*
X3997183Y858677D1*
X4001423Y855677D1*
X4005040Y852677D1*
X4007431Y849677D1*
X4009177Y846677D1*
X4015177D1*
Y843677D1*
X4093177Y948677D2*
Y945677D1*
X4138177D2*
X4140366Y942677D1*
X4142747Y939677D1*
X4145368Y936677D1*
X4148164Y933677D1*
X4150508Y930677D1*
X4152051Y927677D1*
X4153177Y924677D1*
X4162177D1*
X4165167Y921677D1*
X4168570Y918677D1*
X4171854Y915677D1*
X4174975Y912677D1*
X4178005Y909677D1*
X4180448Y906677D1*
X4182031Y903677D1*
X4183177Y900677D1*
X4189177D1*
X4190226Y897677D1*
X4191330Y894677D1*
X4192675Y891677D1*
X4194535Y888677D1*
X4196799Y885677D1*
X4199383Y882677D1*
X4202166Y879677D1*
X4204513Y876677D1*
X4206168Y873677D1*
X4207764Y870677D1*
X4209905Y867677D1*
X4212293Y864677D1*
X4214158Y861677D1*
X4215259Y858677D1*
X4215824Y855677D1*
X4216177Y852677D1*
X4222177D1*
Y849677D1*
Y846677D1*
X4228177D1*
Y843677D1*
X457177Y876677D2*
Y873677D1*
Y870677D1*
X451177D1*
X450714Y867677D1*
X449970Y864677D1*
X449193Y861677D1*
X448665Y858677D1*
X448371Y855677D1*
X448177Y852677D1*
X442177D1*
Y849677D1*
Y846677D1*
X436177D1*
X435714Y843677D1*
X434970Y840677D1*
X434170Y837677D1*
X433433Y834677D1*
X432390Y831677D1*
X430814Y828677D1*
X429117Y825677D1*
X427668Y822677D1*
X426386Y819677D1*
X425360Y816677D1*
X424707Y813677D1*
X424159Y810677D1*
X423438Y807677D1*
X421066Y804677D1*
X418177Y801677D1*
X421446Y798677D1*
X424252Y795677D1*
X427259Y792677D1*
X431091Y789677D1*
X435273Y786677D1*
X439050Y783677D1*
X440800Y780677D1*
X442177Y777677D1*
X451177D1*
Y774677D1*
X462605Y771677D1*
X472166Y768677D1*
X480689Y765677D1*
X488802Y762677D1*
X495825Y759677D1*
X502437Y756677D1*
X509886Y753677D1*
X520177D1*
Y750677D1*
X544177Y747677D1*
X463177Y876677D2*
Y873677D1*
Y870677D1*
X469177D1*
X471715Y867677D1*
X474468Y864677D1*
X477252Y861677D1*
X480184Y858677D1*
X482986Y855677D1*
X485050Y852677D1*
X486303Y849677D1*
X487177Y846677D1*
X493177D1*
X495715Y843677D1*
X498456Y840677D1*
X501158Y837677D1*
X503954Y834677D1*
X507117Y831677D1*
X511007Y828677D1*
X515598Y825677D1*
X520323Y822677D1*
X525162Y819677D1*
X530096Y816677D1*
X534359Y813677D1*
X537642Y810677D1*
X540553Y807677D1*
X543804Y804677D1*
X547372Y801677D1*
X550603Y798677D1*
X553556Y795677D1*
X557289Y792677D1*
X562540Y789677D1*
X568250Y786677D1*
X573250Y783677D1*
X575510Y780677D1*
X575873Y777677D1*
X574537Y774677D1*
X572999Y771677D1*
X571623Y768677D1*
X570370Y765677D1*
X569354Y762677D1*
X568726Y759677D1*
X568391Y756677D1*
X568177Y753677D1*
X562177D1*
Y750677D1*
Y747677D1*
X4090177Y855677D2*
Y852677D1*
Y849677D1*
X4165177Y855677D2*
Y852677D1*
Y849677D1*
X4045177D2*
Y846677D1*
Y843677D1*
X4216177Y849677D2*
Y846677D1*
Y843677D1*
X949177Y768677D2*
X946187Y765677D1*
X942808Y762677D1*
X939735Y759677D1*
X937355Y756677D1*
X935552Y753677D1*
X933877Y750677D1*
X931804Y747677D1*
X929307Y744677D1*
X926622Y741677D1*
X923906Y738677D1*
X921113Y735677D1*
X918240Y732677D1*
X915865Y729677D1*
X914309Y726677D1*
X913177Y723677D1*
X907177D1*
X906690Y720677D1*
X905724Y717677D1*
X904077Y714677D1*
X901732Y711677D1*
X899196Y708677D1*
X897240Y705677D1*
X896030Y702677D1*
X895177Y699677D1*
X889177D1*
X888238Y696677D1*
X886645Y693677D1*
X884686Y690677D1*
X882682Y687677D1*
X880380Y684677D1*
X877388Y681677D1*
X873924Y678677D1*
X870789Y675677D1*
X868377Y672677D1*
X866560Y669677D1*
X864880Y666677D1*
X862793Y663677D1*
X860201Y660677D1*
X857263Y657677D1*
X854421Y654677D1*
X852329Y651677D1*
X851061Y648677D1*
X850177Y645677D1*
X844177D1*
X844201Y642677D1*
X844412Y639677D1*
X844904Y636677D1*
X846545Y633677D1*
X848135Y630677D1*
X849194Y627677D1*
X849753Y624677D1*
X850009Y621677D1*
X850114Y618677D1*
X850155Y615677D1*
X850181Y612677D1*
X850292Y609677D1*
X850676Y606677D1*
X851383Y603677D1*
X852047Y600677D1*
X852200Y597677D1*
X851865Y594677D1*
X851605Y591677D1*
X851853Y588677D1*
X852364Y585677D1*
X852768Y582677D1*
X852996Y579677D1*
X853104Y576677D1*
X853149Y573677D1*
X853167Y570677D1*
X853174Y567677D1*
X853176Y564677D1*
X853177Y561677D1*
Y558677D1*
Y555677D1*
Y552677D1*
Y549677D1*
Y546677D1*
Y543677D1*
Y540677D1*
Y537677D1*
Y534677D1*
Y531677D1*
Y528677D1*
Y525677D1*
Y522677D1*
Y519677D1*
Y516677D1*
Y513677D1*
Y510677D1*
Y507677D1*
Y504677D1*
Y501677D1*
Y498677D1*
Y495677D1*
Y492677D1*
Y489677D1*
Y486677D1*
Y483677D1*
Y480677D1*
Y477677D1*
Y474677D1*
X853165Y471677D1*
X853060Y468677D1*
X852678Y465677D1*
X851959Y462677D1*
X851190Y459677D1*
X850667Y456677D1*
X850389Y453677D1*
X850261Y450677D1*
X850209Y447677D1*
X850188Y444677D1*
X850181Y441677D1*
X850177Y438677D1*
X949177Y762677D2*
Y759677D1*
Y756677D1*
Y753677D1*
Y750677D1*
Y747677D1*
Y744677D1*
Y741677D1*
Y738677D1*
Y735677D1*
Y732677D1*
Y729677D1*
Y726677D1*
Y723677D1*
X955177D1*
Y720677D1*
Y717677D1*
Y714677D1*
Y711677D1*
Y708677D1*
Y705677D1*
Y702677D1*
Y699677D1*
Y696677D1*
Y693677D1*
Y690677D1*
Y687677D1*
Y684677D1*
Y681677D1*
Y678677D1*
Y675677D1*
X955189Y672677D1*
X955294Y669677D1*
X955665Y666677D1*
X956278Y663677D1*
X956665Y660677D1*
X956470Y657677D1*
X955979Y654677D1*
X955583Y651677D1*
X955357Y648677D1*
X955250Y645677D1*
X955205Y642677D1*
X955187Y639677D1*
X955181Y636677D1*
X955178Y633677D1*
Y630677D1*
X955177Y627677D1*
Y624677D1*
Y621677D1*
Y618677D1*
Y615677D1*
Y612677D1*
Y609677D1*
Y606677D1*
Y603677D1*
Y600677D1*
Y597677D1*
Y594677D1*
Y591677D1*
X949177D1*
Y588677D1*
Y585677D1*
Y582677D1*
Y579677D1*
Y576677D1*
Y573677D1*
Y570677D1*
Y567677D1*
Y564677D1*
Y561677D1*
Y558677D1*
Y555677D1*
Y552677D1*
Y549677D1*
Y546677D1*
Y543677D1*
Y540677D1*
Y537677D1*
X949165Y534677D1*
X949060Y531677D1*
X948654Y528677D1*
X947701Y525677D1*
X945957Y522677D1*
X943232Y519677D1*
X939966Y516677D1*
X937149Y513677D1*
X935088Y510677D1*
X933327Y507677D1*
X931403Y504677D1*
X929071Y501677D1*
X926329Y498677D1*
X923315Y495677D1*
X920442Y492677D1*
X918337Y489677D1*
X917063Y486677D1*
X916177Y483677D1*
X910177D1*
X907639Y480677D1*
X904898Y477677D1*
X902208Y474677D1*
X899505Y471677D1*
X896619Y468677D1*
X893077Y465677D1*
X888655Y462677D1*
X884171Y459677D1*
X880199Y456677D1*
X876707Y453677D1*
X874049Y450677D1*
X872375Y447677D1*
X871177Y444677D1*
X862177D1*
X859365Y441677D1*
X856177Y438677D1*
X4138177Y732677D2*
X4108177Y729677D1*
Y726677D1*
Y723677D1*
Y720677D1*
X4108189Y717677D1*
X4108294Y714677D1*
X4108677Y711677D1*
X4109395Y708677D1*
X4110164Y705677D1*
X4110688Y702677D1*
X4110966Y699677D1*
X4111081Y696677D1*
X4111028Y693677D1*
X4110666Y690677D1*
X4109955Y687677D1*
X4109189Y684677D1*
X4108666Y681677D1*
X4108388Y678677D1*
X4108261Y675677D1*
X4108209Y672677D1*
X4108188Y669677D1*
X4108158Y666677D1*
X4107944Y663677D1*
X4107451Y660677D1*
X4105809Y657677D1*
X4104220Y654677D1*
X4103156Y651677D1*
X4102565Y648677D1*
X4102177Y645677D1*
X4109302D1*
X4116745Y642677D1*
X4124661Y639677D1*
X4131455Y636677D1*
X4136422Y633677D1*
X4140713Y630677D1*
X4145797Y627677D1*
X4151759Y624677D1*
X4157469Y621677D1*
X4162756Y618677D1*
X4168036Y615677D1*
X4172722Y612677D1*
X4176321Y609677D1*
X4179411Y606677D1*
X4182747Y603677D1*
X4186350Y600677D1*
X4189560Y597677D1*
X4192190Y594677D1*
X4194672Y591677D1*
X4197410Y588677D1*
X4200305Y585677D1*
X4203093Y582677D1*
X4205905Y579677D1*
X4208873Y576677D1*
X4211981Y573677D1*
X4214915Y570677D1*
X4217232Y567677D1*
X4219199Y564677D1*
X4221265Y561677D1*
X4223308Y558677D1*
X4225177Y555677D1*
X4174177Y729677D2*
Y726677D1*
Y723677D1*
X4192177D1*
Y720677D1*
X4202670Y717677D1*
X4211511Y714677D1*
X4219421Y711677D1*
X4226504Y708677D1*
X4232498Y705677D1*
X4235120Y702677D1*
X4237177Y699677D1*
X4243810D1*
X4249108Y696677D1*
X4253926Y693677D1*
X4257999Y690677D1*
X4259624Y687677D1*
X4260511Y684677D1*
X4260915Y681677D1*
X4261080Y678677D1*
X4261143Y675677D1*
X4261165Y672677D1*
X4261173Y669677D1*
X4261176Y666677D1*
X4261177Y663677D1*
Y660677D1*
Y657677D1*
Y654677D1*
Y651677D1*
Y648677D1*
Y645677D1*
Y642677D1*
Y639677D1*
X4255177D1*
Y636677D1*
X4255165Y633677D1*
X4255060Y630677D1*
X4254678Y627677D1*
X4253959Y624677D1*
X4253190Y621677D1*
X4252667Y618677D1*
X4252389Y615677D1*
X4252238Y612677D1*
X4251974Y609677D1*
X4251189Y606677D1*
X4249733Y603677D1*
X4248087Y600677D1*
X4246657Y597677D1*
X4245382Y594677D1*
X4244358Y591677D1*
X4243706Y588677D1*
X4243177Y585677D1*
X4242270Y582677D1*
X4240775Y579677D1*
X4239215Y576677D1*
X4238156Y573677D1*
X4237565Y570677D1*
X4237177Y567677D1*
X4231177D1*
X4230711Y564677D1*
X4229942Y561677D1*
X4229042Y558677D1*
X4228177Y555677D1*
X550177Y660677D2*
Y657677D1*
X540094Y654677D1*
X532307Y651677D1*
X525165Y648677D1*
X516935Y645677D1*
X505177D1*
Y642677D1*
X481552Y639677D1*
X457177Y636677D1*
Y633677D1*
Y630677D1*
X556177Y660677D2*
X558228Y657677D1*
X560014Y654677D1*
X561152Y651677D1*
X561739Y648677D1*
X562004Y645677D1*
X562116Y642677D1*
X562177Y639677D1*
X568177D1*
X568641Y636677D1*
X569385Y633677D1*
X570161Y630677D1*
X570689Y627677D1*
X570984Y624677D1*
X571177Y621677D1*
X577177D1*
X576238Y618677D1*
X574645Y615677D1*
X572663Y612677D1*
X570460Y609677D1*
X567498Y606677D1*
X563464Y603677D1*
X559284Y600677D1*
X555763Y597677D1*
X554305Y594677D1*
X553177Y591677D1*
X547177D1*
X544662Y588677D1*
X542132Y585677D1*
X540206Y582677D1*
X539015Y579677D1*
X538177Y576677D1*
X529177D1*
X525688Y573677D1*
X521214Y570677D1*
X515901Y567677D1*
X509716Y564677D1*
X503380Y561677D1*
X497762Y558677D1*
X495196Y555677D1*
X493177Y552677D1*
X478177D1*
Y549677D1*
X463177Y546677D1*
X409177Y636677D2*
Y633677D1*
Y630677D1*
X409189Y627677D1*
X409294Y624677D1*
X409677Y621677D1*
X410395Y618677D1*
X411164Y615677D1*
X411711Y612677D1*
X412200Y609677D1*
X413092Y606677D1*
X414582Y603677D1*
X416140Y600677D1*
X417194Y597677D1*
X417753Y594677D1*
X418009Y591677D1*
X418118Y588677D1*
X418177Y585677D1*
X424177D1*
X424189Y582677D1*
X424294Y579677D1*
X424677Y576677D1*
X425395Y573677D1*
X426165Y570677D1*
X426690Y567677D1*
X426984Y564677D1*
X427177Y561677D1*
X433177D1*
X433664Y558677D1*
X434637Y555677D1*
X436349Y552677D1*
X438971Y549677D1*
X442177Y546677D1*
X3877177Y576677D2*
Y573677D1*
Y570677D1*
Y567677D1*
X3871177D1*
X3870128Y564677D1*
X3869024Y561677D1*
X3867668Y558677D1*
X3865726Y555677D1*
X3863290Y552677D1*
X3860741Y549677D1*
X3858520Y546677D1*
X3856829Y543677D1*
X3855446Y540677D1*
X3854373Y537677D1*
X3853680Y534677D1*
X3853177Y531677D1*
X3847177D1*
X3846238Y528677D1*
X3844622Y525677D1*
X3842475Y522677D1*
X3839929Y519677D1*
X3837037Y516677D1*
X3834127Y513677D1*
X3831190Y510677D1*
X3828049Y507677D1*
X3824889Y504677D1*
X3821891Y501677D1*
X3819237Y498677D1*
X3817147Y495677D1*
X3815690Y492677D1*
X3814860Y489677D1*
X3814439Y486677D1*
X3814177Y483677D1*
X3808177D1*
X3805639Y480677D1*
X3802898Y477677D1*
X3800196Y474677D1*
X3797423Y471677D1*
X3794471Y468677D1*
X3791381Y465677D1*
X3788603Y462677D1*
X3786481Y459677D1*
X3786062Y456677D1*
X3788574Y453677D1*
X3790702Y450677D1*
X3792126Y447677D1*
X3793177Y444677D1*
X3802177D1*
X3805619Y441677D1*
X3809638Y438677D1*
X3813133Y435677D1*
X3815465Y432677D1*
X3817177Y429677D1*
X3825685D1*
X3832075Y426677D1*
X3838043Y423677D1*
X3842995Y420677D1*
X3847177Y417677D1*
X3883177Y576677D2*
X3886619Y573677D1*
X3890638Y570677D1*
X3894133Y567677D1*
X3896465Y564677D1*
X3898177Y561677D1*
X3913177D1*
Y558677D1*
Y555677D1*
Y552677D1*
Y549677D1*
Y546677D1*
Y543677D1*
Y540677D1*
Y537677D1*
Y534677D1*
Y531677D1*
X3907177D1*
Y528677D1*
Y525677D1*
Y522677D1*
X3907165Y519677D1*
X3907060Y516677D1*
X3906678Y513677D1*
X3905959Y510677D1*
X3905190Y507677D1*
X3904643Y504677D1*
X3904154Y501677D1*
X3903262Y498677D1*
X3901773Y495677D1*
X3900214Y492677D1*
X3899160Y489677D1*
X3898601Y486677D1*
X3898345Y483677D1*
X3898237Y480677D1*
X3898177Y477677D1*
X3892177D1*
X3891714Y474677D1*
X3890970Y471677D1*
X3890193Y468677D1*
X3889668Y465677D1*
X3889389Y462677D1*
X3889261Y459677D1*
X3889207Y456677D1*
X3889177Y453677D1*
X3883177D1*
X3882714Y450677D1*
X3881970Y447677D1*
X3881193Y444677D1*
X3880665Y441677D1*
X3880371Y438677D1*
X3880177Y435677D1*
X3874177D1*
X3872114Y432677D1*
X3870223Y429677D1*
X3868701Y426677D1*
X3867368Y423677D1*
X3866200Y420677D1*
X3865177Y417677D1*
X4033177Y570677D2*
X4027061Y567677D1*
X4020322Y564677D1*
X4013088Y561677D1*
X4007097Y558677D1*
X4002740Y555677D1*
X4001482Y552677D1*
X4001789Y549677D1*
X4002327Y546677D1*
X4002749Y543677D1*
X4002987Y540677D1*
X4003101Y537677D1*
X4003150Y534677D1*
X4003177Y531677D1*
X4009177D1*
X4010104Y528677D1*
X4011592Y525677D1*
X4013145Y522677D1*
X4014208Y519677D1*
X4014871Y516677D1*
X4015508Y513677D1*
X4016332Y510677D1*
X4017142Y507677D1*
X4017680Y504677D1*
X4017963Y501677D1*
X4018092Y498677D1*
X4018145Y495677D1*
X4018166Y492677D1*
X4018177Y489677D1*
X4024177D1*
Y486677D1*
Y483677D1*
Y480677D1*
Y477677D1*
X4024201Y474677D1*
X4024412Y471677D1*
X4024904Y468677D1*
X4026545Y465677D1*
X4028135Y462677D1*
X4029194Y459677D1*
X4029753Y456677D1*
X4030009Y453677D1*
X4030114Y450677D1*
X4030155Y447677D1*
X4030169Y444677D1*
X4030175Y441677D1*
X4030176Y438677D1*
X4030177Y435677D1*
Y432677D1*
Y429677D1*
Y426677D1*
Y423677D1*
Y420677D1*
Y417677D1*
Y414677D1*
Y411677D1*
Y408677D1*
Y405677D1*
Y402677D1*
X4045177Y570677D2*
X4048639Y567677D1*
X4051898Y564677D1*
X4055196Y561677D1*
X4058423Y558677D1*
X4061471Y555677D1*
X4064346Y552677D1*
X4067204Y549677D1*
X4070100Y546677D1*
X4072490Y543677D1*
X4074160Y540677D1*
X4075761Y537677D1*
X4077904Y534677D1*
X4080292Y531677D1*
X4082181Y528677D1*
X4083502Y525677D1*
X4084911Y522677D1*
X4086965Y519677D1*
X4089339Y516677D1*
X4091400Y513677D1*
X4093257Y510677D1*
X4095231Y507677D1*
X4097027Y504677D1*
X4098378Y501677D1*
X4099734Y498677D1*
X4101438Y495677D1*
X4103086Y492677D1*
X4104187Y489677D1*
X4104864Y486677D1*
X4105506Y483677D1*
X4106331Y480677D1*
X4107142Y477677D1*
X4107703Y474677D1*
X4108198Y471677D1*
X4109091Y468677D1*
X4110581Y465677D1*
X4112140Y462677D1*
X4113194Y459677D1*
X4113753Y456677D1*
X4114008Y453677D1*
X4114137Y450677D1*
X4114407Y447677D1*
X4114970Y444677D1*
X4117310Y441677D1*
X4120177Y438677D1*
X4114268Y435677D1*
X4109470Y432677D1*
X4104938Y429677D1*
X4100263D1*
X4095215Y426677D1*
X4090001Y423677D1*
X4085807Y420677D1*
X4083115Y417677D1*
X4081177Y414677D1*
X4066177D1*
Y411677D1*
X4051177Y408677D1*
X4036177Y405677D1*
Y402677D1*
X652177Y558677D2*
X651152Y555677D1*
X650259Y552677D1*
X649688Y549677D1*
X649378Y546677D1*
X649177Y543677D1*
X643177D1*
X643154Y540677D1*
X642943Y537677D1*
X642451Y534677D1*
X640809Y531677D1*
X639208Y528677D1*
X638020Y525677D1*
X636867Y522677D1*
X635129Y519677D1*
X632805Y516677D1*
X630598Y513677D1*
X628853Y510677D1*
X627234Y507677D1*
X625392Y504677D1*
X623305Y501677D1*
X621440Y498677D1*
X620245Y495677D1*
X619596Y492677D1*
X619177Y489677D1*
X613177D1*
X611900Y486677D1*
X610027Y483677D1*
X607244Y480677D1*
X603869Y477677D1*
X600746Y474677D1*
X598159Y471677D1*
X595793Y468677D1*
X593442Y465677D1*
X591231Y462677D1*
X588921Y459677D1*
X585696Y456677D1*
X581615Y453677D1*
X577716Y450677D1*
X574394Y447677D1*
X570885Y444677D1*
X566613Y441677D1*
X562339Y438677D1*
X558772Y435677D1*
X557309Y432677D1*
X556177Y429677D1*
X562857D1*
X568590Y426677D1*
X574141Y423677D1*
X579071Y420677D1*
X581365Y417677D1*
X583177Y414677D1*
X598177D1*
Y411677D1*
X613177Y408677D1*
X628177Y405677D1*
Y402677D1*
X658177Y399677D1*
X664177Y558677D2*
Y555677D1*
Y552677D1*
X733177D2*
Y549677D1*
Y546677D1*
Y543677D1*
Y540677D1*
Y537677D1*
Y534677D1*
Y531677D1*
Y528677D1*
Y525677D1*
Y522677D1*
Y519677D1*
Y516677D1*
Y513677D1*
X733165Y510677D1*
X733060Y507677D1*
X732678Y504677D1*
X731959Y501677D1*
X731190Y498677D1*
X730667Y495677D1*
X730389Y492677D1*
X730261Y489677D1*
X730185Y486677D1*
X729954Y483677D1*
X729452Y480677D1*
X727810Y477677D1*
X726220Y474677D1*
X725161Y471677D1*
X724601Y468677D1*
X724345Y465677D1*
X724237Y462677D1*
X724177Y459677D1*
X718177D1*
X718165Y456677D1*
X718060Y453677D1*
X717678Y450677D1*
X716959Y447677D1*
X716190Y444677D1*
X715664Y441677D1*
X715371Y438677D1*
X715177Y435677D1*
X709177D1*
Y432677D1*
Y429677D1*
Y426677D1*
Y423677D1*
X703177D1*
X702714Y420677D1*
X701970Y417677D1*
X701193Y414677D1*
X700665Y411677D1*
X700371Y408677D1*
X700177Y405677D1*
X694177D1*
Y402677D1*
Y399677D1*
X1679936Y2267013D2*
D68*
X1675182Y2264636D1*
X1670374Y2259828D1*
X1667997Y2255074D1*
Y2245513D1*
X1670374Y2240704D1*
X1675182Y2235951D1*
X1679936Y2233519D1*
X1687121Y2231143D1*
X1699114D1*
X1706244Y2233519D1*
X1711052Y2235951D1*
X1715806Y2240704D1*
X1718237Y2245513D1*
Y2255074D1*
X1715806Y2259828D1*
X1711052Y2264636D1*
X1706244Y2267013D1*
X1677614Y2282452D2*
X1675183Y2287260D1*
X1668053Y2294445D1*
X1718237D1*
X2009852Y2302878D2*
X2005099Y2300502D1*
X2000291Y2295693D1*
X1997914Y2290940D1*
Y2281378D1*
X2000291Y2276570D1*
X2005099Y2271817D1*
X2009852Y2269385D1*
X2017037Y2267008D1*
X2029031D1*
X2036161Y2269385D1*
X2040969Y2271817D1*
X2045722Y2276570D1*
X2048154Y2281378D1*
Y2290940D1*
X2045722Y2295693D1*
X2040969Y2300502D1*
X2036161Y2302878D1*
X2009908Y2320749D2*
X2007531D1*
X2002723Y2323126D1*
X2000346Y2325502D1*
X1997969Y2330311D1*
Y2339873D1*
X2000346Y2344626D1*
X2002723Y2347002D1*
X2007531Y2349434D1*
X2012284D1*
X2017093Y2347002D1*
X2024222Y2342249D1*
X2048154Y2318317D1*
Y2351811D1*
X2148976Y2678508D2*
X2144223Y2676132D1*
X2139414Y2671323D1*
X2137037Y2666570D1*
Y2657008D1*
X2139414Y2652200D1*
X2144222Y2647447D1*
X2148976Y2645015D1*
X2156161Y2642638D1*
X2168154D1*
X2175284Y2645015D1*
X2180092Y2647447D1*
X2184846Y2652200D1*
X2187278Y2657008D1*
Y2666570D1*
X2184846Y2671323D1*
X2180092Y2676132D1*
X2175284Y2678508D1*
X2137093Y2698756D2*
Y2725009D1*
X2156216Y2710694D1*
Y2717879D1*
X2158593Y2722632D1*
X2160969Y2725009D1*
X2168154Y2727441D1*
X2172907D1*
X2180092Y2725009D1*
X2184901Y2720256D1*
X2187277Y2713071D1*
Y2705886D1*
X2184901Y2698756D1*
X2182469Y2696379D1*
X2177716Y2693947D1*
X2147007Y2777714D2*
X2142254Y2775337D1*
X2137446Y2770529D1*
X2135069Y2765775D1*
Y2756214D1*
X2137446Y2751405D1*
X2142254Y2746652D1*
X2147007Y2744220D1*
X2154192Y2741844D1*
X2166186D1*
X2173315Y2744220D1*
X2178124Y2746652D1*
X2182877Y2751405D1*
X2185309Y2756214D1*
Y2765775D1*
X2182877Y2770528D1*
X2178124Y2775337D1*
X2173316Y2777714D1*
X2185309Y2817084D2*
X2135124D1*
X2168562Y2793153D1*
Y2829023D1*
X2273114Y1915378D2*
X2268361Y1913002D1*
X2263553Y1908193D1*
X2261176Y1903440D1*
Y1893878D1*
X2263552Y1889070D1*
X2268361Y1884317D1*
X2273114Y1881885D1*
X2280299Y1879508D1*
X2292293D1*
X2299422Y1881885D1*
X2304231Y1884317D1*
X2308984Y1889070D1*
X2311416Y1893878D1*
Y1903440D1*
X2308984Y1908193D1*
X2304231Y1913002D1*
X2299422Y1915378D1*
X2261231Y1959502D2*
Y1935626D1*
X2282731Y1933249D1*
X2280354Y1935626D1*
X2277923Y1942811D1*
Y1949941D1*
X2280354Y1957126D1*
X2285108Y1961934D1*
X2292293Y1964311D1*
X2297046D1*
X2304231Y1961934D1*
X2309039Y1957126D1*
X2311416Y1949941D1*
Y1942811D1*
X2309039Y1935626D1*
X2306607Y1933249D1*
X2301854Y1930817D1*
X2602362Y2619356D2*
X2599985Y2624109D1*
X2595177Y2628917D1*
X2590424Y2631294D1*
X2580862D1*
X2576053Y2628917D1*
X2571300Y2624109D1*
X2568868Y2619356D1*
X2566492Y2612171D1*
Y2600177D1*
X2568868Y2593047D1*
X2571300Y2588239D1*
X2576053Y2583486D1*
X2580862Y2581054D1*
X2590424D1*
X2595177Y2583486D1*
X2599985Y2588239D1*
X2602362Y2593047D1*
X2646486Y2624109D2*
X2644109Y2628862D1*
X2636924Y2631239D1*
X2632171D1*
X2624986Y2628862D1*
X2620178Y2621677D1*
X2617801Y2609739D1*
Y2597801D1*
X2620178Y2588239D1*
X2624986Y2583431D1*
X2632171Y2581054D1*
X2634548D1*
X2641677Y2583431D1*
X2646486Y2588239D1*
X2648862Y2595424D1*
Y2597801D1*
X2646486Y2604986D1*
X2641677Y2609739D1*
X2634548Y2612115D1*
X2632171D1*
X2624986Y2609739D1*
X2620178Y2604986D1*
X2617801Y2597801D1*
X427061Y708792D2*
Y658552D1*
X443807D1*
X450992Y660984D1*
X455801Y665737D1*
X458177Y670545D1*
X460554Y677675D1*
Y689669D1*
X458177Y696854D1*
X455801Y701607D1*
X450992Y706415D1*
X443807Y708792D1*
X427061D1*
X475993Y699175D2*
X480802Y701607D1*
X487987Y708737D1*
Y658552D1*
X3935061Y511438D2*
Y461198D1*
X3951808D1*
X3958993Y463629D1*
X3963801Y468383D1*
X3966178Y473191D1*
X3968555Y480321D1*
Y492314D1*
X3966178Y499499D1*
X3963801Y504253D1*
X3958993Y509061D1*
X3951808Y511438D1*
X3935061D1*
X3986426Y499444D2*
Y501821D1*
X3988802Y506629D1*
X3991179Y509006D1*
X3995987Y511382D1*
X4005549D1*
X4010302Y509006D1*
X4012679Y506629D1*
X4015111Y501821D1*
Y497068D1*
X4012679Y492259D1*
X4007926Y485129D1*
X3983994Y461198D1*
X4017487D1*
X4151165Y3992688D2*
Y3942448D1*
X4167912D1*
X4175097Y3944880D1*
X4179905Y3949633D1*
X4182282Y3954442D1*
X4184658Y3961572D1*
Y3973565D1*
X4182282Y3980750D1*
X4179905Y3985503D1*
X4175097Y3990312D1*
X4167912Y3992688D1*
X4151165D1*
X4204906Y3992633D2*
X4231159D1*
X4216844Y3973510D1*
X4224029D1*
X4228782Y3971133D1*
X4231159Y3968757D1*
X4233591Y3961572D1*
Y3956818D1*
X4231159Y3949633D1*
X4226406Y3944825D1*
X4219221Y3942448D1*
X4212036D1*
X4204906Y3944825D1*
X4202529Y3947257D1*
X4200098Y3952010D1*
X662477Y4240041D2*
Y4189801D1*
X679223D1*
X686408Y4192233D1*
X691217Y4196986D1*
X693593Y4201795D1*
X695970Y4208925D1*
Y4220918D1*
X693593Y4228103D1*
X691217Y4232856D1*
X686408Y4237665D1*
X679223Y4240041D1*
X662477D1*
X735341Y4189801D2*
Y4239986D1*
X711409Y4206548D1*
X747279D1*
X1886152Y2549078D2*
X1936392D1*
X1895769Y2564517D2*
X1893337Y2569325D1*
X1886207Y2576510D1*
X1936392D1*
X2980533Y2598420D2*
Y2560173D1*
X2978156Y2552988D1*
X2975725Y2550612D1*
X2970971Y2548180D1*
X2966163D1*
X2961410Y2550612D1*
X2959033Y2552988D1*
X2956601Y2560173D1*
Y2564927D1*
X2995972Y2588803D2*
X3000781Y2591235D1*
X3007966Y2598365D1*
Y2548180D1*
X2105886Y2395177D2*
X2144132D1*
X2151317Y2392800D1*
X2153694Y2390368D1*
X2156126Y2385615D1*
Y2380807D1*
X2153694Y2376054D1*
X2151317Y2373677D1*
X2144132Y2371245D1*
X2139379D1*
X2117879Y2413048D2*
X2115503D1*
X2110694Y2415425D1*
X2108318Y2417801D1*
X2105941Y2422610D1*
Y2432171D1*
X2108318Y2436924D1*
X2110694Y2439301D1*
X2115503Y2441733D1*
X2120256D1*
X2125064Y2439301D1*
X2132194Y2434548D1*
X2156126Y2410616D1*
Y2444109D1*
X2423961Y2427214D2*
Y2448714D1*
X2421529Y2455899D1*
X2419153Y2458331D1*
X2414400Y2460708D1*
X2409591D1*
X2404838Y2458331D1*
X2402406Y2455899D1*
X2400030Y2448714D1*
Y2427214D1*
X2450270D1*
X2423961Y2443961D2*
X2450270Y2460707D1*
X2409647Y2476147D2*
X2407215Y2480955D1*
X2400085Y2488140D1*
X2450270D1*
X2423961Y2497714D2*
Y2519214D1*
X2421529Y2526399D1*
X2419153Y2528830D1*
X2414400Y2531207D1*
X2409591D1*
X2404838Y2528830D1*
X2402406Y2526399D1*
X2400030Y2519214D1*
Y2497714D1*
X2450270D1*
X2423961Y2514460D2*
X2450270Y2531207D1*
X2412023Y2549078D2*
X2409647D1*
X2404838Y2551455D1*
X2402461Y2553831D1*
X2400085Y2558640D1*
Y2568201D1*
X2402461Y2572954D1*
X2404838Y2575331D1*
X2409647Y2577763D1*
X2414400D1*
X2419208Y2575331D1*
X2426338Y2570578D1*
X2450270Y2546646D1*
Y2580139D1*
X1879063Y1736496D2*
X1900562D1*
X1907748Y1738928D1*
X1910179Y1741305D1*
X1912556Y1746058D1*
Y1750866D1*
X1910179Y1755619D1*
X1907748Y1758051D1*
X1900562Y1760428D1*
X1879063D1*
Y1710188D1*
X1895809Y1736496D2*
X1912556Y1710188D1*
X1932804Y1760373D2*
X1959057D1*
X1944742Y1741249D1*
X1951927D1*
X1956680Y1738873D1*
X1959057Y1736496D1*
X1961489Y1729311D1*
Y1724558D1*
X1959057Y1717373D1*
X1954304Y1712564D1*
X1947118Y1710188D1*
X1939933D1*
X1932804Y1712564D1*
X1930427Y1714996D1*
X1927995Y1719749D1*
X2928858Y1840374D2*
Y1861874D1*
X2926426Y1869059D1*
X2924050Y1871491D1*
X2919297Y1873868D1*
X2914488D1*
X2909735Y1871491D1*
X2907303Y1869059D1*
X2904927Y1861874D1*
Y1840374D1*
X2955167D1*
X2928858Y1857121D2*
X2955167Y1873868D1*
Y1913239D2*
X2904982D1*
X2938420Y1889307D1*
Y1925177D1*
X2710116Y2931009D2*
X2731616D1*
X2738801Y2933440D1*
X2741233Y2935817D1*
X2743610Y2940570D1*
Y2945379D1*
X2741233Y2950132D1*
X2738801Y2952564D1*
X2731616Y2954940D1*
X2710116D1*
Y2904700D1*
X2726863Y2931009D2*
X2743610Y2904700D1*
X2787734Y2954885D2*
X2763857D1*
X2761481Y2933385D1*
X2763857Y2935762D1*
X2771043Y2938194D1*
X2778172D1*
X2785357Y2935762D1*
X2790166Y2931009D1*
X2792542Y2923824D1*
Y2919070D1*
X2790166Y2911885D1*
X2785357Y2907077D1*
X2778172Y2904700D1*
X2771043D1*
X2763857Y2907077D1*
X2761481Y2909509D1*
X2759049Y2914262D1*
X1734344Y2736332D2*
X1734345Y2757832D1*
X1731913Y2765017D1*
X1729536Y2767449D1*
X1724783Y2769826D1*
X1719974D1*
X1715221Y2767449D1*
X1712789Y2765017D1*
X1710413Y2757832D1*
Y2736332D1*
X1760653D1*
X1734345Y2753079D2*
X1760653Y2769826D1*
X1717598Y2813950D2*
X1712845Y2811573D1*
X1710468Y2804388D1*
Y2799635D1*
X1712845Y2792450D1*
X1720030Y2787642D1*
X1731968Y2785265D1*
X1743906D1*
X1753468Y2787642D1*
X1758276Y2792450D1*
X1760653Y2799635D1*
Y2802012D1*
X1758276Y2809141D1*
X1753468Y2813950D1*
X1746283Y2816326D1*
X1743906D1*
X1736721Y2813950D1*
X1731968Y2809141D1*
X1729591Y2802012D1*
Y2799635D1*
X1731968Y2792450D1*
X1736721Y2787642D1*
X1743906Y2785265D1*
X2666464Y2607559D2*
X2687964D1*
X2695149Y2609991D1*
X2697581Y2612368D1*
X2699958Y2617121D1*
Y2621929D1*
X2697581Y2626682D1*
X2695149Y2629114D1*
X2687964Y2631491D1*
X2666464D1*
Y2581251D1*
X2683211Y2607559D2*
X2699958Y2581251D1*
X2724958D2*
X2748890Y2631436D1*
X2715397D1*
X1750357Y1891905D2*
Y1841665D1*
X1733610Y1891905D2*
X1767104D1*
X1782543Y1882289D2*
X1787351Y1884720D1*
X1794537Y1891850D1*
Y1841665D1*
X2773449Y1739607D2*
X2823689D1*
X2773449Y1722861D2*
Y1756354D1*
X2785442Y1774225D2*
X2783066D1*
X2778257Y1776602D1*
X2775881Y1778978D1*
X2773504Y1783787D1*
Y1793348D1*
X2775881Y1798101D1*
X2778257Y1800478D1*
X2783066Y1802910D1*
X2787819D1*
X2792627Y1800478D1*
X2799757Y1795725D1*
X2823689Y1771793D1*
Y1805286D1*
X2876815Y3038010D2*
Y2987770D1*
X2860068Y3038010D2*
X2893561D1*
X2913809Y3037955D2*
X2940062D1*
X2925747Y3018832D1*
X2932932D1*
X2937685Y3016455D1*
X2940062Y3014079D1*
X2942494Y3006894D1*
Y3002141D1*
X2940062Y2994956D1*
X2935309Y2990147D1*
X2928124Y2987770D1*
X2920939D1*
X2913809Y2990147D1*
X2911432Y2992579D1*
X2909000Y2997332D1*
X1724128Y3051535D2*
Y3001295D1*
X1707381Y3051535D2*
X1740874D1*
X1780245Y3001295D2*
Y3051480D1*
X1756313Y3018042D1*
X1792183D1*
X2104258Y2209571D2*
Y2159331D1*
X2087511Y2209571D2*
X2121005D1*
X2165129Y2209516D2*
X2141252D1*
X2138876Y2188016D1*
X2141252Y2190392D1*
X2148438Y2192824D1*
X2155567D1*
X2162752Y2190392D1*
X2167561Y2185639D1*
X2169937Y2178454D1*
Y2173701D1*
X2167561Y2166516D1*
X2162752Y2161707D1*
X2155567Y2159331D1*
X2148438D1*
X2141252Y2161707D1*
X2138876Y2164139D1*
X2136444Y2168892D1*
X2660463Y2144515D2*
X2696333D1*
X2703518Y2146891D1*
X2708271Y2151700D1*
X2710703Y2158885D1*
Y2163638D1*
X2708271Y2170823D1*
X2703518Y2175631D1*
X2696333Y2178008D1*
X2660463D1*
X2670080Y2193447D2*
X2667648Y2198256D1*
X2660518Y2205441D1*
X2710703D1*
X2135522Y2518630D2*
X2171392D1*
X2178577Y2521006D1*
X2183330Y2525815D1*
X2185762Y2533000D1*
Y2537753D1*
X2183330Y2544938D1*
X2178577Y2549746D1*
X2171392Y2552123D1*
X2135522D1*
X2147515Y2569994D2*
X2145139D1*
X2140330Y2572371D1*
X2137954Y2574747D1*
X2135577Y2579556D1*
Y2589117D1*
X2137954Y2593870D1*
X2140330Y2596247D1*
X2145139Y2598679D1*
X2149892D1*
X2154700Y2596247D1*
X2161830Y2591494D1*
X2185762Y2567562D1*
Y2601055D1*
X2229497Y2935010D2*
Y2899140D1*
X2231874Y2891955D1*
X2236683Y2887202D1*
X2243868Y2884770D1*
X2248621D1*
X2255806Y2887202D1*
X2260614Y2891955D1*
X2262991Y2899140D1*
Y2935010D1*
X2316732Y2884770D2*
X2297553Y2935010D1*
X2278430Y2884770D1*
X2285615Y2901516D2*
X2309547D1*
X2332171Y2911078D2*
X2353671D1*
X2360856Y2913510D1*
X2363288Y2915887D1*
X2365664Y2920640D1*
Y2925448D1*
X2363288Y2930201D1*
X2360856Y2932633D1*
X2353671Y2935010D1*
X2332171D1*
Y2884770D1*
X2348918Y2911078D2*
X2365664Y2884770D1*
X2397850Y2935010D2*
Y2884770D1*
X2381104Y2935010D2*
X2414597D1*
X1688186Y2070837D2*
X1707309Y2020597D1*
X1726433Y2070837D1*
X1741872D2*
Y2020597D1*
X1763427D1*
X1770612Y2023028D1*
X1772989Y2025405D1*
X1775365Y2030158D1*
Y2037343D1*
X1772989Y2042152D1*
X1770612Y2044528D1*
X1763427Y2046905D1*
X1770612Y2049337D1*
X1772989Y2051713D1*
X1775365Y2056467D1*
Y2061275D1*
X1772989Y2066028D1*
X1770612Y2068460D1*
X1763427Y2070837D1*
X1741872D1*
Y2046905D2*
X1763427D1*
X1829106Y2020597D2*
X1809928Y2070837D1*
X1790804Y2020597D1*
X1797989Y2037343D2*
X1821921D1*
X1861292Y2070837D2*
Y2020597D1*
X1844545Y2070837D2*
X1878039D1*
X1910225D2*
Y2020597D1*
X1893478Y2070837D2*
X1926971D1*
X1670987Y2318584D2*
X1721227Y2337708D1*
X1670987Y2356831D1*
X1694919Y2372270D2*
Y2393770D1*
X1692487Y2400955D1*
X1690110Y2403387D1*
X1685357Y2405763D1*
X1680549D1*
X1675795Y2403387D1*
X1673364Y2400955D1*
X1670987Y2393770D1*
Y2372270D1*
X1721227D1*
X1694919Y2389017D2*
X1721227Y2405763D1*
X1670987Y2452264D2*
Y2421203D1*
X1721227D1*
Y2452264D1*
X1694919Y2421203D2*
Y2440326D1*
X1682925Y2503573D2*
X1678172Y2501197D1*
X1673364Y2496388D1*
X1670987Y2491635D1*
Y2482073D1*
X1673364Y2477265D1*
X1678172Y2472512D1*
X1682925Y2470080D1*
X1690110Y2467703D1*
X1702104D1*
X1709233Y2470080D1*
X1714042Y2472512D1*
X1718795Y2477265D1*
X1721227Y2482073D1*
Y2491635D1*
X1718795Y2496388D1*
X1714042Y2501197D1*
X1709233Y2503573D1*
X1702104D1*
Y2491635D1*
X2152424Y2999989D2*
D69*
X2178224D1*
X2186846Y3002907D1*
X2189765Y3005759D1*
X2192616Y3011463D1*
Y3017233D1*
X2189765Y3022937D1*
X2186846Y3025855D1*
X2178224Y3028707D1*
X2152424D1*
Y2968419D1*
X2172520Y2999989D2*
X2192616Y2968419D1*
X2467796Y3028707D2*
Y2968419D1*
X2447700Y3028707D2*
X2487892D1*
X2786020Y2404145D2*
X2783168Y2409849D1*
X2777397Y2415619D1*
X2771694Y2418471D1*
X2760220D1*
X2754450Y2415619D1*
X2748746Y2409849D1*
X2745828Y2404145D1*
X2742976Y2395523D1*
Y2381131D1*
X2745828Y2372575D1*
X2748746Y2366805D1*
X2754450Y2361101D1*
X2760220Y2358183D1*
X2771694D1*
X2777397Y2361101D1*
X2783168Y2366805D1*
X2786020Y2372575D1*
Y2381131D1*
X2771694D1*
X2844739Y2418471D2*
Y2358183D1*
X2804547Y2418471D1*
Y2358183D1*
X2863266Y2418471D2*
Y2358183D1*
X2883362D1*
X2891984Y2361101D1*
X2897754Y2366805D1*
X2900606Y2372575D1*
X2903458Y2381131D1*
Y2395523D1*
X2900606Y2404145D1*
X2897754Y2409849D1*
X2891984Y2415619D1*
X2883362Y2418471D1*
X2863266D1*
X2788116Y2516830D2*
X2819619D1*
X2802442Y2493882D1*
X2811064D1*
X2816768Y2491030D1*
X2819619Y2488178D1*
X2822538Y2479556D1*
Y2473852D1*
X2819619Y2465230D1*
X2813916Y2459460D1*
X2805294Y2456608D1*
X2796672D1*
X2788116Y2459460D1*
X2785264Y2462378D1*
X2782346Y2468082D1*
X2843917Y2462378D2*
X2841065Y2459460D1*
X2843917Y2456608D1*
X2846835Y2459460D1*
X2843917Y2462378D1*
X2871132Y2516830D2*
X2902636D1*
X2885458Y2493882D1*
X2894080D1*
X2899784Y2491030D1*
X2902636Y2488178D1*
X2905554Y2479556D1*
Y2473852D1*
X2902636Y2465230D1*
X2896932Y2459460D1*
X2888310Y2456608D1*
X2879688D1*
X2871132Y2459460D1*
X2868280Y2462378D1*
X2865362Y2468082D1*
X2742976Y2271643D2*
X2768775D1*
X2777397Y2274561D1*
X2780316Y2277413D1*
X2783168Y2283117D1*
Y2288887D1*
X2780316Y2294591D1*
X2777397Y2297509D1*
X2768775Y2300361D1*
X2742976D1*
Y2240073D1*
X2763072Y2271643D2*
X2783168Y2240073D1*
X2841887Y2291739D2*
X2836183Y2297509D1*
X2827561Y2300361D1*
X2816087D1*
X2807465Y2297509D1*
X2801695Y2291739D1*
Y2286035D1*
X2804613Y2280265D1*
X2807465Y2277413D1*
X2813169Y2274561D1*
X2830413Y2268791D1*
X2836183Y2265939D1*
X2839035Y2263021D1*
X2841887Y2257317D1*
Y2248695D1*
X2836183Y2242991D1*
X2827561Y2240073D1*
X2816087D1*
X2807465Y2242991D1*
X2801695Y2248695D1*
X2880510Y2300361D2*
Y2240073D1*
X2860414Y2300361D2*
X2900606D1*
X2763072Y2201936D2*
Y2141648D1*
X2742976Y2201936D2*
X2783168D1*
X2841887Y2193314D2*
X2836183Y2199084D1*
X2827561Y2201936D1*
X2816087D1*
X2807465Y2199084D1*
X2801695Y2193314D1*
Y2187610D1*
X2804613Y2181840D1*
X2807465Y2178988D1*
X2813169Y2176136D1*
X2830413Y2170366D1*
X2836183Y2167514D1*
X2839035Y2164596D1*
X2841887Y2158892D1*
Y2150270D1*
X2836183Y2144566D1*
X2827561Y2141648D1*
X2816087D1*
X2807465Y2144566D1*
X2801695Y2150270D1*
X2880510Y2201936D2*
Y2141648D1*
X2860414Y2201936D2*
X2900606D1*
M02*
